<svg width="298" height="308" viewBox="0 0 298 308" fill="none" xmlns="http://www.w3.org/2000/svg">
<path d="M290.193 217.916L180.723 283.486L99.5605 234.788L210.975 170.965L290.193 217.916Z" fill="#DFE2EA"/>
<path d="M295.641 205.274L217.061 159.528C212.45 156.761 209.145 164.701 211.343 171.149L290.192 217.818C288.797 212.213 287.398 205.447 295.641 205.274Z" fill="#9EA5B5"/>
<path d="M180.781 293.446V283.486L99.998 234.991V246.557L180.781 293.446Z" fill="#72798A"/>
<path d="M180.725 293.446V283.485L290.564 217.559V227.292L180.725 293.446Z" fill="#8C95A9"/>
<path d="M296.381 218.002C297.349 214.128 299.886 204.721 293.614 204.721C289.889 204.721 286.605 210.808 290.387 218.002C290.545 222.409 290.294 227.225 290.294 227.225C290.294 227.225 295.413 221.876 296.381 218.002Z" fill="#38405B"/>
<path d="M79.2695 275.03L137.19 307.496L132.763 300.486L75.9492 267.099L79.2695 275.03Z" fill="#7B8295"/>
<path d="M132.763 300.485L137.19 292.184L80.3763 259.166L75.9492 267.098L132.763 300.485Z" fill="#949BAC"/>
<path d="M137.191 292.185L144.2 289.418L86.8394 255.447L80.377 259.351L137.191 292.185Z" fill="#ABB4C7"/>
<path d="M88.3088 263.964L94.396 259.906L86.8331 255.479L80.377 259.168L88.3088 263.964Z" fill="#404862"/>
<path d="M84.6189 272.263L88.3081 263.962L80.3763 259.166L75.9492 267.098L84.6189 272.263Z" fill="#5B6278"/>
<path d="M84.6189 272.264L85.1723 278.351L79.085 275.03L75.9492 267.099L84.6189 272.264Z" fill="#38405B"/>
<path d="M157.773 307.495L144.2 289.418L137.19 292.185L132.75 300.489L137.254 307.495H157.773Z" fill="#DFE2EA"/>
<path d="M149.549 307.496C149.054 304.316 149.615 302.789 152.501 300.671L157.666 307.496H149.549Z" fill="#38405B"/>
<path d="M139.668 242.166L181.725 267.253" stroke="#38405B" stroke-width="1.10676" stroke-linecap="round"/>
<path d="M147.416 238.477L189.473 263.563" stroke="#38405B" stroke-width="1.10676" stroke-linecap="round"/>
<path d="M143.725 240.32L185.782 265.407" stroke="#38405B" stroke-width="1.10676" stroke-linecap="round"/>
<path d="M134.162 239.73L122.799 232.964L134.162 226.302L145.783 233.016L134.162 239.73Z" fill="#CACED9"/>
<path d="M134.162 241.796V239.73L145.783 232.99V234.901L134.162 241.796Z" fill="#B6BCCC"/>
<path d="M134.162 241.797V239.731L122.799 232.965V234.928L134.162 241.797Z" fill="#B2B6C1"/>
<path d="M128.844 236.269V235.236L144.235 232.447V233.48L128.844 236.269Z" fill="#6C7490"/>
<path d="M142.48 231.363L130.601 233.584L130.807 229.193L129.206 228.264L128.896 235.236L144.288 232.447L142.48 231.363Z" fill="#38405B"/>
<path d="M164.756 227.779L206.813 252.866" stroke="#38405B" stroke-width="1.10676" stroke-linecap="round"/>
<path d="M172.504 224.09L214.561 249.176" stroke="#38405B" stroke-width="1.10676" stroke-linecap="round"/>
<path d="M168.812 225.935L210.87 251.021" stroke="#38405B" stroke-width="1.10676" stroke-linecap="round"/>
<path d="M159.251 225.344L147.889 218.578L159.251 211.915L170.872 218.629L159.251 225.344Z" fill="#CACED9"/>
<path d="M159.252 227.409V225.343L170.873 218.603V220.514L159.252 227.409Z" fill="#B6BCCC"/>
<path d="M159.252 227.411V225.345L147.889 218.579V220.542L159.252 227.411Z" fill="#B2B6C1"/>
<path d="M153.932 221.884V220.851L169.323 218.062V219.095L153.932 221.884Z" fill="#6C7490"/>
<path d="M167.568 216.977L155.689 219.198L155.895 214.808L154.294 213.878L153.984 220.851L169.376 218.061L167.568 216.977Z" fill="#38405B"/>
<path d="M189.104 213.022L231.161 238.109" stroke="#38405B" stroke-width="1.10676" stroke-linecap="round"/>
<path d="M196.852 209.333L238.909 234.42" stroke="#38405B" stroke-width="1.10676" stroke-linecap="round"/>
<path d="M193.16 211.177L235.217 236.263" stroke="#38405B" stroke-width="1.10676" stroke-linecap="round"/>
<path d="M183.601 210.587L172.238 203.821L183.601 197.158L195.222 203.873L183.601 210.587Z" fill="#CACED9"/>
<path d="M183.602 212.652V210.586L195.223 203.846V205.757L183.602 212.652Z" fill="#B6BCCC"/>
<path d="M183.602 212.654V210.588L172.239 203.822V205.785L183.602 212.654Z" fill="#B2B6C1"/>
<path d="M178.283 207.127V206.094L193.675 203.305V204.338L178.283 207.127Z" fill="#6C7490"/>
<path d="M191.92 202.22L180.04 204.441L180.247 200.051L178.646 199.121L178.336 206.094L193.727 203.305L191.92 202.22Z" fill="#38405B"/>
<path d="M213.453 198.265L255.51 223.351" stroke="#38405B" stroke-width="1.10676" stroke-linecap="round"/>
<path d="M221.201 194.575L263.258 219.662" stroke="#38405B" stroke-width="1.10676" stroke-linecap="round"/>
<path d="M217.512 196.419L259.569 221.506" stroke="#38405B" stroke-width="1.10676" stroke-linecap="round"/>
<path d="M207.947 195.829L196.584 189.063L207.947 182.4L219.568 189.115L207.947 195.829Z" fill="#CACED9"/>
<path d="M207.947 197.894V195.828L219.568 189.088V190.999L207.947 197.894Z" fill="#B6BCCC"/>
<path d="M207.947 197.895V195.829L196.584 189.063V191.026L207.947 197.895Z" fill="#B2B6C1"/>
<path d="M202.629 192.369V191.336L218.02 188.547V189.58L202.629 192.369Z" fill="#6C7490"/>
<path d="M216.265 187.462L204.386 189.683L204.593 185.293L202.992 184.363L202.682 191.336L218.073 188.547L216.265 187.462Z" fill="#38405B"/>
<path d="M139.672 242.166L181.729 267.253" stroke="#38405B" stroke-width="1.10676" stroke-linecap="round"/>
<path d="M147.42 238.477L189.477 263.563" stroke="#38405B" stroke-width="1.10676" stroke-linecap="round"/>
<path d="M143.729 240.32L185.786 265.407" stroke="#38405B" stroke-width="1.10676" stroke-linecap="round"/>
<path d="M134.164 239.731L122.801 232.965L134.164 226.303L145.785 233.017L134.164 239.731Z" fill="#CACED9"/>
<path d="M134.164 241.797V239.731L145.785 232.991V234.902L134.164 241.797Z" fill="#B6BCCC"/>
<path d="M134.164 241.798V239.732L122.801 232.966V234.928L134.164 241.798Z" fill="#B2B6C1"/>
<path d="M128.844 236.27V235.237L144.235 232.448V233.481L128.844 236.27Z" fill="#6C7490"/>
<path d="M142.48 231.364L130.601 233.584L130.807 229.194L129.206 228.265L128.896 235.237L144.288 232.448L142.48 231.364Z" fill="#38405B"/>
<path d="M139.668 242.166L181.725 267.253" stroke="#38405B" stroke-width="1.10676" stroke-linecap="round"/>
<path d="M147.416 238.477L189.473 263.563" stroke="#38405B" stroke-width="1.10676" stroke-linecap="round"/>
<path d="M143.725 240.32L185.782 265.407" stroke="#38405B" stroke-width="1.10676" stroke-linecap="round"/>
<path d="M134.16 239.73L122.797 232.964L134.16 226.302L145.781 233.016L134.16 239.73Z" fill="#CACED9"/>
<path d="M134.16 241.795V239.729L145.781 232.989V234.9L134.16 241.795Z" fill="#B6BCCC"/>
<path d="M134.16 241.798V239.732L122.797 232.966V234.928L134.16 241.798Z" fill="#B2B6C1"/>
<path d="M128.842 236.27V235.237L144.233 232.448V233.481L128.842 236.27Z" fill="#6C7490"/>
<path d="M142.478 231.364L130.599 233.584L130.806 229.194L129.204 228.265L128.895 235.237L144.286 232.448L142.478 231.364Z" fill="#38405B"/>
<path d="M139.664 242.166L181.721 267.253" stroke="#38405B" stroke-width="1.10676" stroke-linecap="round"/>
<path d="M147.412 238.477L189.469 263.563" stroke="#38405B" stroke-width="1.10676" stroke-linecap="round"/>
<path d="M143.721 240.32L185.778 265.407" stroke="#38405B" stroke-width="1.10676" stroke-linecap="round"/>
<path d="M134.16 239.73L122.797 232.964L134.16 226.302L145.781 233.016L134.16 239.73Z" fill="#CACED9"/>
<path d="M134.16 241.795V239.729L145.781 232.989V234.9L134.16 241.795Z" fill="#B6BCCC"/>
<path d="M134.16 241.798V239.732L122.797 232.966V234.928L134.16 241.798Z" fill="#B2B6C1"/>
<path d="M128.842 236.27V235.237L144.233 232.448V233.481L128.842 236.27Z" fill="#6C7490"/>
<path d="M142.478 231.364L130.599 233.584L130.806 229.194L129.204 228.265L128.895 235.237L144.286 232.448L142.478 231.364Z" fill="#38405B"/>
<ellipse cx="91.5508" cy="175.28" rx="42.0997" ry="32.0323" fill="#6E7689"/>
<path d="M131.76 170.457C131.76 187.102 113.805 193.22 91.6563 193.22C69.5077 193.22 51.5527 187.102 51.5527 170.457C51.5527 153.812 69.5077 144.928 91.6563 144.928C113.805 144.928 131.76 153.812 131.76 170.457Z" fill="#9EA5B5"/>
<path d="M117.06 161.133C117.06 171.699 105.685 175.583 91.654 175.583C77.6227 175.583 66.248 171.699 66.248 161.133C66.248 150.567 77.6227 144.928 91.654 144.928C105.685 144.928 117.06 150.567 117.06 161.133Z" fill="#A3ACC1"/>
<path d="M109.854 158.807C109.854 166.389 101.659 169.176 91.5503 169.176C81.4412 169.176 73.2461 166.389 73.2461 158.807C73.2461 151.225 81.4412 147.179 91.5503 147.179C101.659 147.179 109.854 151.225 109.854 158.807Z" fill="#38405B"/>
<path d="M115.117 79.5097C100.456 96.5216 107.107 111.157 107.107 111.157L132.654 117.623C154.551 123.165 179.591 95.8282 179.591 95.8282C179.591 95.8282 129.778 62.4979 115.117 79.5097Z" fill="#B6BCC9"/>
<path d="M48.834 90.9557C70.5543 95.8141 73.9128 111.39 73.9128 111.39L57.4082 131.646C43.2615 149.008 7.18003 142.077 7.18003 142.077C7.18003 142.077 27.1136 86.0973 48.834 90.9557Z" fill="#B6BCC9"/>
<path d="M85.1442 121.411C85.1442 127.291 94.8027 162.775 94.8027 162.775C95.3646 163.369 85.412 172.4 87.8738 162.775C90.3355 153.15 84.5143 124.141 80.7349 116.792C76.9555 109.443 68.3469 110.913 59.7383 107.344L79.0552 111.543L72.7562 72.0693C72.7562 72.0693 80.9643 116.792 83.2545 116.792C85.5447 116.792 86.824 100.415 89.7635 92.856C89.7635 92.856 85.1442 115.532 85.1442 121.411Z" fill="#6E7689"/>
<path d="M98.5843 118.893C98.5843 124.772 87.876 166.975 87.876 166.975C87.876 166.975 99.0783 170.545 95.8547 161.726C92.6312 152.907 99.2142 121.622 102.994 114.274C106.773 106.925 114.542 107.555 123.15 103.985L104.673 109.024L110.972 69.5508C110.972 69.5508 102.764 114.274 100.474 114.274C98.1838 114.274 96.9046 97.8963 93.965 90.3375C93.965 90.3375 98.5843 113.014 98.5843 118.893Z" fill="#6E7689"/>
<path d="M101.122 59.3192C95.8174 75.22 83.8922 76.5485 83.8922 76.5485L69.9843 62.6406C58.0633 50.7196 89.9705 20.8318 89.9705 20.8318C89.9705 20.8318 106.426 43.4184 101.122 59.3192Z" fill="#A6ABB5"/>
<path d="M46.7776 80.3288C70.8057 87.2071 77.1039 80.3279 77.1039 80.3279C77.1039 80.3279 81.7203 69.5388 77.1039 44.8258C72.4874 20.1129 33.1852 7.56267 33.1852 7.56267C33.1852 7.56267 22.7494 73.4506 46.7776 80.3288Z" fill="#DFE2EA"/>
<path d="M79.9917 70.677C75.4431 92.6692 88.3674 102.229 88.3674 102.229L113.837 95.4684C135.668 89.6733 144.273 53.614 144.273 53.614C144.273 53.614 84.5402 48.6848 79.9917 70.677Z" fill="#DFE2EA"/>
<path d="M118.319 64.3008C102.617 74.1772 94.5142 80.3289 88.084 98.3153C88.084 98.3153 88.084 100.835 90.6036 98.3153C93.1232 95.7958 104.255 74.011 118.319 64.3008Z" fill="#B6BCC9"/>
<path d="M66.6704 71.0195C54.5146 61.7809 47.3535 36.585 47.3535 36.585C47.3535 36.585 54.0724 67.66 60.7914 73.959C67.5103 80.258 78.8263 80.258 66.6704 71.0195Z" fill="#B6BCC9"/>
</svg>
