<svg width="132" height="140" viewBox="0 0 140 140" fill="none" xmlns="http://www.w3.org/2000/svg">
<rect width="140" height="140" fill="white"/>
<path d="M5.60352 89.2005L71.8538 127.556L78.1302 124.069L11.8897 85.9492L5.60352 89.2005Z" fill="#E7EAEF"/>
<path d="M5.60352 90.5949V89.2002L71.8538 127.556V128.602L5.60352 90.5949Z" fill="#96A3C1"/>
<path d="M78.1299 125.115V124.069L71.8535 127.556V128.602L78.1299 125.115Z" fill="#B5C1D4"/>
<path d="M76.427 123.024L70.1074 126.511V117.096L76.427 113.45V123.024Z" fill="#BDC4D1"/>
<path d="M70.1088 126.51V117.793L62.959 113.958V122.429L70.1088 126.51Z" fill="#96A3C1"/>
<path d="M76.4283 113.449L69.6936 116.817L62.959 113.449L69.6936 110.082L76.4283 113.449Z" fill="#F2F4FA"/>
<path d="M49.4925 107.276L42.7578 110.643V101.103L49.4925 97.7354V107.276Z" fill="#BDC4D1"/>
<path d="M42.7581 110.643V101.103L36.0234 97.7354V106.715L42.7581 110.643Z" fill="#96A3C1"/>
<path d="M49.4927 97.735L42.7581 101.102L36.0234 97.735L42.7581 94.3677L49.4927 97.735Z" fill="#F2F4FA"/>
<path d="M22.5511 92.1233L15.8164 95.1289V85.9498L22.5511 82.5825V92.1233Z" fill="#BDC4D1"/>
<path d="M15.8167 95.4906V85.9498L9.08203 82.5825V91.5621L15.8167 95.4906Z" fill="#96A3C1"/>
<path d="M22.5513 82.5822L15.8167 85.9495L9.08203 82.5822L15.8167 79.2148L22.5513 82.5822Z" fill="#F2F4FA"/>
<path d="M5.60352 80.135L71.9403 118.501L78.1302 115.004L11.8897 76.9702L5.60352 80.135Z" fill="#E7EAEF"/>
<path d="M5.60352 81.1808V80.1348L71.9403 118.5V119.623L5.60352 81.1808Z" fill="#96A3C1"/>
<path d="M78.1313 116.05V115.004L71.9414 118.501V119.623L78.1313 116.05Z" fill="#B5C1D4"/>
<path d="M36.9805 71.0686L103.231 109.424L109.507 105.937L43.2666 67.8174L36.9805 71.0686Z" fill="#E7EAEF"/>
<path d="M36.9805 72.4631V71.0684L103.231 109.424V110.47L36.9805 72.4631Z" fill="#96A3C1"/>
<path d="M109.507 106.983V105.937L103.23 109.423V110.469L109.507 106.983Z" fill="#B5C1D4"/>
<path d="M107.806 104.891L101.486 108.378V98.9633L107.806 95.3169V104.891Z" fill="#BDC4D1"/>
<path d="M101.488 108.378V99.6608L94.3379 95.8252V104.296L101.488 108.378Z" fill="#96A3C1"/>
<path d="M107.807 95.317L101.073 98.6844L94.3379 95.317L101.073 91.9497L107.807 95.317Z" fill="#F2F4FA"/>
<path d="M80.8694 89.1438L74.1348 92.5111V82.9704L80.8694 79.603V89.1438Z" fill="#BDC4D1"/>
<path d="M74.135 92.5111V82.9704L67.4004 79.603V88.5826L74.135 92.5111Z" fill="#96A3C1"/>
<path d="M80.8697 79.6027L74.135 82.97L67.4004 79.6027L74.135 76.2354L80.8697 79.6027Z" fill="#F2F4FA"/>
<path d="M53.9319 73.9905L47.1973 76.9961V67.817L53.9319 64.4497V73.9905Z" fill="#BDC4D1"/>
<path d="M47.1975 77.3578V67.817L40.4629 64.4497V73.4292L47.1975 77.3578Z" fill="#96A3C1"/>
<path d="M53.9322 64.4498L47.1975 67.8172L40.4629 64.4498L47.1975 61.0825L53.9322 64.4498Z" fill="#F2F4FA"/>
<path d="M36.9805 62.0031L103.317 100.369L109.507 96.8719L43.2666 58.8384L36.9805 62.0031Z" fill="#E7EAEF"/>
<path d="M36.9805 63.0495V62.0034L103.317 100.369V101.491L36.9805 63.0495Z" fill="#96A3C1"/>
<path d="M109.508 97.9181V96.8721L103.318 100.369V101.491L109.508 97.9181Z" fill="#B5C1D4"/>
<path d="M62.0879 56.3977L128.338 94.7534L134.615 91.2665L68.374 53.1465L62.0879 56.3977Z" fill="#E7EAEF"/>
<path d="M62.0879 57.7922V56.3975L128.338 94.7531V95.7991L62.0879 57.7922Z" fill="#96A3C1"/>
<path d="M134.614 92.3122V91.2661L128.338 94.753V95.7991L134.614 92.3122Z" fill="#B5C1D4"/>
<path d="M132.913 90.2201L126.594 93.707V84.2924L132.913 80.646V90.2201Z" fill="#BDC4D1"/>
<path d="M126.595 93.707V84.9899L119.445 81.1543V89.6256L126.595 93.707Z" fill="#96A3C1"/>
<path d="M132.915 80.6456L126.18 84.013L119.445 80.6456L126.18 77.2783L132.915 80.6456Z" fill="#F2F4FA"/>
<path d="M105.975 74.4724L99.2402 77.8397V68.299L105.975 64.9316V74.4724Z" fill="#BDC4D1"/>
<path d="M99.2405 77.8397V68.299L92.5059 64.9316V73.9112L99.2405 77.8397Z" fill="#96A3C1"/>
<path d="M105.975 64.9318L99.2405 68.2991L92.5059 64.9318L99.2405 61.5645L105.975 64.9318Z" fill="#F2F4FA"/>
<path d="M79.0354 59.3196L72.3008 62.3252V53.1461L79.0354 49.7788V59.3196Z" fill="#BDC4D1"/>
<path d="M72.3011 62.6869V53.1461L65.5664 49.7788V58.7583L72.3011 62.6869Z" fill="#96A3C1"/>
<path d="M79.0357 49.7785L72.3011 53.1458L65.5664 49.7785L72.3011 46.4111L79.0357 49.7785Z" fill="#F2F4FA"/>
<path d="M62.0879 47.3308L128.425 85.6964L134.615 82.1995L68.374 44.166L62.0879 47.3308Z" fill="#E7EAEF"/>
<path d="M62.0879 48.3771V47.3311L128.425 85.6966V86.8191L62.0879 48.3771Z" fill="#96A3C1"/>
<path d="M134.616 83.2458V82.1997L128.426 85.6966V86.819L134.616 83.2458Z" fill="#B5C1D4"/>
<path d="M133.223 78.8259L66.9724 117.182L60.696 113.695L126.937 75.5747L133.223 78.8259Z" fill="#DEE3EB"/>
<path d="M133.223 80.2204V78.8257L66.9724 117.181V118.227L133.223 80.2204Z" fill="#99A7BC"/>
<path d="M60.6963 114.74V113.694L66.9727 117.181V118.227L60.6963 114.74Z" fill="#8793AE"/>
<path d="M122.066 71.8528L55.8161 110.208L49.5398 106.722L115.78 68.6016L122.066 71.8528Z" fill="#DEE3EB"/>
<path d="M122.066 73.2473V71.8525L55.8161 110.208V111.254L122.066 73.2473Z" fill="#99A7BC"/>
<path d="M49.54 107.767V106.721L55.8164 110.208V111.254L49.54 107.767Z" fill="#8793AE"/>
<path d="M110.209 64.8787L43.9587 103.234L37.6823 99.7474L103.923 61.6274L110.209 64.8787Z" fill="#DEE3EB"/>
<path d="M110.209 66.2732V64.8784L43.9587 103.234V104.28L110.209 66.2732Z" fill="#99A7BC"/>
<path d="M37.6826 100.793V99.7466L43.959 103.233V104.28L37.6826 100.793Z" fill="#8793AE"/>
<path d="M99.0527 58.6018L32.8025 96.9575L26.5261 93.4706L92.7666 55.3506L99.0527 58.6018Z" fill="#DEE3EB"/>
<path d="M99.0527 59.9963V58.6016L32.8025 96.9572V98.0033L99.0527 59.9963Z" fill="#99A7BC"/>
<path d="M26.5264 94.5158V93.4697L32.8027 96.9566V98.0027L26.5264 94.5158Z" fill="#8793AE"/>
<path d="M88.5879 53.0232L22.3376 91.3788L16.0612 87.892L82.3018 49.772L88.5879 53.0232Z" fill="#DEE3EB"/>
<path d="M88.5879 54.4177V53.0229L22.3376 91.3786V92.4246L88.5879 54.4177Z" fill="#99A7BC"/>
<path d="M16.0615 88.9372V87.8911L22.3379 91.378V92.4241L16.0615 88.9372Z" fill="#8793AE"/>
<path d="M78.8262 47.4441L12.5759 85.7997L6.29952 82.3129L72.54 44.1929L78.8262 47.4441Z" fill="#DEE3EB"/>
<path d="M78.8262 48.8386V47.4438L12.5759 85.7995V86.8455L78.8262 48.8386Z" fill="#96A3C1"/>
<path d="M6.2998 83.3581V82.312L12.5762 85.7989V86.8449L6.2998 83.3581Z" fill="#BCC5D4"/>
<path d="M91.0393 61.3518L66.5215 75.9569V43.022L91.0393 28.9238V61.3518Z" fill="#D5DBE4"/>
<path d="M66.5214 75.9964V43.0216L37.3379 25.4468V59.12L66.5214 75.9964Z" fill="#96A3C1"/>
<path d="M91.0392 28.9239L66.5214 43.0219L37.3379 25.447L61.4704 11.4165L91.0392 28.9239Z" fill="#F2F4FA"/>
<path d="M64.883 76.6208L40.3652 91.226V58.291L64.883 44.1929V76.6208Z" fill="#D5DBE4"/>
<path d="M40.3651 91.2654V58.2907L11.1816 40.7158V74.3891L40.3651 91.2654Z" fill="#BFCAE0"/>
<path d="M64.8829 44.193L40.3651 58.291L11.1816 40.7161L35.3141 26.6855L64.8829 44.193Z" fill="#F2F4FA"/>
<path d="M122.067 80.1804L97.5488 94.7856V61.8506L122.067 47.7524V80.1804Z" fill="#D5DBE4"/>
<path d="M97.5487 94.8259V61.8512L68.3652 44.2764V77.9496L97.5487 94.8259Z" fill="#96A3C1"/>
<path d="M122.067 47.7526L97.5487 61.8505L68.3652 44.2756L92.4977 30.2451L122.067 47.7526Z" fill="#F2F4FA"/>
<path d="M95.9103 95.4494L71.3926 110.055V77.1196L95.9103 63.0215V95.4494Z" fill="#D5DBE4"/>
<path d="M71.3925 110.094V77.1193L42.209 59.5444V93.2177L71.3925 110.094Z" fill="#BFCAE0"/>
<path d="M95.9103 63.0216L71.3925 77.1196L42.209 59.5447L66.3415 45.5142L95.9103 63.0216Z" fill="#F2F4FA"/>
<path d="M25.5277 125.681C19.6355 123.807 17.0822 121.541 14.7949 116.843L43.2053 89.6948C43.8563 93.3946 43.8891 93.2748 46.9934 92.8515L25.5277 125.681Z" fill="#535D6E"/>
<path d="M41.9434 89.6945L46.0471 80.54L54.8859 87.1691L47.6254 93.4826C43.9063 93.1719 42.7441 92.276 41.9434 89.6945Z" fill="#384460"/>
<circle cx="68.4597" cy="61.9158" r="31.5671" fill="#11244A"/>
<circle cx="68.4597" cy="61.9158" r="26.5164" fill="#3B465F"/>
<circle cx="68.4593" cy="61.9158" r="20.8343" fill="#D0D6E8"/>
<circle cx="63.4091" cy="54.9711" r="8.83879" fill="#F2F4FA"/>
</svg>
