<svg width="122" height="122" viewBox="0 0 122 122" fill="none" xmlns="http://www.w3.org/2000/svg">
<path d="M26.9688 57.0403L87.9273 91.9929L94.1265 88.8921L32.6513 53.749L26.9688 57.0403Z" fill="#D9D9D9"/>
<path d="M26.9688 57.8823V56.8486L87.9321 91.9916V93.0252L26.9688 57.8823Z" fill="#989898"/>
<path d="M94.1294 89.9252V88.8916L87.9297 91.9924V93.0261L94.1294 89.9252Z" fill="#BDBDBD"/>
<path d="M92.0493 87.8585L85.8496 90.9593V82.1736L92.0493 79.0728V87.8585Z" fill="#CFCFCF"/>
<path d="M85.8462 90.9583V82.1726L79.6465 79.0718V87.3407L85.8462 90.9583Z" fill="#989898"/>
<path d="M92.0459 79.073L85.8462 82.1738L79.6465 79.073L85.8462 75.9722L92.0459 79.073Z" fill="#E9E9E9"/>
<path d="M67.2544 73.3887L61.0547 76.4896V67.7039L67.2544 64.603V73.3887Z" fill="#CFCFCF"/>
<path d="M61.0513 76.4891V67.7034L54.8516 64.6025V72.8714L61.0513 76.4891Z" fill="#989898"/>
<path d="M67.2509 64.6018L61.0513 67.7027L54.8516 64.6018L61.0513 61.501L67.2509 64.6018Z" fill="#E9E9E9"/>
<path d="M42.4751 59.4337L36.2754 62.5345V53.7488L42.4751 50.6479V59.4337Z" fill="#CFCFCF"/>
<path d="M36.272 62.5345V53.7488L30.0723 50.6479V58.9169L36.272 62.5345Z" fill="#989898"/>
<path d="M42.4717 50.6472L36.272 53.7481L30.0723 50.6472L36.272 47.5464L42.4717 50.6472Z" fill="#E9E9E9"/>
<path d="M26.9688 48.7751L87.9273 83.7278L94.1265 80.6269L32.6513 45.4839L26.9688 48.7751Z" fill="#D9D9D9"/>
<path d="M26.9688 49.6186V48.585L87.9321 83.728V84.7616L26.9688 49.6186Z" fill="#989898"/>
<path d="M94.1294 81.6606V80.627L87.9297 83.7278V84.7614L94.1294 81.6606Z" fill="#BDBDBD"/>
<path d="M53.8301 41.5383L114.789 76.491L120.988 73.3901L59.5127 38.2471L53.8301 41.5383Z" fill="#D9D9D9"/>
<path d="M53.8301 42.3823V41.3486L114.793 76.4916V77.5252L53.8301 42.3823Z" fill="#989898"/>
<path d="M120.995 74.4233V73.3896L114.795 76.4905V77.5241L120.995 74.4233Z" fill="#BDBDBD"/>
<path d="M118.909 72.357L112.709 75.4578V66.6721L118.909 63.5713V72.357Z" fill="#CFCFCF"/>
<path d="M112.706 75.4578V66.6721L106.506 63.5713V71.8402L112.706 75.4578Z" fill="#989898"/>
<path d="M118.905 63.5701L112.706 66.6709L106.506 63.5701L112.706 60.4692L118.905 63.5701Z" fill="#E9E9E9"/>
<path d="M94.1216 57.8853L87.9219 60.9862V52.2004L94.1216 49.0996V57.8853Z" fill="#CFCFCF"/>
<path d="M87.9165 60.9857V52.2L81.7168 49.0991V57.368L87.9165 60.9857Z" fill="#989898"/>
<path d="M94.1162 49.0989L87.9165 52.1997L81.7168 49.0989L87.9165 45.998L94.1162 49.0989Z" fill="#E9E9E9"/>
<path d="M69.3345 43.9332L63.1348 47.034V38.2483L69.3345 35.1475V43.9332Z" fill="#CFCFCF"/>
<path d="M63.1313 47.0335V38.2478L56.9316 35.147V43.4159L63.1313 47.0335Z" fill="#989898"/>
<path d="M69.331 35.1462L63.1313 38.2471L56.9316 35.1462L63.1313 32.0454L69.331 35.1462Z" fill="#E9E9E9"/>
<path d="M53.8301 33.2698L114.789 68.2224L120.988 65.1215L59.5127 29.9785L53.8301 33.2698Z" fill="#D9D9D9"/>
<path d="M53.8301 34.1127V33.0791L114.793 68.2221V69.2557L53.8301 34.1127Z" fill="#989898"/>
<path d="M120.995 66.1547V65.1211L114.795 68.2219V69.2555L120.995 66.1547Z" fill="#BDBDBD"/>
<path d="M0.00195312 72.5427L60.9605 107.495L67.1597 104.394L5.68453 69.2515L0.00195312 72.5427Z" fill="#D9D9D9"/>
<path d="M0.00195312 73.3852V72.3516L60.9653 107.495V108.528L0.00195312 73.3852Z" fill="#989898"/>
<path d="M67.1684 105.428V104.394L60.9688 107.495V108.528L67.1684 105.428Z" fill="#BDBDBD"/>
<path d="M65.1235 103.362L58.9238 106.463V97.677L65.1235 94.5762V103.362Z" fill="#CFCFCF"/>
<path d="M58.9204 106.462V97.6765L52.7207 94.5757V102.845L58.9204 106.462Z" fill="#989898"/>
<path d="M65.1201 94.575L58.9204 97.6758L52.7207 94.575L58.9204 91.4741L65.1201 94.575Z" fill="#E9E9E9"/>
<path d="M40.3247 88.8931L34.125 91.994V83.2083L40.3247 80.1074V88.8931Z" fill="#CFCFCF"/>
<path d="M34.1216 91.993V83.2073L27.9219 80.1064V88.3753L34.1216 91.993Z" fill="#989898"/>
<path d="M40.3213 80.1057L34.1216 83.2066L27.9219 80.1057L34.1216 77.0049L40.3213 80.1057Z" fill="#E9E9E9"/>
<path d="M15.5376 74.939L9.33789 78.0399V69.2542L15.5376 66.1533V74.939Z" fill="#CFCFCF"/>
<path d="M9.33446 78.0394V69.2537L3.13477 66.1528V74.4217L9.33446 78.0394Z" fill="#989898"/>
<path d="M15.5342 66.1521L9.33446 69.2529L3.13477 66.1521L9.33446 63.0513L15.5342 66.1521Z" fill="#E9E9E9"/>
<path d="M0 64.2737L60.9586 99.2263L67.1578 96.1255L5.68258 60.9824L0 64.2737Z" fill="#D9D9D9"/>
<path d="M0 65.1166V64.083L60.9634 99.226V100.26L0 65.1166Z" fill="#989898"/>
<path d="M67.1645 97.1581V96.1245L60.9648 99.2254V100.259L67.1645 97.1581Z" fill="#BDBDBD"/>
<path d="M121.996 63.2917L61.0109 98.1988L54.814 95.0933L116.315 59.9962L121.996 63.2917Z" fill="#D9D9D9"/>
<path d="M121.997 64.1362L121.998 63.1025L61.0084 98.1999L61.0077 99.2335L121.997 64.1362Z" fill="#BDBDBD"/>
<path d="M54.7995 96.1271L54.8003 95.0935L60.9977 98.199L60.9969 99.2326L54.7995 96.1271Z" fill="#989898"/>
<path d="M110.64 57.0901L49.6554 91.9971L43.4586 88.8916L104.96 53.7946L110.64 57.0901Z" fill="#D9D9D9"/>
<path d="M110.638 57.9335L110.639 56.8999L49.6491 91.9973L49.6483 93.0309L110.638 57.9335Z" fill="#BDBDBD"/>
<path d="M43.4558 89.9245L43.4566 88.8909L49.6539 91.9963L49.6532 93.03L43.4558 89.9245Z" fill="#989898"/>
<path d="M97.1987 49.8547L36.214 84.7618L30.0172 81.6563L91.5186 46.5592L97.1987 49.8547Z" fill="#D9D9D9"/>
<path d="M97.1965 50.6987L97.1973 49.665L36.2077 84.7624L36.2069 85.796L97.1965 50.6987Z" fill="#BDBDBD"/>
<path d="M30.0144 82.6891L30.0152 81.6555L36.2125 84.761L36.2118 85.7946L30.0144 82.6891Z" fill="#989898"/>
<path d="M81.7104 40.5535L20.7257 75.4605L14.5289 72.355L76.0303 37.258L81.7104 40.5535Z" fill="#D9D9D9"/>
<path d="M81.7082 41.3969L81.709 40.3633L20.7194 75.4607L20.7186 76.4943L81.7082 41.3969Z" fill="#BDBDBD"/>
<path d="M14.5202 73.3884L14.521 72.3547L20.7184 75.4602L20.7176 76.4938L14.5202 73.3884Z" fill="#989898"/>
<path d="M70.3413 34.3489L9.35661 69.2559L3.15975 66.1504L64.6612 31.0534L70.3413 34.3489Z" fill="#D9D9D9"/>
<path d="M70.3391 35.1923L70.3398 34.1587L9.35023 69.2561L9.34946 70.2897L70.3391 35.1923Z" fill="#BDBDBD"/>
<path d="M3.16087 67.1833L3.16164 66.1497L9.35901 69.2551L9.35824 70.2887L3.16087 67.1833Z" fill="#989898"/>
<path d="M81.6822 45.8865L58.9492 59.4328V29.1035L81.6822 16.02V45.8865Z" fill="#E8E8E8"/>
<path d="M58.9497 59.9496V29.104L32.084 12.9199V43.9285L58.9497 59.9496Z" fill="#C7C7C7"/>
<path d="M81.6813 15.9393L58.9492 29.1043L32.084 12.9202L54.2994 0L81.6813 15.9393Z" fill="#F2F2F2"/>
<path d="M56.8833 60.3567L34.1504 73.903V43.5738L56.8833 30.4902V60.3567Z" fill="#E8E8E8"/>
<path d="M34.1548 74.4198V43.5743L7.28906 27.3901V58.3987L34.1548 74.4198Z" fill="#C7C7C7"/>
<path d="M56.8864 30.4095L34.1543 43.5745L7.28906 27.3904L29.5045 14.4702L56.8864 30.4095Z" fill="#F2F2F2"/>
<path d="M110.612 63.4588L87.8789 77.0051V46.6758L110.612 33.5923V63.4588Z" fill="#E8E8E8"/>
<path d="M87.8794 77.5214V46.6758L61.0137 30.4917V61.5003L87.8794 77.5214Z" fill="#C7C7C7"/>
<path d="M110.611 33.5111L87.8789 46.6761L61.0137 30.492L83.2291 17.5718L110.611 33.5111Z" fill="#F2F2F2"/>
<path d="M85.8189 77.93L63.0859 91.4763V61.147L85.8189 48.0635V77.93Z" fill="#E8E8E8"/>
<path d="M63.0884 91.9931V61.1475L36.2227 44.9634V75.972L63.0884 91.9931Z" fill="#C7C7C7"/>
<path d="M85.82 47.9823L63.0879 61.1473L36.2227 44.9632L58.4381 32.043L85.82 47.9823Z" fill="#F2F2F2"/>
<path d="M21.2654 121.377C15.2737 119.47 12.6774 117.166 10.3516 112.386L39.241 84.7715C39.9029 88.5348 39.9364 88.413 43.093 87.9825L21.2654 121.377Z" fill="#3A3A3A"/>
<path d="M37.9629 84.7717L42.1358 75.46L51.1235 82.2029L43.7407 88.6248C39.9589 88.3088 38.7771 87.3975 37.9629 84.7717Z" fill="#747474"/>
<ellipse cx="64.9225" cy="56.5147" rx="32.0963" ry="32.1094" fill="#262626"/>
<ellipse cx="64.9259" cy="56.5159" rx="26.963" ry="26.9719" fill="#393939"/>
<ellipse cx="64.9219" cy="56.5153" rx="21.1856" ry="21.1926" fill="#C3C3C3"/>
<ellipse cx="59.7905" cy="49.4506" rx="8.98772" ry="8.9906" fill="#F0F0F0"/>
</svg>
