<svg width="28" height="28" viewBox="0 0 28 28" fill="none" xmlns="http://www.w3.org/2000/svg">
<path d="M0 4C0 1.79086 1.79086 0 4 0H24C26.2091 0 28 1.79086 28 4V24C28 26.2091 26.2091 28 24 28H4C1.79086 28 0 26.2091 0 24V4Z" fill="#0250EE"/>
<path d="M7.82561 9.67472C7.37 9.2191 6.6313 9.2191 6.17569 9.67472C5.72008 10.1303 5.72008 10.869 6.17569 11.3246L13.1757 18.3246C13.6313 18.7802 14.37 18.7802 14.8256 18.3246L21.8256 11.3246C22.2812 10.869 22.2812 10.1303 21.8256 9.67472C21.37 9.2191 20.6313 9.2191 20.1757 9.67472L14.0007 15.8498L7.82561 9.67472Z" fill="#FBFBFC"/>
</svg>
