<svg width="132" height="110" viewBox="0 0 131 110" fill="none" xmlns="http://www.w3.org/2000/svg">
<path d="M130.867 79.0568L112.818 89.3762V46.0935L130.867 36.2314V79.0568Z" fill="#6E7787"/>
<path d="M55.123 58.1067V12.4951L74.3171 23.6753C81.5843 24.553 85.1986 26.0399 89.7961 32.6915L112.818 46.1014V89.3791L55.123 58.1067Z" fill="#535D6E"/>
<path d="M88.7643 36.4378C83.1649 28.9592 78.8971 26.2974 71.4277 26.3248C71.4277 26.3248 73.9044 23.3665 81.3343 27.0128C88.7643 30.659 88.7643 36.4378 88.7643 36.4378Z" fill="#D9D9D9"/>
<path d="M55.123 12.4962L71.634 0.938477L130.867 36.2307L112.818 46.1025L90.0025 32.8601C84.9258 26.4059 81.3074 24.9214 74.3171 23.7562L55.123 12.4962Z" fill="#798393"/>
<path d="M112.763 55.9752L90.0039 42.7656V44.6231L112.764 57.833L130.456 47.7873V45.7234L112.763 55.9752Z" fill="#9FA7B4"/>
<path d="M112.763 79.7105L90.0039 66.501V68.3585L112.764 81.5683L130.456 71.5227V69.4588L112.763 79.7105Z" fill="#9FA7B4"/>
<path d="M74.5235 33.6624L55.123 22.4023V24.2598L74.5235 35.5199V33.6624Z" fill="#9FA7B4"/>
<ellipse cx="13.7847" cy="24.4515" rx="13.7847" ry="24.4515" transform="matrix(0.919106 -0.394012 0.416214 0.909267 56.5703 33.4609)" fill="#5D697F"/>
<path d="M66.6823 34.1667C66.6823 34.1667 1.89046 67.7213 13.228 62.2354C24.5655 56.7495 32.1973 103.399 32.1973 103.399L85.2572 68.2206C89.6662 56.6393 80.7167 30.8645 66.6823 34.1667Z" fill="#535D6E"/>
<ellipse cx="13.7847" cy="22.7573" rx="13.7847" ry="22.7573" transform="matrix(0.919106 -0.394012 0.416214 0.909267 0.224609 67.7207)" fill="#001030"/>
<path d="M46.0399 94.122C53.0371 91.1223 54.221 80.0645 49.1643 69.0174C44.5447 58.9254 35.9902 52.6085 29.2109 53.8786C27.9286 54.1188 26.7856 54.7982 25.685 55.4986L25.0684 55.891C32.0656 52.8913 41.8347 59.4096 46.8884 70.4498C51.942 81.4901 50.4441 90.0974 46.0399 94.122Z" fill="#353F52"/>
<path d="M60.0762 84.8353C66.887 81.6363 67.8989 71.2922 62.962 60.7454C58.6336 51.4985 50.7668 45.5711 44.2894 46.1807C42.4863 46.3503 40.9105 47.366 39.4375 48.4198C46.2688 45.556 55.8063 51.5727 60.7401 62.113C65.6739 72.6533 64.242 80.914 60.0762 84.8353Z" fill="#353F52"/>
<path d="M72.7428 76.4207C79.5741 73.689 81.1098 63.5258 76.173 53.4657C71.6912 44.3332 63.416 38.5953 56.8176 39.6586C55.484 39.8735 54.2815 40.5428 53.1199 41.2323L52.6484 41.5121C59.4797 38.7805 69.0172 44.7163 73.951 54.7702C78.8849 64.824 76.7067 73.2766 72.7428 76.4207Z" fill="#353F52"/>
<ellipse cx="10.2839" cy="17.387" rx="10.2839" ry="17.387" transform="matrix(0.919106 -0.394012 0.416214 0.909267 7.54102 71.6475)" fill="#1C2539"/>
<ellipse cx="7.20627" cy="12.1836" rx="7.20627" ry="12.1836" transform="matrix(0.919106 -0.394012 0.416214 0.909267 14.7402 73.9482)" fill="#3F4656"/>
<ellipse cx="5.66817" cy="9.58317" rx="5.66817" ry="9.58317" transform="matrix(0.919106 -0.394012 0.416214 0.909267 17.2383 75.707)" fill="#777E8F"/>
<path d="M104.882 38.0915L118.281 29.0077C118.281 19.7202 114.175 14.5236 109.819 11.4936C105.17 8.25969 99.2929 6.5113 87.5288 10.02L79.4335 15.8023C77.9246 16.8801 80.5805 24.7371 82.1628 25.7039C84.5466 27.1604 87.6204 29.6032 90.0282 33.0846C93.2302 37.7145 100.222 41.2504 104.882 38.0915Z" fill="#89919E"/>
<path d="M87.5302 10.0204L62.7637 27.7696C71.4491 22.1485 78.0414 24.3776 83.4024 26.5314L107.756 10.2269C101.977 7.33725 96.1984 6.92442 87.5302 10.0204Z" fill="#727E92"/>
<ellipse cx="118.177" cy="33.8579" rx="7.12037" ry="4.23094" fill="#818C9D"/>
<path d="M118.177 38.0884C122.109 38.0884 125.297 36.1941 125.297 33.8574V35.5085C125.297 37.8452 122.109 39.7395 118.177 39.7395C114.245 39.7395 111.057 37.8452 111.057 35.5085V33.8574C111.057 36.1941 114.245 38.0884 118.177 38.0884Z" fill="#9FA7B4"/>
</svg>
