<svg width="144" height="120" viewBox="0 0 144 120" fill="none" xmlns="http://www.w3.org/2000/svg">
<path d="M144 86.1019L124.105 97.4763V49.7687L144 38.8984V86.1019Z" fill="#8E8E8E"/>
<path d="M60.5117 63.0138V12.7393L81.6679 25.0623C89.6781 26.0299 93.6619 27.6688 98.7294 35.0003L124.105 49.7812V97.4832L60.5117 63.0138Z" fill="#5C5959"/>
<path d="M97.601 39.1294C91.4293 30.8863 86.7251 27.9524 78.4922 27.9826C78.4922 27.9826 81.222 24.7218 89.4115 28.7408C97.601 32.7599 97.601 39.1294 97.601 39.1294Z" fill="#D9D9D9"/>
<path d="M60.5117 12.7392L78.7106 0L143.999 38.9002L124.105 49.7812L98.9569 35.185C93.3613 28.071 89.3729 26.4347 81.668 25.1505L60.5117 12.7392Z" fill="#7B7B7B"/>
<path d="M124.043 60.6644L98.957 46.1045V48.1519L124.044 62.7122L143.544 51.6396V49.3647L124.043 60.6644Z" fill="#BCBCBC"/>
<path d="M124.043 86.8266L98.957 72.2666V74.314L124.044 88.8743L143.544 77.8017V75.5268L124.043 86.8266Z" fill="#9F9F9F"/>
<path d="M81.8954 36.0675L60.5117 23.6562V25.7036L81.8954 38.1148V36.0675Z" fill="#A6A6A6"/>
<ellipse cx="15.1939" cy="26.9512" rx="15.1939" ry="26.9512" transform="matrix(0.919102 -0.394021 0.416204 0.909271 62.1035 35.8447)" fill="#626262"/>
<path d="M73.2558 36.626C73.2558 36.626 1.8402 73.6109 14.3368 67.5642C26.8334 61.5174 35.2453 112.936 35.2453 112.936L93.7295 74.1613C98.5893 61.396 88.7249 32.9862 73.2558 36.626Z" fill="#515151"/>
<ellipse cx="15.1939" cy="25.0838" rx="15.1939" ry="25.0838" transform="matrix(0.9191 -0.394026 0.4162 0.909273 0 73.6084)" fill="#1A1A1A"/>
<path d="M50.4983 102.708C58.2108 99.4014 59.5158 87.2131 53.942 75.0367C48.3683 62.8603 37.5977 55.6696 29.8852 58.9759L27.3828 60.5683C35.0953 57.262 45.8632 64.4466 51.4335 76.6155C57.0038 88.7845 55.3527 98.2717 50.4983 102.708Z" fill="#2C2C2C"/>
<path d="M65.9752 92.4731C73.4823 88.947 74.5976 77.5454 69.156 65.9204C63.7145 54.2954 53.1992 47.4304 45.6696 50.587L43.2266 52.3347C50.7562 49.1782 61.2687 55.8099 66.7069 67.4278C72.1451 79.0456 70.5669 88.1508 65.9752 92.4731Z" fill="#2B2B2B"/>
<path d="M79.9279 83.1977C87.4576 80.1868 89.1503 68.9845 83.7087 57.8961C78.2672 46.8076 67.752 40.2594 60.2223 43.2703L57.7793 44.7204C65.3089 41.7095 75.8215 48.2522 81.2597 59.3338C86.6979 70.4155 84.297 79.7322 79.9279 83.1977Z" fill="#323232"/>
<ellipse cx="11.3353" cy="19.1645" rx="11.3353" ry="19.1645" transform="matrix(0.9191 -0.394026 0.4162 0.909273 8.06836 77.9385)" fill="#454545"/>
<ellipse cx="7.94298" cy="13.4292" rx="7.94298" ry="13.4292" transform="matrix(0.9191 -0.394026 0.4162 0.909273 15.9902 80.4746)" fill="#686868"/>
<ellipse cx="6.24763" cy="10.5629" rx="6.24763" ry="10.5629" transform="matrix(0.919101 -0.394023 0.416202 0.909272 18.752 82.4131)" fill="#959595"/>
<path d="M115.348 40.9558L130.117 30.943C130.117 20.7061 125.591 14.9782 120.79 11.6384C115.666 8.07393 109.188 6.1468 96.2213 10.0142L87.2984 16.3877C85.6352 17.5756 88.5626 26.2358 90.3066 27.3015C92.9342 28.907 96.3224 31.5996 98.9764 35.4372C102.506 40.5403 110.212 44.4375 115.348 40.9558Z" fill="#858585"/>
<path d="M96.2261 10.0075L68.9277 29.5712C78.5011 23.3755 85.7673 25.8325 91.6764 28.2064L118.52 10.2351C112.15 7.05005 105.781 6.59502 96.2261 10.0075Z" fill="#747474"/>
<ellipse cx="130.006" cy="36.2816" rx="7.84828" ry="4.66348" fill="#E5E5E5"/>
<path d="M130.006 40.9457C134.341 40.9457 137.855 38.8578 137.855 36.2822V38.1021C137.855 40.6777 134.341 42.7656 130.006 42.7656C125.672 42.7656 122.158 40.6777 122.158 38.1021V36.2822C122.158 38.8578 125.672 40.9457 130.006 40.9457Z" fill="#8C8C8C"/>
</svg>
