<svg width="267" height="213" viewBox="0 0 267 213" fill="none" xmlns="http://www.w3.org/2000/svg">
<path d="M272.002 147.517L142.361 223.203L20.0781 150.67L142.361 72.5312L272.002 147.517Z" fill="#D9D9D9"/>
<path d="M142.363 223.203V225.131L20.0781 152.597V150.67L142.363 223.203Z" fill="#797777"/>
<path d="M142.355 223.202V225.13L271.997 149.443V147.516L142.355 223.202Z" fill="#ACABAB"/>
<path d="M31.2871 152.247L142.359 216.37V138.406L31.2871 74.458V152.247Z" fill="#BBBBBB"/>
<path d="M260.087 70.4282V148.217L150.066 83.7434V7.00586L260.087 70.4282Z" fill="#9C9C9C"/>
<path d="M190.641 140.804L223.914 159.875L227.298 158.183L193.742 139.008L190.641 140.804Z" fill="#D9D9D9"/>
<path d="M190.641 141.262V140.698L223.914 159.874V160.438L190.641 141.262Z" fill="#989898"/>
<path d="M227.3 158.749V158.185L223.916 159.877V160.44L227.3 158.749Z" fill="#BDBDBD"/>
<path d="M226.167 157.611L222.783 159.303V154.509L226.167 152.817V157.611Z" fill="#CFCFCF"/>
<path d="M222.786 159.303V154.509L219.402 152.817V157.329L222.786 159.303Z" fill="#989898"/>
<path d="M226.17 152.819L222.786 154.511L219.402 152.819L222.786 151.127L226.17 152.819Z" fill="#E9E9E9"/>
<path d="M212.634 149.723L209.25 151.415V146.621L212.634 144.929V149.723Z" fill="#CFCFCF"/>
<path d="M209.249 151.416V146.623L205.865 144.931V149.443L209.249 151.416Z" fill="#989898"/>
<path d="M212.633 144.928L209.249 146.62L205.865 144.928L209.249 143.236L212.633 144.928Z" fill="#E9E9E9"/>
<path d="M199.106 142.103L195.723 143.795V139.002L199.106 137.31V142.103Z" fill="#CFCFCF"/>
<path d="M195.72 143.798V139.004L192.336 137.312V141.824L195.72 143.798Z" fill="#989898"/>
<path d="M199.103 137.312L195.72 139.004L192.336 137.312L195.72 135.62L199.103 137.312Z" fill="#E9E9E9"/>
<path d="M190.641 136.287L223.914 155.359L227.298 153.667L193.742 134.491L190.641 136.287Z" fill="#D9D9D9"/>
<path d="M190.641 136.746V136.182L223.914 155.357V155.921L190.641 136.746Z" fill="#989898"/>
<path d="M227.3 154.233V153.669L223.916 155.361V155.925L227.3 154.233Z" fill="#BDBDBD"/>
<path d="M205.305 132.34L238.578 151.411L241.962 149.719L208.406 130.544L205.305 132.34Z" fill="#D9D9D9"/>
<path d="M205.305 132.799V132.235L238.578 151.411V151.975L205.305 132.799Z" fill="#989898"/>
<path d="M241.964 150.283V149.719L238.58 151.411V151.975L241.964 150.283Z" fill="#BDBDBD"/>
<path d="M240.829 149.152L237.445 150.844V146.05L240.829 144.358V149.152Z" fill="#CFCFCF"/>
<path d="M237.444 150.845V146.051L234.061 144.359V148.871L237.444 150.845Z" fill="#989898"/>
<path d="M240.828 144.361L237.444 146.053L234.061 144.361L237.444 142.669L240.828 144.361Z" fill="#E9E9E9"/>
<path d="M227.302 141.257L223.918 142.949V138.155L227.302 136.463V141.257Z" fill="#CFCFCF"/>
<path d="M223.917 142.948V138.154L220.533 136.462V140.974L223.917 142.948Z" fill="#989898"/>
<path d="M227.301 136.464L223.917 138.156L220.533 136.464L223.917 134.772L227.301 136.464Z" fill="#E9E9E9"/>
<path d="M213.763 133.646L210.379 135.338V130.544L213.763 128.853V133.646Z" fill="#CFCFCF"/>
<path d="M210.382 135.339V130.545L206.998 128.854V133.365L210.382 135.339Z" fill="#989898"/>
<path d="M213.766 128.852L210.382 130.544L206.998 128.852L210.382 127.16L213.766 128.852Z" fill="#E9E9E9"/>
<path d="M205.305 127.829L238.578 146.901L241.962 145.209L208.406 126.033L205.305 127.829Z" fill="#D9D9D9"/>
<path d="M205.305 128.289V127.725L238.578 146.9V147.464L205.305 128.289Z" fill="#989898"/>
<path d="M241.956 145.774V145.21L238.572 146.902V147.466L241.956 145.774Z" fill="#BDBDBD"/>
<path d="M175.973 149.257L209.246 168.328L212.63 166.636L179.074 147.461L175.973 149.257Z" fill="#D9D9D9"/>
<path d="M175.973 149.716V149.152L209.246 168.328V168.892L175.973 149.716Z" fill="#989898"/>
<path d="M212.632 167.204V166.64L209.248 168.332V168.896L212.632 167.204Z" fill="#BDBDBD"/>
<path d="M211.507 166.071L208.123 167.763V162.969L211.507 161.277V166.071Z" fill="#CFCFCF"/>
<path d="M208.12 167.766V162.972L204.736 161.28V165.792L208.12 167.766Z" fill="#989898"/>
<path d="M211.504 161.28L208.12 162.972L204.736 161.28L208.12 159.588L211.504 161.28Z" fill="#E9E9E9"/>
<path d="M197.972 158.178L194.588 159.87V155.076L197.972 153.384V158.178Z" fill="#CFCFCF"/>
<path d="M194.583 159.872V155.078L191.199 153.386V157.898L194.583 159.872Z" fill="#989898"/>
<path d="M197.967 153.385L194.583 155.077L191.199 153.385L194.583 151.693L197.967 153.385Z" fill="#E9E9E9"/>
<path d="M184.433 150.562L181.049 152.254V147.46L184.433 145.769V150.562Z" fill="#CFCFCF"/>
<path d="M181.046 152.255V147.461L177.662 145.77V150.281L181.046 152.255Z" fill="#989898"/>
<path d="M184.43 145.77L181.046 147.462L177.662 145.77L181.046 144.078L184.43 145.77Z" fill="#E9E9E9"/>
<path d="M175.973 144.744L209.246 163.816L212.63 162.124L179.074 142.948L175.973 144.744Z" fill="#D9D9D9"/>
<path d="M175.973 145.204V144.64L209.246 163.815V164.379L175.973 145.204Z" fill="#989898"/>
<path d="M212.624 162.688V162.124L209.24 163.816V164.38L212.624 162.688Z" fill="#BDBDBD"/>
<path d="M242.567 144.211L209.279 163.257L205.897 161.563L239.467 142.413L242.567 144.211Z" fill="#D9D9D9"/>
<path d="M242.566 144.67L242.566 144.106L209.279 163.257L209.278 163.821L242.566 144.67Z" fill="#BDBDBD"/>
<path d="M205.885 162.124L205.886 161.56L209.268 163.254L209.268 163.818L205.885 162.124Z" fill="#989898"/>
<path d="M236.372 140.827L203.084 159.874L199.702 158.179L233.271 139.029L236.372 140.827Z" fill="#D9D9D9"/>
<path d="M236.371 141.286L236.371 140.722L203.083 159.872L203.083 160.436L236.371 141.286Z" fill="#BDBDBD"/>
<path d="M199.69 158.742L199.69 158.178L203.073 159.873L203.073 160.437L199.69 158.742Z" fill="#989898"/>
<path d="M229.022 136.877L195.734 155.923L192.352 154.229L225.922 135.079L229.022 136.877Z" fill="#D9D9D9"/>
<path d="M229.021 137.336L229.021 136.772L195.734 155.923L195.733 156.487L229.021 137.336Z" fill="#BDBDBD"/>
<path d="M192.34 154.791L192.341 154.227L195.723 155.921L195.723 156.485L192.34 154.791Z" fill="#989898"/>
<path d="M220.577 131.803L187.289 150.849L183.907 149.155L217.476 130.005L220.577 131.803Z" fill="#D9D9D9"/>
<path d="M220.576 132.261L220.576 131.697L187.288 150.848L187.288 151.412L220.576 132.261Z" fill="#BDBDBD"/>
<path d="M183.901 149.718L183.901 149.154L187.284 150.848L187.283 151.412L183.901 149.718Z" fill="#989898"/>
<path d="M214.372 128.422L181.084 147.468L177.702 145.774L211.271 126.624L214.372 128.422Z" fill="#D9D9D9"/>
<path d="M214.371 128.88L214.371 128.316L181.083 147.467L181.083 148.031L214.371 128.88Z" fill="#BDBDBD"/>
<path d="M177.69 146.337L177.69 145.773L181.073 147.467L181.073 148.031L177.69 146.337Z" fill="#989898"/>
<path d="M220.536 134.716L208.129 142.107V125.559L220.536 118.42V134.716Z" fill="#E8E8E8"/>
<path d="M208.13 142.39V125.559L193.467 116.729V133.648L208.13 142.39Z" fill="#C7C7C7"/>
<path d="M220.537 118.375L208.13 125.558L193.467 116.728L205.592 109.678L220.537 118.375Z" fill="#F2F2F2"/>
<path d="M206.997 142.613L194.59 150.005V133.456L206.997 126.317V142.613Z" fill="#E8E8E8"/>
<path d="M194.593 150.285V133.455L179.93 124.624V141.543L194.593 150.285Z" fill="#C7C7C7"/>
<path d="M207 126.27L194.593 133.454L179.93 124.623L192.055 117.573L207 126.27Z" fill="#F2F2F2"/>
<path d="M236.333 144.304L223.926 151.695V135.147L236.333 128.008V144.304Z" fill="#E8E8E8"/>
<path d="M223.93 151.976V135.145L209.268 126.314V143.234L223.93 151.976Z" fill="#C7C7C7"/>
<path d="M236.337 127.963L223.93 135.146L209.268 126.315L221.393 119.266L236.337 127.963Z" fill="#F2F2F2"/>
<path d="M222.8 152.197L210.393 159.589V143.04L222.8 135.901V152.197Z" fill="#E8E8E8"/>
<path d="M210.389 159.871V143.041L195.727 134.21V151.129L210.389 159.871Z" fill="#C7C7C7"/>
<path d="M222.796 135.856L210.389 143.04L195.727 134.209L207.852 127.159L222.796 135.856Z" fill="#F2F2F2"/>
<path d="M31.291 146.116L142.363 210.24V211.642L29.5391 146.642L31.291 146.116Z" fill="#D9D9D9"/>
<path d="M29.5391 146.645L142.363 211.644V217.601L29.5391 152.601V146.645Z" fill="#989898"/>
<path d="M31.291 135.602L142.363 199.725V201.127L29.5391 136.127L31.291 135.602Z" fill="#D9D9D9"/>
<path d="M29.5391 136.129L142.363 201.129V207.085L29.5391 142.086V136.129Z" fill="#989898"/>
<path d="M31.291 125.442L142.363 189.566V190.968L29.5391 125.968L31.291 125.442Z" fill="#D9D9D9"/>
<path d="M29.5391 125.97L142.363 190.969V196.926L29.5391 131.927V125.97Z" fill="#989898"/>
<path d="M31.291 114.929L142.363 179.052V180.454L29.5391 115.454L31.291 114.929Z" fill="#D9D9D9"/>
<path d="M29.5391 115.456L142.363 180.456V186.413L29.5391 121.413V115.456Z" fill="#989898"/>
<path d="M31.291 104.417L142.363 168.541V169.942L29.5391 104.943L31.291 104.417Z" fill="#D9D9D9"/>
<path d="M29.5391 104.943L142.363 169.943V175.9L29.5391 110.9V104.943Z" fill="#989898"/>
<path d="M31.291 93.5537L142.363 157.677V159.079L29.5391 94.0793L31.291 93.5537Z" fill="#D9D9D9"/>
<path d="M29.5391 94.0811L142.363 159.081V165.038L29.5391 100.038V94.0811Z" fill="#989898"/>
<path d="M31.291 83.3955L142.363 147.519V148.921L29.5391 83.9211L31.291 83.3955Z" fill="#D9D9D9"/>
<path d="M29.5391 83.9238L142.363 148.924V154.88L29.5391 89.8807V83.9238Z" fill="#989898"/>
<path d="M31.291 72.8828L142.363 137.007V138.408L29.5391 73.4084L31.291 72.8828Z" fill="#D9D9D9"/>
<path d="M29.5391 73.4082L142.363 138.408V144.365L29.5391 79.3651V73.4082Z" fill="#989898"/>
<path d="M175.64 196.225L142.354 216.373V138.409L175.64 105.821V196.225Z" fill="#EDEDED"/>
<path d="M260.434 67.9756V147.517L226.797 166.439V77.9621L260.434 67.9756Z" fill="#EDEDED"/>
<path d="M175.639 133.5L235.204 98.4596V75.333L191.406 89.3491L175.639 105.818V133.5Z" fill="#EDEDED"/>
<path d="M260.436 68.8486L142.355 137.002V138.404L262.188 69.3742L260.436 68.8486Z" fill="#C0C0C0"/>
<path d="M262.188 69.376L142.355 138.405V144.362L262.188 75.1576V69.376Z" fill="#F4F4F4"/>
<path d="M236.963 71.1289L142.359 125.792V127.193L236.963 72.8809V71.1289Z" fill="#C0C0C0"/>
<path d="M236.262 73.2314L142.359 127.193V133.15L238.715 77.2611L236.262 73.2314Z" fill="#F4F4F4"/>
<path d="M199.114 87.2476L83.4883 20.6719L147.958 0.699219L263.234 67.2749L199.114 87.2476Z" fill="#E2E2E2"/>
<path d="M265.691 66.9269L149.363 0L141.654 2.97842L258.683 70.2558L265.691 66.9269Z" fill="#D0D0D0"/>
<path d="M260.264 69.2055L144.461 2.22475L142.709 1.75293L259.037 69.7311L260.264 69.2055Z" fill="#A7A7A7"/>
<path d="M259.21 68.8551L142.707 1.75293L134.998 4.73135L251.501 72.5343L259.21 68.8551Z" fill="#D0D0D0"/>
<path d="M251.855 72.0053L136.053 5.02455L134.301 4.55273L250.629 72.7061L251.855 72.0053Z" fill="#A7A7A7"/>
<path d="M250.804 71.6549L134.3 4.55273L126.592 7.53116L242.57 74.8085L250.804 71.6549Z" fill="#D0D0D0"/>
<path d="M242.922 74.4613L127.295 7.48061L125.543 7.00879L242.222 75.3373L242.922 74.4613Z" fill="#A7A7A7"/>
<path d="M242.044 74.2861L125.541 7.00879L117.832 9.98721L234.686 77.7902L242.044 74.2861Z" fill="#D0D0D0"/>
<path d="M235.04 77.4363L118.887 10.2804L117.135 9.80859L234.164 78.1371L235.04 77.4363Z" fill="#A7A7A7"/>
<path d="M233.986 77.0869L117.132 9.80957L109.424 12.788L225.577 80.0653L233.986 77.0869Z" fill="#D0D0D0"/>
<path d="M226.809 80.0598L110.48 12.7287L108.729 12.2568L225.057 80.9358L226.809 80.0598Z" fill="#A7A7A7"/>
<path d="M225.054 79.359L108.726 12.2568L101.018 15.2353L217.171 82.6878L225.054 79.359Z" fill="#D0D0D0"/>
<path d="M217.708 82.3418L102.08 15.5363L100.328 15.0645L216.481 82.8674L217.708 82.3418Z" fill="#A7A7A7"/>
<path d="M216.654 81.9914L100.326 15.0645L92.6172 18.0429L208.42 84.9698L216.654 81.9914Z" fill="#D0D0D0"/>
<path d="M208.756 84.7939L92.9531 17.9884L91.2012 17.5166L207.705 85.3195L208.756 84.7939Z" fill="#A7A7A7"/>
<path d="M207.525 84.4436L91.1968 17.5166L83.4883 20.495L199.116 87.2468L207.525 84.4436Z" fill="#D0D0D0"/>
<path d="M199.119 87.2482V89.3506L265.693 69.0272V66.9248L259.21 69.5528V68.852L250.801 72.356V71.6552L242.041 74.8089V74.2833L233.983 77.7873V77.0865L225.048 80.0649V79.3641L216.638 82.6929V81.9921L207.528 85.1458V84.4449L199.119 87.2482Z" fill="#E1E1E1"/>
<path d="M38.291 113.255V93.2021L61.0661 106.351V126.324L38.291 113.255Z" fill="#D9D9D9"/>
<path d="M50.9042 118.003L58.9631 122.655V116.348L50.9042 111.676V118.003Z" fill="#7A7A7A"/>
<path d="M40.3926 111.947L49.1522 116.991V110.625L40.3926 105.627V111.947Z" fill="#7A7A7A"/>
<path d="M50.9042 109.243L58.9631 113.895V107.588L50.9042 102.916V109.243Z" fill="#7A7A7A"/>
<path d="M40.3926 103.091L49.1522 108.231V101.865L40.3926 96.7842V103.091Z" fill="#7A7A7A"/>
<path d="M52.3097 117.062L50.9082 118.081L58.9671 122.657V120.905L52.3097 117.062Z" fill="#BFBFBF"/>
<path d="M52.3097 117.11L50.9082 118.082V111.679L52.3097 112.491V117.11Z" fill="#ABABAB"/>
<path d="M52.3097 108.349L50.9082 109.244L58.9671 113.896V112.145L52.3097 108.349Z" fill="#BFBFBF"/>
<path d="M52.3097 108.349L50.9082 109.245V102.918L52.3097 103.794V108.349Z" fill="#ABABAB"/>
<path d="M41.7941 111.053L40.3926 111.94V105.628L41.7941 106.421V111.053Z" fill="#ABABAB"/>
<path d="M41.7941 111.056L49.1522 115.184V116.995L40.3926 111.951L41.7941 111.056Z" fill="#BFBFBF"/>
<path d="M41.7941 102.303L40.3926 103.091V96.7842L41.7941 97.5971V102.303Z" fill="#ABABAB"/>
<path d="M41.7941 102.306L49.1522 106.482V108.234L40.3926 103.094L41.7941 102.306Z" fill="#BFBFBF"/>
<path d="M75.4414 134.63V114.577L98.2165 127.726V147.699L75.4414 134.63Z" fill="#D9D9D9"/>
<path d="M88.0546 139.378L96.1134 144.03V137.723L88.0546 133.051V139.378Z" fill="#7A7A7A"/>
<path d="M77.543 133.322L86.3026 138.366V132L77.543 127.002V133.322Z" fill="#7A7A7A"/>
<path d="M88.0546 130.618L96.1134 135.27V128.963L88.0546 124.291V130.618Z" fill="#7A7A7A"/>
<path d="M77.543 124.466L86.3026 129.606V123.24L77.543 118.159V124.466Z" fill="#7A7A7A"/>
<path d="M89.4601 138.437L88.0586 139.456L96.1175 144.032V142.28L89.4601 138.437Z" fill="#BFBFBF"/>
<path d="M89.4601 138.485L88.0586 139.457V133.054L89.4601 133.866V138.485Z" fill="#ABABAB"/>
<path d="M89.4601 129.724L88.0586 130.619L96.1175 135.271V133.52L89.4601 129.724Z" fill="#BFBFBF"/>
<path d="M89.4601 129.725L88.0586 130.621V124.294L89.4601 125.17V129.725Z" fill="#ABABAB"/>
<path d="M78.9445 132.428L77.543 133.315V127.003L78.9445 127.796V132.428Z" fill="#ABABAB"/>
<path d="M78.9445 132.431L86.3026 136.559V138.37L77.543 133.326L78.9445 132.431Z" fill="#BFBFBF"/>
<path d="M78.9445 123.678L77.543 124.466V118.159L78.9445 118.972V123.678Z" fill="#ABABAB"/>
<path d="M78.9445 123.681L86.3026 127.857V129.609L77.543 124.469L78.9445 123.681Z" fill="#BFBFBF"/>
<path d="M114.318 157.058V137.006L137.093 150.154V170.127L114.318 157.058Z" fill="#D9D9D9"/>
<path d="M126.932 161.807L134.99 166.459V160.152L126.932 155.48V161.807Z" fill="#7A7A7A"/>
<path d="M116.42 155.751L125.18 160.795V154.429L116.42 149.431V155.751Z" fill="#7A7A7A"/>
<path d="M126.932 153.047L134.99 157.699V151.392L126.932 146.72V153.047Z" fill="#7A7A7A"/>
<path d="M116.42 146.895L125.18 152.035V145.669L116.42 140.588V146.895Z" fill="#7A7A7A"/>
<path d="M128.337 160.864L126.936 161.883L134.994 166.46V164.708L128.337 160.864Z" fill="#BFBFBF"/>
<path d="M128.337 160.913L126.936 161.884V155.481L128.337 156.294V160.913Z" fill="#ABABAB"/>
<path d="M128.337 152.152L126.936 153.048L134.994 157.7V155.948L128.337 152.152Z" fill="#BFBFBF"/>
<path d="M128.337 152.15L126.936 153.045V146.719L128.337 147.595V152.15Z" fill="#ABABAB"/>
<path d="M117.821 154.857L116.42 155.744V149.432L117.821 150.225V154.857Z" fill="#ABABAB"/>
<path d="M117.821 154.859L125.18 158.988V160.799L116.42 155.754L117.821 154.859Z" fill="#BFBFBF"/>
<path d="M117.821 146.107L116.42 146.895V140.588L117.821 141.401V146.107Z" fill="#ABABAB"/>
<path d="M117.821 146.108L125.18 150.285V152.037L116.42 146.897L117.821 146.108Z" fill="#BFBFBF"/>
<path d="M225.395 105.119H227.146V168.892L225.395 167.841V105.119Z" fill="#BBBBBB"/>
<path d="M175.647 190.969L142.36 210.241V211.643L177.398 191.494L175.647 190.969Z" fill="#C0C0C0"/>
<path d="M177.398 191.496L142.36 211.644V217.601L177.398 197.278V191.496Z" fill="#F4F4F4"/>
<path d="M260.436 142.26L227.149 161.532V162.934L262.188 142.785L260.436 142.26Z" fill="#C0C0C0"/>
<path d="M262.188 142.787L227.149 162.935V168.892L262.188 148.569V142.787Z" fill="#F4F4F4"/>
<path d="M175.643 180.453L142.356 199.725V201.127L177.395 180.979L175.643 180.453Z" fill="#C0C0C0"/>
<path d="M177.395 180.98L142.356 201.129V207.085L177.395 186.762V180.98Z" fill="#F4F4F4"/>
<path d="M260.436 131.399L227.149 150.672V152.073L262.188 131.925L260.436 131.399Z" fill="#C0C0C0"/>
<path d="M262.188 131.926L227.149 152.074V158.031L262.188 137.707V131.926Z" fill="#F4F4F4"/>
<path d="M175.647 170.29L142.36 189.562V190.964L177.398 170.816L175.647 170.29Z" fill="#C0C0C0"/>
<path d="M177.398 170.817L142.36 190.966V196.922L177.398 176.599V170.817Z" fill="#F4F4F4"/>
<path d="M260.436 121.586L227.149 140.858V142.26L262.188 122.112L260.436 121.586Z" fill="#C0C0C0"/>
<path d="M262.188 122.111L227.149 142.259V148.216L262.188 127.893V122.111Z" fill="#F4F4F4"/>
<path d="M175.641 159.78L142.354 179.052V180.454L177.393 160.306L175.641 159.78Z" fill="#C0C0C0"/>
<path d="M177.393 160.308L142.354 180.456V186.413L177.393 166.089V160.308Z" fill="#F4F4F4"/>
<path d="M260.439 111.076L227.153 130.348V131.75L262.191 111.602L260.439 111.076Z" fill="#C0C0C0"/>
<path d="M262.191 111.604L227.153 131.753V137.71L262.191 117.386V111.604Z" fill="#F4F4F4"/>
<path d="M175.647 149.265L142.36 168.537V169.938L177.398 149.79L175.647 149.265Z" fill="#C0C0C0"/>
<path d="M177.398 149.791L142.36 169.939V175.896L177.398 155.573V149.791Z" fill="#F4F4F4"/>
<path d="M260.436 100.562L227.149 119.834V121.235L262.188 101.087L260.436 100.562Z" fill="#C0C0C0"/>
<path d="M262.188 101.088L227.149 121.236V127.193L262.188 106.87V101.088Z" fill="#F4F4F4"/>
<path d="M175.641 138.405L142.354 157.677V159.079L177.393 138.931L175.641 138.405Z" fill="#C0C0C0"/>
<path d="M177.393 138.933L142.354 159.081V165.038L177.393 144.714V138.933Z" fill="#F4F4F4"/>
<path d="M260.436 88.999L227.149 108.271V109.673L262.188 89.5246L260.436 88.999Z" fill="#C0C0C0"/>
<path d="M262.188 89.5264L227.149 109.675V115.631L262.188 95.308V89.5264Z" fill="#F4F4F4"/>
<path d="M260.436 79.3633L142.355 147.517V148.918L262.188 79.8889L260.436 79.3633Z" fill="#C0C0C0"/>
<path d="M262.188 79.8896L142.355 148.919V154.876L262.188 85.6713V79.8896Z" fill="#F4F4F4"/>
<path d="M171.088 157.057V137.005L148.313 150.153V170.126L171.088 157.057Z" fill="#D9D9D9"/>
<path d="M158.475 161.806L150.416 166.458V160.151L158.475 155.479V161.806Z" fill="#7A7A7A"/>
<path d="M168.986 155.75L160.227 160.794V154.428L168.986 149.43V155.75Z" fill="#7A7A7A"/>
<path d="M158.475 153.046L150.416 157.698V151.391L158.475 146.719V153.046Z" fill="#7A7A7A"/>
<path d="M168.986 146.894L160.227 152.034V145.668L168.986 140.587V146.894Z" fill="#7A7A7A"/>
<path d="M157.069 160.863L158.471 161.882L150.412 166.459V164.707L157.069 160.863Z" fill="#BFBFBF"/>
<path d="M157.069 160.913L158.471 161.884V155.481L157.069 156.294V160.913Z" fill="#ABABAB"/>
<path d="M157.069 152.151L158.471 153.047L150.412 157.699V155.947L157.069 152.151Z" fill="#BFBFBF"/>
<path d="M157.069 152.149L158.471 153.044V146.718L157.069 147.594V152.149Z" fill="#ABABAB"/>
<path d="M167.585 154.857L168.986 155.744V149.432L167.585 150.225V154.857Z" fill="#ABABAB"/>
<path d="M167.585 154.858L160.227 158.987V160.798L168.986 155.753L167.585 154.858Z" fill="#BFBFBF"/>
<path d="M167.585 146.106L168.986 146.894V140.587L167.585 141.4V146.106Z" fill="#ABABAB"/>
<path d="M167.585 146.108L160.227 150.285V152.037L168.986 146.897L167.585 146.108Z" fill="#BFBFBF"/>
<path d="M255.875 108.35V88.2979L233.1 101.446V121.419L255.875 108.35Z" fill="#D9D9D9"/>
<path d="M243.262 113.099L235.203 117.751V111.444L243.262 106.772V113.099Z" fill="#7A7A7A"/>
<path d="M253.773 107.043L245.014 112.087V105.721L253.773 100.723V107.043Z" fill="#7A7A7A"/>
<path d="M243.262 104.339L235.203 108.991V102.684L243.262 98.0119V104.339Z" fill="#7A7A7A"/>
<path d="M253.773 98.1871L245.014 103.327V96.9607L253.773 91.8799V98.1871Z" fill="#7A7A7A"/>
<path d="M241.856 112.157L243.258 113.176L235.199 117.753V116.001L241.856 112.157Z" fill="#BFBFBF"/>
<path d="M241.856 112.206L243.258 113.177V106.774L241.856 107.587V112.206Z" fill="#ABABAB"/>
<path d="M241.856 103.444L243.258 104.34L235.199 108.992V107.24L241.856 103.444Z" fill="#BFBFBF"/>
<path d="M241.856 103.445L243.258 104.34V98.0137L241.856 98.8897V103.445Z" fill="#ABABAB"/>
<path d="M252.372 106.149L253.773 107.036V100.724L252.372 101.517V106.149Z" fill="#ABABAB"/>
<path d="M252.372 106.151L245.014 110.28V112.091L253.773 107.046L252.372 106.151Z" fill="#BFBFBF"/>
<path d="M252.372 97.3987L253.773 98.1871V91.8799L252.372 92.6928V97.3987Z" fill="#ABABAB"/>
<path d="M252.372 97.4014L245.014 101.578V103.33L253.773 98.1898L252.372 97.4014Z" fill="#BFBFBF"/>
<path d="M145.858 140.159L26.2031 71.4804L83.4904 20.3223L199.116 87.2484L145.858 140.159Z" fill="#CFCFCF"/>
<path d="M148.836 137.181L29.5294 68.502L25.5 72.1812L145.157 140.86L148.836 137.181Z" fill="#A7A7A7"/>
<path d="M145.157 142.962L25.5 74.2831V72.1807L145.157 140.86V142.962Z" fill="#797777"/>
<path d="M153.928 132.975L33.7457 64.4717L29.541 67.6253L149.373 136.83L153.928 132.975Z" fill="#A7A7A7"/>
<path d="M149.198 137.355L29.541 68.6762V67.625L149.198 136.129V137.355Z" fill="#797777"/>
<path d="M157.596 129.122L38.2894 60.6182L33.7344 63.4214L153.917 132.801L157.596 129.122Z" fill="#A7A7A7"/>
<path d="M153.391 133.151L33.7344 64.4721V63.4209L153.917 132.275L153.391 133.151Z" fill="#797777"/>
<path d="M161.452 125.095L42.6708 56.5908L38.291 59.9196L157.948 128.599L161.452 125.095Z" fill="#A7A7A7"/>
<path d="M157.422 129.124L38.291 60.6198V59.9189L157.948 128.598L157.422 129.124Z" fill="#797777"/>
<path d="M165.663 121.063L47.2322 52.9092L42.502 56.0628L161.984 124.567L165.663 121.063Z" fill="#A7A7A7"/>
<path d="M161.283 125.091L42.502 56.7623V56.0615L161.984 124.565L161.283 125.091Z" fill="#797777"/>
<path d="M169.155 117.383L51.0751 49.2295L46.6953 52.5583L165.476 120.887L169.155 117.383Z" fill="#A7A7A7"/>
<path d="M165.126 121.414L46.6953 53.2604V52.5596L165.827 120.888L165.126 121.414Z" fill="#797777"/>
<path d="M173.008 113.354L55.2783 45.376L50.8984 48.7048L169.679 116.858L173.008 113.354Z" fill="#A7A7A7"/>
<path d="M169.154 117.386L50.8984 49.4078V48.707L169.679 116.86L169.154 117.386Z" fill="#797777"/>
<path d="M177.219 109.327L59.6644 41.5244L55.1094 44.8532L173.715 113.007L177.219 109.327Z" fill="#A7A7A7"/>
<path d="M173.014 113.356L55.1094 45.5533V44.8525L173.54 112.831L173.014 113.356Z" fill="#797777"/>
<path d="M181.074 105.646L63.6943 37.8428L59.3145 41.1716L177.57 108.975L181.074 105.646Z" fill="#A7A7A7"/>
<path d="M177.219 109.501L59.3145 41.8737V41.1729L177.57 108.976L177.219 109.501Z" fill="#797777"/>
<path d="M185.102 101.44L68.0726 34.1631L63.5176 37.3167L181.423 105.12L185.102 101.44Z" fill="#A7A7A7"/>
<path d="M180.897 105.644L63.5176 38.0162V37.3154L181.598 105.118L180.897 105.644Z" fill="#797777"/>
<path d="M189.141 97.5899L72.2874 30.3125L67.7324 33.6413L185.462 101.269L189.141 97.5899Z" fill="#A7A7A7"/>
<path d="M185.112 101.794L67.7324 34.3414V33.6406L185.637 101.268L185.112 101.794Z" fill="#797777"/>
<path d="M192.98 93.9082L76.6513 26.6309L72.2715 29.9597L189.476 97.237L192.98 93.9082Z" fill="#A7A7A7"/>
<path d="M189.125 97.7619L72.2715 30.6598V29.959L189.476 97.2363L189.125 97.7619Z" fill="#797777"/>
<path d="M199.122 87.2492L83.4941 20.3223L76.4863 26.2791L193.34 93.3813L199.122 87.2492Z" fill="#A7A7A7"/>
<path d="M192.639 93.7318L76.4863 26.9801V26.2793L192.639 92.8558V93.7318Z" fill="#797777"/>
<path d="M145.164 142.962L199.124 89.3505V87.248L192.641 92.8545V93.6884L188.72 96.7965V97.5849L184.664 100.739V101.615L180.728 104.593V105.525L176.874 108.623V109.354L172.849 112.477V113.353L168.97 116.507V117.207L164.914 120.361V121.237L161.107 124.04V125.02L157.155 128.125V128.946L153.048 131.749V132.976L148.843 135.954V137.204L145.164 140.86V142.962Z" fill="#D4D4D4"/>
<path d="M14.6582 205.303L47.9316 224.374L51.3153 222.682L17.76 203.507L14.6582 205.303Z" fill="#D9D9D9"/>
<path d="M14.6582 205.761V205.197L47.9316 224.373V224.937L14.6582 205.761Z" fill="#989898"/>
<path d="M36.6572 214.219L33.2734 215.911V211.117L36.6572 209.425V214.219Z" fill="#CFCFCF"/>
<path d="M33.2685 215.912V211.118L29.8848 209.426V213.938L33.2685 215.912Z" fill="#989898"/>
<path d="M36.6522 209.426L33.2685 211.118L29.8848 209.426L33.2685 207.734L36.6522 209.426Z" fill="#E9E9E9"/>
<path d="M23.1142 206.606L19.7305 208.298V203.504L23.1142 201.812V206.606Z" fill="#CFCFCF"/>
<path d="M19.7294 208.301V203.507L16.3457 201.815V206.327L19.7294 208.301Z" fill="#989898"/>
<path d="M23.1132 201.815L19.7294 203.507L16.3457 201.815L19.7294 200.123L23.1132 201.815Z" fill="#E9E9E9"/>
<path d="M14.6543 200.785L47.9277 219.857L51.3114 218.165L17.7561 198.989L14.6543 200.785Z" fill="#D9D9D9"/>
<path d="M14.6543 201.245V200.681L47.9277 219.856V220.42L14.6543 201.245Z" fill="#989898"/>
<path d="M29.3477 196.844L62.621 215.915L66.0047 214.223L32.4494 195.048L29.3477 196.844Z" fill="#D9D9D9"/>
<path d="M29.3477 197.301V196.737L62.621 215.913V216.477L29.3477 197.301Z" fill="#989898"/>
<path d="M64.872 213.658L61.4883 215.35V210.556L64.872 208.864V213.658Z" fill="#CFCFCF"/>
<path d="M61.4872 215.352V210.558L58.1035 208.866V213.378L61.4872 215.352Z" fill="#989898"/>
<path d="M64.871 208.867L61.4872 210.559L58.1035 208.867L61.4872 207.175L64.871 208.867Z" fill="#E9E9E9"/>
<path d="M51.3329 205.763L47.9492 207.455V202.661L51.3329 200.969V205.763Z" fill="#CFCFCF"/>
<path d="M47.9501 207.455V202.661L44.5664 200.969V205.481L47.9501 207.455Z" fill="#989898"/>
<path d="M51.3339 200.969L47.9501 202.661L44.5664 200.969L47.9501 199.277L51.3339 200.969Z" fill="#E9E9E9"/>
<path d="M37.8037 198.148L34.4199 199.84V195.046L37.8037 193.354V198.148Z" fill="#CFCFCF"/>
<path d="M34.4169 199.844V195.05L31.0332 193.358V197.87L34.4169 199.844Z" fill="#989898"/>
<path d="M37.8007 193.356L34.4169 195.048L31.0332 193.356L34.4169 191.664L37.8007 193.356Z" fill="#E9E9E9"/>
<path d="M29.3477 192.332L62.621 211.403L66.0047 209.712L32.4494 190.536L29.3477 192.332Z" fill="#D9D9D9"/>
<path d="M29.3477 192.791V192.227L62.621 211.402V211.966L29.3477 192.791Z" fill="#989898"/>
<path d="M66.0009 210.276V209.712L62.6172 211.404V211.968L66.0009 210.276Z" fill="#BDBDBD"/>
<path d="M0 213.765L33.2734 232.836L36.6571 231.144L3.10175 211.969L0 213.765Z" fill="#D9D9D9"/>
<path d="M8.46381 215.068L5.08008 216.76V211.966L8.46381 210.274V215.068Z" fill="#CFCFCF"/>
<path d="M5.07709 216.762V211.968L1.69336 210.276V214.788L5.07709 216.762Z" fill="#989898"/>
<path d="M8.46082 210.277L5.07709 211.969L1.69336 210.277L5.07709 208.585L8.46082 210.277Z" fill="#E9E9E9"/>
<path d="M0.00195312 209.249L33.2753 228.32L36.659 226.629L3.10371 207.453L0.00195312 209.249Z" fill="#D9D9D9"/>
<path d="M0.00195312 209.709V209.146L33.2753 228.321V228.885L0.00195312 209.709Z" fill="#989898"/>
<path d="M66.5963 208.711L33.3087 227.757L29.9262 226.063L63.4959 206.913L66.5963 208.711Z" fill="#D9D9D9"/>
<path d="M66.5972 209.168L66.5977 208.604L33.31 227.755L33.3096 228.319L66.5972 209.168Z" fill="#BDBDBD"/>
<path d="M60.3834 205.33L27.0958 224.377L23.7134 222.682L57.283 203.532L60.3834 205.33Z" fill="#D9D9D9"/>
<path d="M60.3824 205.789L60.3828 205.225L27.0951 224.375L27.0947 224.939L60.3824 205.789Z" fill="#BDBDBD"/>
<path d="M53.0573 201.38L19.7696 220.426L16.3872 218.732L49.9568 199.582L53.0573 201.38Z" fill="#D9D9D9"/>
<path d="M53.0562 201.839L53.0566 201.275L19.769 220.426L19.7685 220.99L53.0562 201.839Z" fill="#BDBDBD"/>
<path d="M44.6041 196.304L11.3165 215.35L7.93405 213.656L41.5037 194.505L44.6041 196.304Z" fill="#D9D9D9"/>
<path d="M44.6031 196.762L44.6035 196.198L11.3158 215.349L11.3154 215.913L44.6031 196.762Z" fill="#BDBDBD"/>
<path d="M38.3971 192.922L5.10948 211.968L1.72702 210.274L35.2967 191.124L38.3971 192.922Z" fill="#D9D9D9"/>
<path d="M38.3961 193.38L38.3965 192.816L5.1088 211.967L5.10838 212.531L38.3961 193.38Z" fill="#BDBDBD"/>
<path d="M1.71741 210.837L1.71783 210.273L5.1003 211.967L5.09988 212.531L1.71741 210.837Z" fill="#989898"/>
<path d="M44.5613 199.216L32.1543 206.607V190.059L44.5613 182.92V199.216Z" fill="#E8E8E8"/>
<path d="M32.157 206.89V190.059L17.4941 181.229V198.148L32.157 206.89Z" fill="#C7C7C7"/>
<path d="M44.564 182.876L32.157 190.059L17.4941 181.228L29.6192 174.179L44.564 182.876Z" fill="#9D9B9B"/>
<path d="M31.0301 207.112L18.623 214.504V197.955L31.0301 190.816V207.112Z" fill="#E8E8E8"/>
<path d="M18.6238 214.783V197.953L3.96094 189.122V206.042L18.6238 214.783Z" fill="#C7C7C7"/>
<path d="M31.0308 190.77L18.6238 197.954L3.96094 189.123L16.086 182.073L31.0308 190.77Z" fill="#9D9B9B"/>
<path d="M60.3484 208.804L47.9414 216.195V199.647L60.3484 192.508V208.804Z" fill="#E8E8E8"/>
<path d="M47.9421 216.478V199.647L33.2793 190.816V207.736L47.9421 216.478Z" fill="#C7C7C7"/>
<path d="M60.3491 192.463L47.9421 199.646L33.2793 190.815L45.4043 183.766L60.3491 192.463Z" fill="#9D9B9B"/>
<path d="M46.8133 216.7L34.4062 224.092V207.543L46.8133 200.404V216.7Z" fill="#E8E8E8"/>
<path d="M34.4089 224.372V207.542L19.7461 198.711V215.63L34.4089 224.372Z" fill="#C7C7C7"/>
<path d="M46.8159 200.359L34.4089 207.543L19.7461 198.712L31.8711 191.662L46.8159 200.359Z" fill="#F2F2F2"/>
<path d="M44.909 181.696L32.502 189.088V172.539L44.909 165.4V181.696Z" fill="#E8E8E8"/>
<path d="M32.5046 189.37V172.54L17.8418 163.709V180.628L32.5046 189.37Z" fill="#C7C7C7"/>
<path d="M44.9116 165.355L32.5046 172.539L17.8418 163.708L29.9668 156.658L44.9116 165.355Z" fill="#F2F2F2"/>
<path d="M31.3797 189.592L18.9727 196.983V180.435L31.3797 173.296V189.592Z" fill="#E8E8E8"/>
<path d="M18.9734 197.264V180.433L4.31055 171.603V188.522L18.9734 197.264Z" fill="#C7C7C7"/>
<path d="M31.3804 173.251L18.9734 180.434L4.31055 171.603L16.4356 164.554L31.3804 173.251Z" fill="#F2F2F2"/>
<path d="M60.7 191.284L48.293 198.676V182.127L60.7 174.988V191.284Z" fill="#E8E8E8"/>
<path d="M48.2957 198.956V182.126L33.6328 173.295V190.214L48.2957 198.956Z" fill="#C7C7C7"/>
<path d="M60.7027 174.943L48.2956 182.127L33.6328 173.296L45.7578 166.246L60.7027 174.943Z" fill="#F2F2F2"/>
</svg>
