<svg width="258" height="216" viewBox="0 0 258 216" fill="none" xmlns="http://www.w3.org/2000/svg">
<path d="M257.55 118.341L125.348 195.519L0.648438 121.557L125.348 41.8779L257.55 118.341Z" fill="#8392B1"/>
<path d="M125.348 195.519V197.484L0.648438 123.522V121.557L125.348 195.519Z" fill="#9FA6B5"/>
<path d="M125.348 195.519V197.484L257.55 120.306V118.341L125.348 195.519Z" fill="#DADFE6"/>
<path d="M219.203 57.3398V119.751L130.928 68.0227V6.45508L219.203 57.3398Z" fill="#5A616E"/>
<path d="M147.234 118.494L173.942 133.956L176.472 132.551L149.768 117.184L147.234 118.494Z" fill="#D6DDE8"/>
<path d="M147.234 119.056V118.494L173.942 133.956V134.378L147.234 119.056Z" fill="#BCC4DC"/>
<path d="M176.472 132.972V132.551L173.941 133.956V134.378L176.472 132.972Z" fill="#B5C1D4"/>
<path d="M175.784 132.131L173.236 133.537V129.741L175.784 128.271V132.131Z" fill="#BDC4D1"/>
<path d="M173.238 133.537V130.023L170.355 128.477V131.892L173.238 133.537Z" fill="#BCC4DC"/>
<path d="M175.785 128.272L173.07 129.629L170.355 128.272L173.07 126.914L175.785 128.272Z" fill="#B8C1DB"/>
<path d="M164.926 125.784L162.211 127.141V123.295L164.926 121.938V125.784Z" fill="#BDC4D1"/>
<path d="M162.211 127.141V123.295L159.496 121.938V125.557L162.211 127.141Z" fill="#BCC4DC"/>
<path d="M164.926 121.938L162.211 123.295L159.496 121.938L162.211 120.58L164.926 121.938Z" fill="#B8C1DB"/>
<path d="M154.066 119.673L151.352 120.885V117.185L154.066 115.827V119.673Z" fill="#BDC4D1"/>
<path d="M151.352 121.031V117.185L148.637 115.827V119.447L151.352 121.031Z" fill="#BCC4DC"/>
<path d="M154.067 115.827L151.352 117.185L148.637 115.827L151.352 114.47L154.067 115.827Z" fill="#B8C1DB"/>
<path d="M147.234 114.841L173.977 130.307L176.472 128.898L149.768 113.565L147.234 114.841Z" fill="#D6DDE8"/>
<path d="M147.234 115.263V114.842L173.977 130.308V130.76L147.234 115.263Z" fill="#BCC4DC"/>
<path d="M176.472 129.319V128.897L173.977 130.307V130.76L176.472 129.319Z" fill="#B5C1D4"/>
<path d="M159.885 111.185L186.592 126.647L189.122 125.241L162.419 109.874L159.885 111.185Z" fill="#D6DDE8"/>
<path d="M159.885 111.747V111.185L186.592 126.647V127.068L159.885 111.747Z" fill="#BCC4DC"/>
<path d="M189.122 125.663V125.241L186.592 126.647V127.069L189.122 125.663Z" fill="#B5C1D4"/>
<path d="M188.436 124.82L185.889 126.225V122.43L188.436 120.96V124.82Z" fill="#BDC4D1"/>
<path d="M185.888 126.225V122.711L183.006 121.165V124.58L185.888 126.225Z" fill="#BCC4DC"/>
<path d="M188.436 120.96L185.721 122.317L183.006 120.96L185.721 119.603L188.436 120.96Z" fill="#B8C1DB"/>
<path d="M177.574 118.472L174.859 119.83V115.983L177.574 114.626V118.472Z" fill="#BDC4D1"/>
<path d="M174.861 119.83V115.983L172.146 114.626V118.246L174.861 119.83Z" fill="#BCC4DC"/>
<path d="M177.576 114.626L174.861 115.983L172.146 114.626L174.861 113.269L177.576 114.626Z" fill="#B8C1DB"/>
<path d="M166.717 112.363L164.002 113.574V109.874L166.717 108.517V112.363Z" fill="#BDC4D1"/>
<path d="M164.002 113.72V109.874L161.287 108.517V112.136L164.002 113.72Z" fill="#BCC4DC"/>
<path d="M166.717 108.517L164.002 109.874L161.287 108.517L164.002 107.159L166.717 108.517Z" fill="#B8C1DB"/>
<path d="M159.885 107.531L186.627 122.997L189.122 121.587L162.419 106.255L159.885 107.531Z" fill="#D6DDE8"/>
<path d="M159.885 107.952V107.53L186.627 122.996V123.449L159.885 107.952Z" fill="#BCC4DC"/>
<path d="M189.124 122.01V121.588L186.629 122.998V123.45L189.124 122.01Z" fill="#B5C1D4"/>
<path d="M170.002 105.271L196.709 120.733L199.239 119.327L172.536 103.96L170.002 105.271Z" fill="#D6DDE8"/>
<path d="M170.002 105.833V105.271L196.709 120.733V121.154L170.002 105.833Z" fill="#BCC4DC"/>
<path d="M199.241 119.749V119.327L196.711 120.733V121.154L199.241 119.749Z" fill="#B5C1D4"/>
<path d="M198.553 118.905L196.006 120.311V116.516L198.553 115.046V118.905Z" fill="#BDC4D1"/>
<path d="M196.005 120.311V116.797L193.123 115.251V118.666L196.005 120.311Z" fill="#BCC4DC"/>
<path d="M198.553 115.046L195.838 116.403L193.123 115.046L195.838 113.688L198.553 115.046Z" fill="#B8C1DB"/>
<path d="M187.695 112.557L184.98 113.915V110.068L187.695 108.711V112.557Z" fill="#BDC4D1"/>
<path d="M184.981 113.915V110.068L182.266 108.711V112.331L184.981 113.915Z" fill="#BCC4DC"/>
<path d="M187.695 108.711L184.981 110.068L182.266 108.711L184.981 107.354L187.695 108.711Z" fill="#B8C1DB"/>
<path d="M176.834 106.448L174.119 107.659V103.959L176.834 102.602V106.448Z" fill="#BDC4D1"/>
<path d="M174.119 107.805V103.959L171.404 102.602V106.221L174.119 107.805Z" fill="#BCC4DC"/>
<path d="M176.834 102.602L174.119 103.959L171.404 102.602L174.119 101.244L176.834 102.602Z" fill="#B8C1DB"/>
<path d="M170 101.615L196.742 117.081L199.237 115.671L172.534 100.339L170 101.615Z" fill="#D6DDE8"/>
<path d="M170 102.037V101.615L196.742 117.081V117.534L170 102.037Z" fill="#BCC4DC"/>
<path d="M199.237 116.094V115.672L196.742 117.082V117.534L199.237 116.094Z" fill="#B5C1D4"/>
<path d="M198.68 114.314L171.972 129.776L169.442 128.37L196.146 113.003L198.68 114.314Z" fill="#B7C3D8"/>
<path d="M198.68 114.876V114.313L171.972 129.776V130.197L198.68 114.876Z" fill="#99A7BC"/>
<path d="M169.442 128.792V128.37L171.973 129.776V130.197L169.442 128.792Z" fill="#8793AE"/>
<path d="M194.182 111.502L167.474 126.964L164.944 125.559L191.648 110.191L194.182 111.502Z" fill="#B7C3D8"/>
<path d="M194.182 112.064V111.502L167.474 126.964V127.386L194.182 112.064Z" fill="#99A7BC"/>
<path d="M164.944 125.98V125.559L167.475 126.964V127.386L164.944 125.98Z" fill="#8793AE"/>
<path d="M189.404 108.692L162.697 124.154L160.167 122.748L186.87 107.381L189.404 108.692Z" fill="#B7C3D8"/>
<path d="M189.404 109.254V108.691L162.697 124.154V124.575L189.404 109.254Z" fill="#99A7BC"/>
<path d="M160.165 123.17V122.748L162.695 124.154V124.575L160.165 123.17Z" fill="#8793AE"/>
<path d="M184.904 106.162L158.197 121.624L155.667 120.219L182.37 104.852L184.904 106.162Z" fill="#B7C3D8"/>
<path d="M184.904 106.724V106.162L158.197 121.624V122.046L184.904 106.724Z" fill="#99A7BC"/>
<path d="M155.667 120.64V120.219L158.197 121.624V122.046L155.667 120.64Z" fill="#8793AE"/>
<path d="M180.688 103.912L153.98 119.374L151.45 117.969L178.153 102.602L180.688 103.912Z" fill="#B7C3D8"/>
<path d="M180.688 104.474V103.912L153.98 119.374V119.796L180.688 104.474Z" fill="#99A7BC"/>
<path d="M151.45 118.39V117.969L153.98 119.374V119.796L151.45 118.39Z" fill="#8793AE"/>
<path d="M176.752 101.662L150.045 117.124L147.514 115.719L174.218 100.352L176.752 101.662Z" fill="#B7C3D8"/>
<path d="M176.752 102.224V101.662L150.045 117.124V117.546L176.752 102.224Z" fill="#BCC4DC"/>
<path d="M147.515 116.14V115.719L150.045 117.124V117.546L147.515 116.14Z" fill="#BCC5D4"/>
<path d="M181.673 107.269L171.789 113.157V99.8796L181.673 94.1963V107.269Z" fill="#D5DBE4"/>
<path d="M171.79 113.173V99.8798L160.025 92.7949V106.37L171.79 113.173Z" fill="#BCC4DC"/>
<path d="M181.674 94.1964L171.79 99.8797L160.025 92.7948L169.754 87.1387L181.674 94.1964Z" fill="#B8C1DB"/>
<path d="M171.132 113.424L161.248 119.312V106.035L171.132 100.352V113.424Z" fill="#D5DBE4"/>
<path d="M161.247 119.328V106.035L149.482 98.9502V112.525L161.247 119.328Z" fill="#BFCAE0"/>
<path d="M171.131 100.352L161.247 106.035L149.482 98.95L159.211 93.2939L171.131 100.352Z" fill="#B8C1DB"/>
<path d="M194.183 114.861L184.299 120.748V107.471L194.183 101.788V114.861Z" fill="#D5DBE4"/>
<path d="M184.3 120.764V107.471L172.535 100.386V113.96L184.3 120.764Z" fill="#BCC4DC"/>
<path d="M194.184 101.787L184.3 107.47L172.535 100.386L182.264 94.7295L194.184 101.787Z" fill="#B8C1DB"/>
<path d="M183.644 121.016L173.76 126.904V113.627L183.644 107.943V121.016Z" fill="#D5DBE4"/>
<path d="M173.759 126.919V113.626L161.994 106.541V120.116L173.759 126.919Z" fill="#BFCAE0"/>
<path d="M183.643 107.942L173.759 113.626L161.994 106.541L171.723 100.885L183.643 107.942Z" fill="#B8C1DB"/>
<path d="M35.6211 122.983L124.74 174.43V111.879L35.6211 60.5723V122.983Z" fill="#A7B8D9"/>
<path d="M35.6225 118.065L124.741 169.512V170.637L34.2168 118.487L35.6225 118.065Z" fill="#E6EDFD"/>
<path d="M34.2168 118.487L124.741 170.637V175.416L34.2168 123.267V118.487Z" fill="#C7D3EB"/>
<path d="M35.6225 109.631L124.741 161.078V162.202L34.2168 110.053L35.6225 109.631Z" fill="#E6EDFD"/>
<path d="M34.2168 110.053L124.741 162.203V166.982L34.2168 114.832V110.053Z" fill="#C7D3EB"/>
<path d="M35.6225 101.478L124.741 152.924V154.049L34.2168 101.899L35.6225 101.478Z" fill="#E6EDFD"/>
<path d="M34.2168 101.899L124.741 154.049V158.828L34.2168 106.679V101.899Z" fill="#C7D3EB"/>
<path d="M35.6225 93.0439L124.741 144.491V145.615L34.2168 93.4656L35.6225 93.0439Z" fill="#E6EDFD"/>
<path d="M34.2168 93.4658L124.741 145.616V150.395L34.2168 98.245V93.4658Z" fill="#C7D3EB"/>
<path d="M35.6225 84.6094L124.741 136.056V137.181L34.2168 85.0311L35.6225 84.6094Z" fill="#E6EDFD"/>
<path d="M34.2168 85.0312L124.741 137.181V141.96L34.2168 89.8105V85.0312Z" fill="#C7D3EB"/>
<path d="M35.6225 75.8955L124.741 127.342V128.467L34.2168 76.3172L35.6225 75.8955Z" fill="#E6EDFD"/>
<path d="M34.2168 76.3174L124.741 128.467V133.246L34.2168 81.0966V76.3174Z" fill="#C7D3EB"/>
<path d="M35.6225 67.7412L124.741 119.188V120.313L34.2168 68.1629L35.6225 67.7412Z" fill="#E6EDFD"/>
<path d="M34.2168 68.1631L124.741 120.313V125.092L34.2168 72.9423V68.1631Z" fill="#C7D3EB"/>
<path d="M35.6225 59.3076L124.741 110.755V111.879L34.2168 59.7293L35.6225 59.3076Z" fill="#E6EDFD"/>
<path d="M34.2168 59.7295L124.741 111.879V116.658L34.2168 64.5087V59.7295Z" fill="#C7D3EB"/>
<path d="M200.648 57.9023L124.743 101.759V102.883L200.648 59.308V57.9023Z" fill="#C0C0C0"/>
<path d="M200.085 59.5898L124.742 102.884V107.663L202.053 62.8228L200.085 59.5898Z" fill="#F4F4F4"/>
<path d="M41.2461 91.7025V75.6143L59.5196 86.1633V102.188L41.2461 91.7025Z" fill="#B6BECF"/>
<path d="M51.3675 95.5132L57.8335 99.2459V94.1856L51.3675 90.4373V95.5132Z" fill="#3F4D69"/>
<path d="M42.9336 90.6546L49.9619 94.7017V89.5939L42.9336 85.584V90.6546Z" fill="#3F4D69"/>
<path d="M51.3675 88.4849L57.8335 92.2177V87.1573L51.3675 83.409V88.4849Z" fill="#3F4D69"/>
<path d="M42.9336 83.5496L49.9619 87.6735V82.5657L42.9336 78.4893V83.5496Z" fill="#3F4D69"/>
<path d="M52.4917 94.7568L51.3672 95.5744L57.8332 99.246V97.8404L52.4917 94.7568Z" fill="#D8DEEA"/>
<path d="M52.4917 94.7941L51.3672 95.5736V90.4365L52.4917 91.0884V94.7941Z" fill="#7B89A8"/>
<path d="M52.4917 87.7666L51.3672 88.4849L57.8332 92.2177V90.8121L52.4917 87.7666Z" fill="#D8DEEA"/>
<path d="M52.4917 87.7657L51.3672 88.4841V83.4082L52.4917 84.111V87.7657Z" fill="#7B89A8"/>
<path d="M44.0581 89.9375L42.9336 90.6491V85.585L44.0581 86.2213V89.9375Z" fill="#7B89A8"/>
<path d="M44.0581 89.9365L49.9619 93.2486V94.7017L42.9336 90.6546L44.0581 89.9365Z" fill="#D8DEEA"/>
<path d="M44.0581 82.9171L42.9336 83.5496V78.4893L44.0581 79.1415V82.9171Z" fill="#7B89A8"/>
<path d="M44.0581 82.916L49.9619 86.2668V87.6724L42.9336 83.5486L44.0581 82.916Z" fill="#D8DEEA"/>
<path d="M71.0469 108.851V92.7627L89.3204 103.312V119.336L71.0469 108.851Z" fill="#B6BECF"/>
<path d="M81.1663 112.662L87.6324 116.394V111.334L81.1663 107.586V112.662Z" fill="#3F4D69"/>
<path d="M72.7324 107.803L79.7607 111.85V106.742L72.7324 102.732V107.803Z" fill="#3F4D69"/>
<path d="M81.1663 105.633L87.6324 109.366V104.306L81.1663 100.557V105.633Z" fill="#3F4D69"/>
<path d="M72.7324 100.698L79.7607 104.822V99.7141L72.7324 95.6377V100.698Z" fill="#3F4D69"/>
<path d="M82.2925 111.904L81.168 112.722L87.634 116.393V114.988L82.2925 111.904Z" fill="#D8DEEA"/>
<path d="M82.2925 111.942L81.168 112.722V107.585L82.2925 108.237V111.942Z" fill="#7B89A8"/>
<path d="M82.2925 104.915L81.168 105.633L87.634 109.366V107.961L82.2925 104.915Z" fill="#D8DEEA"/>
<path d="M82.2925 104.914L81.168 105.633V100.557L82.2925 101.259V104.914Z" fill="#7B89A8"/>
<path d="M73.8569 107.086L72.7324 107.798V102.733L73.8569 103.37V107.086Z" fill="#7B89A8"/>
<path d="M73.8569 107.086L79.7607 110.398V111.851L72.7324 107.804L73.8569 107.086Z" fill="#D8DEEA"/>
<path d="M73.8569 100.066L72.7324 100.698V95.6377L73.8569 96.2899V100.066Z" fill="#7B89A8"/>
<path d="M73.8569 100.065L79.7607 103.416V104.822L72.7324 100.698L73.8569 100.065Z" fill="#D8DEEA"/>
<path d="M102.25 126.843V110.755L120.524 121.304V137.328L102.25 126.843Z" fill="#B6BECF"/>
<path d="M112.371 130.654L118.837 134.387V129.326L112.371 125.578V130.654Z" fill="#3F4D69"/>
<path d="M103.938 125.795L110.966 129.842V124.735L103.938 120.725V125.795Z" fill="#3F4D69"/>
<path d="M112.371 123.626L118.837 127.358V122.298L112.371 118.55V123.626Z" fill="#3F4D69"/>
<path d="M103.938 118.69L110.966 122.814V117.706L103.938 113.63V118.69Z" fill="#3F4D69"/>
<path d="M113.496 129.897L112.371 130.715L118.837 134.387V132.981L113.496 129.897Z" fill="#D8DEEA"/>
<path d="M113.496 129.935L112.371 130.714V125.577L113.496 126.229V129.935Z" fill="#7B89A8"/>
<path d="M113.496 122.907L112.371 123.626L118.837 127.358V125.953L113.496 122.907Z" fill="#D8DEEA"/>
<path d="M113.496 122.906L112.371 123.625V118.549L113.496 119.252V122.906Z" fill="#7B89A8"/>
<path d="M105.062 125.078L103.938 125.79V120.726L105.062 121.362V125.078Z" fill="#7B89A8"/>
<path d="M105.062 125.077L110.966 128.389V129.842L103.938 125.795L105.062 125.077Z" fill="#D8DEEA"/>
<path d="M105.062 118.058L103.938 118.69V113.63L105.062 114.282V118.058Z" fill="#7B89A8"/>
<path d="M105.062 118.058L110.966 121.408V122.814L103.938 118.69L105.062 118.058Z" fill="#D8DEEA"/>
<path d="M151.448 158.265L124.74 174.43V111.879L151.448 85.7334V158.265Z" fill="#E7EAEF"/>
<path d="M219.481 55.3711V119.188L192.492 134.369V63.3833L219.481 55.3711Z" fill="#E7EAEF"/>
<path d="M151.449 107.942L199.241 79.829V61.2744L164.1 72.5196L151.449 85.7328V107.942Z" fill="#E7EAEF"/>
<path d="M191.369 85.1709H192.775V136.337L191.369 135.493V85.1709Z" fill="#A7B8D9"/>
<path d="M219.479 56.0742L124.738 110.754V111.879L220.885 56.4959L219.479 56.0742Z" fill="#C3CBDB"/>
<path d="M220.885 56.4961L124.738 111.879V116.658L220.885 61.1348V56.4961Z" fill="#F2F4FA"/>
<path d="M151.45 154.047L124.742 169.509V170.634L152.855 154.469L151.45 154.047Z" fill="#C3CBDB"/>
<path d="M152.855 154.469L124.742 170.634V175.413L152.855 159.107V154.469Z" fill="#F2F4FA"/>
<path d="M219.485 114.971L192.778 130.433V131.557L220.891 115.392L219.485 114.971Z" fill="#C3CBDB"/>
<path d="M220.891 115.393L192.778 131.558V136.337L220.891 120.031V115.393Z" fill="#F2F4FA"/>
<path d="M151.45 145.613L124.742 161.075V162.2L152.855 146.035L151.45 145.613Z" fill="#C3CBDB"/>
<path d="M152.855 146.035L124.742 162.2V166.979L152.855 150.674V146.035Z" fill="#F2F4FA"/>
<path d="M219.485 106.255L192.778 121.717V122.842L220.891 106.677L219.485 106.255Z" fill="#C3CBDB"/>
<path d="M220.891 106.677L192.778 122.842V127.621L220.891 111.315V106.677Z" fill="#F2F4FA"/>
<path d="M151.45 137.462L124.742 152.924V154.049L152.855 137.884L151.45 137.462Z" fill="#C3CBDB"/>
<path d="M152.855 137.884L124.742 154.049V158.828L152.855 142.522V137.884Z" fill="#F2F4FA"/>
<path d="M219.485 98.3838L192.778 113.846V114.971L220.891 98.8055L219.485 98.3838Z" fill="#C3CBDB"/>
<path d="M220.891 98.8057L192.778 114.971V119.75L220.891 103.444V98.8057Z" fill="#F2F4FA"/>
<path d="M151.45 129.026L124.742 144.489V145.613L152.855 129.448L151.45 129.026Z" fill="#C3CBDB"/>
<path d="M152.855 129.448L124.742 145.613V150.392L152.855 134.087V129.448Z" fill="#F2F4FA"/>
<path d="M219.485 89.9502L192.778 105.412V106.537L220.891 90.3719L219.485 89.9502Z" fill="#C3CBDB"/>
<path d="M220.891 90.3721L192.778 106.537V111.316L220.891 95.0107V90.3721Z" fill="#F2F4FA"/>
<path d="M151.45 120.594L124.742 136.056V137.18L152.855 121.015L151.45 120.594Z" fill="#C3CBDB"/>
<path d="M152.855 121.016L124.742 137.181V141.96L152.855 125.654V121.016Z" fill="#F2F4FA"/>
<path d="M219.485 81.5166L192.778 96.9788V98.1033L220.891 81.9383L219.485 81.5166Z" fill="#C3CBDB"/>
<path d="M220.891 81.9385L192.778 98.1035V102.883L220.891 86.5771V81.9385Z" fill="#F2F4FA"/>
<path d="M151.45 111.879L124.742 127.341V128.466L152.855 112.301L151.45 111.879Z" fill="#C3CBDB"/>
<path d="M152.855 112.301L124.742 128.466V133.245L152.855 116.939V112.301Z" fill="#F2F4FA"/>
<path d="M219.485 72.2393L192.778 87.7015V88.826L220.891 72.661L219.485 72.2393Z" fill="#C3CBDB"/>
<path d="M220.891 72.6611L192.778 88.8262V93.6054L220.891 77.2998V72.6611Z" fill="#F2F4FA"/>
<path d="M219.485 64.5078L124.744 119.188V120.312L220.891 64.9295L219.485 64.5078Z" fill="#C3CBDB"/>
<path d="M220.891 64.9297L124.744 120.312V125.092L220.891 69.5683V64.9297Z" fill="#F2F4FA"/>
<path d="M147.795 126.843V110.755L129.521 121.304V137.328L147.795 126.843Z" fill="#C0C2C6"/>
<path d="M137.673 130.654L131.207 134.387V129.326L137.673 125.578V130.654Z" fill="#3F4D69"/>
<path d="M146.107 125.795L139.079 129.842V124.735L146.107 120.725V125.795Z" fill="#3F4D69"/>
<path d="M137.673 123.626L131.207 127.358V122.298L137.673 118.55V123.626Z" fill="#3F4D69"/>
<path d="M146.107 118.69L139.079 122.814V117.706L146.107 113.63V118.69Z" fill="#3F4D69"/>
<path d="M136.549 129.897L137.674 130.715L131.208 134.387V132.981L136.549 129.897Z" fill="#D8DEEA"/>
<path d="M136.549 129.935L137.674 130.714V125.577L136.549 126.229V129.935Z" fill="#7B89A8"/>
<path d="M136.549 122.907L137.674 123.626L131.208 127.358V125.953L136.549 122.907Z" fill="#D8DEEA"/>
<path d="M136.549 122.906L137.674 123.625V118.549L136.549 119.252V122.906Z" fill="#7B89A8"/>
<path d="M144.983 125.078L146.107 125.79V120.726L144.983 121.362V125.078Z" fill="#7B89A8"/>
<path d="M144.983 125.077L139.079 128.389V129.842L146.107 125.795L144.983 125.077Z" fill="#D8DEEA"/>
<path d="M144.983 118.058L146.107 118.69V113.63L144.983 114.282V118.058Z" fill="#7B89A8"/>
<path d="M144.983 118.058L139.079 121.408V122.814L146.107 118.69L144.983 118.058Z" fill="#D8DEEA"/>
<path d="M215.83 87.766V71.6777L197.557 82.2268V98.2512L215.83 87.766Z" fill="#C0C2C6"/>
<path d="M205.709 91.5767L199.243 95.3094V90.249L205.709 86.5008V91.5767Z" fill="#3F4D69"/>
<path d="M214.143 86.7181L207.114 90.7652V85.6574L214.143 81.6475V86.7181Z" fill="#3F4D69"/>
<path d="M205.709 84.5484L199.243 88.2811V83.2208L205.709 79.4725V84.5484Z" fill="#3F4D69"/>
<path d="M214.143 79.6131L207.114 83.7369V78.6291L214.143 74.5527V79.6131Z" fill="#3F4D69"/>
<path d="M204.584 90.8203L205.709 91.6379L199.243 95.3095V93.9039L204.584 90.8203Z" fill="#D8DEEA"/>
<path d="M204.584 90.8575L205.709 91.6371V86.5L204.584 87.1519V90.8575Z" fill="#7B89A8"/>
<path d="M204.584 83.8301L205.709 84.5484L199.243 88.2812V86.8756L204.584 83.8301Z" fill="#D8DEEA"/>
<path d="M204.584 83.8292L205.709 84.5475V79.4717L204.584 80.1745V83.8292Z" fill="#7B89A8"/>
<path d="M213.018 86.001L214.143 86.7126V81.6484L213.018 82.2848V86.001Z" fill="#7B89A8"/>
<path d="M213.018 86L207.114 89.3121V90.7652L214.143 86.7181L213.018 86Z" fill="#D8DEEA"/>
<path d="M213.018 78.9805L214.143 79.6131V74.5527L213.018 75.205V78.9805Z" fill="#7B89A8"/>
<path d="M213.018 78.9805L207.114 82.3312V83.7369L214.143 79.613L213.018 78.9805Z" fill="#D8DEEA"/>
<path d="M170.281 70.8358L77.5078 17.4209L129.236 1.39648L221.728 54.8113L170.281 70.8358Z" fill="#C1CCE3"/>
<path d="M223.696 54.531L130.361 0.834961L124.176 3.22457L218.073 57.2017L223.696 54.531Z" fill="#D5DBE4"/>
<path d="M219.339 56.356L126.425 2.61683L125.02 2.23828L218.355 56.7777L219.339 56.356Z" fill="#637FB7"/>
<path d="M218.495 56.0748L125.019 2.23828L118.834 4.62789L212.31 59.0267L218.495 56.0748Z" fill="#D5DBE4"/>
<path d="M212.593 58.606L119.679 4.86683L118.273 4.48828L211.609 59.1682L212.593 58.606Z" fill="#637FB7"/>
<path d="M211.749 58.3248L118.273 4.48828L112.088 6.87789L205.142 60.855L211.749 58.3248Z" fill="#D5DBE4"/>
<path d="M205.425 60.5737L112.652 6.8346L111.246 6.45605L204.863 61.2766L205.425 60.5737Z" fill="#637FB7"/>
<path d="M204.721 60.4332L111.245 6.45605L105.061 8.84567L198.818 63.2445L204.721 60.4332Z" fill="#D5DBE4"/>
<path d="M199.099 62.9633L105.904 9.08362L104.498 8.70508L198.396 63.5256L199.099 62.9633Z" fill="#637FB7"/>
<path d="M198.254 62.6822L104.497 8.70508L98.3125 11.0947L191.507 65.0718L198.254 62.6822Z" fill="#D5DBE4"/>
<path d="M192.493 65.0726L99.1576 11.0524L97.752 10.6738L191.087 65.7755L192.493 65.0726Z" fill="#637FB7"/>
<path d="M191.087 64.5104L97.7513 10.6738L91.5664 13.0634L184.761 67.1811L191.087 64.5104Z" fill="#D5DBE4"/>
<path d="M185.185 66.9L92.4115 13.3014L91.0059 12.9229L184.201 67.3217L185.185 66.9Z" fill="#637FB7"/>
<path d="M184.341 66.6188L91.0052 12.9229L84.8203 15.3125L177.734 69.0084L184.341 66.6188Z" fill="#D5DBE4"/>
<path d="M178.013 68.8677L85.099 15.2692L83.6934 14.8906L177.169 69.2894L178.013 68.8677Z" fill="#637FB7"/>
<path d="M177.028 68.5866L83.6927 14.8906L77.5078 17.2802L170.281 70.8357L177.028 68.5866Z" fill="#D5DBE4"/>
<path d="M170.283 70.8359V72.5226L223.698 56.2171V54.5303L218.497 56.6388V56.0765L211.75 58.8878V58.3255L204.722 60.8557V60.434L198.256 63.2453V62.6831L191.087 65.0727V64.5104L184.34 67.1812V66.6189L177.03 69.1491V68.5868L170.283 70.8359Z" fill="#C9CEDA"/>
<path d="M127.553 113.285L31.5469 58.1838L77.5118 17.1387L170.285 70.8347L127.553 113.285Z" fill="#C1CCE1"/>
<path d="M129.94 110.896L34.2154 55.7939L30.9824 58.7458L126.989 113.847L129.94 110.896Z" fill="#B6C2D2"/>
<path d="M126.989 115.534L30.9824 60.4319V58.7451L126.989 113.847V115.534Z" fill="#4B6089"/>
<path d="M134.018 107.522L37.5904 52.5605L34.2168 55.0907L130.364 110.614L134.018 107.522Z" fill="#B6C2D2"/>
<path d="M130.223 111.036L34.2168 55.9342V55.0908L130.223 110.052V111.036Z" fill="#4B6089"/>
<path d="M136.97 104.43L41.2445 49.4688L37.5898 51.7178L134.018 107.382L136.97 104.43Z" fill="#B6C2D2"/>
<path d="M133.596 107.663L37.5898 52.5612V51.7178L134.018 106.96L133.596 107.663Z" fill="#4B6089"/>
<path d="M140.064 101.197L44.7602 46.2363L41.2461 48.9071L137.252 104.009L140.064 101.197Z" fill="#B6C2D2"/>
<path d="M136.831 104.431L41.2461 49.4695V48.9072L137.252 104.009L136.831 104.431Z" fill="#4B6089"/>
<path d="M143.437 97.9661L48.4144 43.2861L44.6191 45.8163L140.485 100.777L143.437 97.9661Z" fill="#B6C2D2"/>
<path d="M139.922 101.199L44.6191 46.3787V45.8164L140.485 100.777L139.922 101.199Z" fill="#4B6089"/>
<path d="M146.245 95.0129L51.5044 40.333L47.9902 43.0038L143.294 97.8243L146.245 95.0129Z" fill="#B6C2D2"/>
<path d="M143.012 98.2461L47.9902 43.5662V43.0039L143.575 97.8244L143.012 98.2461Z" fill="#4B6089"/>
<path d="M149.341 91.7786L54.8813 37.2393L51.3672 39.91L146.671 94.5899L149.341 91.7786Z" fill="#B6C2D2"/>
<path d="M146.249 95.0118L51.3672 40.4724V39.9102L146.671 94.5901L146.249 95.0118Z" fill="#4B6089"/>
<path d="M152.714 88.5463L58.3949 34.1475L54.7402 36.8182L149.903 91.4981L152.714 88.5463Z" fill="#B6C2D2"/>
<path d="M149.341 91.7794L54.7402 37.3806V36.8184L149.762 91.3577L149.341 91.7794Z" fill="#4B6089"/>
<path d="M155.806 85.5941L61.6274 31.1953L58.1133 33.8661L152.995 88.2649L155.806 85.5941Z" fill="#B6C2D2"/>
<path d="M152.714 88.6867L58.1133 34.4285V33.8662L152.995 88.265L152.714 88.6867Z" fill="#4B6089"/>
<path d="M159.037 82.2203L65.1391 28.2432L61.4844 30.7733L156.085 85.1722L159.037 82.2203Z" fill="#B6C2D2"/>
<path d="M155.663 85.5939L61.4844 31.3357V30.7734L156.225 85.1722L155.663 85.5939Z" fill="#4B6089"/>
<path d="M162.271 79.1285L68.5141 25.1514L64.8594 27.8221L159.319 82.0804L162.271 79.1285Z" fill="#B6C2D2"/>
<path d="M159.038 82.5022L64.8594 28.3845V27.8223L159.46 82.0805L159.038 82.5022Z" fill="#4B6089"/>
<path d="M165.363 76.1773L72.0278 22.2002L68.5137 24.8709L162.552 78.8481L165.363 76.1773Z" fill="#B6C2D2"/>
<path d="M162.271 79.2699L68.5137 25.4334V24.8711L162.552 78.8482L162.271 79.2699Z" fill="#4B6089"/>
<path d="M170.284 70.8347L77.5113 17.1387L71.8887 21.9179L165.646 75.7544L170.284 70.8347Z" fill="#B6C2D2"/>
<path d="M165.084 76.0357L71.8887 22.4802V21.918L165.084 75.3328V76.0357Z" fill="#4B6089"/>
<path d="M126.99 115.536L170.284 72.5227V70.8359L165.083 75.334V76.0031L161.937 78.4968V79.1293L158.683 81.6595V82.3623L155.525 84.7519V85.4995L152.433 87.9849V88.5718L149.203 91.0774V91.7802L146.091 94.3104V94.8726L142.836 97.4028V98.1056L139.782 100.355V101.141L136.611 103.632V104.291L133.316 106.54V107.524L129.942 109.913V110.916L126.99 113.849V115.536Z" fill="#C9CEDA"/>
<path d="M44.4434 199.135L71.1507 214.597L73.6808 213.191L46.9775 197.824L44.4434 199.135Z" fill="#E7EAEF"/>
<path d="M44.4434 199.697V199.135L71.1506 214.597V215.019L44.4434 199.697Z" fill="#BCC4DC"/>
<path d="M73.6806 213.613V213.191L71.1504 214.597V215.019L73.6806 213.613Z" fill="#B5C1D4"/>
<path d="M72.9929 212.77L70.4453 214.175V210.38L72.9929 208.91V212.77Z" fill="#BDC4D1"/>
<path d="M70.4448 214.176V210.661L67.5625 209.115V212.53L70.4448 214.176Z" fill="#BCC4DC"/>
<path d="M72.9923 208.91L70.2774 210.268L67.5625 208.91L70.2774 207.553L72.9923 208.91Z" fill="#F2F4FA"/>
<path d="M62.1368 206.421L59.4219 207.779V203.933L62.1368 202.575V206.421Z" fill="#BDC4D1"/>
<path d="M59.422 207.779V203.933L56.707 202.575V206.195L59.422 207.779Z" fill="#BCC4DC"/>
<path d="M62.1369 202.575L59.422 203.933L56.707 202.575L59.422 201.218L62.1369 202.575Z" fill="#F2F4FA"/>
<path d="M51.2735 200.312L48.5586 201.524V197.823L51.2735 196.466V200.312Z" fill="#BDC4D1"/>
<path d="M48.5587 201.669V197.823L45.8438 196.466V200.086L48.5587 201.669Z" fill="#BCC4DC"/>
<path d="M51.2736 196.466L48.5587 197.823L45.8438 196.466L48.5587 195.108L51.2736 196.466Z" fill="#F2F4FA"/>
<path d="M44.4434 195.48L71.1855 210.946L73.6808 209.536L46.9775 194.204L44.4434 195.48Z" fill="#E7EAEF"/>
<path d="M44.4434 195.902V195.48L71.1855 210.947V211.399L44.4434 195.902Z" fill="#BCC4DC"/>
<path d="M73.6809 209.959V209.537L71.1855 210.947V211.399L73.6809 209.959Z" fill="#B5C1D4"/>
<path d="M57.0918 191.827L83.7991 207.289L86.3293 205.884L59.6259 190.517L57.0918 191.827Z" fill="#E7EAEF"/>
<path d="M57.0918 192.389V191.827L83.7991 207.289V207.711L57.0918 192.389Z" fill="#BCC4DC"/>
<path d="M86.329 206.306V205.885L83.7988 207.29V207.712L86.329 206.306Z" fill="#B5C1D4"/>
<path d="M85.6433 205.462L83.0957 206.868V203.073L85.6433 201.603V205.462Z" fill="#BDC4D1"/>
<path d="M83.0952 206.868V203.354L80.2129 201.808V205.223L83.0952 206.868Z" fill="#BCC4DC"/>
<path d="M85.6427 201.603L82.9278 202.96L80.2129 201.603L82.9278 200.245L85.6427 201.603Z" fill="#F2F4FA"/>
<path d="M74.7833 199.115L72.0684 200.472V196.626L74.7833 195.269V199.115Z" fill="#BDC4D1"/>
<path d="M72.0684 200.472V196.626L69.3535 195.269V198.888L72.0684 200.472Z" fill="#BCC4DC"/>
<path d="M74.7834 195.27L72.0684 196.627L69.3535 195.27L72.0684 193.912L74.7834 195.27Z" fill="#F2F4FA"/>
<path d="M63.9239 193.006L61.209 194.218V190.518L63.9239 189.16V193.006Z" fill="#BDC4D1"/>
<path d="M61.2091 194.364V190.518L58.4941 189.16V192.78L61.2091 194.364Z" fill="#BCC4DC"/>
<path d="M63.924 189.16L61.2091 190.518L58.4941 189.16L61.2091 187.803L63.924 189.16Z" fill="#F2F4FA"/>
<path d="M57.0918 188.172L83.834 203.638L86.3293 202.229L59.6259 186.896L57.0918 188.172Z" fill="#E7EAEF"/>
<path d="M57.0918 188.595V188.173L83.834 203.639V204.092L57.0918 188.595Z" fill="#BCC4DC"/>
<path d="M86.3293 202.651V202.229L83.834 203.639V204.092L86.3293 202.651Z" fill="#B5C1D4"/>
<path d="M67.209 185.911L93.9163 201.373L96.4465 199.968L69.7431 184.601L67.209 185.911Z" fill="#E7EAEF"/>
<path d="M67.209 186.473V185.911L93.9163 201.373V201.795L67.209 186.473Z" fill="#BCC4DC"/>
<path d="M96.4481 200.39V199.969L93.918 201.374V201.796L96.4481 200.39Z" fill="#B5C1D4"/>
<path d="M95.7644 199.546L93.2168 200.952V197.156L95.7644 195.687V199.546Z" fill="#BDC4D1"/>
<path d="M93.2163 200.952V197.438L90.334 195.892V199.307L93.2163 200.952Z" fill="#BCC4DC"/>
<path d="M95.7638 195.687L93.0489 197.044L90.334 195.687L93.0489 194.329L95.7638 195.687Z" fill="#F2F4FA"/>
<path d="M84.9044 193.199L82.1895 194.556V190.71L84.9044 189.353V193.199Z" fill="#BDC4D1"/>
<path d="M82.1895 194.556V190.71L79.4746 189.353V192.972L82.1895 194.556Z" fill="#BCC4DC"/>
<path d="M84.9045 189.353L82.1895 190.71L79.4746 189.353L82.1895 187.995L84.9045 189.353Z" fill="#F2F4FA"/>
<path d="M74.047 187.089L71.332 188.301V184.601L74.047 183.243V187.089Z" fill="#BDC4D1"/>
<path d="M71.3302 188.447V184.601L68.6152 183.243V186.863L71.3302 188.447Z" fill="#BCC4DC"/>
<path d="M74.0451 183.244L71.3302 184.602L68.6152 183.244L71.3302 181.887L74.0451 183.244Z" fill="#F2F4FA"/>
<path d="M67.209 182.257L93.9511 197.723L96.4465 196.314L69.7431 180.981L67.209 182.257Z" fill="#E7EAEF"/>
<path d="M67.209 182.68V182.258L93.9511 197.724V198.177L67.209 182.68Z" fill="#BCC4DC"/>
<path d="M96.4465 196.735V196.313L93.9512 197.723V198.176L96.4465 196.735Z" fill="#B5C1D4"/>
<path d="M95.8926 194.954L69.1853 210.416L66.6551 209.011L93.3585 193.644L95.8926 194.954Z" fill="#DEE3EB"/>
<path d="M95.8926 195.516V194.954L69.1853 210.416V210.838L95.8926 195.516Z" fill="#99A7BC"/>
<path d="M66.6554 209.432V209.011L69.1855 210.416V210.838L66.6554 209.432Z" fill="#8793AE"/>
<path d="M91.3926 192.142L64.6853 207.604L62.1551 206.198L88.8585 190.831L91.3926 192.142Z" fill="#DEE3EB"/>
<path d="M91.3926 192.704V192.142L64.6853 207.604V208.025L91.3926 192.704Z" fill="#99A7BC"/>
<path d="M62.1534 206.62V206.198L64.6836 207.604V208.026L62.1534 206.62Z" fill="#8793AE"/>
<path d="M86.6113 189.331L59.904 204.793L57.3739 203.388L84.0772 188.021L86.6113 189.331Z" fill="#DEE3EB"/>
<path d="M86.6113 189.893V189.331L59.904 204.793V205.215L86.6113 189.893Z" fill="#99A7BC"/>
<path d="M57.3741 203.809V203.388L59.9043 204.793V205.215L57.3741 203.809Z" fill="#8793AE"/>
<path d="M82.1133 186.8L55.406 202.262L52.8758 200.856L79.5792 185.489L82.1133 186.8Z" fill="#DEE3EB"/>
<path d="M82.1133 187.362V186.8L55.406 202.262V202.684L82.1133 187.362Z" fill="#99A7BC"/>
<path d="M52.8761 201.278V200.856L55.4062 202.262V202.684L52.8761 201.278Z" fill="#8793AE"/>
<path d="M77.8965 184.552L51.1892 200.014L48.659 198.608L75.3624 183.241L77.8965 184.552Z" fill="#DEE3EB"/>
<path d="M77.8965 185.114V184.552L51.1892 200.014V200.436L77.8965 185.114Z" fill="#99A7BC"/>
<path d="M48.6593 199.03V198.608L51.1895 200.014V200.436L48.6593 199.03Z" fill="#8793AE"/>
<path d="M73.9609 182.303L47.2536 197.765L44.7235 196.359L71.4268 180.992L73.9609 182.303Z" fill="#DEE3EB"/>
<path d="M73.9609 182.865V182.303L47.2536 197.765V198.187L73.9609 182.865Z" fill="#BCC4DC"/>
<path d="M44.7218 196.781V196.359L47.252 197.765V198.187L44.7218 196.781Z" fill="#BCC5D4"/>
<path d="M78.8818 187.91L68.998 193.798V180.521L78.8818 174.838V187.91Z" fill="#D5DBE4"/>
<path d="M68.999 193.813V180.52L57.2344 173.436V187.01L68.999 193.813Z" fill="#BCC4DC"/>
<path d="M78.8828 174.837L68.999 180.52L57.2344 173.435L66.9628 167.779L78.8828 174.837Z" fill="#F2F4FA"/>
<path d="M68.0576 195.191L58.1738 201.078V187.802L68.0576 182.118V195.191Z" fill="#D5DBE4"/>
<path d="M58.1748 201.094V187.801L46.4102 180.716V194.29L58.1748 201.094Z" fill="#BFCAE0"/>
<path d="M68.0586 182.117L58.1748 187.801L46.4102 180.716L56.1386 175.06L68.0586 182.117Z" fill="#BCC4DC"/>
<path d="M91.3916 195.5L81.5078 201.388V188.111L91.3916 182.428V195.5Z" fill="#D5DBE4"/>
<path d="M81.5088 201.403V188.11L69.7441 181.025V194.6L81.5088 201.403Z" fill="#BCC4DC"/>
<path d="M91.3926 182.427L81.5088 188.11L69.7441 181.025L79.4726 175.369L91.3926 182.427Z" fill="#F2F4FA"/>
<path d="M78.8818 174.698L68.998 180.585V167.308L78.8818 161.625V174.698Z" fill="#D5DBE4"/>
<path d="M68.999 180.601V167.308L57.2344 160.223V173.797L68.999 180.601Z" fill="#BCC4DC"/>
<path d="M78.8828 161.624L68.999 167.307L57.2344 160.222L66.9628 154.566L78.8828 161.624Z" fill="#F2F4FA"/>
<path d="M68.3408 181.135L58.457 187.023V173.746L68.3408 168.062V181.135Z" fill="#D5DBE4"/>
<path d="M58.4561 187.038V173.745L46.6914 166.66V180.235L58.4561 187.038Z" fill="#BFCAE0"/>
<path d="M68.3399 168.062L58.4561 173.745L46.6914 166.66L56.4199 161.004L68.3399 168.062Z" fill="#F2F4FA"/>
<path d="M91.3916 182.007L81.5078 187.895V174.618L91.3916 168.935V182.007Z" fill="#D5DBE4"/>
<path d="M81.5088 187.91V174.617L69.7441 167.532V181.107L81.5088 187.91Z" fill="#C2CADC"/>
<path d="M91.3926 168.934L81.5088 174.617L69.7441 167.532L79.4726 161.876L91.3926 168.934Z" fill="#F2F4FA"/>
<path d="M80.8467 201.655L70.9629 207.542V194.265L80.8467 188.582V201.655Z" fill="#D5DBE4"/>
<path d="M70.9639 207.559V194.266L59.1992 187.181V200.755L70.9639 207.559Z" fill="#BFCAE0"/>
<path d="M80.8477 188.582L70.9639 194.265L59.1992 187.18L68.9277 181.524L80.8477 188.582Z" fill="#F2F4FA"/>
</svg>
