<svg width="25" height="26" viewBox="0 0 25 26" fill="none" xmlns="http://www.w3.org/2000/svg">
<path fill-rule="evenodd" clip-rule="evenodd" d="M12.4093 0.324629C12.892 0.114447 13.4427 0.114447 13.9253 0.324629L23.7255 4.59422C24.3997 4.88795 24.834 5.54331 24.834 6.2663V17.9543C24.834 18.6772 24.3997 19.3327 23.7254 19.6264L15.4771 23.2199C15.4926 23.3265 15.5007 23.4356 15.5007 23.5464C15.5007 24.8096 14.456 25.8337 13.1673 25.8337C11.8786 25.8337 10.834 24.8096 10.834 23.5464C10.834 23.4356 10.842 23.3265 10.8576 23.2199L3.4385 19.9877C3.19709 20.0705 2.93757 20.1156 2.66732 20.1156C1.37867 20.1156 0.333984 19.0916 0.333984 17.8283C0.333984 16.9817 0.803221 16.2425 1.50065 15.8471V8.37337C0.803217 7.97789 0.333984 7.23872 0.333984 6.39213C0.333984 5.12892 1.37866 4.10489 2.66732 4.10489C2.93765 4.10489 3.19724 4.14995 3.4387 4.23283L12.4093 0.324629ZM3.83398 8.37337V15.8471C4.53141 16.2425 5.00065 16.9817 5.00065 17.8283C5.00065 17.9392 4.9926 18.0483 4.97703 18.155L12.0009 21.215V12.7835L3.86731 8.35411C3.85626 8.36062 3.84515 8.36704 3.83398 8.37337ZM14.3342 21.2148L22.5007 17.657V8.33604L14.3342 12.7834V21.2148ZM21.6396 6.18845L13.1674 10.8023L5.00034 6.35463C4.99874 6.25666 4.99085 6.16019 4.97705 6.06559L13.1673 2.49737L21.6396 6.18845Z" fill="#080A0F"/>
</svg>
