<svg width="144" height="175" viewBox="0 0 144 175" fill="none" xmlns="http://www.w3.org/2000/svg">
<path d="M144.003 48.1367V139.538L135.932 137.09V52.9629L144.003 48.1367Z" fill="#D9D9D9"/>
<path d="M118.063 97.7511L53.2363 61.6426V67.7627L118.063 103.697V97.7511Z" fill="#9F9F9F"/>
<path d="M118.115 97.7515L52.627 62.1218L79.7397 45.4248L143.82 81.5333L118.115 97.7515Z" fill="#D9D9D9"/>
<path d="M143.685 87.6536L118.062 103.26V97.4456L143.685 81.2275V87.6536Z" fill="#BBBBBB"/>
<path d="M58.3681 31.8237V127.908L52.6641 124.477V28.7637L58.3681 31.8237Z" fill="#9F9F9F"/>
<path d="M143.681 120.831L118.059 136.437V130.623L143.681 114.405V120.831Z" fill="#BBBBBB"/>
<path d="M118.061 130.927L53.2344 94.8184V100.938L118.061 136.872V130.927Z" fill="#9F9F9F"/>
<path d="M118.113 130.927L52.625 95.2976L79.7378 78.6006L143.818 114.709L118.113 130.927Z" fill="#D9D9D9"/>
<path d="M103.317 102.645L87.9375 111.806V91.2952L103.317 82.4473V102.645Z" fill="#ACACAC"/>
<path d="M87.9354 112.15V91.2897L69.7598 80.3447V101.315L87.9354 112.15Z" fill="#C7C7C7"/>
<path d="M103.315 82.3859L87.9354 91.2891L69.7598 80.3441L84.7896 71.6064L103.315 82.3859Z" fill="#F2F2F2"/>
<path d="M115.032 112.025L104.604 118.237V104.329L115.032 98.3291V112.025Z" fill="#E8E8E8"/>
<path d="M104.604 118.475V104.33L92.2793 96.9082V111.128L104.604 118.475Z" fill="#C7C7C7"/>
<path d="M115.032 98.2927L104.604 104.33L92.2793 96.9082L102.471 90.9834L115.032 98.2927Z" fill="#F2F2F2"/>
<path d="M117.931 155.631V64.2631L112.227 61.2031V152.121L117.931 155.631Z" fill="#9F9F9F"/>
<path d="M121.871 62.0078L117.922 64.2658V155.633L121.871 153.174V62.0078Z" fill="#BFBFBF"/>
<path d="M86.3952 63.8802L75.9668 70.092V56.1842L86.3952 50.1846V63.8802Z" fill="#A7A5A5"/>
<path d="M75.969 70.331V56.1862L63.6445 48.7646V62.9842L75.969 70.331Z" fill="#C7C7C7"/>
<path d="M86.3974 50.1482L75.969 56.1852L63.6445 48.7637L73.8359 42.8389L86.3974 50.1482Z" fill="#F2F2F2"/>
<path d="M100.467 72.4524L90.0391 78.6642V64.7564L100.467 58.7568V72.4524Z" fill="#E8E8E8"/>
<path d="M90.0393 78.9033V64.7584L77.7148 57.3369V71.5565L90.0393 78.9033Z" fill="#C7C7C7"/>
<path d="M100.468 58.7214L90.0393 64.7585L77.7148 57.3369L87.9062 51.4121L100.468 58.7214Z" fill="#F2F2F2"/>
<path d="M143.926 48.5391L139.977 50.797V142.164L143.926 139.705V48.5391Z" fill="#C2C2C2"/>
<path d="M143.683 54.4749L118.061 70.081V64.2669L143.683 48.0488V54.4749Z" fill="#BBBBBB"/>
<path d="M118.063 64.5724L53.2363 28.4639V34.584L118.063 70.5179V64.5724Z" fill="#9F9F9F"/>
<path d="M118.115 64.5719L52.627 28.9422L79.7397 12.2451L143.82 48.3536L118.115 64.5719Z" fill="#D9D9D9"/>
<path d="M94.1372 31.0385L78.7578 40.1995V19.6888L94.1372 10.8408V31.0385Z" fill="#E8E8E8"/>
<path d="M78.7557 40.5435V19.6833L60.5801 8.73828V29.7088L78.7557 40.5435Z" fill="#C7C7C7"/>
<path d="M94.135 10.7794L78.7557 19.6827L60.5801 8.7377L75.6099 0L94.135 10.7794Z" fill="#F2F2F2"/>
<path d="M105.876 40.4212L95.4473 46.633V32.7252L105.876 26.7256V40.4212Z" fill="#E8E8E8"/>
<path d="M95.4475 46.8701V32.7252L83.123 25.3037V39.5233L95.4475 46.8701Z" fill="#C7C7C7"/>
<path d="M105.876 26.6882L95.4475 32.7253L83.123 25.3037L93.3144 19.3789L105.876 26.6882Z" fill="#F2F2F2"/>
<path d="M50.7575 142.66L35.2461 151.9V131.213L50.7575 122.289V142.66Z" fill="#E8E8E8"/>
<path d="M35.2477 152.249V131.21L16.916 120.171V141.321L35.2477 152.249Z" fill="#C7C7C7"/>
<path d="M50.7591 122.228L35.2477 131.208L16.916 120.169L32.0749 111.356L50.7591 122.228Z" fill="#9D9B9B"/>
<path d="M33.8415 152.532L18.3301 161.772V141.085L33.8415 132.161V152.532Z" fill="#E8E8E8"/>
<path d="M18.3317 162.12V141.081L0 130.042V151.193L18.3317 162.12Z" fill="#C7C7C7"/>
<path d="M33.8431 132.102L18.3317 141.081L0 130.042L15.1589 121.229L33.8431 132.102Z" fill="#F2F2F2"/>
<path d="M70.4919 154.654L54.9805 163.894V143.207L70.4919 134.283V154.654Z" fill="#E8E8E8"/>
<path d="M54.9821 164.241V143.202L36.6504 132.163V153.314L54.9821 164.241Z" fill="#C7C7C7"/>
<path d="M70.4935 134.225L54.9821 143.204L36.6504 132.165L51.8093 123.353L70.4935 134.225Z" fill="#F2F2F2"/>
<path d="M53.5778 164.527L38.0664 173.767V153.08L53.5778 144.156V164.527Z" fill="#E8E8E8"/>
<path d="M38.068 174.113V153.073L19.7363 142.034V163.185L38.068 174.113Z" fill="#C7C7C7"/>
<path d="M53.5794 144.096L38.068 153.075L19.7363 142.036L34.8952 133.224L53.5794 144.096Z" fill="#F2F2F2"/>
<path d="M51.0461 120.975L35.6777 130.13V109.634L51.0461 100.792V120.975Z" fill="#E8E8E8"/>
<path d="M35.6763 130.483V109.637L17.5137 98.7002V119.656L35.6763 130.483Z" fill="#C7C7C7"/>
<path d="M51.0447 100.737L35.6763 109.634L17.5137 98.6963L32.5328 89.9648L51.0447 100.737Z" fill="#F2F2F2"/>
</svg>
