<svg width="112" height="131" viewBox="0 0 112 131" fill="none" xmlns="http://www.w3.org/2000/svg">
<path d="M111.243 35.415L111.29 108.054L104.844 106.099V38.8992L111.243 35.415Z" fill="#6A7C9F"/>
<path d="M111.045 93.1096L90.5801 105.576V100.931L111.045 87.9766V93.1096Z" fill="#ADB5CE"/>
<path d="M90.5809 101.176L38.8008 72.333V77.2216L90.5809 105.925V101.176Z" fill="#6A7C9F"/>
<path d="M90.6186 101.176L38.3105 72.7152L59.9667 59.3779L111.151 88.2207L90.6186 101.176Z" fill="#BCC4DC"/>
<path d="M80.9367 82.2254L69.5508 89.0079V73.7131L80.9367 67.166V82.2254Z" fill="#D5DBE4"/>
<path d="M69.5527 89.0257V73.7125L56 65.5508V81.1885L69.5527 89.0257Z" fill="#ADB5CE"/>
<path d="M80.9386 67.1655L69.5527 73.7125L56 65.5509L67.207 59.0352L80.9386 67.1655Z" fill="#F2F4FA"/>
<path d="M88.3509 89.4981L80.252 94.3227V83.4432L88.3509 78.7861V89.4981Z" fill="#D5DBE4"/>
<path d="M80.2516 94.3348V83.4423L70.6113 77.6367V88.7601L80.2516 94.3348Z" fill="#ADB5CE"/>
<path d="M88.3506 78.7862L80.2516 83.4432L70.6113 77.6377L78.5831 73.0029L88.3506 78.7862Z" fill="#F2F4FA"/>
<path d="M111.045 66.6067L90.5801 79.0726V74.4284L111.045 61.4736V66.6067Z" fill="#ADB5CE"/>
<path d="M90.5809 74.6738L38.8008 45.8311V50.7197L90.5809 79.423V74.6738Z" fill="#6A7C9F"/>
<path d="M90.6186 74.6736L38.3105 46.2132L59.9667 32.876L111.151 61.7188L90.6186 74.6736Z" fill="#BCC4DC"/>
<path d="M111.226 35.3662L108.072 37.1698V110.153L111.349 108.108L111.226 35.3662Z" fill="#ADB5CE"/>
<path d="M42.8861 22.2451V98.7668L38.3301 96.0255V19.8008L42.8861 22.2451Z" fill="#6A7C9F"/>
<path d="M90.474 120.909V47.9257L85.918 45.4814V118.105L90.474 120.909Z" fill="#6A7C9F"/>
<path d="M93.6288 46.1221L90.4746 47.9257V120.909L93.6288 118.944V46.1221Z" fill="#ADB5CE"/>
<path d="M66.5541 50.0323L58.4551 54.8568V43.9774L66.5541 39.3203V50.0323Z" fill="#D5DBE4"/>
<path d="M58.4547 54.869V43.9764L48.8145 38.1709V49.2942L58.4547 54.869Z" fill="#ADB5CE"/>
<path d="M66.5537 39.3204L58.4547 43.9774L48.8145 38.1718L56.7862 33.5371L66.5537 39.3204Z" fill="#F2F4FA"/>
<path d="M78.9467 56.9161L70.8477 61.7406V50.8612L78.9467 46.2041V56.9161Z" fill="#D5DBE4"/>
<path d="M70.8473 61.7528V50.8602L61.207 45.0547V56.178L70.8473 61.7528Z" fill="#ADB5CE"/>
<path d="M78.9463 46.2042L70.8473 50.8612L61.207 45.0556L69.1788 40.4209L78.9463 46.2042Z" fill="#F2F4FA"/>
<path d="M111.045 40.1025L90.5801 52.5684V47.9242L111.242 35.415L111.045 40.1025Z" fill="#ADB5CE"/>
<path d="M90.5816 48.1687L38.375 19.7686V24.0134L90.5816 52.9179V48.1687Z" fill="#6A7C9F"/>
<path d="M90.6206 48.1687L38.375 19.7686L59.9687 6.37109L111.244 35.415L90.6206 48.1687Z" fill="#BCC4DC"/>
<path d="M67.7912 21.379L57.7637 27.3524V13.8822L67.7912 8.11621V21.379Z" fill="#D5DBE4"/>
<path d="M57.7659 27.3677V13.8813L45.8301 6.69336V20.4655L57.7659 27.3677Z" fill="#ADB5CE"/>
<path d="M67.7935 8.11548L57.7659 13.8814L45.8301 6.69345L55.7001 0.955078L67.7935 8.11548Z" fill="#F2F4FA"/>
<path d="M77.7982 29.3809L69.6992 34.2055V23.326L77.7982 18.6689V29.3809Z" fill="#D5DBE4"/>
<path d="M69.6988 34.2177V23.3251L60.0586 17.5195V28.6429L69.6988 34.2177Z" fill="#ADB5CE"/>
<path d="M77.7978 18.669L69.6988 23.326L60.0586 17.5205L68.0303 12.8857L77.7978 18.669Z" fill="#F2F4FA"/>
<path d="M38.955 107.48L27.3594 114.388V98.8112L38.955 92.1436V107.48Z" fill="#D5DBE4"/>
<path d="M27.3608 114.407V98.812L13.5586 90.5V106.426L27.3608 114.407Z" fill="#6A7C9F"/>
<path d="M38.9564 92.1443L27.3608 98.8119L13.5586 90.4999L24.972 83.8643L38.9564 92.1443Z" fill="#6A7C9F"/>
<path d="M26.2557 114.703L14.6602 121.61V106.034L26.2557 99.3662V114.703Z" fill="#D5DBE4"/>
<path d="M14.6616 121.629V106.034L0.859375 97.7217V113.647L14.6616 121.629Z" fill="#ADB5CE"/>
<path d="M26.2572 99.366L14.6616 106.034L0.859375 97.7216L12.2727 91.0859L26.2572 99.366Z" fill="#F2F4FA"/>
<path d="M53.6327 116.385L42.0371 123.293V107.716L53.6327 101.049V116.385Z" fill="#D5DBE4"/>
<path d="M42.0385 123.312V107.717L28.2363 99.4053V115.331L42.0385 123.312Z" fill="#6A7C9F"/>
<path d="M53.6341 101.05L42.0385 107.717L28.2363 99.4052L39.6497 92.7695L53.6341 101.05Z" fill="#F2F4FA"/>
<path d="M41.2616 123.939L29.666 130.847V115.27L41.2616 108.603V123.939Z" fill="#D5DBE4"/>
<path d="M29.6674 130.866V115.271L15.8652 106.959V122.885L29.6674 130.866Z" fill="#ADB5CE"/>
<path d="M41.263 108.603L29.6674 115.271L15.8652 106.959L27.2786 100.323L41.263 108.603Z" fill="#F2F4FA"/>
<path d="M38.2585 92.0039L27.125 98.6361V83.6803L38.2585 77.2783V92.0039Z" fill="#D5DBE4"/>
<path d="M27.1253 98.6558V83.6819L13.873 75.7012V90.9922L27.1253 98.6558Z" fill="#C2CADC"/>
<path d="M38.2588 77.2792L27.1253 83.6811L13.873 75.7004L24.8316 69.3291L38.2588 77.2792Z" fill="#F2F4FA"/>
</svg>
