<svg width="28" height="19" viewBox="0 0 28 19" fill="none" xmlns="http://www.w3.org/2000/svg">
<path fill-rule="evenodd" clip-rule="evenodd" d="M1.16754 0.833008H16.8009C17.8319 0.833008 18.6675 1.66878 18.6675 2.69967V4.33301H24.046C24.7836 4.33301 25.4522 4.76741 25.7518 5.44156L27.8402 10.1404C27.9461 10.379 28.0009 10.6371 28.0009 10.8982V14.133C28.0009 15.164 27.1652 15.9997 26.1342 15.9997H24.3017C23.8213 17.3591 22.5248 18.333 21.0009 18.333C19.4769 18.333 18.1805 17.3591 17.7 15.9997H12.6351C12.1546 17.3591 10.8581 18.333 9.33421 18.333C7.81029 18.333 6.51383 17.3591 6.03336 15.9997H4.20088C3.16998 15.9997 2.33421 15.164 2.33421 14.133V8.41634C2.33421 7.77201 2.85655 7.24967 3.50088 7.24967C4.14521 7.24967 4.66754 7.77201 4.66754 8.41634V13.6663H6.03336C6.51383 12.3069 7.81029 11.333 9.33421 11.333C10.8581 11.333 12.1546 12.3069 12.6351 13.6663H16.3342V3.16634H1.16754C-0.337098 3.16634 -0.337098 0.833008 1.16754 0.833008ZM18.6675 6.66634V12.2242C19.2868 11.67 20.1045 11.333 21.0009 11.333C22.5248 11.333 23.8213 12.3069 24.3017 13.6663H25.6675V10.9972L23.7427 6.66634H18.6675ZM19.8342 14.833C19.8342 15.4774 20.3565 15.9997 21.0009 15.9997C21.6452 15.9997 22.1675 15.4774 22.1675 14.833C22.1675 14.1886 21.6452 13.6663 21.0009 13.6663C20.3565 13.6663 19.8342 14.1886 19.8342 14.833ZM9.33421 13.6663C8.68987 13.6663 8.16754 14.1887 8.16754 14.833C8.16754 15.4774 8.68987 15.9997 9.33421 15.9997C9.97855 15.9997 10.5009 15.4774 10.5009 14.833C10.5009 14.1887 9.97855 13.6663 9.33421 13.6663Z" fill="#080A0F"/>
<path d="M2.33421 4.33301C0.829569 4.33301 0.829569 6.66634 2.33421 6.66634H7.00088C8.50552 6.66634 8.50552 4.33301 7.00088 4.33301H2.33421Z" fill="#080A0F"/>
</svg>
