<svg width="133" height="134" viewBox="0 0 133 134" fill="none" xmlns="http://www.w3.org/2000/svg">
<path d="M81.4001 83.5479L56.5312 98.3636V65.1923L81.4001 50.8828V83.5479Z" fill="#E8E8E8"/>
<path d="M56.5271 98.9258V65.1892L27.1367 47.4883V81.4031L56.5271 98.9258Z" fill="#C7C7C7"/>
<path d="M81.396 50.7946L56.5271 65.1935L27.1367 47.4925L51.4403 33.3613L81.396 50.7946Z" fill="#9D9B9B"/>
<path d="M54.2614 99.378L29.3926 114.194V81.0224L54.2614 66.7129V99.378Z" fill="#E8E8E8"/>
<path d="M29.3904 114.758V81.0213L0 63.3203V97.2351L29.3904 114.758Z" fill="#C7C7C7"/>
<path d="M54.2592 66.6256L29.3904 81.0246L0 63.3236L24.3036 49.1924L54.2592 66.6256Z" fill="#F2F2F2"/>
<path d="M113.039 102.77L88.1699 117.585V84.414L113.039 70.1045V102.77Z" fill="#E8E8E8"/>
<path d="M88.1658 118.149V84.4129L58.7754 66.7119V100.627L88.1658 118.149Z" fill="#A6A6A6"/>
<path d="M113.035 70.0172L88.1658 84.4162L58.7754 66.7152L83.079 52.584L113.035 70.0172Z" fill="#F2F2F2"/>
<path d="M85.9255 118.598L61.0566 133.413V100.242L85.9255 85.9326V118.598Z" fill="#E8E8E8"/>
<path d="M61.0525 133.977V100.24L31.6621 82.5391V116.454L61.0525 133.977Z" fill="#C7C7C7"/>
<path d="M85.9214 85.8444L61.0525 100.243L31.6621 82.5423L55.9657 68.4111L85.9214 85.8444Z" fill="#F2F2F2"/>
<path d="M89.2076 67.1269L56.9181 85.8212L18.7578 62.8398L50.3134 44.4932L89.2076 67.1269Z" fill="#777777"/>
<path d="M90.1757 65.1628L57.8887 84.3979V41.3319L90.1757 22.7539V65.1628Z" fill="#E8E8E8"/>
<path d="M57.886 85.1316V41.3317L19.7285 18.3506V62.3821L57.886 85.1316Z" fill="#C7C7C7"/>
<path d="M90.1783 22.6337L57.8888 41.328L19.7285 18.3466L51.2841 0L90.1783 22.6337Z" fill="#F2F2F2"/>
<path d="M64.0508 68.1007V48.1506L86.2158 33.7422V54.2114L64.0508 68.1007Z" fill="white"/>
<mask id="mask0_440_3459" style="mask-type:alpha" maskUnits="userSpaceOnUse" x="64" y="39" width="23" height="25">
<path d="M64.0508 63.7659V53.4533L86.2158 39.0449V50.0857L64.0508 63.7659Z" fill="white"/>
</mask>
<g mask="url(#mask0_440_3459)">
<path d="M67.5742 47.8525C67.5742 55.5652 67.5742 69.999 67.5742 66.0324" stroke="black" stroke-width="0.589278"/>
<path d="M68.7422 46.6719C68.7422 54.6256 68.7422 69.5104 68.7422 65.4199" stroke="black" stroke-width="0.589278"/>
<path d="M69.9336 46.6738C69.9336 54.6275 69.9336 69.5123 69.9336 65.4218" stroke="black" stroke-width="0.589278"/>
<path d="M71.0996 45.4922C71.0996 53.4459 71.0996 68.3307 71.0996 64.2402" stroke="black" stroke-width="0.589278"/>
<path d="M72.2949 44.9102C72.2949 52.8639 72.2949 67.7486 72.2949 63.6582" stroke="black" stroke-width="0.589278"/>
<path d="M73.459 44.9102C73.459 52.8639 73.459 67.7486 73.459 63.6582" stroke="black" stroke-width="0.589278"/>
<path d="M81.7227 36.0703C81.7227 43.9128 81.7227 59.483 81.7227 55.4497" stroke="black" stroke-width="0.589278"/>
<path d="M80.5352 36.6562C80.5352 44.7294 80.5352 60.7576 80.5352 56.6056" stroke="black" stroke-width="0.589278"/>
<path d="M79.3652 37.833C79.3652 45.6755 79.3652 61.2457 79.3652 57.2124" stroke="black" stroke-width="0.589278"/>
<path d="M78.1758 39.6084C78.1758 47.5621 78.1758 62.4469 78.1758 58.3564" stroke="black" stroke-width="0.589278"/>
<path d="M77.0137 41.3701C77.0137 49.3238 77.0137 64.2086 77.0137 60.1181" stroke="black" stroke-width="0.589278"/>
<path d="M75.8164 43.1387C75.8164 51.0924 75.8164 65.9772 75.8164 61.8867" stroke="black" stroke-width="0.589278"/>
<path d="M74.6523 43.7314C74.6523 51.6851 74.6523 66.5699 74.6523 62.4795" stroke="black" stroke-width="0.589278"/>
<path d="M82.8945 34.8906C82.8945 42.8304 82.8945 58.3362 82.8945 54.2529" stroke="black" stroke-width="0.589278"/>
</g>
<path opacity="0.6" d="M81.7383 47.8545L68.7754 55.2204L101.772 63.7649L110.61 58.4614L81.7383 47.8545Z" fill="#8F8F8F"/>
<path d="M112.742 49.2598L98.2363 58.1694L122.716 69.2099L131.582 64.7765L112.742 49.2598Z" fill="#949494"/>
<path d="M109.739 86.6614L111.498 77.6133L116.07 90.2663L110.953 88.6882C110.09 88.422 109.566 87.548 109.739 86.6614Z" fill="black"/>
<path d="M98.2367 58.1689L97.2266 69.2095L110.61 75.2579C110.61 75.2579 114.959 98.0263 117.175 104.676C119.392 111.326 114.959 114.651 114.959 114.651L125.046 119.748C125.046 119.748 127.403 107.079 124.933 101.186C122.462 95.2931 119.154 91.0416 119.154 84.3916C119.154 77.7416 122.716 69.2095 122.716 69.2095L98.2367 58.1689Z" fill="#5C5C5C"/>
<path d="M132.69 71.4254C133.798 68.1004 131.582 64.7754 131.582 64.7754L122.716 69.2088C122.716 69.2088 120.262 71.7641 119.154 81.7391C118.046 91.7142 122.716 95.8089 124.933 101.351C127.149 106.892 125.046 119.747 125.046 119.747L131.582 117.976C131.582 117.976 133.798 103.567 129.365 96.9173C124.933 90.2672 124.932 83.6172 128.257 79.1838C131.582 74.7505 131.582 74.7505 132.69 71.4254Z" fill="#727272"/>
</svg>
