<svg width="132" height="120" viewBox="0 0 122 120" fill="none" xmlns="http://www.w3.org/2000/svg">
<path d="M76.5189 73.3386L53.4922 87.0556V56.1236L76.5189 42.8828V73.3386Z" fill="#D5DBE4"/>
<path d="M53.4926 87.0925V56.1232L26.084 39.6172V71.2426L53.4926 87.0925Z" fill="#96A3C1"/>
<path d="M76.5194 42.8822L53.4926 56.1228L26.084 39.6167L48.7488 26.4395L76.5194 42.8822Z" fill="#96A3C1"/>
<path d="M51.2962 87.6775L28.2695 101.394V70.4624L51.2962 57.2217V87.6775Z" fill="#D5DBE4"/>
<path d="M28.27 101.431V70.4621L0.861328 53.9561V85.5814L28.27 101.431Z" fill="#BFCAE0"/>
<path d="M51.2967 57.221L28.27 70.4616L0.861328 53.9556L23.5262 40.7783L51.2967 57.221Z" fill="#F2F4FA"/>
<path d="M105.66 91.0203L82.6328 104.737V73.8052L105.66 60.5645V91.0203Z" fill="#D5DBE4"/>
<path d="M82.6333 104.775V73.8058L55.2246 57.2998V88.9252L82.6333 104.775Z" fill="#96A3C1"/>
<path d="M105.66 60.5648L82.6333 73.8054L55.2246 57.2993L77.8895 44.1221L105.66 60.5648Z" fill="#F2F4FA"/>
<path d="M81.0951 106.017L58.0684 119.734V88.8023L81.0951 75.5615V106.017Z" fill="#D5DBE4"/>
<path d="M58.0688 119.772V88.8029L30.6602 72.2969V103.922L58.0688 119.772Z" fill="#BFCAE0"/>
<path d="M81.0955 75.5618L58.0688 88.8024L30.6602 72.2964L53.325 59.1191L81.0955 75.5618Z" fill="#F2F4FA"/>
<path d="M80.2611 54.6198L53.6113 70.495V34.6961L80.2611 19.3721V54.6198Z" fill="#D5DBE4"/>
<path d="M53.6099 70.537V34.6949L21.8887 15.5918V52.1932L53.6099 70.537Z" fill="#C2CADC"/>
<path d="M80.2596 19.3716L53.6099 34.6955L21.8887 15.5924L48.1196 0.341797L80.2596 19.3716Z" fill="#F2F4FA"/>
<path d="M57.8477 60.2444V41.8621L78.2725 28.5859V47.4465L57.8477 60.2444Z" fill="white"/>
<mask id="mask0_541_5555" style="mask-type:alpha" maskUnits="userSpaceOnUse" x="57" y="33" width="22" height="24">
<path d="M57.8477 56.2509V46.7488L78.2725 33.4727V43.6458L57.8477 56.2509Z" fill="white"/>
</mask>
<g mask="url(#mask0_541_5555)">
<path d="M61.1055 41.5928C61.1055 48.6993 61.1055 61.9988 61.1055 58.344" stroke="#112449" stroke-width="0.542964"/>
<path d="M62.1914 40.5059C62.1914 47.8345 62.1914 61.5496 62.1914 57.7805" stroke="#112449" stroke-width="0.542964"/>
<path d="M63.2773 40.5059C63.2773 47.8345 63.2773 61.5496 63.2773 57.7805" stroke="#112449" stroke-width="0.542964"/>
<path d="M64.3633 39.4189C64.3633 46.7476 64.3633 60.4626 64.3633 56.6936" stroke="#112449" stroke-width="0.542964"/>
<path d="M65.4492 38.877C65.4492 46.2056 65.4492 59.9207 65.4492 56.1516" stroke="#112449" stroke-width="0.542964"/>
<path d="M66.5371 38.877C66.5371 46.2056 66.5371 59.9207 66.5371 56.1516" stroke="#112449" stroke-width="0.542964"/>
<path d="M74.1387 30.7324C74.1387 37.9586 74.1387 52.3052 74.1387 48.5889" stroke="#112449" stroke-width="0.542964"/>
<path d="M73.0527 31.2754C73.0527 38.7141 73.0527 53.4827 73.0527 49.657" stroke="#112449" stroke-width="0.542964"/>
<path d="M71.9629 32.3623C71.9629 39.5885 71.9629 53.9351 71.9629 50.2188" stroke="#112449" stroke-width="0.542964"/>
<path d="M70.8789 33.9902C70.8789 41.3189 70.8789 55.0339 70.8789 51.2649" stroke="#112449" stroke-width="0.542964"/>
<path d="M69.793 35.6201C69.793 42.9488 69.793 56.6638 69.793 52.8948" stroke="#112449" stroke-width="0.542964"/>
<path d="M68.7051 37.248C68.7051 44.5767 68.7051 58.2917 68.7051 54.5227" stroke="#112449" stroke-width="0.542964"/>
<path d="M67.6211 37.791C67.6211 45.1197 67.6211 58.8347 67.6211 55.0657" stroke="#112449" stroke-width="0.542964"/>
<path d="M75.2227 29.6465C75.2227 36.9623 75.2227 51.2496 75.2227 47.4871" stroke="#112449" stroke-width="0.542964"/>
</g>
<path opacity="0.6" d="M74.1347 41.5898L62.1895 48.3769L92.5954 56.2499L100.74 51.3632L74.1347 41.5898Z" fill="#9CB1D9"/>
<path d="M102.704 42.8828L89.3379 51.0922L111.896 61.2651L120.066 57.1802L102.704 42.8828Z" fill="#8F9ABE"/>
<path d="M99.9336 77.3478L101.555 69.0107L105.768 80.6694L101.053 79.2153C100.257 78.97 99.7747 78.1647 99.9336 77.3478Z" fill="#112449"/>
<path d="M89.3371 51.0918L88.4062 61.2647L99.7912 66.4093C100.386 66.6779 100.811 67.2109 100.935 67.8513C101.763 72.1156 105.016 88.6255 106.789 93.9444C108.161 98.0607 106.767 100.794 105.705 102.145C105.311 102.646 105.412 103.472 105.981 103.759L114.042 107.832C114.042 107.832 116.214 96.1578 113.937 90.7282C111.661 85.2985 108.612 81.3811 108.612 75.2537C108.612 69.1263 111.895 61.2647 111.895 61.2647L89.3371 51.0918Z" fill="#6A7C9F"/>
<path d="M121.089 63.3071C122.11 60.2434 120.068 57.1797 120.068 57.1797L111.898 61.2646C111.898 61.2646 109.637 63.6192 108.615 72.8103C107.594 82.0015 111.898 85.7744 113.94 90.8806C115.983 95.9868 114.045 107.832 114.045 107.832L120.64 105.34C120.64 105.34 122.683 92.0641 118.598 85.9367C114.513 79.8092 113.94 74.5408 117.004 70.4558C120.068 66.3708 120.068 66.3708 121.089 63.3071Z" fill="#7E89A9"/>
</svg>
