<svg width="454" height="281" viewBox="0 0 454 281" fill="none" xmlns="http://www.w3.org/2000/svg">
<path d="M151.564 220.332L254.702 280.21L255.23 249.976C255.23 242.062 260.614 234.268 266.573 228.346L425.896 125.371L320.12 63.4834L157.895 173.379C153.641 178.109 152.265 181.377 151.564 188.151V220.332Z" fill="#CAD1E0"/>
<path d="M254.966 251.296L151.564 191.682V220.17L254.966 280.312V251.296Z" fill="#959EB2"/>
<path d="M263.409 232.039L161.854 170.842L320.913 63.4834L425.897 125.899L263.409 232.039Z" fill="#ACB5C9"/>
<path d="M401.628 123.789L320.383 75.2539L247.58 123.789L333.045 172.852L401.628 123.789Z" fill="#2E3346"/>
<path d="M320.91 81.0566L273.693 111.919L347.816 155.443L394.505 123.789L320.91 81.0566Z" fill="#BFC4D0"/>
<path d="M336.296 154.965L273.163 117.648C271.86 116.878 270.245 116.865 268.929 117.613L263.993 120.419C261.161 122.03 261.144 126.106 263.963 127.74L328.108 164.925C329.513 165.74 331.26 165.676 332.602 164.761L336.526 162.085C339.08 160.344 338.957 156.538 336.296 154.965Z" fill="#6C7084"/>
<path d="M314.912 138.503L298.852 129.205C298.147 128.797 297.271 128.831 296.599 129.293L283.556 138.26C282.281 139.136 282.351 141.04 283.687 141.821L299.948 151.324C300.666 151.744 301.563 151.703 302.239 151.219L315.081 142.046C316.33 141.155 316.24 139.272 314.912 138.503Z" fill="#4B506A"/>
<path d="M299.807 145.945L291.922 141.215C290.644 140.448 290.542 138.634 291.726 137.729L297.137 133.591C297.8 133.084 298.698 133.015 299.43 133.414L307.183 137.643C308.47 138.345 308.667 140.113 307.565 141.081L302.285 145.721C301.596 146.327 300.594 146.418 299.807 145.945Z" fill="#6C7084"/>
<path d="M167.654 215.677V209.745C167.654 208.12 169.414 207.105 170.82 207.918L235.974 245.573C236.627 245.95 237.028 246.647 237.028 247.4V252.837C237.028 254.456 235.279 255.472 233.873 254.67L168.719 217.51C168.061 217.135 167.654 216.435 167.654 215.677Z" fill="#2E3346"/>
<path d="M316.172 180.195L320.369 177.557C322.052 176.499 322.005 174.032 320.283 173.039L304.207 163.768C303.298 163.244 302.166 163.309 301.322 163.932L297.289 166.91C295.749 168.047 295.896 170.395 297.565 171.332L313.478 180.262C314.32 180.735 315.354 180.71 316.172 180.195Z" fill="#6C7084"/>
<path d="M248.838 133.453L244.141 136.715C242.552 137.819 242.652 140.201 244.328 141.167L261.853 151.27C262.654 151.731 263.639 151.74 264.448 151.292L269.632 148.423C271.423 147.432 271.451 144.867 269.683 143.836L251.671 133.34C250.785 132.824 249.68 132.868 248.838 133.453Z" fill="#6C7084"/>
<path d="M276.318 149.264L271.495 152.187C269.767 153.234 269.809 155.755 271.571 156.743L287.275 165.557C288.164 166.056 289.261 165.998 290.092 165.409L294.341 162.396C295.91 161.284 295.799 158.92 294.133 157.959L279.003 149.235C278.17 148.754 277.141 148.765 276.318 149.264Z" fill="#6C7084"/>
<path d="M316.172 178.612L320.369 175.974C322.052 174.916 322.005 172.449 320.283 171.456L304.207 162.185C303.298 161.661 302.166 161.726 301.322 162.349L297.289 165.327C295.749 166.464 295.896 168.812 297.565 169.749L313.478 178.679C314.32 179.152 315.354 179.127 316.172 178.612Z" fill="#DDE4ED"/>
<path d="M248.838 131.87L244.141 135.132C242.552 136.236 242.652 138.618 244.328 139.584L261.853 149.687C262.654 150.148 263.639 150.157 264.448 149.709L269.632 146.84C271.423 145.849 271.451 143.284 269.683 142.253L251.671 131.757C250.785 131.241 249.68 131.285 248.838 131.87Z" fill="#DDE4ED"/>
<path d="M276.318 147.681L271.495 150.604C269.767 151.651 269.809 154.172 271.571 155.16L287.275 163.974C288.164 164.473 289.261 164.415 290.092 163.826L294.341 160.813C295.91 159.701 295.799 157.337 294.133 156.376L279.003 147.652C278.17 147.171 277.141 147.182 276.318 147.681Z" fill="#DDE4ED"/>
<path d="M302.983 188.636L307.18 185.998C308.862 184.94 308.815 182.472 307.094 181.479L291.017 172.209C290.109 171.685 288.976 171.749 288.133 172.372L284.1 175.35C282.56 176.488 282.706 178.835 284.376 179.772L300.288 188.703C301.131 189.176 302.165 189.15 302.983 188.636Z" fill="#6C7084"/>
<path d="M235.649 141.893L230.951 145.155C229.362 146.259 229.462 148.641 231.138 149.607L248.664 159.71C249.465 160.172 250.449 160.18 251.258 159.733L256.442 156.863C258.234 155.872 258.262 153.307 256.493 152.276L238.481 141.781C237.596 141.265 236.491 141.308 235.649 141.893Z" fill="#6C7084"/>
<path d="M263.129 157.704L258.305 160.628C256.578 161.675 256.62 164.195 258.382 165.184L274.086 173.997C274.975 174.496 276.071 174.438 276.902 173.849L281.151 170.837C282.721 169.725 282.61 167.361 280.944 166.4L265.813 157.675C264.98 157.195 263.951 157.206 263.129 157.704Z" fill="#6C7084"/>
<path d="M302.983 187.054L307.18 184.416C308.862 183.358 308.815 180.89 307.094 179.897L291.017 170.627C290.109 170.103 288.976 170.167 288.133 170.79L284.1 173.768C282.56 174.906 282.706 177.253 284.376 178.19L300.288 187.121C301.131 187.594 302.165 187.568 302.983 187.054Z" fill="#DDE4ED"/>
<path d="M235.649 140.311L230.951 143.573C229.362 144.677 229.462 147.059 231.138 148.025L248.664 158.128C249.465 158.59 250.449 158.598 251.258 158.151L256.442 155.281C258.234 154.29 258.262 151.725 256.493 150.694L238.481 140.199C237.596 139.683 236.491 139.726 235.649 140.311Z" fill="#DDE4ED"/>
<path d="M263.129 156.122L258.305 159.046C256.578 160.092 256.62 162.613 258.382 163.602L274.086 172.415C274.975 172.914 276.071 172.856 276.902 172.267L281.151 169.255C282.721 168.142 282.61 165.779 280.944 164.818L265.813 156.093C264.98 155.613 263.951 155.624 263.129 156.122Z" fill="#DDE4ED"/>
<path d="M288.739 198.132L292.936 195.494C294.618 194.436 294.571 191.968 292.85 190.975L276.773 181.705C275.865 181.181 274.732 181.245 273.888 181.868L269.856 184.846C268.316 185.984 268.462 188.331 270.132 189.269L286.044 198.199C286.887 198.672 287.921 198.646 288.739 198.132Z" fill="#6C7084"/>
<path d="M221.405 151.389L216.707 154.652C215.118 155.755 215.218 158.137 216.894 159.103L234.419 169.206C235.221 169.668 236.205 169.677 237.014 169.229L242.198 166.359C243.989 165.368 244.018 162.803 242.249 161.773L224.237 151.277C223.351 150.761 222.247 150.805 221.405 151.389Z" fill="#6C7084"/>
<path d="M248.884 167.201L244.061 170.124C242.334 171.171 242.376 173.691 244.137 174.68L259.842 183.494C260.73 183.992 261.827 183.935 262.658 183.345L266.907 180.333C268.476 179.221 268.366 176.857 266.699 175.896L251.569 167.171C250.736 166.691 249.707 166.702 248.884 167.201Z" fill="#6C7084"/>
<path d="M288.739 196.55L292.936 193.912C294.618 192.854 294.571 190.386 292.85 189.393L276.773 180.123C275.865 179.599 274.732 179.663 273.888 180.286L269.856 183.264C268.316 184.402 268.462 186.749 270.132 187.686L286.044 196.617C286.887 197.09 287.921 197.064 288.739 196.55Z" fill="#DDE4ED"/>
<path d="M221.405 149.807L216.707 153.07C215.118 154.173 215.218 156.555 216.894 157.521L234.419 167.624C235.221 168.086 236.205 168.095 237.014 167.647L242.198 164.777C243.989 163.786 244.018 161.221 242.249 160.19L224.237 149.695C223.351 149.179 222.247 149.222 221.405 149.807Z" fill="#DDE4ED"/>
<path d="M248.884 165.619L244.061 168.542C242.334 169.589 242.376 172.109 244.137 173.098L259.842 181.912C260.73 182.41 261.827 182.353 262.658 181.763L266.907 178.751C268.476 177.639 268.366 175.275 266.699 174.314L251.569 165.589C250.736 165.109 249.707 165.12 248.884 165.619Z" fill="#DDE4ED"/>
<path d="M273.967 207.628L278.164 204.99C279.847 203.932 279.8 201.464 278.078 200.471L262.002 191.201C261.093 190.677 259.961 190.741 259.117 191.364L255.084 194.342C253.544 195.48 253.691 197.828 255.36 198.765L271.272 207.695C272.115 208.168 273.149 208.142 273.967 207.628Z" fill="#6C7084"/>
<path d="M206.633 160.885L201.936 164.148C200.346 165.251 200.447 167.633 202.123 168.6L219.648 178.702C220.449 179.164 221.434 179.173 222.243 178.725L227.427 175.856C229.218 174.864 229.246 172.299 227.478 171.269L209.466 160.773C208.58 160.257 207.475 160.301 206.633 160.885Z" fill="#6C7084"/>
<path d="M234.113 176.697L229.29 179.62C227.562 180.667 227.604 183.187 229.366 184.176L245.07 192.99C245.959 193.488 247.055 193.431 247.887 192.841L252.136 189.829C253.705 188.717 253.594 186.353 251.928 185.392L236.798 176.667C235.965 176.187 234.936 176.198 234.113 176.697Z" fill="#6C7084"/>
<path d="M273.967 206.046L278.164 203.408C279.847 202.35 279.8 199.882 278.078 198.889L262.002 189.619C261.093 189.095 259.961 189.159 259.117 189.782L255.084 192.76C253.544 193.898 253.691 196.246 255.36 197.183L271.272 206.113C272.115 206.586 273.149 206.56 273.967 206.046Z" fill="#DDE4ED"/>
<path d="M206.633 159.303L201.936 162.566C200.346 163.669 200.447 166.051 202.123 167.018L219.648 177.12C220.449 177.582 221.434 177.591 222.243 177.143L227.427 174.274C229.218 173.282 229.246 170.717 227.478 169.687L209.466 159.191C208.58 158.675 207.475 158.719 206.633 159.303Z" fill="#DDE4ED"/>
<path d="M234.113 175.115L229.29 178.038C227.562 179.085 227.604 181.605 229.366 182.594L245.07 191.408C245.959 191.906 247.055 191.849 247.887 191.259L252.136 188.247C253.705 187.135 253.594 184.771 251.928 183.81L236.798 175.085C235.965 174.605 234.936 174.616 234.113 175.115Z" fill="#DDE4ED"/>
<path d="M258.668 217.652L262.865 215.014C264.548 213.957 264.501 211.489 262.779 210.496L246.703 201.225C245.794 200.702 244.662 200.766 243.818 201.389L239.785 204.367C238.245 205.504 238.392 207.852 240.061 208.789L255.974 217.719C256.816 218.192 257.85 218.167 258.668 217.652Z" fill="#6C7084"/>
<path d="M191.334 170.91L186.637 174.172C185.048 175.276 185.148 177.658 186.824 178.624L204.349 188.727C205.15 189.189 206.135 189.197 206.944 188.749L212.128 185.88C213.919 184.889 213.947 182.324 212.179 181.293L194.167 170.797C193.281 170.281 192.176 170.325 191.334 170.91Z" fill="#6C7084"/>
<path d="M218.814 186.721L213.991 189.644C212.263 190.691 212.306 193.212 214.067 194.2L229.772 203.014C230.66 203.513 231.757 203.455 232.588 202.866L236.837 199.854C238.406 198.741 238.295 196.377 236.629 195.417L221.499 186.692C220.666 186.211 219.637 186.222 218.814 186.721Z" fill="#6C7084"/>
<path d="M258.668 216.068L262.865 213.43C264.548 212.373 264.501 209.905 262.779 208.912L246.703 199.641C245.794 199.118 244.662 199.182 243.818 199.805L239.785 202.783C238.245 203.92 238.392 206.268 240.061 207.205L255.974 216.135C256.816 216.608 257.85 216.583 258.668 216.068Z" fill="#DDE4ED"/>
<path d="M191.334 169.326L186.637 172.588C185.048 173.692 185.148 176.074 186.824 177.04L204.349 187.143C205.15 187.605 206.135 187.613 206.944 187.165L212.128 184.296C213.919 183.305 213.947 180.74 212.179 179.709L194.167 169.213C193.281 168.697 192.176 168.741 191.334 169.326Z" fill="#DDE4ED"/>
<path d="M218.814 185.137L213.991 188.06C212.263 189.107 212.306 191.628 214.067 192.616L229.772 201.43C230.66 201.929 231.757 201.871 232.588 201.282L236.837 198.27C238.406 197.157 238.295 194.793 236.629 193.833L221.499 185.108C220.666 184.627 219.637 184.639 218.814 185.137Z" fill="#DDE4ED"/>
<path d="M328.376 63.1668L323.814 65.4939L425.897 125.636V179.711L441.958 169.896C443.875 168.724 445.431 167.052 446.345 165C448.657 159.81 452.947 149.016 453.33 139.616C453.858 126.691 439.614 117.459 439.614 117.459L344.9 63.5446C339.807 60.6452 333.596 60.5032 328.376 63.1668Z" fill="#494E62"/>
<path d="M368.919 40.4348C362.061 46.238 342.014 76.3089 342.014 76.3089L403.738 112.447C403.738 112.447 424.559 79.335 427.742 76.3089C430.925 73.2828 435.038 71.5635 439.085 72.6162C443.131 73.6688 383.163 38.8523 383.163 38.8523C383.163 38.8523 375.777 34.6317 368.919 40.4348Z" fill="white"/>
<path d="M426.158 178.392L254.965 280.211V250.14C254.965 250.14 254.173 241.435 263.933 230.62C273.693 219.805 426.158 125.636 426.158 125.636V178.392Z" fill="#9CA6BA"/>
<path d="M277.122 239.325C273.56 249.261 274.262 260.395 274.966 266.006C275.191 267.806 277.162 268.687 278.717 267.754L434.335 174.435V137.617C434.335 133.019 429.316 130.21 425.466 132.722C392.874 153.988 281.399 227.394 277.122 239.325Z" fill="#2E3346"/>
<path d="M85.0996 166.265V142.621L22.8389 105.58V130.8L85.0996 166.265Z" fill="#D5DBE4"/>
<path d="M215.926 90.6067V65.7812L84.9026 142.819L85.0996 166.265L215.926 90.6067Z" fill="#B5B5B5"/>
<path d="M22.8387 105.58L152.483 30.5127L215.729 65.9776L85.0994 142.818L22.8387 105.58Z" fill="#7B89A8"/>
<path d="M159.378 42.9257C163.91 46.2752 188.144 60.8552 192.085 63.4165C196.025 65.9779 181.051 65.3868 184.007 67.7511C186.962 70.1155 197.601 66.1749 196.025 70.1155C194.449 74.056 96.5264 127.507 90.4185 130.997C84.3107 134.487 87.2663 123.116 85.0989 122.919C82.9315 122.722 83.7196 133.361 79.385 130.997C75.0504 128.633 47.4665 112.476 44.1172 109.915C40.7678 107.354 54.3625 107.551 53.5745 105.58C52.7865 103.61 37.2213 104.792 42.1469 102.428C47.0725 100.064 141.843 46.8663 147.754 42.9257C153.664 38.9851 151.3 48.2453 153.664 48.0484C156.029 47.8515 154.846 39.5762 159.378 42.9257Z" fill="#C2CBD8"/>
<ellipse cx="27.7032" cy="17.5948" rx="27.7032" ry="17.5948" transform="matrix(-0.965548 -0.260224 -0.260224 0.965548 156.422 73.8945)" fill="#7B89A8"/>
<path d="M162.926 97.1086L163.32 120.752L141.45 133.953V108.536L86.8737 68.3426L105.394 57.7031L162.926 97.1086Z" fill="#DADDE7"/>
<path d="M158.789 99.867V123.51L163.32 120.949L162.926 97.1086L105.394 57.7031L101.06 60.2645L158.789 99.867Z" fill="#BAC0D6"/>
<path d="M145.783 107.156V131.391L141.449 133.755V109.521L86.872 68.3419L91.2066 65.9775L145.783 107.156Z" fill="#BAC0D6"/>
<path d="M215.926 90.6067V65.7812L84.9026 142.819L85.0996 166.265L215.926 90.6067Z" fill="#8793AE" fill-opacity="0.5"/>
<path d="M62.9434 136.721V113.077L0.682697 76.0361V101.256L62.9434 136.721Z" fill="#D5DBE4"/>
<path d="M193.77 61.0628V36.2373L62.7463 113.275L62.9433 136.721L193.77 61.0628Z" fill="#B5B5B5"/>
<path d="M0.682449 76.0362L130.326 0.96875L193.572 36.4337L62.9431 113.274L0.682449 76.0362Z" fill="#7B89A8"/>
<path d="M137.222 13.3817C141.754 16.7312 165.988 31.3112 169.928 33.8726C173.869 36.4339 158.895 35.8429 161.85 38.2072C164.806 40.5715 175.445 36.631 173.869 40.5715C172.293 44.5121 74.3701 97.9629 68.2623 101.453C62.1544 104.943 65.11 93.5718 62.9426 93.3749C60.7752 93.178 61.5633 103.817 57.2287 101.453C52.8941 99.0888 25.3103 82.9325 21.9609 80.3711C18.6115 77.8096 32.2063 78.0069 31.4182 76.0365C30.6302 74.066 15.065 75.2482 19.9906 72.884C24.9162 70.5198 119.686 17.3224 125.597 13.3817C131.508 9.44112 129.144 18.7014 131.508 18.5045C133.872 18.3076 132.69 10.0323 137.222 13.3817Z" fill="#C2CBD8"/>
<ellipse cx="27.7032" cy="17.5948" rx="27.7032" ry="17.5948" transform="matrix(-0.965548 -0.260224 -0.260224 0.965548 134.266 44.3506)" fill="#7B89A8"/>
<path d="M140.77 67.5647L141.164 91.2079L119.294 104.409V78.9922L64.7174 38.7987L83.238 28.1592L140.77 67.5647Z" fill="#DADDE7"/>
<path d="M136.632 70.3231V93.9663L141.164 91.405L140.77 67.5647L83.238 28.1592L78.9034 30.7205L136.632 70.3231Z" fill="#BAC0D6"/>
<path d="M123.627 77.6123V101.847L119.292 104.211V79.9767L64.7158 38.7979L69.0504 36.4336L123.627 77.6123Z" fill="#BAC0D6"/>
<path d="M193.77 61.0628V36.2373L62.7463 113.275L62.9433 136.721L193.77 61.0628Z" fill="#8793AE" fill-opacity="0.5"/>
</svg>
