<svg width="253" height="224" viewBox="0 0 253 224" fill="none" xmlns="http://www.w3.org/2000/svg">
<path d="M257.051 192.666L131.256 265.966L4.96484 192.17L131.256 119.86L257.051 192.666Z" fill="#939393"/>
<path d="M131.252 119.852V6.92969L257.047 79.7349V192.657L131.252 119.852Z" fill="#565656"/>
<path d="M131.25 6.93383V0L261.998 74.7864L257.045 79.7391L131.25 6.93383Z" fill="#D9D9D9"/>
<path d="M131.25 6.93383V0L0.00668335 76.2722L5.20689 79.9867L131.25 6.93383Z" fill="#D9D9D9"/>
<path d="M131.25 274.381V265.962L257.045 192.661V202.567L131.25 274.381Z" fill="#9E9E9E"/>
<path d="M131.256 274.381V265.962L4.96484 192.166V202.567L131.256 274.381Z" fill="#676767"/>
<path d="M4.95258 79.7364L0 76.2695V199.593L4.95258 202.564V79.7364Z" fill="#7D7D7D"/>
<path d="M131.252 119.852V6.92969L4.9612 79.7349V192.162L131.252 119.852Z" fill="#767676"/>
<path d="M142.919 216.086L134.004 221.397V209.506L142.919 204.377V216.086Z" fill="#DADADA"/>
<path d="M133.993 221.601V209.507L123.457 203.162V215.319L133.993 221.601Z" fill="#C7C7C7"/>
<path d="M142.906 204.344L133.991 209.505L123.455 203.16L132.167 198.095L142.906 204.344Z" fill="#9D9B9B"/>
<path d="M133.194 221.767L124.279 227.078V215.187L133.194 210.058V221.767Z" fill="#DADADA"/>
<path d="M124.266 227.274V215.181L113.73 208.836V220.993L124.266 227.274Z" fill="#C7C7C7"/>
<path d="M133.181 210.02L124.266 215.181L113.73 208.836L122.443 203.771L133.181 210.02Z" fill="#F4F4F4"/>
<path d="M154.27 222.984L145.355 228.295V216.404L154.27 211.274V222.984Z" fill="#DADADA"/>
<path d="M145.343 228.487V216.394L134.807 210.049V222.206L145.343 228.487Z" fill="#C7C7C7"/>
<path d="M154.258 211.234L145.343 216.395L134.807 210.05L143.519 204.984L154.258 211.234Z" fill="#F4F4F4"/>
<path d="M144.548 228.656L135.633 233.966V222.076L144.548 216.946V228.656Z" fill="#DADADA"/>
<path d="M135.622 234.159V222.066L125.086 215.721V227.878L135.622 234.159Z" fill="#C7C7C7"/>
<path d="M144.535 216.906L135.62 222.068L125.084 215.723L133.796 210.657L144.535 216.906Z" fill="#F4F4F4"/>
<path d="M143.048 203.62L134.215 208.882V197.101L143.048 192.019V203.62Z" fill="#DADADA"/>
<path d="M134.222 209.089V197.107L123.783 190.82V202.865L134.222 209.089Z" fill="#C7C7C7"/>
<path d="M143.055 191.991L134.222 197.105L123.783 190.819L132.415 185.8L143.055 191.991Z" fill="#F4F4F4"/>
<path d="M45.8974 181.556L36.9824 186.867V174.976L45.8974 169.847V181.556Z" fill="#DADADA"/>
<path d="M36.9695 187.069V174.976L26.4336 168.631V180.788L36.9695 187.069Z" fill="#C7C7C7"/>
<path d="M45.8845 169.816L36.9695 174.977L26.4336 168.632L35.146 163.566L45.8845 169.816Z" fill="#9D9B9B"/>
<path d="M36.1728 187.228L27.2578 192.539V180.648L36.1728 175.519V187.228Z" fill="#DADADA"/>
<path d="M27.2449 192.739V180.646L16.709 174.301V186.458L27.2449 192.739Z" fill="#C7C7C7"/>
<path d="M36.1599 175.483L27.2449 180.644L16.709 174.299L25.4214 169.233L36.1599 175.483Z" fill="#F4F4F4"/>
<path d="M57.2509 188.452L48.3359 193.763V181.873L57.2509 176.743V188.452Z" fill="#DADADA"/>
<path d="M48.3211 193.956V181.863L37.7852 175.518V187.675L48.3211 193.956Z" fill="#C7C7C7"/>
<path d="M57.2361 176.702L48.3211 181.864L37.7852 175.519L46.4975 170.453L57.2361 176.702Z" fill="#F4F4F4"/>
<path d="M47.5166 194.122L38.6016 199.433V187.543L47.5166 182.413V194.122Z" fill="#DADADA"/>
<path d="M38.5906 199.626V187.533L28.0547 181.188V193.345L38.5906 199.626Z" fill="#C7C7C7"/>
<path d="M47.5036 182.372L38.5886 187.534L28.0527 181.189L36.7651 176.123L47.5036 182.372Z" fill="#F4F4F4"/>
<path d="M46.0496 169.083L37.2168 174.345V162.564L46.0496 157.481V169.083Z" fill="#DADADA"/>
<path d="M37.2278 174.557V162.576L26.7891 156.289V168.334L37.2278 174.557Z" fill="#C7C7C7"/>
<path d="M46.0606 157.455L37.2278 162.569L26.7891 156.282L35.4211 151.264L46.0606 157.455Z" fill="#F4F4F4"/>
<path d="M115.312 150.763V224.73L108.781 222.749V154.668L115.312 150.763Z" fill="#5C5C5C"/>
<path d="M115.042 209.597L94.3086 222.226V217.521L115.042 204.396V209.597Z" fill="#E6E6E6"/>
<path d="M94.321 217.771L41.8633 188.55V193.503L94.321 222.582V217.771Z" fill="#5C5C5C"/>
<path d="M94.3617 217.775L41.3691 188.941L63.3087 175.429L115.163 204.65L94.3617 217.775Z" fill="#F4F4F4"/>
<path d="M82.3998 194.878L69.9551 202.291V185.693L82.3998 178.532V194.878Z" fill="#ACACAC"/>
<path d="M69.936 202.594V185.713L55.2285 176.855V193.826L69.936 202.594Z" fill="#C7C7C7"/>
<path d="M82.3807 178.501L69.936 185.706L55.2285 176.848L67.3904 169.777L82.3807 178.501Z" fill="#F4F4F4"/>
<path d="M91.9131 202.488L83.4746 207.515V196.26L91.9131 191.404V202.488Z" fill="#DADADA"/>
<path d="M83.4415 207.706V196.259L73.4688 190.253V201.76L83.4415 207.706Z" fill="#C7C7C7"/>
<path d="M91.88 191.368L83.4415 196.254L73.4688 190.248L81.7155 185.453L91.88 191.368Z" fill="#F4F4F4"/>
<path d="M115.053 182.74L94.3203 195.37V190.665L115.053 177.54V182.74Z" fill="#E6E6E6"/>
<path d="M94.321 190.914L41.8633 161.692V166.645L94.321 195.725V190.914Z" fill="#5C5C5C"/>
<path d="M94.3617 190.919L41.3691 162.085L63.3087 148.573L115.163 177.794L94.3617 190.919Z" fill="#F4F4F4"/>
<path d="M115.254 151.109L112.059 152.937V226.877L115.254 224.887V151.109Z" fill="#E6E6E6"/>
<path d="M46.0023 137.575V215.333L41.3867 212.556V135.099L46.0023 137.575Z" fill="#5C5C5C"/>
<path d="M94.2738 242.686V163.813L89.6582 161.337V239.846L94.2738 242.686Z" fill="#5C5C5C"/>
<path d="M97.4689 161.993L94.2734 163.82V242.693L97.4689 240.703V161.993Z" fill="#E6E6E6"/>
<path d="M68.7451 163.513L60.3066 168.54V157.285L68.7451 152.43V163.513Z" fill="#A7A5A5"/>
<path d="M60.2833 168.743V157.296L50.3105 151.29V162.797L60.2833 168.743Z" fill="#C7C7C7"/>
<path d="M68.7218 152.404L60.2833 157.29L50.3105 151.284L58.5573 146.489L68.7218 152.404Z" fill="#F4F4F4"/>
<path d="M80.1358 170.431L71.6973 175.458V164.203L80.1358 159.348V170.431Z" fill="#DADADA"/>
<path d="M71.6642 175.659V164.212L61.6914 158.206V169.713L71.6642 175.659Z" fill="#C7C7C7"/>
<path d="M80.1027 159.322L71.6642 164.208L61.6914 158.202L69.9381 153.407L80.1027 159.322Z" fill="#F4F4F4"/>
<path d="M115.053 155.888L94.3203 168.517V163.812L115.053 150.688V155.888Z" fill="#E6E6E6"/>
<path d="M94.321 164.059L41.8633 134.838V139.791L94.321 168.871V164.059Z" fill="#5C5C5C"/>
<path d="M94.3617 164.063L41.3691 135.229L63.3087 121.717L115.163 150.938L94.3617 164.063Z" fill="#F4F4F4"/>
<path d="M75.019 136.921L62.5742 144.334V127.736L75.019 120.575V136.921Z" fill="#DADADA"/>
<path d="M62.5551 144.636V127.755L47.8477 118.897V135.868L62.5551 144.636Z" fill="#C7C7C7"/>
<path d="M74.9999 120.544L62.5551 127.749L47.8477 118.891L60.0096 111.82L74.9999 120.544Z" fill="#F4F4F4"/>
<path d="M84.5303 144.539L76.0918 149.566V138.311L84.5303 133.456V144.539Z" fill="#DADADA"/>
<path d="M76.0568 149.769V138.322L66.084 132.316V143.824L76.0568 149.769Z" fill="#C7C7C7"/>
<path d="M84.4953 133.432L76.0568 138.317L66.084 132.311L74.3307 127.517L84.4953 133.432Z" fill="#F4F4F4"/>
<path d="M218.189 132.73L205.058 140.016L205.459 108.756L218.586 101.801L218.189 132.73Z" fill="#B8B8B8"/>
<path d="M163.684 116.899L163.684 85.5049L177.865 92.2102C183.105 92.9115 185.702 94.0189 188.96 98.8654L205.462 108.764L205.061 140.02L163.684 116.899Z" fill="#8D8D8D"/>
<path d="M188.18 101.556C184.205 96.1027 181.148 94.1408 175.753 94.0913C175.753 94.0913 177.569 91.9777 182.901 94.68C188.233 97.3823 188.18 101.556 188.18 101.556Z" fill="#D9D9D9"/>
<path d="M163.838 85.5055L176.168 79.7511L218.585 101.802L205.459 108.765L189.104 98.9892C185.498 94.2807 182.898 93.175 177.861 92.2687L163.838 85.5055Z" fill="#C7C7C7"/>
<path d="M205.328 115.889L189.014 106.138L188.996 107.479L205.311 117.231L218.181 110.14L218.2 108.649L205.328 115.889Z" fill="#CCCCCC"/>
<path d="M205.115 133.032L188.801 123.281L188.784 124.623L205.098 134.374L217.968 127.283L217.987 125.793L205.115 133.032Z" fill="#C8C8C8"/>
<path d="M177.932 99.4254L164.025 91.1133L164.008 92.4548L177.915 100.767L177.932 99.4254Z" fill="#A6A6A6"/>
<ellipse cx="9.95608" cy="17.6607" rx="9.95608" ry="17.6607" transform="matrix(0.924083 -0.382191 0.404493 0.914541 164.955 99.1123)" fill="#A1A1A1"/>
<path d="M172.257 99.7085C172.257 99.7085 125.153 123.341 133.392 119.484C141.631 115.628 146.71 149.39 146.71 149.39L185.356 124.475C188.647 116.152 182.423 97.4537 172.257 99.7085Z" fill="#BFBFBF"/>
<ellipse cx="9.95607" cy="16.437" rx="9.95607" ry="16.437" transform="matrix(0.924083 -0.38219 0.404495 0.91454 123.949 123.331)" fill="#3D3D3D"/>
<path d="M156.796 142.826C161.877 140.724 162.835 132.749 159.285 124.724C155.736 116.699 148.739 111.897 143.658 113.998L142.005 115.02C147.086 112.919 154.081 117.717 157.629 125.737C161.176 133.758 160.014 139.96 156.796 142.826Z" fill="#6F6F6F"/>
<path d="M167.011 136.244C171.96 133.997 172.786 126.535 169.319 118.873C165.851 111.21 159.019 106.623 154.059 108.628L152.444 109.753C157.404 107.748 164.236 112.181 167.701 119.84C171.167 127.498 170.056 133.451 167.011 136.244Z" fill="#6F6F6F"/>
<path d="M176.238 130.286C181.197 128.376 182.401 121.05 178.928 113.739C175.456 106.428 168.622 102.049 163.663 103.958L162.05 104.888C167.009 102.978 173.842 107.354 177.312 114.661C180.782 121.967 179.13 128.052 176.238 130.286Z" fill="#6F6F6F"/>
<ellipse cx="7.42765" cy="12.5582" rx="7.42765" ry="12.5582" transform="matrix(0.924083 -0.38219 0.404494 0.914541 129.203 126.236)" fill="#2F2F2F"/>
<ellipse cx="5.20479" cy="8.79992" rx="5.20479" ry="8.79992" transform="matrix(0.924083 -0.38219 0.404494 0.914541 134.365 127.969)" fill="#7B7B7B"/>
<ellipse cx="4.09388" cy="6.92167" rx="4.09388" ry="6.92167" transform="matrix(0.924083 -0.38219 0.404494 0.914541 136.139 129.254)" fill="#C1C1C1"/>
<path d="M199.823 102.906L209.584 96.4697C209.67 89.7621 206.753 85.971 203.635 83.7423C200.308 81.3636 196.08 80.0464 187.551 82.4713L181.651 86.5724C180.551 87.3368 182.397 93.0358 183.531 93.7488C185.239 94.8228 187.436 96.6154 189.142 99.152C191.412 102.526 196.429 105.144 199.823 102.906Z" fill="#B0B0B0"/>
<path d="M187.538 82.4631L169.487 95.0522C175.812 91.0732 180.552 92.7442 184.404 94.3494L202.143 82.7998C197.997 80.6593 193.827 80.3075 187.538 82.4631Z" fill="#A2A2A2"/>
<ellipse cx="5.14271" cy="3.05591" rx="5.14271" ry="3.05591" transform="matrix(0.999918 0.0128383 -0.0128373 0.999918 204.357 96.8457)" fill="#E5E5E5"/>
<path d="M209.419 103.024C212.259 103.06 214.579 101.722 214.601 100.034L214.586 101.227C214.564 102.914 212.244 104.253 209.404 104.216C206.564 104.18 204.279 102.782 204.301 101.095L204.316 99.9023C204.295 101.59 206.579 102.988 209.419 103.024Z" fill="#8C8C8C"/>
</svg>
