<svg width="224" height="226" viewBox="0 0 224 226" fill="none" xmlns="http://www.w3.org/2000/svg">
<path d="M219.438 164.87L112.366 227.258L4.87109 164.448L112.366 102.902L219.438 164.87Z" fill="#ABB1C1"/>
<path d="M112.377 102.906V6.79395L219.45 68.7612V164.874L112.377 102.906Z" fill="#656F89"/>
<path d="M112.375 6.7913V0.889648L223.663 64.5431L219.448 68.7586L112.375 6.7913Z" fill="#B3B9C9"/>
<path d="M112.375 6.79129V0.889648L0.665115 65.8078L5.09135 68.9694L112.375 6.79129Z" fill="#B3B9C9"/>
<path d="M112.377 234.428V227.262L219.45 164.873V173.304L112.377 234.428Z" fill="#8B8E98"/>
<path d="M112.366 234.43V227.263L4.87109 164.453V173.306L112.366 234.43Z" fill="#696D79"/>
<path d="M4.87953 68.7614L0.664062 65.8105V170.776L4.87953 173.305V68.7614Z" fill="#696D79"/>
<path d="M223.659 64.5439L219.443 68.7594V173.303L223.659 170.774V64.5439Z" fill="#8B8E98"/>
<path d="M112.377 102.906V6.79395L4.88253 68.7612V164.452L112.377 102.906Z" fill="#848DA8"/>
<path d="M38.794 156.87L30.0742 162.064V150.351L38.794 145.337V156.87Z" fill="#D5DBE4"/>
<path d="M30.0823 162.081V150.353L19.7031 144.103V156.078L30.0823 162.081Z" fill="#656F89"/>
<path d="M38.8021 145.342L30.0823 150.356L19.7031 144.105L28.2859 139.115L38.8021 145.342Z" fill="#656F89"/>
<path d="M29.2452 162.303L20.5254 167.497V155.784L29.2452 150.77V162.303Z" fill="#D5DBE4"/>
<path d="M20.5334 167.513V155.786L10.1543 149.535V161.511L20.5334 167.513Z" fill="#9AA0B4"/>
<path d="M29.2532 150.774L20.5334 155.788L10.1543 149.538L18.737 144.548L29.2532 150.774Z" fill="#F2F4FA"/>
<path d="M49.8272 163.565L41.1074 168.76V157.046L49.8272 152.032V163.565Z" fill="#D5DBE4"/>
<path d="M41.1155 168.775V157.047L30.7363 150.797V162.773L41.1155 168.775Z" fill="#656F89"/>
<path d="M49.8353 152.036L41.1155 157.05L30.7363 150.8L39.3191 145.81L49.8353 152.036Z" fill="#F2F4FA"/>
<path d="M40.5303 169.242L31.8105 174.436V162.723L40.5303 157.709V169.242Z" fill="#D5DBE4"/>
<path d="M31.8186 174.453V162.725L21.4395 156.475V168.451L31.8186 174.453Z" fill="#9AA0B4"/>
<path d="M40.5384 157.714L31.8186 162.728L21.4395 156.477L30.0222 151.487L40.5384 157.714Z" fill="#F2F4FA"/>
<path d="M38.259 145.239L29.8867 150.226V138.979L38.259 134.165V145.239Z" fill="#D5DBE4"/>
<path d="M29.8914 150.235V138.975L19.9258 132.974V144.472L29.8914 150.235Z" fill="#C2CADC"/>
<path d="M38.2637 134.162L29.8913 138.976L19.9258 132.975L28.1665 128.184L38.2637 134.162Z" fill="#F2F4FA"/>
<path d="M97.7886 126.561L97.8299 190.489L92.1562 188.768V129.627L97.7886 126.561Z" fill="#656F89"/>
<path d="M97.6206 177.336L79.6094 188.307V184.22L97.6206 172.818V177.336Z" fill="#A4ABC1"/>
<path d="M79.6162 184.444L34.0449 159.06V163.362L79.6162 188.624V184.444Z" fill="#656F89"/>
<path d="M79.6531 184.44L33.6172 159.392L52.6766 147.654L97.7232 173.039L79.6531 184.44Z" fill="#C9CFE1"/>
<path d="M71.132 167.756L61.1113 173.725V160.264L71.132 154.502V167.756Z" fill="#D5DBE4"/>
<path d="M61.1034 173.746V160.269L49.1758 153.086V166.848L61.1034 173.746Z" fill="#9AA0B4"/>
<path d="M71.124 154.505L61.1033 160.267L49.1758 153.084L59.039 147.35L71.124 154.505Z" fill="#F2F4FA"/>
<path d="M77.6552 174.166L70.5273 178.412V168.837L77.6552 164.738V174.166Z" fill="#D5DBE4"/>
<path d="M70.5214 178.417V168.83L62.0371 163.721V173.51L70.5214 178.417Z" fill="#9AA0B4"/>
<path d="M77.6492 164.734L70.5214 168.833L62.0371 163.724L69.053 159.645L77.6492 164.734Z" fill="#F2F4FA"/>
<path d="M97.6206 154.016L79.6094 164.987V160.899L97.6206 149.498V154.016Z" fill="#A4ABC1"/>
<path d="M79.6162 161.115L34.0449 135.73V140.033L79.6162 165.294V161.115Z" fill="#656F89"/>
<path d="M79.6531 161.115L33.6172 136.067L52.6766 124.329L97.7232 149.713L79.6531 161.115Z" fill="#C9CFE1"/>
<path d="M97.8052 126.518L95.0293 128.105V192.337L97.9134 190.537L97.8052 126.518Z" fill="#A4ABC1"/>
<path d="M37.6464 114.969V182.315L33.6367 179.902V112.817L37.6464 114.969Z" fill="#656F89"/>
<path d="M79.5253 205.812V137.568L75.5156 135.417V203.576L79.5253 205.812Z" fill="#656F89"/>
<path d="M82.3091 135.976L79.5332 137.563V205.789L82.3091 204.06V135.976Z" fill="#A4ABC1"/>
<path d="M58.4755 139.431L51.3477 143.677V134.103L58.4755 130.004V139.431Z" fill="#D5DBE4"/>
<path d="M51.3417 143.681V134.095L42.8574 128.985V138.775L51.3417 143.681Z" fill="#9AA0B4"/>
<path d="M58.4696 129.999L51.3417 134.098L42.8574 128.988L49.8733 124.909L58.4696 129.999Z" fill="#F2F4FA"/>
<path d="M69.3759 145.49L62.248 149.736V140.161L69.3759 136.062V145.49Z" fill="#D5DBE4"/>
<path d="M62.2421 149.742V140.155L53.7578 135.046V144.835L62.2421 149.742Z" fill="#9AA0B4"/>
<path d="M69.37 136.058L62.2421 140.156L53.7578 135.047L60.7737 130.968L69.37 136.058Z" fill="#F2F4FA"/>
<path d="M97.6362 130.685L79.625 141.656V137.569L97.8098 126.56L97.6362 130.685Z" fill="#A4ABC1"/>
<path d="M79.6243 137.782L33.6777 112.787V116.523L79.6243 141.961V137.782Z" fill="#656F89"/>
<path d="M79.6586 137.781L33.6777 112.786L52.6821 100.995L97.8091 126.556L79.6586 137.781Z" fill="#C9CFE1"/>
<path d="M59.5674 114.206L50.7422 119.463V107.608L59.5674 102.533V114.206Z" fill="#D5DBE4"/>
<path d="M50.739 119.482V107.613L40.2344 101.287V113.408L50.739 119.482Z" fill="#9AA0B4"/>
<path d="M59.5642 102.535L50.739 107.61L40.2344 101.284L48.9209 96.2334L59.5642 102.535Z" fill="#F2F4FA"/>
<path d="M68.372 121.261L61.2441 125.507V115.932L68.372 111.833V121.261Z" fill="#D5DBE4"/>
<path d="M61.2382 125.51V115.924L52.7539 110.814V120.604L61.2382 125.51Z" fill="#9AA0B4"/>
<path d="M68.366 111.828L61.2382 115.927L52.7539 110.817L59.7698 106.738L68.366 111.828Z" fill="#F2F4FA"/>
<path d="M123.69 189.066L114.971 194.261V182.547L123.69 177.533V189.066Z" fill="#D5DBE4"/>
<path d="M114.979 194.278V182.55L104.6 176.3V188.276L114.979 194.278Z" fill="#656F89"/>
<path d="M123.699 177.539L114.979 182.553L104.6 176.302L113.182 171.312L123.699 177.539Z" fill="#656F89"/>
<path d="M114.149 194.502L105.43 199.696V187.983L114.149 182.969V194.502Z" fill="#D5DBE4"/>
<path d="M105.438 199.711V187.984L95.0586 181.733V193.709L105.438 199.711Z" fill="#9AA0B4"/>
<path d="M114.158 182.971L105.438 187.985L95.0586 181.734L103.641 176.744L114.158 182.971Z" fill="#F2F4FA"/>
<path d="M134.735 195.762L126.016 200.956V189.243L134.735 184.229V195.762Z" fill="#D5DBE4"/>
<path d="M126.024 200.974V189.247L115.645 182.996V194.972L126.024 200.974Z" fill="#656F89"/>
<path d="M134.743 184.235L126.024 189.249L115.645 182.999L124.227 178.009L134.743 184.235Z" fill="#F2F4FA"/>
<path d="M125.427 201.443L116.707 206.638V194.924L125.427 189.91V201.443Z" fill="#D5DBE4"/>
<path d="M116.715 206.654V194.926L106.336 188.676V200.652L116.715 206.654Z" fill="#9AA0B4"/>
<path d="M125.435 189.915L116.715 194.929L106.336 188.678L114.919 183.688L125.435 189.915Z" fill="#F2F4FA"/>
<path d="M123.161 177.438L114.789 182.425V171.178L123.161 166.364V177.438Z" fill="#D5DBE4"/>
<path d="M114.794 182.434V171.174L104.828 165.173V176.672L114.794 182.434Z" fill="#C2CADC"/>
<path d="M123.166 166.36L114.794 171.174L104.828 165.173L113.069 160.382L123.166 166.36Z" fill="#F2F4FA"/>
<path d="M181.788 110.285L172.082 115.834V92.5591L181.788 87.2559V110.285Z" fill="#9EA9BB"/>
<path d="M141.049 99.0097V74.4824L151.37 80.4944C155.278 80.9665 157.222 81.766 159.694 85.3429L172.074 92.5539V115.826L141.049 99.0097Z" fill="#8B94A4"/>
<path d="M159.141 87.3616C156.13 83.34 153.835 81.9087 149.818 81.9234C149.818 81.9234 151.15 80.3326 155.146 82.2933C159.141 84.2541 159.141 87.3616 159.141 87.3616Z" fill="#D9D9D9"/>
<path d="M141.049 74.4895L149.927 68.2744L181.78 87.2525L172.074 92.561L159.805 85.44C157.075 81.9693 155.129 81.171 151.37 80.5445L141.049 74.4895Z" fill="#BABFC8"/>
<path d="M172.045 97.8719L159.807 90.7686V91.7674L172.046 98.8709L181.559 93.4689V92.3591L172.045 97.8719Z" fill="#D2D9E4"/>
<path d="M172.043 110.633L159.805 103.529V104.528L172.044 111.632L181.557 106.23V105.12L172.043 110.633Z" fill="#D2D9E4"/>
<path d="M151.481 85.8714L141.049 79.8164V80.8153L151.481 86.8703V85.8714Z" fill="#D7DAE0"/>
<ellipse cx="7.4126" cy="13.1486" rx="7.4126" ry="13.1486" transform="matrix(0.919106 -0.394011 0.416215 0.909266 141.824 85.7646)" fill="#99A4B5"/>
<path d="M147.281 86.1441C147.281 86.1441 112.44 104.188 118.536 101.238C124.633 98.2878 128.737 123.373 128.737 123.373L157.269 104.456C159.64 98.2285 154.828 84.3683 147.281 86.1441Z" fill="#AEB5C2"/>
<ellipse cx="7.4126" cy="12.2376" rx="7.4126" ry="12.2376" transform="matrix(0.919106 -0.394011 0.416215 0.909266 111.533 104.184)" fill="#2C3A55"/>
<path d="M136.162 118.385C139.925 116.772 140.561 110.825 137.842 104.885C135.358 99.4581 130.758 96.0612 127.112 96.7442C126.423 96.8734 125.808 97.2387 125.216 97.6153L124.885 97.8264C128.647 96.2133 133.901 99.7185 136.618 105.655C139.336 111.592 138.53 116.221 136.162 118.385Z" fill="#515D73"/>
<path d="M143.727 113.385C147.39 111.664 147.934 106.102 145.279 100.43C142.951 95.4579 138.721 92.2705 135.238 92.5983C134.268 92.6895 133.421 93.2357 132.629 93.8024C136.302 92.2624 141.431 95.4978 144.084 101.166C146.737 106.834 145.967 111.276 143.727 113.385Z" fill="#515D73"/>
<path d="M150.524 108.868C154.198 107.399 155.024 101.934 152.369 96.5239C149.959 91.6129 145.509 88.5274 141.961 89.0992C141.244 89.2147 140.597 89.5747 139.972 89.9454L139.719 90.0959C143.392 88.627 148.521 91.819 151.174 97.2253C153.827 102.632 152.656 107.177 150.524 108.868Z" fill="#515D73"/>
<ellipse cx="5.53011" cy="9.34974" rx="5.53011" ry="9.34974" transform="matrix(0.919106 -0.394011 0.416215 0.909266 115.471 106.298)" fill="#1C2539"/>
<ellipse cx="3.87512" cy="6.55165" rx="3.87512" ry="6.55165" transform="matrix(0.919106 -0.394011 0.416215 0.909266 119.336 107.534)" fill="#3F4656"/>
<ellipse cx="3.04801" cy="5.15327" rx="3.04801" ry="5.15327" transform="matrix(0.919106 -0.394011 0.416215 0.909266 120.68 108.478)" fill="#777E8F"/>
<path d="M167.8 88.2533L175.005 83.3685C175.005 78.3742 172.797 75.5798 170.455 73.9504C167.955 72.2114 164.795 71.2713 158.469 73.1581L154.116 76.2674C153.304 76.847 154.732 81.072 155.583 81.5919C156.865 82.3752 158.518 83.6888 159.813 85.5609C161.535 88.0506 165.294 89.952 167.8 88.2533Z" fill="#A7B0C1"/>
<path d="M158.468 73.1606L145.15 82.705C149.821 79.6824 153.366 80.8811 156.249 82.0392L169.345 73.2716C166.237 71.7177 163.13 71.4957 158.468 73.1606Z" fill="#929BAB"/>
<ellipse cx="174.958" cy="85.9734" rx="3.82892" ry="2.27515" fill="#818C9D"/>
<path d="M174.958 88.2556C177.072 88.2556 178.787 87.237 178.787 85.9805V86.8683C178.787 88.1249 177.072 89.1435 174.958 89.1435C172.843 89.1435 171.129 88.1249 171.129 86.8683V85.9805C171.129 87.237 172.843 88.2556 174.958 88.2556Z" fill="#9FA7B4"/>
</svg>
