<svg width="369" height="332" viewBox="0 0 469 332" fill="none" xmlns="http://www.w3.org/2000/svg">
<path d="M345.928 169.138L335.336 162.076V138.146L349.851 142.461L345.928 169.138Z" fill="#001030"/>
<path d="M318.467 185.223L307.09 177.769V153.838L321.605 158.153L318.467 185.223Z" fill="#001030"/>
<path d="M322.754 165.244L312.582 155.015L358.089 128.338L365.198 138.347L322.754 165.244Z" fill="#001030"/>
<path d="M311.011 184.046L296.496 175.023L300.419 153.054L316.896 162.861L311.011 184.046Z" fill="#333333"/>
<path d="M319.643 158.546L316.897 162.861L300.42 153.054L350.635 123.238L362.797 128.338L372.997 146.777L362.797 135.792L358.481 134.615L319.643 158.546Z" fill="#292929"/>
<path d="M319.642 158.546L316.896 162.861L311.012 184.046L311.796 183.261L317.289 163.646L320.427 158.938L358.481 135.4L362.796 136.577C366.927 140.249 368.974 142.585 372.212 147.169H373.389C369.856 142.547 367.641 140.028 362.796 135.792L358.481 134.615L319.642 158.546Z" fill="#464646"/>
<ellipse cx="328.16" cy="170.011" rx="11.22" ry="18.0894" transform="rotate(29.7484 328.16 170.011)" fill="#001030"/>
<ellipse cx="354.836" cy="153.533" rx="11.22" ry="18.0894" transform="rotate(29.7484 354.836 153.533)" fill="#001030"/>
<ellipse cx="328.944" cy="170.796" rx="7.82846" ry="12.6213" transform="rotate(29.7484 328.944 170.796)" fill="#D0D4E4"/>
<ellipse cx="355.622" cy="154.318" rx="7.82846" ry="12.6213" transform="rotate(29.7484 355.622 154.318)" fill="#D0D4E4"/>
<path d="M177.632 234.261L61.5094 300.169L15.6094 275.453L135.263 210.33L177.632 234.261Z" fill="#BFC6DC"/>
<path d="M387.908 112.645L135.262 258.583L70.9238 222.491L326.708 74.9834L387.908 112.645Z" fill="#576182"/>
<path d="M387.909 38.1064L323.57 1.22949V76.5526L387.909 113.429V38.1064Z" fill="#38405B"/>
<path d="M224.586 113.068L299.124 156.222L306.186 152.299L231.658 109.41L224.586 113.068Z" fill="#B7C3D8"/>
<path d="M224.586 114.638V113.068L299.124 156.222V157.399L224.586 114.638Z" fill="#96A3C1"/>
<path d="M306.187 153.476V152.299L299.125 156.222V157.399L306.187 153.476Z" fill="#B5C1D4"/>
<path d="M304.272 151.121L297.162 155.045V144.452L304.272 140.35V151.121Z" fill="#BDC4D1"/>
<path d="M297.163 155.045V145.237L289.119 140.922V150.453L297.163 155.045Z" fill="#96A3C1"/>
<path d="M304.273 140.35L296.696 144.139L289.119 140.35L296.696 136.562L304.273 140.35Z" fill="#B8C1DB"/>
<path d="M273.964 133.404L266.387 137.193V126.458L273.964 122.67V133.404Z" fill="#BDC4D1"/>
<path d="M266.388 137.193V126.458L258.811 122.67V132.773L266.388 137.193Z" fill="#96A3C1"/>
<path d="M273.965 122.67L266.388 126.459L258.811 122.67L266.388 118.882L273.965 122.67Z" fill="#B8C1DB"/>
<path d="M243.653 116.355L236.076 119.737V109.41L243.653 105.621V116.355Z" fill="#BDC4D1"/>
<path d="M236.077 120.144V109.41L228.5 105.621V115.724L236.077 120.144Z" fill="#96A3C1"/>
<path d="M243.654 105.622L236.077 109.41L228.5 105.622L236.077 101.833L243.654 105.622Z" fill="#B8C1DB"/>
<path d="M224.586 102.868L299.221 146.033L306.186 142.099L231.658 99.3076L224.586 102.868Z" fill="#B7C3D8"/>
<path d="M224.586 104.045V102.868L299.221 146.033V147.296L224.586 104.045Z" fill="#96A3C1"/>
<path d="M306.185 143.276V142.099L299.221 146.033V147.296L306.185 143.276Z" fill="#B5C1D4"/>
<path d="M259.891 92.6687L334.429 135.823L341.49 131.899L266.963 89.0107L259.891 92.6687Z" fill="#B7C3D8"/>
<path d="M259.891 94.2382V92.6689L334.429 135.823V137L259.891 94.2382Z" fill="#96A3C1"/>
<path d="M341.491 133.076V131.899L334.43 135.822V136.999L341.491 133.076Z" fill="#B5C1D4"/>
<path d="M339.577 130.723L332.467 134.646V124.054L339.577 119.951V130.723Z" fill="#BDC4D1"/>
<path d="M332.468 134.647V124.839L324.424 120.523V130.054L332.468 134.647Z" fill="#96A3C1"/>
<path d="M339.578 119.952L332.001 123.74L324.424 119.952L332.001 116.163L339.578 119.952Z" fill="#B8C1DB"/>
<path d="M309.269 113.005L301.691 116.793V106.059L309.269 102.271V113.005Z" fill="#BDC4D1"/>
<path d="M301.692 116.793V106.059L294.115 102.271V112.373L301.692 116.793Z" fill="#96A3C1"/>
<path d="M309.27 102.271L301.692 106.06L294.115 102.271L301.692 98.4824L309.27 102.271Z" fill="#B8C1DB"/>
<path d="M278.958 95.956L271.381 99.3376V89.0103L278.958 85.2217V95.956Z" fill="#BDC4D1"/>
<path d="M271.382 99.7445V89.0103L263.805 85.2217V95.3245L271.382 99.7445Z" fill="#96A3C1"/>
<path d="M278.959 85.2222L271.382 89.0107L263.805 85.2222L271.382 81.4336L278.959 85.2222Z" fill="#B8C1DB"/>
<path d="M259.891 82.4698L334.526 125.635L341.49 121.701L266.963 78.9092L259.891 82.4698Z" fill="#B7C3D8"/>
<path d="M259.891 83.6466V82.4697L334.526 125.635V126.898L259.891 83.6466Z" fill="#96A3C1"/>
<path d="M341.49 122.877V121.7L334.525 125.634V126.897L341.49 122.877Z" fill="#B5C1D4"/>
<path d="M288.137 76.1599L362.675 119.314L369.736 115.391L295.209 72.502L288.137 76.1599Z" fill="#B7C3D8"/>
<path d="M288.137 77.7294V76.1602L362.675 119.314V120.491L288.137 77.7294Z" fill="#96A3C1"/>
<path d="M369.737 116.568V115.391L362.676 119.314V120.491L369.737 116.568Z" fill="#B5C1D4"/>
<path d="M367.823 114.213L360.713 118.136V107.544L367.823 103.441V114.213Z" fill="#BDC4D1"/>
<path d="M360.714 118.137V108.329L352.67 104.014V113.545L360.714 118.137Z" fill="#96A3C1"/>
<path d="M367.824 103.442L360.247 107.23L352.67 103.442L360.247 99.6533L367.824 103.442Z" fill="#B8C1DB"/>
<path d="M337.515 96.496L329.938 100.285V89.5503L337.515 85.7617V96.496Z" fill="#BDC4D1"/>
<path d="M329.938 100.285V89.5503L322.361 85.7617V95.8646L329.938 100.285Z" fill="#96A3C1"/>
<path d="M337.516 85.7622L329.938 89.5508L322.361 85.7622L329.938 81.9736L337.516 85.7622Z" fill="#B8C1DB"/>
<path d="M307.204 79.4472L299.627 82.8288V72.5015L307.204 68.7129V79.4472Z" fill="#BDC4D1"/>
<path d="M299.628 83.2357V72.5015L292.051 68.7129V78.8157L299.628 83.2357Z" fill="#96A3C1"/>
<path d="M307.205 68.7134L299.628 72.5019L292.051 68.7134L299.628 64.9248L307.205 68.7134Z" fill="#B8C1DB"/>
<path d="M288.137 65.9601L362.772 109.125L369.736 105.191L295.209 62.3994L288.137 65.9601Z" fill="#B7C3D8"/>
<path d="M288.137 67.1369V65.96L362.772 109.125V110.388L288.137 67.1369Z" fill="#96A3C1"/>
<path d="M369.736 106.367V105.19L362.771 109.125V110.388L369.736 106.367Z" fill="#B5C1D4"/>
<path d="M368.168 101.396L293.63 144.55L286.568 140.627L361.095 97.7383L368.168 101.396Z" fill="#B5C1DC"/>
<path d="M368.168 102.966V101.396L293.63 144.55V145.727L368.168 102.966Z" fill="#99A7BC"/>
<path d="M286.567 141.804V140.627L293.629 144.55V145.727L286.567 141.804Z" fill="#8793AE"/>
<path d="M355.615 93.5496L281.077 136.703L274.016 132.78L348.543 89.8916L355.615 93.5496Z" fill="#B5C1DC"/>
<path d="M355.615 95.119V93.5498L281.077 136.704V137.881L355.615 95.119Z" fill="#99A7BC"/>
<path d="M274.015 133.957V132.78L281.076 136.703V137.88L274.015 133.957Z" fill="#8793AE"/>
<path d="M342.275 85.7039L267.737 128.858L260.676 124.935L335.203 82.0459L342.275 85.7039Z" fill="#B5C1DC"/>
<path d="M342.275 87.2733V85.7041L267.737 128.858V130.035L342.275 87.2733Z" fill="#99A7BC"/>
<path d="M260.675 126.111V124.935L267.736 128.858V130.035L260.675 126.111Z" fill="#8793AE"/>
<path d="M329.723 78.6423L255.185 121.796L248.123 117.873L322.65 74.9844L329.723 78.6423Z" fill="#B5C1DC"/>
<path d="M329.723 80.2118V78.6426L255.185 121.796V122.973L329.723 80.2118Z" fill="#99A7BC"/>
<path d="M248.122 119.05V117.873L255.184 121.796V122.973L248.122 119.05Z" fill="#8793AE"/>
<path d="M317.953 72.365L243.415 115.519L236.354 111.596L310.881 68.707L317.953 72.365Z" fill="#B5C1DC"/>
<path d="M317.953 73.9345V72.3652L243.415 115.519V116.696L317.953 73.9345Z" fill="#99A7BC"/>
<path d="M236.353 112.773V111.596L243.414 115.519V116.696L236.353 112.773Z" fill="#8793AE"/>
<path d="M306.969 66.0886L232.431 109.242L225.369 105.319L299.896 62.4307L306.969 66.0886Z" fill="#B5C1DC"/>
<path d="M306.969 67.6581V66.0889L232.431 109.243V110.42L306.969 67.6581Z" fill="#96A3C1"/>
<path d="M225.368 106.496V105.319L232.43 109.242V110.419L225.368 106.496Z" fill="#BCC5D4"/>
<path d="M320.706 81.7356L293.121 98.1679V61.1128L320.706 45.251V81.7356Z" fill="#D5DBE4"/>
<path d="M293.121 98.2131V61.1133L260.287 41.3398V79.2256L293.121 98.2131Z" fill="#96A3C1"/>
<path d="M320.706 45.2513L293.121 61.1129L260.287 41.3394L287.439 25.5537L320.706 45.2513Z" fill="#B8C1DB"/>
<path d="M291.28 98.9153L263.695 115.348V78.2925L291.28 62.4307V98.9153Z" fill="#D5DBE4"/>
<path d="M263.696 115.393V78.293L230.861 58.5195V96.4052L263.696 115.393Z" fill="#BFCAE0"/>
<path d="M291.281 62.431L263.696 78.2926L230.861 58.5191L258.013 42.7334L291.281 62.431Z" fill="#B8C1DB"/>
<path d="M355.62 102.92L328.035 119.352V82.2973L355.62 66.4355V102.92Z" fill="#D5DBE4"/>
<path d="M328.035 119.398V82.2979L295.201 62.5244V100.41L328.035 119.398Z" fill="#96A3C1"/>
<path d="M355.62 66.4359L328.035 82.2975L295.201 62.524L322.353 46.7383L355.62 66.4359Z" fill="#B8C1DB"/>
<path d="M326.192 120.1L298.607 136.532V99.477L326.192 83.6152V120.1Z" fill="#D5DBE4"/>
<path d="M298.608 136.577V99.4776L265.773 79.7041V117.59L298.608 136.577Z" fill="#BFCAE0"/>
<path d="M326.193 83.6156L298.608 99.4772L265.773 79.7037L292.925 63.918L326.193 83.6156Z" fill="#B8C1DB"/>
<path d="M144.547 160.931L219.085 204.085L226.146 200.162L151.619 157.273L144.547 160.931Z" fill="#B7C3D8"/>
<path d="M144.547 162.501V160.932L219.085 204.085V205.262L144.547 162.501Z" fill="#96A3C1"/>
<path d="M226.147 201.339V200.162L219.086 204.085V205.262L226.147 201.339Z" fill="#B5C1D4"/>
<path d="M224.233 198.985L217.123 202.908V192.315L224.233 188.213V198.985Z" fill="#BDC4D1"/>
<path d="M217.124 202.908V193.101L209.08 188.785V198.316L217.124 202.908Z" fill="#96A3C1"/>
<path d="M224.234 188.213L216.657 192.002L209.08 188.213L216.657 184.425L224.234 188.213Z" fill="#B8C1DB"/>
<path d="M193.927 181.267L186.35 185.055V174.321L193.927 170.532V181.267Z" fill="#BDC4D1"/>
<path d="M186.351 185.055V174.321L178.773 170.532V180.635L186.351 185.055Z" fill="#96A3C1"/>
<path d="M193.928 170.533L186.351 174.321L178.773 170.533L186.351 166.744L193.928 170.533Z" fill="#B8C1DB"/>
<path d="M163.616 164.219L156.039 167.6V157.273L163.616 153.484V164.219Z" fill="#BDC4D1"/>
<path d="M156.04 168.007V157.273L148.463 153.484V163.587L156.04 168.007Z" fill="#96A3C1"/>
<path d="M163.617 153.485L156.04 157.273L148.463 153.485L156.04 149.696L163.617 153.485Z" fill="#B8C1DB"/>
<path d="M144.547 150.731L219.182 193.896L226.146 189.961L151.619 147.17L144.547 150.731Z" fill="#B7C3D8"/>
<path d="M144.547 151.907V150.73L219.182 193.896V195.158L144.547 151.907Z" fill="#96A3C1"/>
<path d="M226.146 191.138V189.961L219.182 193.895V195.158L226.146 191.138Z" fill="#B5C1D4"/>
<path d="M179.859 140.529L254.397 183.683L261.459 179.76L186.932 136.871L179.859 140.529Z" fill="#B7C3D8"/>
<path d="M179.859 142.099V140.529L254.397 183.683V184.86L179.859 142.099Z" fill="#96A3C1"/>
<path d="M261.46 180.937V179.76L254.398 183.683V184.86L261.46 180.937Z" fill="#B5C1D4"/>
<path d="M259.546 178.582L252.436 182.505V171.913L259.546 167.811V178.582Z" fill="#BDC4D1"/>
<path d="M252.437 182.506V172.698L244.393 168.383V177.914L252.437 182.506Z" fill="#96A3C1"/>
<path d="M259.547 167.811L251.97 171.6L244.393 167.811L251.97 164.022L259.547 167.811Z" fill="#B8C1DB"/>
<path d="M229.237 160.865L221.66 164.654V153.919L229.237 150.131V160.865Z" fill="#BDC4D1"/>
<path d="M221.661 164.654V153.919L214.084 150.131V160.234L221.661 164.654Z" fill="#96A3C1"/>
<path d="M229.238 150.131L221.661 153.92L214.084 150.131L221.661 146.343L229.238 150.131Z" fill="#B8C1DB"/>
<path d="M198.927 143.816L191.35 147.198V136.871L198.927 133.082V143.816Z" fill="#BDC4D1"/>
<path d="M191.351 147.605V136.871L183.773 133.082V143.185L191.351 147.605Z" fill="#96A3C1"/>
<path d="M198.928 133.083L191.351 136.871L183.773 133.083L191.351 129.294L198.928 133.083Z" fill="#B8C1DB"/>
<path d="M179.859 130.329L254.495 173.494L261.459 169.56L186.932 126.769L179.859 130.329Z" fill="#B7C3D8"/>
<path d="M179.859 131.506V130.329L254.495 173.494V174.757L179.859 131.506Z" fill="#96A3C1"/>
<path d="M261.458 170.736V169.56L254.494 173.494V174.757L261.458 170.736Z" fill="#B5C1D4"/>
<path d="M208.105 124.022L282.644 167.176L289.705 163.253L215.178 120.364L208.105 124.022Z" fill="#B7C3D8"/>
<path d="M208.105 125.592V124.022L282.644 167.176V168.353L208.105 125.592Z" fill="#96A3C1"/>
<path d="M289.706 164.43V163.253L282.645 167.176V168.353L289.706 164.43Z" fill="#B5C1D4"/>
<path d="M287.792 162.076L280.682 165.999V155.406L287.792 151.304V162.076Z" fill="#BDC4D1"/>
<path d="M280.683 165.999V156.191L272.639 151.876V161.407L280.683 165.999Z" fill="#96A3C1"/>
<path d="M287.793 151.304L280.216 155.093L272.639 151.304L280.216 147.516L287.793 151.304Z" fill="#B8C1DB"/>
<path d="M257.483 144.357L249.906 148.146V137.412L257.483 133.623V144.357Z" fill="#BDC4D1"/>
<path d="M249.907 148.146V137.412L242.33 133.623V143.726L249.907 148.146Z" fill="#96A3C1"/>
<path d="M257.484 133.624L249.907 137.412L242.33 133.624L249.907 129.835L257.484 133.624Z" fill="#B8C1DB"/>
<path d="M227.173 127.309L219.596 130.691V120.364L227.173 116.575V127.309Z" fill="#BDC4D1"/>
<path d="M219.597 131.098V120.364L212.02 116.575V126.678L219.597 131.098Z" fill="#96A3C1"/>
<path d="M227.174 116.576L219.597 120.364L212.02 116.576L219.597 112.787L227.174 116.576Z" fill="#B8C1DB"/>
<path d="M208.105 113.822L282.741 156.987L289.705 153.053L215.178 110.262L208.105 113.822Z" fill="#B7C3D8"/>
<path d="M208.105 114.999V113.822L282.741 156.987V158.25L208.105 114.999Z" fill="#96A3C1"/>
<path d="M289.704 154.23V153.053L282.74 156.987V158.25L289.704 154.23Z" fill="#B5C1D4"/>
<path d="M288.135 149.259L213.597 192.412L206.535 188.489L281.062 145.601L288.135 149.259Z" fill="#B5C1DC"/>
<path d="M288.135 150.828V149.259L213.597 192.413V193.59L288.135 150.828Z" fill="#99A7BC"/>
<path d="M206.534 189.666V188.489L213.596 192.412V193.589L206.534 189.666Z" fill="#8793AE"/>
<path d="M275.582 141.412L201.044 184.566L193.982 180.643L268.51 137.754L275.582 141.412Z" fill="#B5C1DC"/>
<path d="M275.582 142.981V141.412L201.044 184.566V185.743L275.582 142.981Z" fill="#99A7BC"/>
<path d="M193.981 181.82V180.643L201.043 184.566V185.743L193.981 181.82Z" fill="#8793AE"/>
<path d="M262.242 133.566L187.704 176.72L180.643 172.797L255.17 129.908L262.242 133.566Z" fill="#B5C1DC"/>
<path d="M262.242 135.136V133.566L187.704 176.72V177.897L262.242 135.136Z" fill="#99A7BC"/>
<path d="M180.642 173.974V172.797L187.703 176.72V177.897L180.642 173.974Z" fill="#8793AE"/>
<path d="M249.689 126.505L175.151 169.658L168.09 165.735L242.617 122.847L249.689 126.505Z" fill="#B5C1DC"/>
<path d="M249.689 128.074V126.505L175.151 169.659V170.836L249.689 128.074Z" fill="#99A7BC"/>
<path d="M168.089 166.912V165.735L175.15 169.658V170.835L168.089 166.912Z" fill="#8793AE"/>
<path d="M237.918 120.227L163.38 163.381L156.318 159.458L230.845 116.569L237.918 120.227Z" fill="#B5C1DC"/>
<path d="M237.918 121.797V120.228L163.38 163.381V164.558L237.918 121.797Z" fill="#99A7BC"/>
<path d="M156.317 160.635V159.458L163.379 163.381V164.558L156.317 160.635Z" fill="#8793AE"/>
<path d="M226.936 113.951L152.397 157.105L145.336 153.182L219.863 110.293L226.936 113.951Z" fill="#B5C1DC"/>
<path d="M226.936 115.52V113.951L152.397 157.105V158.282L226.936 115.52Z" fill="#96A3C1"/>
<path d="M145.335 154.359V153.182L152.396 157.105V158.282L145.335 154.359Z" fill="#BCC5D4"/>
<path d="M240.671 129.598L213.086 146.03V108.975L240.671 93.1133V129.598Z" fill="#D5DBE4"/>
<path d="M213.086 146.075V108.976L180.252 89.2021V127.088L213.086 146.075Z" fill="#96A3C1"/>
<path d="M240.671 93.1136L213.086 108.975L180.252 89.2017L207.403 73.416L240.671 93.1136Z" fill="#B8C1DB"/>
<path d="M211.247 146.778L183.662 163.21V126.155L211.247 110.293V146.778Z" fill="#D5DBE4"/>
<path d="M183.662 163.255V126.155L150.828 106.382V144.268L183.662 163.255Z" fill="#BFCAE0"/>
<path d="M211.247 110.293L183.662 126.155L150.828 106.381L177.98 90.5957L211.247 110.293Z" fill="#B8C1DB"/>
<path d="M275.583 150.782L247.998 167.215V130.16L275.583 114.298V150.782Z" fill="#D5DBE4"/>
<path d="M247.998 167.26V130.16L215.164 110.387V148.272L247.998 167.26Z" fill="#96A3C1"/>
<path d="M275.583 114.298L247.998 130.16L215.164 110.386L242.315 94.6006L275.583 114.298Z" fill="#B8C1DB"/>
<path d="M246.159 167.962L218.574 184.394V147.339L246.159 131.478V167.962Z" fill="#D5DBE4"/>
<path d="M218.575 184.44V147.34L185.74 127.566V165.452L218.575 184.44Z" fill="#BFCAE0"/>
<path d="M246.159 131.478L218.575 147.339L185.74 127.566L212.892 111.78L246.159 131.478Z" fill="#B8C1DB"/>
<path d="M387.908 38.1068L135.262 185.615L70.9238 147.953L326.708 0.445312L387.908 38.1068Z" fill="#F2F4FA"/>
<path d="M135.262 185.615L70.9238 147.953V223.276L135.262 260.153V185.615Z" fill="#9DA4BB"/>
<path d="M70.1375 168.745L59.9375 180.514L110.938 209.937L121.138 198.56L70.1375 168.745Z" fill="#DCE0ED"/>
<path d="M110.937 209.937L60.7216 180.906C60.7216 180.906 12.86 207.583 10.5062 209.937C8.15234 212.291 8.15234 217.391 8.15234 217.391L61.5062 246.029C61.5062 246.029 62.2908 240.929 64.6447 238.575L110.937 209.937Z" fill="#F2F4FA"/>
<path d="M64.6464 238.576C62.2925 240.93 61.5078 246.422 61.5078 246.422L121.139 214.253V198.561L110.546 209.937L64.6464 238.576Z" fill="#B2B7C8"/>
<path d="M61.5078 300.953L121.139 267.214V213.86L61.5078 246.814V300.953Z" fill="#ADB3C9"/>
<path d="M8.9375 271.53V249.561L61.5067 278.199V300.168L8.9375 271.53Z" fill="#F2F4FA"/>
<path d="M8.9375 249.56L36.0067 233.476L61.5067 247.206V278.199L8.9375 249.56Z" fill="#2A2A2A"/>
<path d="M61.5067 271.922L15.2144 246.029L8.9375 249.56L61.5067 278.199V271.922Z" fill="#626262"/>
<path d="M69.7441 267.999L90.5364 257.014V233.868L69.7441 245.245V267.999Z" fill="#657AA6"/>
<path d="M94.8516 254.66L115.644 243.675V220.529L94.8516 231.906V254.66Z" fill="#657AA6"/>
<path d="M17.4994 244.545L17.2492 222.2L12.0121 219.335L12.4694 247.449L17.4994 244.545Z" fill="#838383"/>
<path opacity="0.7" d="M8.9375 249.56V218.176L61.5067 246.422L65.8221 244.46V276.237L61.5067 278.199L8.9375 249.56Z" fill="#8B9DC1"/>
<path d="M61.5078 247.207L8.15416 218.176V216.999L61.5078 246.03V247.207Z" fill="#5E7AB5"/>
<path d="M61.5078 247.207L121.139 215.43V214.253L61.5078 246.03V247.207Z" fill="#8492AF"/>
<path d="M8.93945 298.992V271.53L61.5087 300.169V328.415L8.93945 298.992Z" fill="#333333"/>
<path d="M95.6391 302.915L74.4544 326.454L66.4121 321.942L65.0391 312.331L70.7275 303.504L83.0852 289.577L94.4621 283.3L95.6391 302.915Z" fill="#161616"/>
<path d="M186.655 248.776L165.47 272.707L157.624 266.822L156.055 258.192L161.743 249.365L174.885 237.007L183.124 235.83L186.655 248.776Z" fill="#161616"/>
<path d="M23.6052 292.283L23.0625 282.515L48.1702 296.638L46.0612 303.433C45.3263 305.801 42.6064 306.902 40.4313 305.712L27.673 298.731C25.2938 297.429 23.7556 294.991 23.6052 292.283Z" fill="#011132"/>
<path d="M23.0625 306.838V302.522L45.4242 315.159V319.392L23.0625 306.838Z" fill="#838383"/>
<path d="M12.0781 290.754V276.631L19.1397 280.554L20.7089 295.462L12.0781 290.754Z" fill="#E3E9F5"/>
<path d="M58.3699 315.861L48.1699 310.369L52.093 298.207L58.3699 301.738V315.861Z" fill="#E3E9F5"/>
<path d="M182.731 230.73C190.633 231.262 194.108 240.538 190.185 251.523C190.185 251.523 191.067 256.525 189.008 253.092C187.855 251.17 188.918 244.79 185.869 242.107C183.472 239.998 177.334 240.867 173.708 243.284C157.231 254.269 160.369 270.746 160.369 270.746L96.8155 307.561C96.8155 307.561 96.8155 286.438 81.1232 295.854C65.4309 305.269 69.354 324.1 69.354 324.1L61.5078 328.415V300.169L95.5609 281.338L105.777 275.454L182.731 230.73Z" fill="#292929"/>
<path d="M107.801 296.246L99.9551 300.561V282.123L107.801 277.808L111.332 280.554V298.992L107.801 296.246Z" fill="#191919"/>
<path d="M111.724 297.815L107.801 295.461L99.9551 299.776V304.484L111.724 297.815Z" fill="#4E4E4E"/>
<path d="M111.724 288.792L107.801 286.438L99.9551 290.754V295.462L111.724 288.792Z" fill="#4E4E4E"/>
<path d="M111.724 279.769L107.801 277.415L99.9551 281.73V286.438L111.724 279.769Z" fill="#4E4E4E"/>
<ellipse cx="174.379" cy="257.103" rx="11.22" ry="18.0894" transform="rotate(29.7484 174.379 257.103)" fill="#001030"/>
<ellipse cx="82.58" cy="310.457" rx="11.22" ry="18.0894" transform="rotate(29.7484 82.58 310.457)" fill="#001030"/>
<ellipse cx="175.163" cy="257.887" rx="7.82846" ry="12.6213" transform="rotate(29.7484 175.163 257.887)" fill="#D0D4E4"/>
<ellipse cx="83.3642" cy="311.242" rx="7.82846" ry="12.6213" transform="rotate(29.7484 83.3642 311.242)" fill="#D0D4E4"/>
<path d="M323.441 253.514L397.979 296.668L405.041 292.745L330.514 249.856L323.441 253.514Z" fill="#E7EAEF"/>
<path d="M323.441 255.084V253.515L397.979 296.668V297.845L323.441 255.084Z" fill="#96A3C1"/>
<path d="M405.042 293.922V292.745L397.98 296.668V297.845L405.042 293.922Z" fill="#B5C1D4"/>
<path d="M403.128 291.568L396.018 295.491V284.898L403.128 280.796V291.568Z" fill="#BDC4D1"/>
<path d="M396.019 295.491V285.684L387.975 281.368V290.899L396.019 295.491Z" fill="#96A3C1"/>
<path d="M403.129 280.796L395.552 284.585L387.975 280.796L395.552 277.008L403.129 280.796Z" fill="#F2F4FA"/>
<path d="M372.819 273.85L365.242 277.638V266.904L372.819 263.115V273.85Z" fill="#BDC4D1"/>
<path d="M365.243 277.638V266.904L357.666 263.115V273.218L365.243 277.638Z" fill="#96A3C1"/>
<path d="M372.82 263.116L365.243 266.904L357.666 263.116L365.243 259.327L372.82 263.116Z" fill="#F2F4FA"/>
<path d="M342.509 256.802L334.932 260.183V249.856L342.509 246.067V256.802Z" fill="#BDC4D1"/>
<path d="M334.933 260.59V249.856L327.355 246.067V256.17L334.933 260.59Z" fill="#96A3C1"/>
<path d="M342.51 246.068L334.933 249.856L327.355 246.068L334.933 242.279L342.51 246.068Z" fill="#F2F4FA"/>
<path d="M323.441 243.315L398.077 286.48L405.041 282.545L330.514 239.754L323.441 243.315Z" fill="#E7EAEF"/>
<path d="M323.441 244.491V243.314L398.077 286.479V287.742L323.441 244.491Z" fill="#96A3C1"/>
<path d="M405.04 283.722V282.545L398.076 286.479V287.742L405.04 283.722Z" fill="#B5C1D4"/>
<path d="M358.752 233.116L433.29 276.27L440.352 272.347L365.824 229.458L358.752 233.116Z" fill="#E7EAEF"/>
<path d="M358.752 234.685V233.116L433.29 276.27V277.447L358.752 234.685Z" fill="#96A3C1"/>
<path d="M440.353 273.524V272.347L433.291 276.27V277.447L440.353 273.524Z" fill="#B5C1D4"/>
<path d="M438.438 271.169L431.328 275.092V264.5L438.438 260.397V271.169Z" fill="#BDC4D1"/>
<path d="M431.329 275.093V265.285L423.285 260.97V270.501L431.329 275.093Z" fill="#96A3C1"/>
<path d="M438.439 260.398L430.862 264.187L423.285 260.398L430.862 256.609L438.439 260.398Z" fill="#F2F4FA"/>
<path d="M408.13 253.451L400.553 257.24V246.505L408.13 242.717V253.451Z" fill="#BDC4D1"/>
<path d="M400.554 257.24V246.505L392.977 242.717V252.82L400.554 257.24Z" fill="#96A3C1"/>
<path d="M408.131 242.717L400.554 246.506L392.977 242.717L400.554 238.929L408.131 242.717Z" fill="#F2F4FA"/>
<path d="M377.819 236.403L370.242 239.785V229.458L377.819 225.669V236.403Z" fill="#BDC4D1"/>
<path d="M370.243 240.192V229.458L362.666 225.669V235.772L370.243 240.192Z" fill="#96A3C1"/>
<path d="M377.82 225.669L370.243 229.458L362.666 225.669L370.243 221.881L377.82 225.669Z" fill="#F2F4FA"/>
<path d="M358.752 222.915L433.387 266.08L440.352 262.146L365.824 219.354L358.752 222.915Z" fill="#E7EAEF"/>
<path d="M358.752 224.092V222.915L433.387 266.08V267.343L358.752 224.092Z" fill="#96A3C1"/>
<path d="M440.351 263.322V262.146L433.387 266.08V267.343L440.351 263.322Z" fill="#B5C1D4"/>
<path d="M386.998 216.608L461.536 259.762L468.598 255.839L394.071 212.95L386.998 216.608Z" fill="#E7EAEF"/>
<path d="M386.998 218.178V216.608L461.536 259.762V260.939L386.998 218.178Z" fill="#96A3C1"/>
<path d="M468.599 257.016V255.839L461.537 259.762V260.939L468.599 257.016Z" fill="#B5C1D4"/>
<path d="M466.684 254.662L459.574 258.586V247.993L466.684 243.891V254.662Z" fill="#BDC4D1"/>
<path d="M459.575 258.586V248.778L451.531 244.463V253.994L459.575 258.586Z" fill="#96A3C1"/>
<path d="M466.686 243.891L459.108 247.68L451.531 243.891L459.108 240.103L466.686 243.891Z" fill="#F2F4FA"/>
<path d="M436.376 236.944L428.799 240.733V229.999L436.376 226.21V236.944Z" fill="#BDC4D1"/>
<path d="M428.8 240.733V229.999L421.223 226.21V236.313L428.8 240.733Z" fill="#96A3C1"/>
<path d="M436.377 226.21L428.8 229.999L421.223 226.21L428.8 222.422L436.377 226.21Z" fill="#F2F4FA"/>
<path d="M406.065 219.896L398.488 223.278V212.951L406.065 209.162V219.896Z" fill="#BDC4D1"/>
<path d="M398.489 223.685V212.951L390.912 209.162V219.265L398.489 223.685Z" fill="#96A3C1"/>
<path d="M406.066 209.163L398.489 212.951L390.912 209.163L398.489 205.374L406.066 209.163Z" fill="#F2F4FA"/>
<path d="M386.998 206.408L461.633 249.573L468.598 245.639L394.071 202.848L386.998 206.408Z" fill="#E7EAEF"/>
<path d="M386.998 207.585V206.408L461.633 249.573V250.836L386.998 207.585Z" fill="#96A3C1"/>
<path d="M468.597 246.816V245.639L461.633 249.573V250.836L468.597 246.816Z" fill="#B5C1D4"/>
<path d="M467.027 241.843L392.489 284.996L385.428 281.073L459.955 238.185L467.027 241.843Z" fill="#DEE3EB"/>
<path d="M467.027 243.412V241.843L392.489 284.997V286.174L467.027 243.412Z" fill="#99A7BC"/>
<path d="M385.427 282.25V281.073L392.488 284.996V286.173L385.427 282.25Z" fill="#8793AE"/>
<path d="M454.473 233.996L379.935 277.15L372.873 273.227L447.4 230.338L454.473 233.996Z" fill="#DEE3EB"/>
<path d="M454.473 235.565V233.996L379.935 277.15V278.327L454.473 235.565Z" fill="#99A7BC"/>
<path d="M372.872 274.403V273.227L379.934 277.15V278.327L372.872 274.403Z" fill="#8793AE"/>
<path d="M441.135 226.15L366.597 269.304L359.535 265.381L434.062 222.492L441.135 226.15Z" fill="#DEE3EB"/>
<path d="M441.135 227.72V226.15L366.597 269.304V270.481L441.135 227.72Z" fill="#99A7BC"/>
<path d="M359.534 266.558V265.381L366.596 269.304V270.481L359.534 266.558Z" fill="#8793AE"/>
<path d="M428.58 219.089L354.042 262.242L346.98 258.319L421.508 215.431L428.58 219.089Z" fill="#DEE3EB"/>
<path d="M428.58 220.658V219.089L354.042 262.243V263.42L428.58 220.658Z" fill="#99A7BC"/>
<path d="M346.979 259.496V258.319L354.041 262.242V263.419L346.979 259.496Z" fill="#8793AE"/>
<path d="M416.812 212.811L342.274 255.965L335.213 252.042L409.74 209.153L416.812 212.811Z" fill="#DEE3EB"/>
<path d="M416.812 214.381V212.812L342.274 255.965V257.142L416.812 214.381Z" fill="#99A7BC"/>
<path d="M335.212 253.219V252.042L342.273 255.965V257.142L335.212 253.219Z" fill="#8793AE"/>
<path d="M405.826 206.535L331.288 249.689L324.227 245.766L398.754 202.877L405.826 206.535Z" fill="#DEE3EB"/>
<path d="M405.826 208.104V206.535L331.288 249.689V250.866L405.826 208.104Z" fill="#96A3C1"/>
<path d="M324.226 246.943V245.766L331.287 249.689V250.866L324.226 246.943Z" fill="#BCC5D4"/>
<path d="M419.563 222.182L391.979 238.614V201.559L419.563 185.697V222.182Z" fill="#D5DBE4"/>
<path d="M391.979 238.659V201.56L359.145 181.786V219.672L391.979 238.659Z" fill="#96A3C1"/>
<path d="M419.564 185.698L391.979 201.559L359.145 181.786L386.296 166L419.564 185.698Z" fill="#F2F4FA"/>
<path d="M390.138 239.362L362.553 255.794V218.739L390.138 202.877V239.362Z" fill="#D5DBE4"/>
<path d="M362.553 255.839V218.739L329.719 198.966V236.852L362.553 255.839Z" fill="#BFCAE0"/>
<path d="M390.138 202.877L362.553 218.739L329.719 198.965L356.87 183.18L390.138 202.877Z" fill="#F2F4FA"/>
<path d="M454.477 243.366L426.893 259.799V222.744L454.477 206.882V243.366Z" fill="#D5DBE4"/>
<path d="M426.893 259.844V222.744L394.059 202.971V240.856L426.893 259.844Z" fill="#96A3C1"/>
<path d="M454.478 206.882L426.893 222.744L394.059 202.97L421.21 187.185L454.478 206.882Z" fill="#F2F4FA"/>
<path d="M425.05 260.546L397.465 276.978V239.923L425.05 224.062V260.546Z" fill="#D5DBE4"/>
<path d="M397.465 277.024V239.924L364.631 220.15V258.036L397.465 277.024Z" fill="#BFCAE0"/>
<path d="M425.05 224.062L397.465 239.923L364.631 220.15L391.782 204.364L425.05 224.062Z" fill="#F2F4FA"/>
</svg>
