<svg width="233" height="223" viewBox="0 0 233 223" fill="none" xmlns="http://www.w3.org/2000/svg">
<path d="M54.8223 151.934V214.016L166.129 146.305V86.9746L54.8223 151.934Z" fill="#929292"/>
<path d="M4.98438 103.152L36.7432 119.147L111.21 75.6443L79.297 58.2051L4.98438 103.152Z" fill="#B6BCC9"/>
<path d="M198.082 127.768V168.104L111.204 115.357V76.2627L198.082 127.768Z" fill="#D9D9D9"/>
<path d="M148.804 52.8096L111.242 75.6636L196.619 127.198L232.106 103.749L148.804 52.8096Z" fill="#A3ABBD"/>
<path d="M151.935 138.684L117.312 159.309V113.132L151.935 93.2119V138.684Z" fill="#D5DBE4"/>
<path d="M117.316 160.095V113.131L76.3984 88.4902V135.702L117.316 160.095Z" fill="#96A3C1"/>
<path d="M151.862 93.3938L117.316 113.129L76.3984 88.488L110.234 68.8164L151.862 93.3938Z" fill="#F2F4FA"/>
<path d="M114.169 160.715L79.5469 181.34V135.163L114.097 115.323L114.169 160.715Z" fill="#D5DBE4"/>
<path d="M79.5523 182.129V135.165L38.6348 110.524V157.736L79.5523 182.129Z" fill="#96A3C1"/>
<path d="M114.103 115.323L79.5523 135.163L38.6348 110.522L72.4704 90.8506L114.103 115.323Z" fill="#F2F4FA"/>
<path d="M195.998 165.432L161.375 186.056V139.879L196.016 119.887L195.998 165.432Z" fill="#D5DBE4"/>
<path d="M161.38 186.848V139.884L120.463 115.243V162.455L161.38 186.848Z" fill="#96A3C1"/>
<path d="M196.021 119.889L161.38 139.882L120.463 115.241L154.299 95.5693L196.021 119.889Z" fill="#F2F4FA"/>
<path d="M158.226 187.464L123.604 208.089V161.912L158.226 142.118V187.464Z" fill="#D5DBE4"/>
<path d="M123.609 208.88V161.916L82.6914 137.275V184.487L123.609 208.88Z" fill="#96A3C1"/>
<path d="M158.256 142.121L123.609 161.914L82.6914 137.273L116.527 117.602L158.256 142.121Z" fill="#F2F4FA"/>
<path d="M123.523 169.531L123.61 260.044L198.077 214.744V125.908L123.523 169.531Z" fill="#8E98B0"/>
<path d="M123.619 169.627V260.044L80.1799 234.87L36.7407 208.496V118.462L123.619 169.627Z" fill="#6E7689"/>
<path d="M197.835 125.979L123.523 169.53L140.414 205.628L217.123 160.082L197.835 125.979Z" fill="#B7BFD2"/>
<path d="M123.529 169.53L37.0348 118.061L0.183594 145.099L86.4821 200.233L123.529 169.53Z" fill="#ADB6CB"/>
<path d="M134.418 78.412V20.2812L158.989 5.59863V63.7295L176.368 53.5416L149.999 106.279L118.836 87.1017L134.418 78.412Z" fill="#C8CEE0"/>
<path d="M134.724 20.2792L124.836 15.1853L148.808 0.203125L158.996 5.59671L134.724 20.2792Z" fill="#8E98B0"/>
<path d="M124.836 74.514L134.724 79.0086V20.2785L124.836 15.1846V74.514Z" fill="#6E7689"/>
<path d="M134.723 79.0071L124.835 74.5125L111.051 82.9025L119.741 87.6968L134.723 79.0071Z" fill="#8E98B0"/>
<path d="M176.374 53.5375L166.186 50.541L158.994 54.4364V63.7253L176.374 53.5375Z" fill="#8E98B0"/>
<path d="M86.4853 76.3092V141.511L106.262 130.245V65.522L121.244 56.5327L93.0776 30.1641L69.7051 86.497L86.4853 76.3092Z" fill="#C8CEE0"/>
<path d="M86.4833 141.634L73.2988 133.843V84.1023L86.4833 76.3115V141.634Z" fill="#6E7689"/>
<path d="M93.0729 30.1654L81.087 23.5732L57.1152 78.1084L69.7004 86.4984L93.0729 30.1654Z" fill="#8E98B0"/>
</svg>
