<svg width="243" height="220" viewBox="0 0 243 220" fill="none" xmlns="http://www.w3.org/2000/svg">
<path d="M38.3047 121.561V165.078L116.33 117.615V76.0264L38.3047 121.561Z" fill="#929292"/>
<path d="M5.03906 104.819L38.3154 121.578L116.341 75.9992L82.9027 57.7275L5.03906 104.819Z" fill="#B3B3B3"/>
<path d="M207.352 130.614V172.875L116.322 117.61V76.6494L207.352 130.614Z" fill="#D9D9D9"/>
<path d="M155.717 52.0732L116.359 76.0182L206.089 129.983L242.999 105.444L155.717 52.0732Z" fill="#959595"/>
<path d="M159.005 142.054L122.729 163.663V115.282L159.005 94.4111V142.054Z" fill="#E8E8E8"/>
<path d="M122.738 164.485V115.279L79.8652 89.4619V138.927L122.738 164.485Z" fill="#8C8C8C"/>
<path d="M159.015 94.2773L122.738 115.278L79.8652 89.4612L115.318 68.8506L159.015 94.2773Z" fill="#C6C4C4"/>
<path d="M119.447 165.129L83.1699 186.738V138.357L119.447 117.486V165.129Z" fill="#E8E8E8"/>
<path d="M83.1795 187.568V138.362L40.3066 112.545V162.01L83.1795 187.568Z" fill="#8C8C8C"/>
<path d="M119.456 117.352L83.1794 138.353L40.3066 112.535L75.7591 91.9248L119.456 117.352Z" fill="#C6C4C4"/>
<path d="M205.183 170.084L168.906 191.693V143.312L205.183 122.441V170.084Z" fill="#E8E8E8"/>
<path d="M168.914 192.515V143.309L126.041 117.492V166.958L168.914 192.515Z" fill="#8C8C8C"/>
<path d="M205.191 122.306L168.914 143.307L126.041 117.49L161.494 96.8789L205.191 122.306Z" fill="#C6C4C4"/>
<path d="M165.603 193.162L129.326 214.771V166.39L165.603 145.52V193.162Z" fill="#E8E8E8"/>
<path d="M129.334 215.593V166.388L86.4609 140.57V190.036L129.334 215.593Z" fill="#8C8C8C"/>
<path d="M165.611 145.385L129.334 166.386L86.4609 140.569L121.913 119.958L165.611 145.385Z" fill="#C6C4C4"/>
<path d="M129.324 174.824V269.201L207.35 221.738V128.662L129.324 174.824Z" fill="#979797"/>
<path d="M129.324 174.83V269.206L83.8093 242.829L38.2943 215.197V120.865L129.324 174.83Z" fill="#5E5E5E"/>
<path d="M207.526 128.678L129.324 174.824L146.931 212.187L227.306 164.468L207.526 128.678Z" fill="#C1C1C1"/>
<path d="M129.668 175.146L38.6178 120.833L0 148.774L90.4222 206.54L129.668 175.146Z" fill="#C5C5C5"/>
<path d="M133.174 81.9423V21.0367L158.919 5.65332V66.5589L177.129 55.8847L149.5 111.139L116.848 91.0467L133.174 81.9423Z" fill="#E4E4E4"/>
<path d="M133.509 21.0344L123.148 15.6973L148.266 0L158.941 5.65104L133.509 21.0344Z" fill="#909090"/>
<path d="M123.148 77.8508L133.509 82.56V21.0265L123.148 15.6895V77.8508Z" fill="#626262"/>
<path d="M133.479 82.5652L123.118 77.856L108.676 86.6465L117.781 91.6696L133.479 82.5652Z" fill="#909090"/>
<path d="M177.12 55.8797L166.446 52.7402L158.91 56.8215V66.5539L177.12 55.8797Z" fill="#909090"/>
<path d="M82.9591 79.7384V148.807L103.681 136.249V68.4363L119.379 59.0179L89.8663 31.3906L65.377 90.4126L82.9591 79.7384Z" fill="#E4E4E4"/>
<path d="M82.9473 148.184L69.1328 140.021V87.9058L82.9473 79.7432V148.184Z" fill="#626262"/>
<path d="M89.8537 31.3922L77.295 24.4854L52.1777 81.6236L65.3643 90.4141L89.8537 31.3922Z" fill="#909090"/>
</svg>
