<svg width="139" height="195" viewBox="0 0 139 195" fill="none" xmlns="http://www.w3.org/2000/svg">
<path d="M41.6445 75.7178L45.8122 94.1616L45.0789 99.6608" stroke="#9A9A9A" stroke-width="0.733299"/>
<path d="M41.6406 75.7191L25.2751 86.464L23.3962 92.6964" stroke="#9A9A9A" stroke-width="0.733299"/>
<path d="M46.2479 131.474L22.8262 135.764L32.3368 110.194L55.6133 106.294L46.2479 131.474Z" fill="#E8E8E8"/>
<path d="M22.6623 136.201L32.335 110.196L14.75 88.125L5.0262 114.268L22.6623 136.201Z" fill="#C7C7C7"/>
<path d="M55.6345 106.226L32.3322 110.195L14.7472 88.1242L37.537 84.1994L55.6345 106.226Z" fill="#F2F2F2"/>
<path d="M41.6445 75.7178L41.6445 109.194L34.9379 133.554" stroke="#A2A2A2" stroke-width="0.733299"/>
<path d="M41.656 75.7144L23.4108 97.2308L12.4561 123.856" stroke="#A2A2A2" stroke-width="0.733299"/>
<path d="M22.1787 26.1352C17.6494 46.7397 41.3328 76.7434 41.3328 76.7434C41.3328 76.7434 87.6775 72.5289 94.3876 42.0038C94.3876 42.0038 106.221 20.3137 68.3193 9.0753C30.4179 -2.16311 22.1787 26.1352 22.1787 26.1352Z" fill="#E1E1E1"/>
<path d="M64.5899 21.4569C64.7192 21.4854 64.8426 21.5234 64.9602 21.5707C102.646 33.2972 61.6178 66.8496 41.3338 76.7448C57.1195 63.6797 72.287 24.5196 64.9602 21.5707C64.8376 21.5325 64.7142 21.4946 64.5899 21.4569Z" fill="#A5A5A5"/>
<path d="M41.333 76.7421C38.1996 58.854 56.4048 19.6557 64.5887 21.4544C26.2658 9.83241 33.1341 58.9406 41.333 76.7421Z" fill="#A5A5A5"/>
<path d="M61.2221 18.9922C62.7009 19.3808 64.1007 19.7866 65.4243 20.2085C130.643 40.1737 59.9634 72.9928 41.3383 76.7384C59.8432 73.017 114.066 35.7145 65.4243 20.2085C64.0817 19.7975 62.6815 19.392 61.2221 18.9922Z" fill="#A5A5A5"/>
<path d="M41.783 76.923C30.4592 64.0912 15.7868 0.0977347 69.6505 20.8286C0.191865 -6.73741 30.7826 64.4577 41.783 76.923Z" fill="#A5A5A5"/>
<path d="M63.0496 20.0974C53.6286 13.3861 46.8624 8.72633 38.0936 8.83414C44.89 5.88555 49.194 5.11171 58.691 6.96108C63.3503 12.4612 64.1409 16.7743 63.0496 20.0974Z" fill="#A5A5A5"/>
<path d="M67.826 21.367C79.1932 19.2241 84.8353 19.9891 92.7507 23.7635C87.8172 18.2371 81.3841 13.8647 75.1508 11.665C68.6143 14.7048 68.2288 17.8926 67.826 21.367Z" fill="#A6A5A5"/>
<ellipse cx="8.85161" cy="3.13646" rx="8.85161" ry="3.13646" transform="matrix(0.954092 0.299495 -0.348205 0.937427 57.3164 15.4785)" fill="#6F6F6F"/>
<path d="M139 165.704L98.4086 189.399L60.1211 166.692L98.4086 142.229L139 165.704Z" fill="#D9D9D9"/>
<path d="M98.4081 189.4V190.003L60.1211 167.298V166.694L98.4081 189.4Z" fill="#797777"/>
<path d="M98.4102 189.4V190.003L139.001 166.31V165.707L98.4102 189.4Z" fill="#ACABAB"/>
<path d="M63.6348 167.183L98.4114 187.257V162.851L63.6348 142.832V167.183Z" fill="#BBBBBB"/>
<path d="M135.276 141.572V165.923L100.828 145.74V121.718L135.276 141.572Z" fill="#9C9C9C"/>
<path d="M113.535 163.607L123.953 169.577L125.012 169.048L114.506 163.045L113.535 163.607Z" fill="#D9D9D9"/>
<path d="M113.535 163.75V163.573L123.953 169.576V169.752L113.535 163.75Z" fill="#989898"/>
<path d="M125.009 169.225V169.049L123.949 169.578V169.755L125.009 169.225Z" fill="#BDBDBD"/>
<path d="M124.651 168.871L123.592 169.4V167.9L124.651 167.37V168.871Z" fill="#CFCFCF"/>
<path d="M123.595 169.4V167.9L122.535 167.37V168.782L123.595 169.4Z" fill="#989898"/>
<path d="M124.654 167.37L123.595 167.9L122.535 167.37L123.595 166.841L124.654 167.37Z" fill="#E9E9E9"/>
<path d="M120.417 166.4L119.357 166.93V165.429L120.417 164.899V166.4Z" fill="#CFCFCF"/>
<path d="M119.36 166.93V165.429L118.301 164.899V166.312L119.36 166.93Z" fill="#989898"/>
<path d="M120.42 164.901L119.36 165.43L118.301 164.901L119.36 164.371L120.42 164.901Z" fill="#E9E9E9"/>
<path d="M116.181 164.016L115.121 164.546V163.045L116.181 162.516V164.016Z" fill="#CFCFCF"/>
<path d="M115.12 164.546V163.045L114.061 162.516V163.928L115.12 164.546Z" fill="#989898"/>
<path d="M116.179 162.518L115.12 163.048L114.061 162.518L115.12 161.988L116.179 162.518Z" fill="#E9E9E9"/>
<path d="M113.535 162.2L123.953 168.17L125.012 167.64L114.506 161.638L113.535 162.2Z" fill="#D9D9D9"/>
<path d="M113.535 162.344V162.167L123.953 168.17V168.346L113.535 162.344Z" fill="#989898"/>
<path d="M125.011 167.816V167.64L123.951 168.169V168.346L125.011 167.816Z" fill="#BDBDBD"/>
<path d="M118.131 160.951L128.549 166.921L129.608 166.391L119.102 160.389L118.131 160.951Z" fill="#D9D9D9"/>
<path d="M118.131 161.095V160.918L128.549 166.921V167.097L118.131 161.095Z" fill="#989898"/>
<path d="M129.604 166.567V166.391L128.545 166.92V167.097L129.604 166.567Z" fill="#BDBDBD"/>
<path d="M129.251 166.211L128.191 166.74V165.24L129.251 164.71V166.211Z" fill="#CFCFCF"/>
<path d="M128.194 166.741V165.241L127.135 164.711V166.123L128.194 166.741Z" fill="#989898"/>
<path d="M129.254 164.711L128.194 165.241L127.135 164.711L128.194 164.182L129.254 164.711Z" fill="#E9E9E9"/>
<path d="M125.011 163.743L123.951 164.272V162.772L125.011 162.242V163.743Z" fill="#CFCFCF"/>
<path d="M123.954 164.272V162.772L122.895 162.242V163.655L123.954 164.272Z" fill="#989898"/>
<path d="M125.013 162.244L123.954 162.773L122.895 162.244L123.954 161.714L125.013 162.244Z" fill="#E9E9E9"/>
<path d="M120.768 161.361L119.709 161.891V160.39L120.768 159.86V161.361Z" fill="#CFCFCF"/>
<path d="M119.708 161.891V160.39L118.648 159.86V161.273L119.708 161.891Z" fill="#989898"/>
<path d="M120.767 159.86L119.708 160.389L118.648 159.86L119.708 159.33L120.767 159.86Z" fill="#E9E9E9"/>
<path d="M118.133 159.542L128.551 165.512L129.61 164.982L119.104 158.979L118.133 159.542Z" fill="#D9D9D9"/>
<path d="M118.133 159.684V159.508L128.551 165.51V165.687L118.133 159.684Z" fill="#989898"/>
<path d="M129.606 165.159V164.982L128.547 165.512V165.689L129.606 165.159Z" fill="#BDBDBD"/>
<path d="M108.957 166.243L119.375 172.213L120.434 171.683L109.928 165.681L108.957 166.243Z" fill="#D9D9D9"/>
<path d="M108.957 166.387V166.21L119.375 172.213V172.389L108.957 166.387Z" fill="#989898"/>
<path d="M120.431 171.859V171.683L119.371 172.212V172.389L120.431 171.859Z" fill="#BDBDBD"/>
<path d="M120.077 171.508L119.018 172.038V170.537L120.077 170.008V171.508Z" fill="#CFCFCF"/>
<path d="M119.015 172.037V170.536L117.955 170.007V171.419L119.015 172.037Z" fill="#989898"/>
<path d="M120.074 170.007L119.015 170.537L117.955 170.007L119.015 169.478L120.074 170.007Z" fill="#E9E9E9"/>
<path d="M115.843 169.034L114.783 169.563V168.063L115.843 167.533V169.034Z" fill="#CFCFCF"/>
<path d="M114.782 169.563V168.063L113.723 167.533V168.946L114.782 169.563Z" fill="#989898"/>
<path d="M115.842 167.535L114.782 168.064L113.723 167.535L114.782 167.005L115.842 167.535Z" fill="#E9E9E9"/>
<path d="M111.597 166.651L110.537 167.181V165.68L111.597 165.15V166.651Z" fill="#CFCFCF"/>
<path d="M110.54 167.182V165.681L109.48 165.151V166.564L110.54 167.182Z" fill="#989898"/>
<path d="M111.599 165.152L110.54 165.681L109.48 165.152L110.54 164.622L111.599 165.152Z" fill="#E9E9E9"/>
<path d="M108.957 164.83L119.375 170.8L120.434 170.27L109.928 164.268L108.957 164.83Z" fill="#D9D9D9"/>
<path d="M108.957 164.975V164.799L119.375 170.801V170.978L108.957 164.975Z" fill="#989898"/>
<path d="M120.431 170.449V170.272L119.371 170.802V170.979L120.431 170.449Z" fill="#BDBDBD"/>
<path d="M129.796 164.665L119.374 170.627L118.315 170.097L128.826 164.102L129.796 164.665Z" fill="#D9D9D9"/>
<path d="M129.795 164.809L129.795 164.633L119.373 170.628L119.373 170.804L129.795 164.809Z" fill="#BDBDBD"/>
<path d="M118.319 170.275L118.319 170.099L119.379 170.629L119.378 170.806L118.319 170.275Z" fill="#989898"/>
<path d="M127.861 163.61L117.439 169.572L116.38 169.042L126.89 163.047L127.861 163.61Z" fill="#D9D9D9"/>
<path d="M127.859 163.755L127.859 163.578L117.437 169.573L117.437 169.749L127.859 163.755Z" fill="#BDBDBD"/>
<path d="M116.384 169.221L116.384 169.044L117.443 169.575L117.443 169.751L116.384 169.221Z" fill="#989898"/>
<path d="M125.55 162.372L115.128 168.334L114.069 167.804L124.58 161.809L125.55 162.372Z" fill="#D9D9D9"/>
<path d="M125.549 162.514L125.549 162.338L115.127 168.333L115.126 168.509L125.549 162.514Z" fill="#BDBDBD"/>
<path d="M114.073 167.982L114.073 167.806L115.132 168.336L115.132 168.513L114.073 167.982Z" fill="#989898"/>
<path d="M122.91 160.782L112.487 166.744L111.428 166.214L121.939 160.219L122.91 160.782Z" fill="#D9D9D9"/>
<path d="M122.908 160.924L122.908 160.747L112.486 166.742L112.486 166.918L122.908 160.924Z" fill="#BDBDBD"/>
<path d="M111.433 166.393L111.433 166.216L112.492 166.746L112.492 166.923L111.433 166.393Z" fill="#989898"/>
<path d="M120.962 159.728L110.54 165.69L109.481 165.16L119.992 159.165L120.962 159.728Z" fill="#D9D9D9"/>
<path d="M120.961 159.871L120.961 159.694L110.539 165.689L110.539 165.866L120.961 159.871Z" fill="#BDBDBD"/>
<path d="M109.485 165.338L109.485 165.161L110.545 165.692L110.544 165.868L109.485 165.338Z" fill="#989898"/>
<path d="M122.894 161.696L119.01 164.01V158.829L122.894 156.595V161.696Z" fill="#E8E8E8"/>
<path d="M119.009 164.096V158.828L114.418 156.063V161.36L119.009 164.096Z" fill="#C7C7C7"/>
<path d="M122.893 156.579L119.009 158.828L114.418 156.063L118.214 153.856L122.893 156.579Z" fill="#F2F2F2"/>
<path d="M118.66 164.169L114.775 166.482V161.302L118.66 159.067V164.169Z" fill="#E8E8E8"/>
<path d="M114.776 166.566V161.298L110.186 158.533V163.83L114.776 166.566Z" fill="#C7C7C7"/>
<path d="M118.661 159.051L114.776 161.299L110.186 158.535L113.982 156.328L118.661 159.051Z" fill="#F2F2F2"/>
<path d="M127.844 164.697L123.959 167.011V161.83L127.844 159.596V164.697Z" fill="#E8E8E8"/>
<path d="M123.96 167.095V161.827L119.369 159.062V164.359L123.96 167.095Z" fill="#C7C7C7"/>
<path d="M127.845 159.58L123.96 161.829L119.369 159.064L123.165 156.857L127.845 159.58Z" fill="#F2F2F2"/>
<path d="M123.599 167.171L119.715 169.484V164.304L123.599 162.069V167.171Z" fill="#E8E8E8"/>
<path d="M119.716 169.571V164.302L115.125 161.538V166.835L119.716 169.571Z" fill="#C7C7C7"/>
<path d="M123.6 162.054L119.716 164.302L115.125 161.538L118.921 159.331L123.6 162.054Z" fill="#F2F2F2"/>
<path d="M63.6325 165.271L98.4089 185.345V185.783L63.084 165.436L63.6325 165.271Z" fill="#D9D9D9"/>
<path d="M63.084 165.438L98.4089 185.785V187.65L63.084 167.302V165.438Z" fill="#989898"/>
<path d="M63.6345 161.973L98.4109 182.046V182.485L63.0859 162.137L63.6345 161.973Z" fill="#D9D9D9"/>
<path d="M63.0859 162.139L98.4109 182.486V184.351L63.0859 164.003V162.139Z" fill="#989898"/>
<path d="M63.6364 158.796L98.4128 178.869V179.308L63.0879 158.96L63.6364 158.796Z" fill="#D9D9D9"/>
<path d="M63.0879 158.962L98.4128 179.309V181.174L63.0879 160.827V158.962Z" fill="#989898"/>
<path d="M63.6345 155.504L98.4109 175.577V176.016L63.0859 155.668L63.6345 155.504Z" fill="#D9D9D9"/>
<path d="M63.0859 155.67L98.4109 176.017V177.882L63.0859 157.535V155.67Z" fill="#989898"/>
<path d="M63.6325 152.211L98.4089 172.284V172.723L63.084 152.375L63.6325 152.211Z" fill="#D9D9D9"/>
<path d="M63.084 152.376L98.4089 172.723V174.588L63.084 154.241V152.376Z" fill="#989898"/>
<path d="M63.6364 148.813L98.4128 168.887V169.325L63.0879 148.978L63.6364 148.813Z" fill="#D9D9D9"/>
<path d="M63.0879 148.979L98.4128 169.327V171.192L63.0879 150.844V148.979Z" fill="#989898"/>
<path d="M63.6325 145.635L98.4089 165.708V166.147L63.084 145.799L63.6325 145.635Z" fill="#D9D9D9"/>
<path d="M63.084 145.801L98.4089 166.148V168.013L63.084 147.665V145.801Z" fill="#989898"/>
<path d="M63.6325 142.343L98.4089 162.416V162.855L63.084 142.507L63.6325 142.343Z" fill="#D9D9D9"/>
<path d="M63.084 142.506L98.4089 162.853V164.718L63.084 144.371V142.506Z" fill="#989898"/>
<path d="M108.838 180.951L98.416 187.258V162.852L108.838 152.651V180.951Z" fill="#EDEDED"/>
<path d="M135.393 140.806V165.705L124.861 171.628V143.932L135.393 140.806Z" fill="#EDEDED"/>
<path d="M108.842 161.314L127.492 150.345V143.105L113.779 147.493L108.842 152.648V161.314Z" fill="#EDEDED"/>
<path d="M135.375 141.08L98.4048 162.415V162.853L135.924 141.245L135.375 141.08Z" fill="#C0C0C0"/>
<path d="M135.924 141.245L98.4048 162.854V164.719L135.924 143.055V141.245Z" fill="#F4F4F4"/>
<path d="M128.031 141.799L98.411 158.91V159.349L128.031 142.347V141.799Z" fill="#C0C0C0"/>
<path d="M127.808 142.456L98.4074 159.348V161.213L128.576 143.717L127.808 142.456Z" fill="#F4F4F4"/>
<path d="M116.173 146.837L79.9707 125.996L100.156 119.744L136.249 140.585L116.173 146.837Z" fill="#E2E2E2"/>
<path d="M137.031 140.475L100.609 119.524L98.1953 120.457L134.837 141.517L137.031 140.475Z" fill="#D0D0D0"/>
<path d="M135.335 141.189L99.0778 120.222L98.5293 120.074L134.951 141.354L135.335 141.189Z" fill="#A7A7A7"/>
<path d="M135.006 141.08L98.5287 120.074L96.1152 121.007L132.592 142.231L135.006 141.08Z" fill="#D0D0D0"/>
<path d="M132.706 142.062L96.4489 121.095L95.9004 120.947L132.322 142.282L132.706 142.062Z" fill="#A7A7A7"/>
<path d="M132.377 141.953L95.8998 120.947L93.4863 121.88L129.799 142.94L132.377 141.953Z" fill="#D0D0D0"/>
<path d="M129.898 142.833L93.695 121.865L93.1465 121.718L129.678 143.107L129.898 142.833Z" fill="#A7A7A7"/>
<path d="M129.623 142.778L93.1459 121.718L90.7324 122.65L127.319 143.875L129.623 142.778Z" fill="#D0D0D0"/>
<path d="M127.423 143.763L91.0563 122.74L90.5078 122.593L127.149 143.982L127.423 143.763Z" fill="#A7A7A7"/>
<path d="M127.094 143.653L90.5073 122.593L88.0938 123.525L124.461 144.585L127.094 143.653Z" fill="#D0D0D0"/>
<path d="M124.859 144.585L88.4372 123.508L87.8887 123.36L124.311 144.859L124.859 144.585Z" fill="#A7A7A7"/>
<path d="M124.312 144.366L87.8901 123.36L85.4766 124.293L121.844 145.408L124.312 144.366Z" fill="#D0D0D0"/>
<path d="M122.001 145.298L85.7985 124.385L85.25 124.237L121.617 145.462L122.001 145.298Z" fill="#A7A7A7"/>
<path d="M121.673 145.188L85.2514 124.237L82.8379 125.17L119.095 146.12L121.673 145.188Z" fill="#D0D0D0"/>
<path d="M119.189 146.069L82.9313 125.156L82.3828 125.009L118.86 146.234L119.189 146.069Z" fill="#A7A7A7"/>
<path d="M118.806 145.959L82.3842 125.009L79.9707 125.941L116.173 146.837L118.806 145.959Z" fill="#D0D0D0"/>
<path d="M116.182 146.838V147.496L137.026 141.134V140.476L134.996 141.298V141.079L132.363 142.176V141.956L129.62 142.944V142.779L127.097 143.876V143.657L124.3 144.589V144.37L121.667 145.412V145.192L118.815 146.179V145.96L116.182 146.838Z" fill="#E1E1E1"/>
<path d="M65.8281 154.976V148.699L72.9589 152.815V159.067L65.8281 154.976Z" fill="#D9D9D9"/>
<path d="M69.7736 156.46L72.2968 157.916V155.942L69.7736 154.479V156.46Z" fill="#7A7A7A"/>
<path d="M66.4824 154.564L69.225 156.143V154.15L66.4824 152.586V154.564Z" fill="#7A7A7A"/>
<path d="M69.7736 153.717L72.2968 155.174V153.199L69.7736 151.737V153.717Z" fill="#7A7A7A"/>
<path d="M66.4824 151.792L69.225 153.401V151.408L66.4824 149.817V151.792Z" fill="#7A7A7A"/>
<path d="M70.2142 156.167L69.7754 156.486L72.2986 157.919V157.37L70.2142 156.167Z" fill="#BFBFBF"/>
<path d="M70.2142 156.184L69.7754 156.488V154.483L70.2142 154.738V156.184Z" fill="#ABABAB"/>
<path d="M70.2181 153.44L69.7793 153.721L72.3025 155.177V154.629L70.2181 153.44Z" fill="#BFBFBF"/>
<path d="M70.2142 153.438L69.7754 153.719V151.738L70.2142 152.013V153.438Z" fill="#ABABAB"/>
<path d="M66.9212 154.288L66.4824 154.566V152.59L66.9212 152.838V154.288Z" fill="#ABABAB"/>
<path d="M66.9212 154.289L69.225 155.581V156.148L66.4824 154.569L66.9212 154.289Z" fill="#BFBFBF"/>
<path d="M66.9212 151.545L66.4824 151.792V149.817L66.9212 150.072V151.545Z" fill="#ABABAB"/>
<path d="M66.9212 151.549L69.225 152.856V153.405L66.4824 151.796L66.9212 151.549Z" fill="#BFBFBF"/>
<path d="M77.4648 161.671V155.394L84.5957 159.509V165.762L77.4648 161.671Z" fill="#D9D9D9"/>
<path d="M81.4103 163.155L83.9335 164.611V162.637L81.4103 161.174V163.155Z" fill="#7A7A7A"/>
<path d="M78.1191 161.259L80.8618 162.838V160.845L78.1191 159.281V161.259Z" fill="#7A7A7A"/>
<path d="M81.4103 160.413L83.9335 161.869V159.895L81.4103 158.432V160.413Z" fill="#7A7A7A"/>
<path d="M78.1191 158.487L80.8618 160.096V158.103L78.1191 156.513V158.487Z" fill="#7A7A7A"/>
<path d="M81.8529 162.861L81.4141 163.18L83.9373 164.613V164.064L81.8529 162.861Z" fill="#BFBFBF"/>
<path d="M81.8529 162.879L81.4141 163.183V161.179L81.8529 161.433V162.879Z" fill="#ABABAB"/>
<path d="M81.8529 160.135L81.4141 160.415L83.9373 161.871V161.323L81.8529 160.135Z" fill="#BFBFBF"/>
<path d="M81.8529 160.135L81.4141 160.415V158.435L81.8529 158.709V160.135Z" fill="#ABABAB"/>
<path d="M78.558 160.984L78.1191 161.262V159.286L78.558 159.534V160.984Z" fill="#ABABAB"/>
<path d="M78.558 160.983L80.8618 162.276V162.843L78.1191 161.264L78.558 160.983Z" fill="#BFBFBF"/>
<path d="M78.558 158.24L78.1191 158.487V156.513L78.558 156.767V158.24Z" fill="#ABABAB"/>
<path d="M78.558 158.243L80.8618 159.551V160.099L78.1191 158.49L78.558 158.243Z" fill="#BFBFBF"/>
<path d="M89.6406 168.692V162.415L96.7714 166.531V172.783L89.6406 168.692Z" fill="#D9D9D9"/>
<path d="M93.5861 170.175L96.1093 171.632V169.657L93.5861 168.195V170.175Z" fill="#7A7A7A"/>
<path d="M90.2949 168.28L93.0375 169.859V167.866L90.2949 166.301V168.28Z" fill="#7A7A7A"/>
<path d="M93.5861 167.433L96.1093 168.89V166.915L93.5861 165.453V167.433Z" fill="#7A7A7A"/>
<path d="M90.2949 165.508L93.0375 167.117V165.124L90.2949 163.533V165.508Z" fill="#7A7A7A"/>
<path d="M94.0306 169.883L93.5918 170.202L96.115 171.634V171.086L94.0306 169.883Z" fill="#BFBFBF"/>
<path d="M94.0287 169.902L93.5898 170.206V168.202L94.0287 168.456V169.902Z" fill="#ABABAB"/>
<path d="M94.0287 167.157L93.5898 167.438L96.1131 168.894V168.345L94.0287 167.157Z" fill="#BFBFBF"/>
<path d="M94.0287 167.154L93.5898 167.435V165.454L94.0287 165.728V167.154Z" fill="#ABABAB"/>
<path d="M90.7337 168.004L90.2949 168.282V166.306L90.7337 166.554V168.004Z" fill="#ABABAB"/>
<path d="M90.7337 168.005L93.0375 169.297V169.864L90.2949 168.285L90.7337 168.005Z" fill="#BFBFBF"/>
<path d="M90.7337 165.261L90.2949 165.508V163.533L90.7337 163.788V165.261Z" fill="#ABABAB"/>
<path d="M90.7337 165.265L93.0375 166.572V167.12L90.2949 165.511L90.7337 165.265Z" fill="#BFBFBF"/>
<path d="M124.416 152.432H124.965V172.395L124.416 172.066V152.432Z" fill="#BBBBBB"/>
<path d="M108.848 179.308L98.426 185.341V185.779L109.396 179.472L108.848 179.308Z" fill="#C0C0C0"/>
<path d="M109.396 179.474L98.426 185.781V187.645L109.396 181.284V179.474Z" fill="#F4F4F4"/>
<path d="M135.371 164.063L124.949 170.096V170.535L135.92 164.228L135.371 164.063Z" fill="#C0C0C0"/>
<path d="M135.92 164.229L124.949 170.537V172.401L135.92 166.039V164.229Z" fill="#F4F4F4"/>
<path d="M108.846 176.019L98.4241 182.051V182.49L109.395 176.183L108.846 176.019Z" fill="#C0C0C0"/>
<path d="M109.395 176.185L98.4241 182.492V184.356L109.395 177.994V176.185Z" fill="#F4F4F4"/>
<path d="M135.367 160.658L124.946 166.691V167.13L135.916 160.823L135.367 160.658Z" fill="#C0C0C0"/>
<path d="M135.916 160.823L124.946 167.13V168.995L135.916 162.633V160.823Z" fill="#F4F4F4"/>
<path d="M108.848 172.843L98.426 178.876V179.314L109.396 173.007L108.848 172.843Z" fill="#C0C0C0"/>
<path d="M109.396 173.009L98.426 179.316V181.181L109.396 174.819V173.009Z" fill="#F4F4F4"/>
<path d="M135.371 157.589L124.949 163.622V164.061L135.92 157.753L135.371 157.589Z" fill="#C0C0C0"/>
<path d="M135.92 157.754L124.949 164.061V165.926L135.92 159.564V157.754Z" fill="#F4F4F4"/>
<path d="M108.848 169.55L98.426 175.583V176.021L109.396 169.714L108.848 169.55Z" fill="#C0C0C0"/>
<path d="M109.396 169.716L98.426 176.023V177.888L109.396 171.526V169.716Z" fill="#F4F4F4"/>
<path d="M135.371 154.296L124.949 160.329V160.768L135.92 154.46L135.371 154.296Z" fill="#C0C0C0"/>
<path d="M135.92 154.461L124.949 160.768V162.633L135.92 156.271V154.461Z" fill="#F4F4F4"/>
<path d="M108.846 166.256L98.4241 172.289V172.728L109.395 166.42L108.846 166.256Z" fill="#C0C0C0"/>
<path d="M109.395 166.422L98.4241 172.729V174.594L109.395 168.232V166.422Z" fill="#F4F4F4"/>
<path d="M135.375 151.006L124.953 157.039V157.478L135.924 151.17L135.375 151.006Z" fill="#C0C0C0"/>
<path d="M135.924 151.171L124.953 157.478V159.343L135.924 152.981V151.171Z" fill="#F4F4F4"/>
<path d="M108.846 162.852L98.4241 168.884V169.323L109.395 163.016L108.846 162.852Z" fill="#C0C0C0"/>
<path d="M109.395 163.018L98.4241 169.325V171.189L109.395 164.827V163.018Z" fill="#F4F4F4"/>
<path d="M135.371 147.388L124.949 153.421V153.859L135.92 147.552L135.371 147.388Z" fill="#C0C0C0"/>
<path d="M135.92 147.553L124.949 153.86V155.725L135.92 149.363V147.553Z" fill="#F4F4F4"/>
<path d="M135.367 144.374L98.397 165.709V166.147L135.916 144.539L135.367 144.374Z" fill="#C0C0C0"/>
<path d="M135.916 144.539L98.397 166.148V168.013L135.916 146.349V144.539Z" fill="#F4F4F4"/>
<path d="M107.416 168.695V162.418L100.285 166.534V172.786L107.416 168.695Z" fill="#D9D9D9"/>
<path d="M103.471 170.178L100.947 171.635V169.66L103.471 168.198V170.178Z" fill="#7A7A7A"/>
<path d="M106.762 168.283L104.019 169.862V167.869L106.762 166.304V168.283Z" fill="#7A7A7A"/>
<path d="M103.471 167.436L100.947 168.893V166.918L103.471 165.456V167.436Z" fill="#7A7A7A"/>
<path d="M106.762 165.511L104.019 167.12V165.127L106.762 163.536V165.511Z" fill="#7A7A7A"/>
<path d="M103.032 169.886L103.471 170.205L100.947 171.637V171.089L103.032 169.886Z" fill="#BFBFBF"/>
<path d="M103.032 169.902L103.471 170.206V168.202L103.032 168.456V169.902Z" fill="#ABABAB"/>
<path d="M103.032 167.158L103.471 167.438L100.947 168.895V168.346L103.032 167.158Z" fill="#BFBFBF"/>
<path d="M103.032 167.16L103.471 167.44V165.46L103.032 165.734V167.16Z" fill="#ABABAB"/>
<path d="M106.323 168.007L106.762 168.284V166.309L106.323 166.557V168.007Z" fill="#ABABAB"/>
<path d="M106.323 168.008L104.019 169.3V169.867L106.762 168.288L106.323 168.008Z" fill="#BFBFBF"/>
<path d="M106.323 165.264L106.762 165.511V163.536L106.323 163.791V165.264Z" fill="#ABABAB"/>
<path d="M106.323 165.268L104.019 166.575V167.123L106.762 165.514L106.323 165.268Z" fill="#BFBFBF"/>
<path d="M133.953 153.445V147.168L126.822 151.284V157.536L133.953 153.445Z" fill="#D9D9D9"/>
<path d="M130.008 154.929L127.484 156.386V154.411L130.008 152.949V154.929Z" fill="#7A7A7A"/>
<path d="M133.299 153.034L130.556 154.613V152.62L133.299 151.055V153.034Z" fill="#7A7A7A"/>
<path d="M130.008 152.187L127.484 153.644V151.669L130.008 150.207V152.187Z" fill="#7A7A7A"/>
<path d="M133.299 150.262L130.556 151.871V149.878L133.299 148.287V150.262Z" fill="#7A7A7A"/>
<path d="M129.565 154.636L130.004 154.955L127.481 156.387V155.839L129.565 154.636Z" fill="#BFBFBF"/>
<path d="M129.565 154.653L130.004 154.957V152.953L129.565 153.207V154.653Z" fill="#ABABAB"/>
<path d="M129.565 151.909L130.004 152.189L127.481 153.646V153.097L129.565 151.909Z" fill="#BFBFBF"/>
<path d="M129.565 151.909L130.004 152.189V150.209L129.565 150.483V151.909Z" fill="#ABABAB"/>
<path d="M132.86 152.757L133.299 153.034V151.059L132.86 151.307V152.757Z" fill="#ABABAB"/>
<path d="M132.86 152.758L130.556 154.05V154.617L133.299 153.038L132.86 152.758Z" fill="#BFBFBF"/>
<path d="M132.86 150.015L133.299 150.262V148.287L132.86 148.542V150.015Z" fill="#ABABAB"/>
<path d="M132.86 150.018L130.556 151.325V151.873L133.299 150.264L132.86 150.018Z" fill="#BFBFBF"/>
<path d="M99.5072 163.4L62.043 141.901L79.9797 125.887L116.182 146.837L99.5072 163.4Z" fill="#CFCFCF"/>
<path d="M100.448 162.475L63.0936 140.976L61.832 142.127L99.2962 163.626L100.448 162.475Z" fill="#A7A7A7"/>
<path d="M99.2962 164.288L61.832 142.789V142.131L99.2962 163.63V164.288Z" fill="#797777"/>
<path d="M102.031 161.156L64.4024 139.712L63.0859 140.699L100.605 162.363L102.031 161.156Z" fill="#A7A7A7"/>
<path d="M100.55 162.525L63.0859 141.026V140.697L100.55 162.142V162.525Z" fill="#797777"/>
<path d="M103.193 159.949L65.8383 138.505L64.4121 139.382L102.041 161.101L103.193 159.949Z" fill="#A7A7A7"/>
<path d="M101.876 161.211L64.4121 139.712V139.383L102.041 160.937L101.876 161.211Z" fill="#797777"/>
<path d="M104.387 158.685L67.1975 137.241L65.8262 138.283L103.29 159.782L104.387 158.685Z" fill="#A7A7A7"/>
<path d="M103.126 159.948L65.8262 138.504V138.284L103.29 159.783L103.126 159.948Z" fill="#797777"/>
<path d="M105.714 157.421L68.6334 136.086L67.1523 137.073L104.562 158.517L105.714 157.421Z" fill="#A7A7A7"/>
<path d="M104.342 158.68L67.1523 137.291V137.071L104.562 158.516L104.342 158.68Z" fill="#797777"/>
<path d="M106.811 156.268L69.8401 134.934L68.4688 135.976L105.659 157.365L106.811 156.268Z" fill="#A7A7A7"/>
<path d="M105.549 157.531L68.4688 136.196V135.977L105.768 157.366L105.549 157.531Z" fill="#797777"/>
<path d="M108.013 155.011L71.1526 133.731L69.7812 134.773L106.971 156.108L108.013 155.011Z" fill="#A7A7A7"/>
<path d="M106.807 156.274L69.7812 134.994V134.774L106.971 156.109L106.807 156.274Z" fill="#797777"/>
<path d="M109.328 153.75L72.5219 132.525L71.0957 133.567L108.231 154.902L109.328 153.75Z" fill="#A7A7A7"/>
<path d="M108.011 155.013L71.0957 133.788V133.568L108.176 154.848L108.011 155.013Z" fill="#797777"/>
<path d="M110.54 152.598L73.7893 131.373L72.418 132.415L109.443 153.64L110.54 152.598Z" fill="#A7A7A7"/>
<path d="M109.334 153.805L72.418 132.635V132.416L109.443 153.641L109.334 153.805Z" fill="#797777"/>
<path d="M111.792 151.279L75.1508 130.219L73.7246 131.206L110.64 152.431L111.792 151.279Z" fill="#A7A7A7"/>
<path d="M110.476 152.591L73.7246 131.421V131.201L110.695 152.426L110.476 152.591Z" fill="#797777"/>
<path d="M113.056 150.072L76.4691 129.012L75.043 130.054L111.904 151.224L113.056 150.072Z" fill="#A7A7A7"/>
<path d="M111.794 151.389L75.043 130.274V130.055L111.959 151.225L111.794 151.389Z" fill="#797777"/>
<path d="M114.266 148.925L77.844 127.864L76.4727 128.906L113.169 149.967L114.266 148.925Z" fill="#A7A7A7"/>
<path d="M113.059 150.132L76.4727 129.127V128.907L113.169 149.968L113.059 150.132Z" fill="#797777"/>
<path d="M116.18 146.841L79.9773 125.891L77.7832 127.755L114.37 148.761L116.18 146.841Z" fill="#A7A7A7"/>
<path d="M114.15 148.872L77.7832 127.976V127.757L114.15 148.598V148.872Z" fill="#797777"/>
<path d="M99.2988 164.278L116.193 147.495V146.837L114.164 148.592V148.853L112.936 149.826V150.073L111.666 151.06V151.334L110.434 152.267V152.558L109.227 153.528V153.757L107.967 154.735V155.009L106.752 155.996V156.215L105.482 157.203V157.477L104.29 158.354V158.661L103.053 159.633V159.89L101.767 160.767V161.151L100.451 162.084V162.475L99.2988 163.619V164.278Z" fill="#D4D4D4"/>
<path d="M67.3984 186.024L77.8162 191.994L78.8756 191.465L68.3696 185.462L67.3984 186.024Z" fill="#D9D9D9"/>
<path d="M67.3984 186.169V185.992L77.8162 191.995V192.171L67.3984 186.169Z" fill="#989898"/>
<path d="M78.8719 191.643V191.467L77.8125 191.996V192.173L78.8719 191.643Z" fill="#BDBDBD"/>
<path d="M78.5126 191.289L77.4531 191.818V190.318L78.5126 189.788V191.289Z" fill="#CFCFCF"/>
<path d="M77.4559 191.819V190.319L76.3965 189.789V191.201L77.4559 191.819Z" fill="#989898"/>
<path d="M78.5154 189.789L77.4559 190.319L76.3965 189.789L77.4559 189.26L78.5154 189.789Z" fill="#E9E9E9"/>
<path d="M74.284 188.816L73.2246 189.346V187.845L74.284 187.315V188.816Z" fill="#CFCFCF"/>
<path d="M73.2274 189.346V187.845L72.168 187.315V188.728L73.2274 189.346Z" fill="#989898"/>
<path d="M74.2868 187.317L73.2274 187.846L72.168 187.317L73.2274 186.787L74.2868 187.317Z" fill="#E9E9E9"/>
<path d="M70.0399 186.431L68.9805 186.961V185.46L70.0399 184.931V186.431Z" fill="#CFCFCF"/>
<path d="M68.9833 186.961V185.46L67.9238 184.931V186.343L68.9833 186.961Z" fill="#989898"/>
<path d="M70.0427 184.931L68.9833 185.461L67.9238 184.931L68.9833 184.401L70.0427 184.931Z" fill="#E9E9E9"/>
<path d="M67.3984 184.612L77.8162 190.582L78.8756 190.052L68.3696 184.05L67.3984 184.612Z" fill="#D9D9D9"/>
<path d="M67.3984 184.756V184.579L77.8162 190.582V190.758L67.3984 184.756Z" fill="#989898"/>
<path d="M78.8719 190.23V190.054L77.8125 190.583V190.76L78.8719 190.23Z" fill="#BDBDBD"/>
<path d="M71.9629 183.372L82.3807 189.342L83.4401 188.812L72.934 182.81L71.9629 183.372Z" fill="#D9D9D9"/>
<path d="M71.9629 183.514V183.338L82.3807 189.341V189.517L71.9629 183.514Z" fill="#989898"/>
<path d="M83.4364 188.988V188.812L82.377 189.341V189.518L83.4364 188.988Z" fill="#BDBDBD"/>
<path d="M83.0868 188.632L82.0273 189.162V187.661L83.0868 187.132V188.632Z" fill="#CFCFCF"/>
<path d="M82.0301 189.161V187.661L80.9707 187.131V188.543L82.0301 189.161Z" fill="#989898"/>
<path d="M83.0896 187.131L82.0301 187.661L80.9707 187.131L82.0301 186.602L83.0896 187.131Z" fill="#E9E9E9"/>
<path d="M78.8524 186.164L77.793 186.693V185.193L78.8524 184.663V186.164Z" fill="#CFCFCF"/>
<path d="M77.7958 186.694V185.194L76.7363 184.664V186.076L77.7958 186.694Z" fill="#989898"/>
<path d="M78.8552 184.664L77.7958 185.194L76.7363 184.664L77.7958 184.135L78.8552 184.664Z" fill="#E9E9E9"/>
<path d="M74.6122 183.782L73.5527 184.312V182.811L74.6122 182.281V183.782Z" fill="#CFCFCF"/>
<path d="M73.5555 184.312V182.811L72.4961 182.281V183.694L73.5555 184.312Z" fill="#989898"/>
<path d="M74.615 182.283L73.5555 182.812L72.4961 182.283L73.5555 181.753L74.615 182.283Z" fill="#E9E9E9"/>
<path d="M71.9688 181.963L82.3865 187.933L83.446 187.403L72.9399 181.4L71.9688 181.963Z" fill="#D9D9D9"/>
<path d="M71.9688 182.106V181.93L82.3865 187.932V188.109L71.9688 182.106Z" fill="#989898"/>
<path d="M83.4442 187.58V187.403L82.3848 187.933V188.11L83.4442 187.58Z" fill="#BDBDBD"/>
<path d="M62.8008 188.67L73.2186 194.64L74.278 194.11L63.7719 188.107L62.8008 188.67Z" fill="#D9D9D9"/>
<path d="M62.8008 188.813V188.637L73.2186 194.639V194.816L62.8008 188.813Z" fill="#989898"/>
<path d="M74.2743 194.287V194.11L73.2148 194.64V194.817L74.2743 194.287Z" fill="#BDBDBD"/>
<path d="M73.9149 193.929L72.8555 194.459V192.958L73.9149 192.429V193.929Z" fill="#CFCFCF"/>
<path d="M72.8583 194.459V192.958L71.7988 192.429V193.841L72.8583 194.459Z" fill="#989898"/>
<path d="M73.9177 192.43L72.8583 192.96L71.7988 192.43L72.8583 191.9L73.9177 192.43Z" fill="#E9E9E9"/>
<path d="M69.6825 191.459L68.623 191.988V190.488L69.6825 189.958V191.459Z" fill="#CFCFCF"/>
<path d="M68.6258 191.988V190.488L67.5664 189.958V191.37L68.6258 191.988Z" fill="#989898"/>
<path d="M69.6853 189.959L68.6258 190.489L67.5664 189.959L68.6258 189.43L69.6853 189.959Z" fill="#E9E9E9"/>
<path d="M65.4364 189.075L64.377 189.605V188.104L65.4364 187.574V189.075Z" fill="#CFCFCF"/>
<path d="M64.3797 189.605V188.104L63.3203 187.574V188.987L64.3797 189.605Z" fill="#989898"/>
<path d="M65.4392 187.577L64.3797 188.106L63.3203 187.577L64.3797 187.047L65.4392 187.577Z" fill="#E9E9E9"/>
<path d="M62.8027 187.257L73.2205 193.228L74.2799 192.698L63.7739 186.695L62.8027 187.257Z" fill="#D9D9D9"/>
<path d="M62.8027 187.4V187.224L73.2205 193.226V193.403L62.8027 187.4Z" fill="#989898"/>
<path d="M74.2762 192.875V192.698L73.2168 193.228V193.404L74.2762 192.875Z" fill="#BDBDBD"/>
<path d="M83.648 187.093L73.2258 193.056L72.1667 192.525L82.6773 186.531L83.648 187.093Z" fill="#D9D9D9"/>
<path d="M83.6464 187.236L83.6465 187.06L73.2242 193.054L73.2241 193.231L83.6464 187.236Z" fill="#BDBDBD"/>
<path d="M72.1689 192.703L72.1691 192.527L73.2281 193.057L73.228 193.234L72.1689 192.703Z" fill="#989898"/>
<path d="M81.7125 186.036L71.2902 191.998L70.2312 191.468L80.7417 185.473L81.7125 186.036Z" fill="#D9D9D9"/>
<path d="M81.7108 186.179L81.7109 186.002L71.2887 191.997L71.2885 192.173L81.7108 186.179Z" fill="#BDBDBD"/>
<path d="M70.2354 191.646L70.2355 191.47L71.2945 192L71.2944 192.177L70.2354 191.646Z" fill="#989898"/>
<path d="M79.4058 184.798L68.9836 190.76L67.9246 190.229L78.4351 184.235L79.4058 184.798Z" fill="#D9D9D9"/>
<path d="M79.4042 184.94L79.4043 184.764L68.982 190.758L68.9819 190.935L79.4042 184.94Z" fill="#BDBDBD"/>
<path d="M67.9287 190.407L67.9288 190.231L68.9879 190.761L68.9878 190.938L67.9287 190.407Z" fill="#989898"/>
<path d="M76.7672 183.205L66.3449 189.167L65.2859 188.637L75.7964 182.642L76.7672 183.205Z" fill="#D9D9D9"/>
<path d="M76.7655 183.349L76.7656 183.173L66.3434 189.168L66.3432 189.344L76.7655 183.349Z" fill="#BDBDBD"/>
<path d="M65.29 188.815L65.2902 188.639L66.3492 189.169L66.3491 189.346L65.29 188.815Z" fill="#989898"/>
<path d="M74.8101 182.15L64.3879 188.112L63.3289 187.582L73.8394 181.587L74.8101 182.15Z" fill="#D9D9D9"/>
<path d="M74.8085 182.293L74.8086 182.116L64.3863 188.111L64.3862 188.288L74.8085 182.293Z" fill="#BDBDBD"/>
<path d="M63.333 187.761L63.3331 187.584L64.3922 188.115L64.3921 188.291L63.333 187.761Z" fill="#989898"/>
<path d="M76.7518 184.12L72.8672 186.434V181.253L76.7518 179.019V184.12Z" fill="#E8E8E8"/>
<path d="M72.8682 186.52V181.252L68.2773 178.487V183.784L72.8682 186.52Z" fill="#C7C7C7"/>
<path d="M76.7528 179.003L72.8682 181.251L68.2773 178.487L72.0737 176.28L76.7528 179.003Z" fill="#9D9B9B"/>
<path d="M72.5155 186.594L68.6309 188.908V183.728L72.5155 181.493V186.594Z" fill="#E8E8E8"/>
<path d="M68.6319 188.994V183.725L64.041 180.961V186.257L68.6319 188.994Z" fill="#C7C7C7"/>
<path d="M72.5165 181.476L68.6319 183.725L64.041 180.961L67.8373 178.754L72.5165 181.476Z" fill="#9D9B9B"/>
<path d="M81.6971 187.124L77.8125 189.437V184.257L81.6971 182.022V187.124Z" fill="#E8E8E8"/>
<path d="M77.8155 189.522V184.254L73.2246 181.489V186.786L77.8155 189.522Z" fill="#C7C7C7"/>
<path d="M81.7001 182.007L77.8155 184.255L73.2246 181.491L77.0209 179.284L81.7001 182.007Z" fill="#9D9B9B"/>
<path d="M77.4569 189.591L73.5723 191.904V186.724L77.4569 184.489V189.591Z" fill="#E8E8E8"/>
<path d="M73.5733 191.989V186.72L68.9824 183.956V189.252L73.5733 191.989Z" fill="#C7C7C7"/>
<path d="M77.4579 184.473L73.5733 186.722L68.9824 183.958L72.7787 181.751L77.4579 184.473Z" fill="#F2F2F2"/>
<path d="M76.8631 178.634L72.9785 180.948V175.768L76.8631 173.533V178.634Z" fill="#E8E8E8"/>
<path d="M72.9796 181.036V175.767L68.3887 173.003V178.299L72.9796 181.036Z" fill="#C7C7C7"/>
<path d="M76.8642 173.52L72.9796 175.769L68.3887 173.005L72.185 170.798L76.8642 173.52Z" fill="#F2F2F2"/>
<path d="M72.6268 181.104L68.7422 183.418V178.238L72.6268 176.003V181.104Z" fill="#E8E8E8"/>
<path d="M68.7432 183.503V178.234L64.1523 175.47V180.766L68.7432 183.503Z" fill="#C7C7C7"/>
<path d="M72.6278 175.987L68.7432 178.236L64.1523 175.471L67.9487 173.265L72.6278 175.987Z" fill="#F2F2F2"/>
<path d="M81.8104 181.638L77.9258 183.952V178.772L81.8104 176.537V181.638Z" fill="#E8E8E8"/>
<path d="M77.9268 184.038V178.769L73.3359 176.005V181.301L77.9268 184.038Z" fill="#C7C7C7"/>
<path d="M81.8114 176.52L77.9268 178.769L73.3359 176.005L77.1322 173.798L81.8114 176.52Z" fill="#F2F2F2"/>
</svg>
