<svg width="132" height="140" viewBox="0 0 140 140" fill="none" xmlns="http://www.w3.org/2000/svg">
<g clip-path="url(#clip0_541_4968)">
<rect width="140" height="140" fill="white"/>
<path d="M60.1211 60.8691L60.7763 76.936L59.3191 81.4233" stroke="#BCC4DC" stroke-width="0.623539"/>
<path d="M60.1208 60.8681L44.7849 67.3447L42.2571 72.2695" stroke="#BCC4DC" stroke-width="0.623539"/>
<path d="M54.7511 108.873L34.4318 108.517L46.7859 88.5807L66.9151 89.2438L54.7511 108.873Z" fill="#D5DBE4"/>
<path d="M34.4243 108.543L46.7933 88.5825L35.7207 66.9971L23.0896 87.38L34.4243 108.543Z" fill="#C2CADC"/>
<path d="M66.9193 89.2455L46.7901 88.5823L35.7175 66.9968L55.5881 67.5563L66.9193 89.2455Z" fill="#F2F4FA"/>
<path d="M60.1211 60.8691L54.9841 88.8693L45.6374 108.215" stroke="#BCC4DC" stroke-width="0.623539"/>
<path d="M60.1185 60.8682L41.5585 76.0653L28.3115 96.6542" stroke="#BCC4DC" stroke-width="0.623539"/>
<path d="M52.9806 13.936C46.0311 30.4749 59.6959 61.6826 59.6959 61.6826C59.6959 61.6826 99.1014 65.269 109.397 40.7671C109.397 40.7671 119.385 27.197 92.6481 9.22515C65.9111 -8.74666 52.9806 13.936 52.9806 13.936Z" fill="#D8DDE8"/>
<path d="M87.6285 19.0078C87.7323 19.0514 87.8296 19.1021 87.9207 19.1597C117.637 34.7504 78.1778 56.5187 59.6959 61.6828C74.9022 53.1772 93.5956 22.7504 87.9207 19.1597C87.8241 19.109 87.7266 19.0583 87.6285 19.0078Z" fill="#ADBAD3"/>
<path d="M59.6966 61.6829C59.8211 46.2403 81.061 16.2477 87.6292 19.0078C57.3632 3.40701 55.5715 45.5355 59.6966 61.6829Z" fill="#ADBAD3"/>
<path d="M85.1861 16.4352C86.3631 16.987 87.4715 17.5412 88.5137 18.0973C139.992 44.8031 75.847 61.4087 59.6962 61.6839C75.7428 61.4105 126.813 38.5299 88.5137 18.0973C87.454 17.5475 86.3452 16.9934 85.1861 16.4352Z" fill="#ADBAD3"/>
<path d="M60.0453 61.9038C52.5442 49.4337 50.0934 -6.34248 91.9583 19.2617C38.1003 -14.4523 52.7585 49.7899 60.0453 61.9038Z" fill="#ADBAD3"/>
<path d="M86.7733 16.4233C79.9242 9.36401 74.9805 4.42813 67.6304 3.17281C73.7669 1.7493 77.4851 1.76243 85.144 4.76659C88.1966 10.0821 88.196 13.8111 86.7733 16.4233Z" fill="#ADBAD3"/>
<path d="M90.1546 19.5091C99.9473 20.4285 104.378 22.3794 109.96 27.3239C107.227 21.6481 102.997 16.563 98.4202 13.3007C92.3644 14.2493 91.3002 16.7641 90.1546 19.5091Z" fill="#ADBAD3"/>
<ellipse cx="23.3678" cy="8.28117" rx="23.3678" ry="8.28117" transform="matrix(0.857866 0.513878 -0.557268 0.830328 72.3242 -0.183594)" fill="#EEF1F9" fill-opacity="0.18"/>
<ellipse cx="13.3948" cy="4.74689" rx="13.3948" ry="4.74689" transform="matrix(0.851083 0.525037 -0.568057 0.822984 79.0547 7.76074)" fill="#3B465F" fill-opacity="0.05"/>
<ellipse cx="7.52648" cy="2.66726" rx="7.52648" ry="2.66726" transform="matrix(0.88437 0.466791 -0.511602 0.859219 82.4648 12.8955)" fill="#8393B5"/>
<path d="M135.843 118.167L99.9587 139.116L66.1113 119.04L99.9587 97.4121L135.843 118.167Z" fill="#8392B1"/>
<path d="M99.9591 139.116V139.649L66.1113 119.573V119.04L99.9591 139.116Z" fill="#9FA6B5"/>
<path d="M99.9609 139.116V139.649L135.845 118.7V118.167L99.9609 139.116Z" fill="#DADFE6"/>
<path d="M125.434 101.608V118.549L101.473 104.508V87.7959L125.434 101.608Z" fill="#5A616E"/>
<path d="M105.908 118.207L113.158 122.404L113.844 122.023L106.596 117.852L105.908 118.207Z" fill="#D6DDE8"/>
<path d="M105.908 118.361V118.208L113.158 122.405V122.519L105.908 118.361Z" fill="#BCC4DC"/>
<path d="M113.843 122.137V122.022L113.156 122.404V122.518L113.843 122.137Z" fill="#B5C1D4"/>
<path d="M113.66 121.909L112.969 122.291V121.26L113.66 120.861V121.909Z" fill="#BDC4D1"/>
<path d="M112.97 122.291V121.337L112.188 120.917V121.844L112.97 122.291Z" fill="#BCC4DC"/>
<path d="M113.661 120.862L112.924 121.23L112.188 120.862L112.924 120.493L113.661 120.862Z" fill="#B8C1DB"/>
<path d="M110.71 120.185L109.973 120.553V119.509L110.71 119.141V120.185Z" fill="#BDC4D1"/>
<path d="M109.973 120.553V119.509L109.236 119.141V120.123L109.973 120.553Z" fill="#BCC4DC"/>
<path d="M110.71 119.141L109.973 119.509L109.236 119.141L109.973 118.772L110.71 119.141Z" fill="#B8C1DB"/>
<path d="M107.764 118.528L107.027 118.857V117.853L107.764 117.484V118.528Z" fill="#BDC4D1"/>
<path d="M107.028 118.897V117.853L106.291 117.484V118.467L107.028 118.897Z" fill="#BCC4DC"/>
<path d="M107.765 117.485L107.028 117.853L106.291 117.485L107.028 117.116L107.765 117.485Z" fill="#B8C1DB"/>
<path d="M105.908 117.216L113.167 121.415L113.844 121.032L106.596 116.87L105.908 117.216Z" fill="#D6DDE8"/>
<path d="M105.908 117.331V117.217L113.167 121.415V121.538L105.908 117.331Z" fill="#BCC4DC"/>
<path d="M113.843 121.147V121.032L113.166 121.415V121.537L113.843 121.147Z" fill="#B5C1D4"/>
<path d="M109.338 116.222L116.587 120.419L117.274 120.037L110.026 115.866L109.338 116.222Z" fill="#D6DDE8"/>
<path d="M109.338 116.375V116.223L116.587 120.42V120.534L109.338 116.375Z" fill="#BCC4DC"/>
<path d="M117.272 120.151V120.036L116.586 120.417V120.532L117.272 120.151Z" fill="#B5C1D4"/>
<path d="M117.086 119.925L116.395 120.306V119.276L117.086 118.877V119.925Z" fill="#BDC4D1"/>
<path d="M116.396 120.305V119.351L115.613 118.932V119.859L116.396 120.305Z" fill="#BCC4DC"/>
<path d="M117.087 118.876L116.35 119.245L115.613 118.876L116.35 118.508L117.087 118.876Z" fill="#B8C1DB"/>
<path d="M114.139 118.199L113.402 118.568V117.524L114.139 117.155V118.199Z" fill="#BDC4D1"/>
<path d="M113.403 118.568V117.524L112.666 117.155V118.138L113.403 118.568Z" fill="#BCC4DC"/>
<path d="M114.14 117.156L113.403 117.524L112.666 117.156L113.403 116.787L114.14 117.156Z" fill="#B8C1DB"/>
<path d="M111.194 116.541L110.457 116.87V115.866L111.194 115.497V116.541Z" fill="#BDC4D1"/>
<path d="M110.458 116.91V115.866L109.721 115.497V116.48L110.458 116.91Z" fill="#BCC4DC"/>
<path d="M111.195 115.497L110.458 115.866L109.721 115.497L110.458 115.129L111.195 115.497Z" fill="#B8C1DB"/>
<path d="M109.334 115.232L116.593 119.43L117.27 119.048L110.022 114.886L109.334 115.232Z" fill="#D6DDE8"/>
<path d="M109.334 115.347V115.232L116.593 119.431V119.553L109.334 115.347Z" fill="#BCC4DC"/>
<path d="M117.269 119.161V119.047L116.592 119.429V119.552L117.269 119.161Z" fill="#B5C1D4"/>
<path d="M112.082 114.619L119.331 118.816L120.018 118.435L112.77 114.264L112.082 114.619Z" fill="#D6DDE8"/>
<path d="M112.082 114.772V114.619L119.331 118.816V118.931L112.082 114.772Z" fill="#BCC4DC"/>
<path d="M120.016 118.549V118.435L119.33 118.816V118.93L120.016 118.549Z" fill="#B5C1D4"/>
<path d="M119.834 118.32L119.143 118.702V117.671L119.834 117.272V118.32Z" fill="#BDC4D1"/>
<path d="M119.144 118.702V117.748L118.361 117.328V118.255L119.144 118.702Z" fill="#BCC4DC"/>
<path d="M119.835 117.273L119.098 117.641L118.361 117.273L119.098 116.904L119.835 117.273Z" fill="#B8C1DB"/>
<path d="M116.887 116.597L116.15 116.965V115.921L116.887 115.553V116.597Z" fill="#BDC4D1"/>
<path d="M116.151 116.965V115.921L115.414 115.553V116.535L116.151 116.965Z" fill="#BCC4DC"/>
<path d="M116.888 115.553L116.151 115.921L115.414 115.553L116.151 115.185L116.888 115.553Z" fill="#B8C1DB"/>
<path d="M113.94 114.939L113.203 115.268V114.264L113.94 113.896V114.939Z" fill="#BDC4D1"/>
<path d="M113.204 115.308V114.264L112.467 113.896V114.878L113.204 115.308Z" fill="#BCC4DC"/>
<path d="M113.941 113.896L113.204 114.264L112.467 113.896L113.204 113.527L113.941 113.896Z" fill="#B8C1DB"/>
<path d="M112.086 113.628L119.345 117.826L120.022 117.443L112.774 113.281L112.086 113.628Z" fill="#D6DDE8"/>
<path d="M112.086 113.742V113.628L119.345 117.826V117.949L112.086 113.742Z" fill="#BCC4DC"/>
<path d="M120.021 117.557V117.442L119.344 117.825V117.948L120.021 117.557Z" fill="#B5C1D4"/>
<path d="M119.867 117.074L112.618 121.271L111.931 120.889L119.179 116.718L119.867 117.074Z" fill="#B7C3D8"/>
<path d="M119.867 117.226V117.073L112.618 121.27V121.385L119.867 117.226Z" fill="#99A7BC"/>
<path d="M111.933 121.002V120.888L112.619 121.269V121.383L111.933 121.002Z" fill="#8793AE"/>
<path d="M118.65 116.31L111.401 120.507L110.714 120.125L117.963 115.954L118.65 116.31Z" fill="#B7C3D8"/>
<path d="M118.65 116.463V116.311L111.401 120.508V120.622L118.65 116.463Z" fill="#99A7BC"/>
<path d="M110.716 120.238V120.124L111.402 120.505V120.62L110.716 120.238Z" fill="#8793AE"/>
<path d="M117.352 115.547L110.102 119.744L109.415 119.363L116.664 115.191L117.352 115.547Z" fill="#B7C3D8"/>
<path d="M117.352 115.7V115.548L110.102 119.745V119.859L117.352 115.7Z" fill="#99A7BC"/>
<path d="M109.417 119.476V119.361L110.104 119.743V119.857L109.417 119.476Z" fill="#8793AE"/>
<path d="M116.129 114.862L108.88 119.059L108.193 118.677L115.441 114.506L116.129 114.862Z" fill="#B7C3D8"/>
<path d="M116.129 115.015V114.862L108.88 119.059V119.174L116.129 115.015Z" fill="#99A7BC"/>
<path d="M108.194 118.79V118.676L108.881 119.057V119.171L108.194 118.79Z" fill="#8793AE"/>
<path d="M114.984 114.25L107.735 118.447L107.048 118.066L114.297 113.895L114.984 114.25Z" fill="#B7C3D8"/>
<path d="M114.984 114.403V114.25L107.735 118.447V118.561L114.984 114.403Z" fill="#99A7BC"/>
<path d="M107.05 118.179V118.064L107.736 118.446V118.56L107.05 118.179Z" fill="#8793AE"/>
<path d="M113.918 113.64L106.669 117.837L105.982 117.455L113.23 113.284L113.918 113.64Z" fill="#B7C3D8"/>
<path d="M113.918 113.793V113.641L106.669 117.838V117.952L113.918 113.793Z" fill="#BCC4DC"/>
<path d="M105.984 117.569V117.455L106.67 117.836V117.951L105.984 117.569Z" fill="#BCC5D4"/>
<path d="M115.255 115.162L112.572 116.76V113.156L115.255 111.613V115.162Z" fill="#D5DBE4"/>
<path d="M112.572 116.765V113.157L109.379 111.233V114.918L112.572 116.765Z" fill="#BCC4DC"/>
<path d="M115.255 111.613L112.572 113.156L109.379 111.233L112.02 109.697L115.255 111.613Z" fill="#B8C1DB"/>
<path d="M112.39 116.833L109.707 118.431V114.827L112.39 113.284V116.833Z" fill="#D5DBE4"/>
<path d="M109.707 118.436V114.827L106.514 112.904V116.589L109.707 118.436Z" fill="#BFCAE0"/>
<path d="M112.39 113.284L109.707 114.827L106.514 112.903L109.154 111.368L112.39 113.284Z" fill="#B8C1DB"/>
<path d="M118.648 117.221L115.965 118.819V115.216L118.648 113.673V117.221Z" fill="#D5DBE4"/>
<path d="M115.967 118.824V115.216L112.773 113.293V116.978L115.967 118.824Z" fill="#BCC4DC"/>
<path d="M118.65 113.673L115.967 115.215L112.773 113.292L115.414 111.757L118.65 113.673Z" fill="#B8C1DB"/>
<path d="M115.788 118.892L113.105 120.49V116.886L115.788 115.344V118.892Z" fill="#D5DBE4"/>
<path d="M113.105 120.495V116.887L109.912 114.964V118.649L113.105 120.495Z" fill="#BFCAE0"/>
<path d="M115.788 115.343L113.105 116.886L109.912 114.963L112.553 113.428L115.788 115.343Z" fill="#B8C1DB"/>
<path d="M75.6035 119.425L99.7934 133.39V116.411L75.6035 102.484V119.425Z" fill="#A7B8D9"/>
<path d="M75.5983 118.09L99.7882 132.054V132.36L75.2168 118.204L75.5983 118.09Z" fill="#E6EDFD"/>
<path d="M75.2168 118.205L99.7882 132.36V133.658L75.2168 119.502V118.205Z" fill="#C7D3EB"/>
<path d="M75.5983 115.801L99.7882 129.765V130.071L75.2168 115.915L75.5983 115.801Z" fill="#E6EDFD"/>
<path d="M75.2168 115.916L99.7882 130.071V131.369L75.2168 117.213V115.916Z" fill="#C7D3EB"/>
<path d="M75.5983 113.587L99.7882 127.552V127.857L75.2168 113.701L75.5983 113.587Z" fill="#E6EDFD"/>
<path d="M75.2168 113.702L99.7882 127.858V129.155L75.2168 114.999V113.702Z" fill="#C7D3EB"/>
<path d="M75.5983 111.298L99.7882 125.262V125.568L75.2168 111.412L75.5983 111.298Z" fill="#E6EDFD"/>
<path d="M75.2168 111.412L99.7882 125.567V126.865L75.2168 112.709V111.412Z" fill="#C7D3EB"/>
<path d="M75.5983 109.01L99.7882 122.974V123.28L75.2168 109.124L75.5983 109.01Z" fill="#E6EDFD"/>
<path d="M75.2168 109.125L99.7882 123.28V124.578L75.2168 110.422V109.125Z" fill="#C7D3EB"/>
<path d="M75.5983 106.643L99.7882 120.607V120.912L75.2168 106.757L75.5983 106.643Z" fill="#E6EDFD"/>
<path d="M75.2168 106.757L99.7882 120.912V122.209L75.2168 108.054V106.757Z" fill="#C7D3EB"/>
<path d="M75.5983 104.431L99.7882 118.395V118.7L75.2168 104.545L75.5983 104.431Z" fill="#E6EDFD"/>
<path d="M75.2168 104.546L99.7882 118.701V119.999L75.2168 105.843V104.546Z" fill="#C7D3EB"/>
<path d="M75.5983 102.142L99.7882 116.106V116.411L75.2168 102.256L75.5983 102.142Z" fill="#E6EDFD"/>
<path d="M75.2168 102.256L99.7882 116.411V117.708L75.2168 103.553V102.256Z" fill="#C7D3EB"/>
<path d="M120.396 101.762L99.7931 113.666V113.971L120.396 102.143V101.762Z" fill="#C0C0C0"/>
<path d="M120.243 102.219L99.7924 113.97V115.268L120.777 103.096L120.243 102.219Z" fill="#F4F4F4"/>
<path d="M77.1309 110.936V106.569L82.0909 109.433V113.782L77.1309 110.936Z" fill="#B6BECF"/>
<path d="M79.8791 111.971L81.6342 112.984V111.61L79.8791 110.593V111.971Z" fill="#3F4D69"/>
<path d="M77.5898 110.652L79.4976 111.75V110.364L77.5898 109.275V110.652Z" fill="#3F4D69"/>
<path d="M79.8791 110.063L81.6342 111.076V109.702L79.8791 108.685V110.063Z" fill="#3F4D69"/>
<path d="M77.5898 108.723L79.4976 109.843V108.456L77.5898 107.35V108.723Z" fill="#3F4D69"/>
<path d="M80.1841 111.765L79.8789 111.987L81.634 112.983V112.602L80.1841 111.765Z" fill="#D8DEEA"/>
<path d="M80.1841 111.775L79.8789 111.986V110.592L80.1841 110.769V111.775Z" fill="#7B89A8"/>
<path d="M80.1841 109.869L79.8789 110.064L81.634 111.077V110.696L80.1841 109.869Z" fill="#D8DEEA"/>
<path d="M80.1841 109.867L79.8789 110.062V108.685L80.1841 108.875V109.867Z" fill="#7B89A8"/>
<path d="M77.8951 110.456L77.5898 110.649V109.274L77.8951 109.447V110.456Z" fill="#7B89A8"/>
<path d="M77.8951 110.456L79.4976 111.355V111.749L77.5898 110.651L77.8951 110.456Z" fill="#D8DEEA"/>
<path d="M77.8951 108.551L77.5898 108.723V107.35L77.8951 107.527V108.551Z" fill="#7B89A8"/>
<path d="M77.8951 108.551L79.4976 109.46V109.842L77.5898 108.722L77.8951 108.551Z" fill="#D8DEEA"/>
<path d="M85.2188 115.592V111.225L90.1788 114.088V118.438L85.2188 115.592Z" fill="#B6BECF"/>
<path d="M87.965 116.627L89.7202 117.64V116.266L87.965 115.249V116.627Z" fill="#3F4D69"/>
<path d="M85.6758 115.308L87.5835 116.407V115.02L85.6758 113.932V115.308Z" fill="#3F4D69"/>
<path d="M87.965 114.719L89.7202 115.732V114.359L87.965 113.341V114.719Z" fill="#3F4D69"/>
<path d="M85.6758 113.379L87.5835 114.499V113.112L85.6758 112.006V113.379Z" fill="#3F4D69"/>
<path d="M88.272 116.42L87.9668 116.642L89.7219 117.638V117.257L88.272 116.42Z" fill="#D8DEEA"/>
<path d="M88.272 116.431L87.9668 116.642V115.248L88.272 115.425V116.431Z" fill="#7B89A8"/>
<path d="M88.272 114.524L87.9668 114.719L89.7219 115.733V115.351L88.272 114.524Z" fill="#D8DEEA"/>
<path d="M88.272 114.523L87.9668 114.718V113.34L88.272 113.531V114.523Z" fill="#7B89A8"/>
<path d="M85.981 115.111L85.6758 115.304V113.93L85.981 114.102V115.111Z" fill="#7B89A8"/>
<path d="M85.981 115.111L87.5835 116.01V116.405L85.6758 115.306L85.981 115.111Z" fill="#D8DEEA"/>
<path d="M85.981 113.208L85.6758 113.379V112.006L85.981 112.183V113.208Z" fill="#7B89A8"/>
<path d="M85.981 113.206L87.5835 114.116V114.497L85.6758 113.378L85.981 113.206Z" fill="#D8DEEA"/>
<path d="M93.6875 120.475V116.108L98.6476 118.972V123.321L93.6875 120.475Z" fill="#B6BECF"/>
<path d="M96.4338 121.51L98.1889 122.523V121.149L96.4338 120.132V121.51Z" fill="#3F4D69"/>
<path d="M94.1445 120.191L96.0523 121.289V119.903L94.1445 118.814V120.191Z" fill="#3F4D69"/>
<path d="M96.4338 119.602L98.1889 120.615V119.241L96.4338 118.224V119.602Z" fill="#3F4D69"/>
<path d="M94.1445 118.262L96.0523 119.382V117.995L94.1445 116.889V118.262Z" fill="#3F4D69"/>
<path d="M96.7408 121.304L96.4355 121.526L98.1907 122.522V122.141L96.7408 121.304Z" fill="#D8DEEA"/>
<path d="M96.7408 121.314L96.4355 121.525V120.131L96.7408 120.308V121.314Z" fill="#7B89A8"/>
<path d="M96.7408 119.408L96.4355 119.603L98.1907 120.616V120.235L96.7408 119.408Z" fill="#D8DEEA"/>
<path d="M96.7408 119.406L96.4355 119.601V118.224L96.7408 118.414V119.406Z" fill="#7B89A8"/>
<path d="M94.4498 119.995L94.1445 120.188V118.813L94.4498 118.986V119.995Z" fill="#7B89A8"/>
<path d="M94.4498 119.995L96.0523 120.894V121.289L94.1445 120.19L94.4498 119.995Z" fill="#D8DEEA"/>
<path d="M94.4498 118.091L94.1445 118.262V116.889L94.4498 117.066V118.091Z" fill="#7B89A8"/>
<path d="M94.4498 118.09L96.0523 118.999V119.381L94.1445 118.262L94.4498 118.09Z" fill="#D8DEEA"/>
<path d="M107.04 129.002L99.791 133.39V116.411L107.04 109.314V129.002Z" fill="#E7EAEF"/>
<path d="M125.507 101.074V118.396L118.182 122.517V103.249L125.507 101.074Z" fill="#E7EAEF"/>
<path d="M107.037 115.342L120.01 107.711V102.675L110.471 105.727L107.037 109.314V115.342Z" fill="#E7EAEF"/>
<path d="M117.875 109.163H118.257V123.051L117.875 122.822V109.163Z" fill="#A7B8D9"/>
<path d="M125.509 101.264L99.793 116.106V116.411L125.891 101.378L125.509 101.264Z" fill="#C3CBDB"/>
<path d="M125.891 101.379L99.793 116.412V117.709L125.891 102.638V101.379Z" fill="#F2F4FA"/>
<path d="M107.038 127.858L99.789 132.055V132.361L107.42 127.973L107.038 127.858Z" fill="#C3CBDB"/>
<path d="M107.42 127.973L99.789 132.36V133.658L107.42 129.232V127.973Z" fill="#F2F4FA"/>
<path d="M125.509 117.25L118.26 121.447V121.752L125.891 117.364L125.509 117.25Z" fill="#C3CBDB"/>
<path d="M125.891 117.365L118.26 121.753V123.05L125.891 118.624V117.365Z" fill="#F2F4FA"/>
<path d="M107.038 125.568L99.789 129.765V130.071L107.42 125.683L107.038 125.568Z" fill="#C3CBDB"/>
<path d="M107.42 125.683L99.789 130.07V131.368L107.42 126.942V125.683Z" fill="#F2F4FA"/>
<path d="M125.509 114.886L118.26 119.083V119.388L125.891 115L125.509 114.886Z" fill="#C3CBDB"/>
<path d="M125.891 115L118.26 119.388V120.685L125.891 116.259V115Z" fill="#F2F4FA"/>
<path d="M107.038 123.355L99.789 127.552V127.858L107.42 123.47L107.038 123.355Z" fill="#C3CBDB"/>
<path d="M107.42 123.47L99.789 127.858V129.155L107.42 124.729V123.47Z" fill="#F2F4FA"/>
<path d="M125.509 112.748L118.26 116.945V117.25L125.891 112.863L125.509 112.748Z" fill="#C3CBDB"/>
<path d="M125.891 112.862L118.26 117.25V118.547L125.891 114.121V112.862Z" fill="#F2F4FA"/>
<path d="M107.038 121.065L99.789 125.262V125.568L107.42 121.18L107.038 121.065Z" fill="#C3CBDB"/>
<path d="M107.42 121.18L99.789 125.567V126.865L107.42 122.439V121.18Z" fill="#F2F4FA"/>
<path d="M125.509 110.459L118.26 114.656V114.961L125.891 110.573L125.509 110.459Z" fill="#C3CBDB"/>
<path d="M125.891 110.574L118.26 114.962V116.259L125.891 111.833V110.574Z" fill="#F2F4FA"/>
<path d="M107.038 118.775L99.789 122.972V123.278L107.42 118.89L107.038 118.775Z" fill="#C3CBDB"/>
<path d="M107.42 118.89L99.789 123.277V124.575L107.42 120.149V118.89Z" fill="#F2F4FA"/>
<path d="M125.509 108.17L118.26 112.367V112.672L125.891 108.284L125.509 108.17Z" fill="#C3CBDB"/>
<path d="M125.891 108.284L118.26 112.672V113.969L125.891 109.543V108.284Z" fill="#F2F4FA"/>
<path d="M107.038 116.41L99.789 120.607V120.912L107.42 116.525L107.038 116.41Z" fill="#C3CBDB"/>
<path d="M107.42 116.524L99.789 120.912V122.209L107.42 117.784V116.524Z" fill="#F2F4FA"/>
<path d="M125.509 105.652L118.26 109.849V110.155L125.891 105.767L125.509 105.652Z" fill="#C3CBDB"/>
<path d="M125.891 105.768L118.26 110.155V111.453L125.891 107.027V105.768Z" fill="#F2F4FA"/>
<path d="M125.509 103.552L99.793 118.394V118.699L125.891 103.666L125.509 103.552Z" fill="#C3CBDB"/>
<path d="M125.891 103.666L99.793 118.699V119.996L125.891 104.925V103.666Z" fill="#F2F4FA"/>
<path d="M106.053 120.474V116.107L101.093 118.971V123.32L106.053 120.474Z" fill="#C0C2C6"/>
<path d="M103.306 121.51L101.551 122.523V121.149L103.306 120.132V121.51Z" fill="#3F4D69"/>
<path d="M105.596 120.191L103.688 121.289V119.903L105.596 118.814V120.191Z" fill="#3F4D69"/>
<path d="M103.306 119.602L101.551 120.615V119.241L103.306 118.224V119.602Z" fill="#3F4D69"/>
<path d="M105.596 118.262L103.688 119.382V117.995L105.596 116.889V118.262Z" fill="#3F4D69"/>
<path d="M102.999 121.303L103.305 121.525L101.55 122.521V122.14L102.999 121.303Z" fill="#D8DEEA"/>
<path d="M102.999 121.314L103.305 121.525V120.131L102.999 120.308V121.314Z" fill="#7B89A8"/>
<path d="M102.999 119.407L103.305 119.602L101.55 120.615V120.234L102.999 119.407Z" fill="#D8DEEA"/>
<path d="M102.999 119.405L103.305 119.6V118.223L102.999 118.413V119.405Z" fill="#7B89A8"/>
<path d="M105.29 119.994L105.596 120.187V118.812L105.29 118.985V119.994Z" fill="#7B89A8"/>
<path d="M105.29 119.995L103.688 120.894V121.289L105.596 120.19L105.29 119.995Z" fill="#D8DEEA"/>
<path d="M105.29 118.091L105.596 118.262V116.889L105.29 117.066V118.091Z" fill="#7B89A8"/>
<path d="M105.29 118.089L103.688 118.998V119.38L105.596 118.261L105.29 118.089Z" fill="#D8DEEA"/>
<path d="M124.518 109.867V105.5L119.558 108.363V112.713L124.518 109.867Z" fill="#C0C2C6"/>
<path d="M121.769 110.902L120.014 111.915V110.542L121.769 109.524V110.902Z" fill="#3F4D69"/>
<path d="M124.059 109.583L122.151 110.682V109.295L124.059 108.207V109.583Z" fill="#3F4D69"/>
<path d="M121.769 108.994L120.014 110.008V108.634L121.769 107.617V108.994Z" fill="#3F4D69"/>
<path d="M124.059 107.655L122.151 108.774V107.388L124.059 106.281V107.655Z" fill="#3F4D69"/>
<path d="M121.464 110.695L121.77 110.917L120.014 111.914V111.532L121.464 110.695Z" fill="#D8DEEA"/>
<path d="M121.464 110.706L121.77 110.918V109.523L121.464 109.7V110.706Z" fill="#7B89A8"/>
<path d="M121.464 108.8L121.77 108.995L120.014 110.008V109.626L121.464 108.8Z" fill="#D8DEEA"/>
<path d="M121.464 108.798L121.77 108.993V107.615L121.464 107.806V108.798Z" fill="#7B89A8"/>
<path d="M123.753 109.387L124.059 109.58V108.205L123.753 108.378V109.387Z" fill="#7B89A8"/>
<path d="M123.753 109.387L122.151 110.286V110.68L124.059 109.582L123.753 109.387Z" fill="#D8DEEA"/>
<path d="M123.753 107.483L124.059 107.655V106.281L123.753 106.458V107.483Z" fill="#7B89A8"/>
<path d="M123.753 107.481L122.151 108.391V108.773L124.059 107.653L123.753 107.481Z" fill="#D8DEEA"/>
<path d="M112.155 105.272L86.9727 90.7735L101.013 86.4238L126.119 100.923L112.155 105.272Z" fill="#C1CCE3"/>
<path d="M126.658 100.849L101.323 86.2734L99.6445 86.9221L125.132 101.573L126.658 100.849Z" fill="#D5DBE4"/>
<path d="M125.473 101.344L100.253 86.757L99.8711 86.6543L125.206 101.458L125.473 101.344Z" fill="#637FB7"/>
<path d="M125.241 101.268L99.8682 86.6543L98.1895 87.3029L123.562 102.069L125.241 101.268Z" fill="#D5DBE4"/>
<path d="M123.643 101.953L98.4226 87.3664L98.041 87.2637L123.376 102.106L123.643 101.953Z" fill="#637FB7"/>
<path d="M123.411 101.877L98.0382 87.2637L96.3594 87.9123L121.618 102.564L123.411 101.877Z" fill="#D5DBE4"/>
<path d="M121.694 102.488L96.5124 87.9016L96.1309 87.7988L121.542 102.679L121.694 102.488Z" fill="#637FB7"/>
<path d="M121.501 102.45L96.128 87.7988L94.4492 88.4475L119.898 103.213L121.501 102.45Z" fill="#D5DBE4"/>
<path d="M119.981 103.136L94.6843 88.511L94.3027 88.4082L119.79 103.289L119.981 103.136Z" fill="#637FB7"/>
<path d="M119.749 103.06L94.2999 88.4082L92.6211 89.0568L117.917 103.708L119.749 103.06Z" fill="#D5DBE4"/>
<path d="M118.187 103.708L92.8522 89.0451L92.4707 88.9424L117.805 103.899L118.187 103.708Z" fill="#637FB7"/>
<path d="M117.802 103.556L92.4679 88.9424L90.7891 89.591L116.085 104.281L117.802 103.556Z" fill="#D5DBE4"/>
<path d="M116.202 104.204L91.0202 89.6555L90.6387 89.5527L115.935 104.319L116.202 104.204Z" fill="#637FB7"/>
<path d="M115.97 104.128L90.6358 89.5527L88.957 90.2014L114.177 104.776L115.97 104.128Z" fill="#D5DBE4"/>
<path d="M114.256 104.739L89.0358 90.1906L88.6543 90.0879L114.027 104.854L114.256 104.739Z" fill="#637FB7"/>
<path d="M113.986 104.663L88.6515 90.0879L86.9727 90.7365L112.155 105.273L113.986 104.663Z" fill="#D5DBE4"/>
<path d="M112.154 105.274V105.731L126.653 101.306V100.848L125.241 101.42V101.267L123.41 102.03V101.878L121.502 102.565V102.45L119.747 103.213V103.061L117.801 103.709V103.557L115.97 104.282V104.129L113.986 104.816V104.663L112.154 105.274Z" fill="#C1CCE3"/>
<path d="M100.556 116.795L74.4961 101.838L86.9726 90.6973L112.155 105.272L100.556 116.795Z" fill="#BFCEEC"/>
<path d="M101.203 116.147L75.2193 101.19L74.3418 101.992L100.401 116.948L101.203 116.147Z" fill="#D5DBE4"/>
<path d="M100.401 117.407L74.3418 102.45V101.992L100.401 116.949V117.407Z" fill="#375184"/>
<path d="M102.31 115.231L76.1364 100.312L75.2207 100.999L101.318 116.07L102.31 115.231Z" fill="#D5DBE4"/>
<path d="M101.28 116.185L75.2207 101.228V100.999L101.28 115.917V116.185Z" fill="#375184"/>
<path d="M103.11 114.392L77.1268 99.4736L76.1348 100.084L102.309 115.193L103.11 114.392Z" fill="#D5DBE4"/>
<path d="M102.194 115.27L76.1348 100.314V100.085L102.309 115.08L102.194 115.27Z" fill="#375184"/>
<path d="M103.951 113.513L78.0828 98.5947L77.1289 99.3197L103.188 114.276L103.951 113.513Z" fill="#D5DBE4"/>
<path d="M103.074 114.391L77.1289 99.4729V99.3203L103.188 114.277L103.074 114.391Z" fill="#375184"/>
<path d="M104.869 112.637L79.077 97.7949L78.0469 98.4817L104.068 113.4L104.869 112.637Z" fill="#D5DBE4"/>
<path d="M103.916 113.513L78.0469 98.6331V98.4805L104.068 113.399L103.916 113.513Z" fill="#375184"/>
<path d="M105.631 111.834L79.9148 96.9922L78.9609 97.7171L104.83 112.597L105.631 111.834Z" fill="#D5DBE4"/>
<path d="M104.753 112.714L78.9609 97.8714V97.7188L104.906 112.599L104.753 112.714Z" fill="#375184"/>
<path d="M106.467 110.956L80.8269 96.1523L79.873 96.8773L105.742 111.719L106.467 110.956Z" fill="#D5DBE4"/>
<path d="M105.627 111.835L79.873 97.0305V96.8779L105.742 111.72L105.627 111.835Z" fill="#375184"/>
<path d="M107.383 110.081L81.7811 95.3154L80.7891 96.0404L106.62 110.883L107.383 110.081Z" fill="#D5DBE4"/>
<path d="M106.467 110.959L80.7891 96.1936V96.041L106.581 110.845L106.467 110.959Z" fill="#375184"/>
<path d="M108.224 109.28L82.6609 94.5137L81.707 95.2386L107.461 110.004L108.224 109.28Z" fill="#D5DBE4"/>
<path d="M107.385 110.12L81.707 95.3919V95.2393L107.461 110.005L107.385 110.12Z" fill="#375184"/>
<path d="M109.1 108.362L83.6131 93.7109L82.6211 94.3977L108.299 109.164L109.1 108.362Z" fill="#D5DBE4"/>
<path d="M108.185 109.278L82.6211 94.5501V94.3975L108.337 109.163L108.185 109.278Z" fill="#375184"/>
<path d="M109.98 107.524L84.5311 92.873L83.5391 93.598L109.179 108.326L109.98 107.524Z" fill="#D5DBE4"/>
<path d="M109.103 108.441L83.5391 93.7513V93.5986L109.217 108.326L109.103 108.441Z" fill="#375184"/>
<path d="M110.816 106.724L85.4812 92.0723L84.5273 92.7972L110.053 107.449L110.816 106.724Z" fill="#D5DBE4"/>
<path d="M109.976 107.565L84.5273 92.9514V92.7988L110.053 107.45L109.976 107.565Z" fill="#375184"/>
<path d="M112.151 105.271L86.9695 90.6963L85.4434 91.9935L110.892 106.607L112.151 105.271Z" fill="#D5DBE4"/>
<path d="M110.74 106.683L85.4434 92.1458V91.9932L110.74 106.492V106.683Z" fill="#375184"/>
<path d="M100.4 117.405L112.152 105.729V105.271L110.74 106.492V106.674L109.886 107.351V107.523L109.003 108.209V108.4L108.146 109.049V109.252L107.306 109.926V110.086L106.43 110.766V110.957L105.585 111.643V111.796L104.702 112.483V112.673L103.872 113.284V113.497L103.012 114.173V114.352L102.117 114.963V115.23L101.202 115.878V116.151L100.4 116.947V117.405Z" fill="#BFCEEC"/>
<path d="M69.3242 133.547L76.5735 137.744L77.2603 137.363L70.0121 133.191L69.3242 133.547Z" fill="#E7EAEF"/>
<path d="M69.3242 133.7V133.548L76.5735 137.745V137.859L69.3242 133.7Z" fill="#BCC4DC"/>
<path d="M77.2586 137.477V137.362L76.5723 137.744V137.858L77.2586 137.477Z" fill="#B5C1D4"/>
<path d="M77.0724 137.248L76.3809 137.629V136.599L77.0724 136.2V137.248Z" fill="#BDC4D1"/>
<path d="M76.382 137.629V136.676L75.5996 136.256V137.183L76.382 137.629Z" fill="#BCC4DC"/>
<path d="M77.0735 136.2L76.3365 136.569L75.5996 136.2L76.3365 135.832L77.0735 136.2Z" fill="#F2F4FA"/>
<path d="M74.1236 135.523L73.3867 135.892V134.848L74.1236 134.479V135.523Z" fill="#BDC4D1"/>
<path d="M73.3873 135.892V134.848L72.6504 134.479V135.462L73.3873 135.892Z" fill="#BCC4DC"/>
<path d="M74.1242 134.48L73.3873 134.848L72.6504 134.48L73.3873 134.111L74.1242 134.48Z" fill="#F2F4FA"/>
<path d="M71.1803 133.865L70.4434 134.194V133.19L71.1803 132.821V133.865Z" fill="#BDC4D1"/>
<path d="M70.444 134.234V133.19L69.707 132.821V133.804L70.444 134.234Z" fill="#BCC4DC"/>
<path d="M71.1809 132.822L70.444 133.19L69.707 132.822L70.444 132.453L71.1809 132.822Z" fill="#F2F4FA"/>
<path d="M69.3242 132.555L76.583 136.753L77.2603 136.371L70.0121 132.209L69.3242 132.555Z" fill="#E7EAEF"/>
<path d="M69.3242 132.67V132.556L76.583 136.754V136.877L69.3242 132.67Z" fill="#BCC4DC"/>
<path d="M77.2589 136.485V136.37L76.582 136.753V136.875L77.2589 136.485Z" fill="#B5C1D4"/>
<path d="M72.75 131.56L79.9993 135.757L80.6861 135.375L73.4378 131.204L72.75 131.56Z" fill="#E7EAEF"/>
<path d="M72.75 131.713V131.561L79.9993 135.758V135.872L72.75 131.713Z" fill="#BCC4DC"/>
<path d="M80.6844 135.488V135.374L79.998 135.755V135.87L80.6844 135.488Z" fill="#B5C1D4"/>
<path d="M80.5021 135.262L79.8105 135.643V134.613L80.5021 134.214V135.262Z" fill="#BDC4D1"/>
<path d="M79.8116 135.643V134.689L79.0293 134.27V135.196L79.8116 135.643Z" fill="#BCC4DC"/>
<path d="M80.5031 134.214L79.7662 134.583L79.0293 134.214L79.7662 133.846L80.5031 134.214Z" fill="#F2F4FA"/>
<path d="M77.5514 133.54L76.8145 133.909V132.865L77.5514 132.496V133.54Z" fill="#BDC4D1"/>
<path d="M76.8131 133.909V132.865L76.0762 132.496V133.479L76.8131 133.909Z" fill="#BCC4DC"/>
<path d="M77.55 132.495L76.8131 132.864L76.0762 132.495L76.8131 132.127L77.55 132.495Z" fill="#F2F4FA"/>
<path d="M74.6041 131.881L73.8672 132.21V131.205L74.6041 130.837V131.881Z" fill="#BDC4D1"/>
<path d="M73.8678 132.249V131.205L73.1309 130.837V131.819L73.8678 132.249Z" fill="#BCC4DC"/>
<path d="M74.6047 130.837L73.8678 131.206L73.1309 130.837L73.8678 130.469L74.6047 130.837Z" fill="#F2F4FA"/>
<path d="M72.75 130.571L80.0088 134.769L80.6861 134.386L73.4378 130.225L72.75 130.571Z" fill="#E7EAEF"/>
<path d="M72.75 130.686V130.571L80.0088 134.769V134.892L72.75 130.686Z" fill="#BCC4DC"/>
<path d="M80.6847 134.5V134.386L80.0078 134.768V134.891L80.6847 134.5Z" fill="#B5C1D4"/>
<path d="M75.498 129.959L82.7474 134.156L83.4341 133.775L76.1859 129.604L75.498 129.959Z" fill="#E7EAEF"/>
<path d="M75.498 130.112V129.959L82.7474 134.156V134.27L75.498 130.112Z" fill="#BCC4DC"/>
<path d="M83.4325 133.888V133.773L82.7461 134.155V134.269L83.4325 133.888Z" fill="#B5C1D4"/>
<path d="M83.2501 133.658L82.5586 134.04V133.009L83.2501 132.61V133.658Z" fill="#BDC4D1"/>
<path d="M82.5597 134.04V133.086L81.7773 132.666V133.593L82.5597 134.04Z" fill="#BCC4DC"/>
<path d="M83.2512 132.611L82.5143 132.979L81.7773 132.611L82.5143 132.242L83.2512 132.611Z" fill="#F2F4FA"/>
<path d="M80.3014 131.938L79.5645 132.306V131.262L80.3014 130.894V131.938Z" fill="#BDC4D1"/>
<path d="M79.5651 132.306V131.262L78.8281 130.894V131.876L79.5651 132.306Z" fill="#BCC4DC"/>
<path d="M80.302 130.894L79.5651 131.262L78.8281 130.894L79.5651 130.525L80.302 130.894Z" fill="#F2F4FA"/>
<path d="M77.3541 130.279L76.6172 130.608V129.604L77.3541 129.235V130.279Z" fill="#BDC4D1"/>
<path d="M76.6178 130.648V129.604L75.8809 129.235V130.218L76.6178 130.648Z" fill="#BCC4DC"/>
<path d="M77.3547 129.236L76.6178 129.604L75.8809 129.236L76.6178 128.867L77.3547 129.236Z" fill="#F2F4FA"/>
<path d="M75.5 128.969L82.7588 133.167L83.4361 132.785L76.1878 128.623L75.5 128.969Z" fill="#E7EAEF"/>
<path d="M75.5 129.084V128.97L82.7588 133.168V133.291L75.5 129.084Z" fill="#BCC4DC"/>
<path d="M83.4347 132.899V132.784L82.7578 133.167V133.289L83.4347 132.899Z" fill="#B5C1D4"/>
<path d="M83.2832 132.412L76.0339 136.609L75.3471 136.228L82.5954 132.057L83.2832 132.412Z" fill="#DEE3EB"/>
<path d="M83.2832 132.566V132.413L76.0339 136.61V136.725L83.2832 132.566Z" fill="#99A7BC"/>
<path d="M75.3488 136.341V136.227L76.0352 136.608V136.722L75.3488 136.341Z" fill="#8793AE"/>
<path d="M82.0625 131.649L74.8132 135.846L74.1264 135.464L81.3747 131.293L82.0625 131.649Z" fill="#DEE3EB"/>
<path d="M82.0625 131.802V131.649L74.8132 135.846V135.961L82.0625 131.802Z" fill="#99A7BC"/>
<path d="M74.1281 135.577V135.463L74.8145 135.844V135.959L74.1281 135.577Z" fill="#8793AE"/>
<path d="M80.7637 130.884L73.5144 135.081L72.8276 134.7L80.0758 130.528L80.7637 130.884Z" fill="#DEE3EB"/>
<path d="M80.7637 131.037V130.885L73.5144 135.082V135.196L80.7637 131.037Z" fill="#99A7BC"/>
<path d="M72.8293 134.813V134.698L73.5156 135.08V135.194L72.8293 134.813Z" fill="#8793AE"/>
<path d="M79.5449 130.198L72.2956 134.395L71.6088 134.013L78.8571 129.842L79.5449 130.198Z" fill="#DEE3EB"/>
<path d="M79.5449 130.351V130.198L72.2956 134.395V134.51L79.5449 130.351Z" fill="#99A7BC"/>
<path d="M71.6105 134.126V134.012L72.2969 134.393V134.507L71.6105 134.126Z" fill="#8793AE"/>
<path d="M78.4023 129.587L71.153 133.784L70.4663 133.403L77.7145 129.231L78.4023 129.587Z" fill="#DEE3EB"/>
<path d="M78.4023 129.74V129.587L71.153 133.784V133.898L78.4023 129.74Z" fill="#99A7BC"/>
<path d="M70.4679 133.516V133.401L71.1543 133.783V133.897L70.4679 133.516Z" fill="#8793AE"/>
<path d="M77.3301 128.978L70.0808 133.175L69.394 132.793L76.6422 128.622L77.3301 128.978Z" fill="#DEE3EB"/>
<path d="M77.3301 129.131V128.979L70.0808 133.176V133.29L77.3301 129.131Z" fill="#BCC4DC"/>
<path d="M69.3957 132.906V132.792L70.082 133.173V133.288L69.3957 132.906Z" fill="#BCC5D4"/>
<path d="M78.6633 130.502L75.9805 132.101V128.497L78.6633 126.954V130.502Z" fill="#D5DBE4"/>
<path d="M75.9805 132.106V128.497L72.7871 126.574V130.259L75.9805 132.106Z" fill="#BCC4DC"/>
<path d="M78.6633 126.954L75.9805 128.496L72.7871 126.573L75.4278 125.038L78.6633 126.954Z" fill="#F2F4FA"/>
<path d="M75.7297 132.478L73.0469 134.076V130.472L75.7297 128.93V132.478Z" fill="#D5DBE4"/>
<path d="M73.0469 134.081V130.473L69.8535 128.55V132.234L73.0469 134.081Z" fill="#BFCAE0"/>
<path d="M75.7297 128.929L73.0469 130.472L69.8535 128.549L72.4942 127.014L75.7297 128.929Z" fill="#BCC4DC"/>
<path d="M82.0578 132.561L79.375 134.159V130.555L82.0578 129.013V132.561Z" fill="#D5DBE4"/>
<path d="M79.3769 134.163V130.555L76.1836 128.632V132.316L79.3769 134.163Z" fill="#BCC4DC"/>
<path d="M82.0597 129.012L79.3769 130.555L76.1836 128.632L78.8242 127.097L82.0597 129.012Z" fill="#F2F4FA"/>
<path d="M78.6652 126.915L75.9824 128.513V124.909L78.6652 123.366V126.915Z" fill="#D5DBE4"/>
<path d="M75.9844 128.518V124.909L72.791 122.986V126.671L75.9844 128.518Z" fill="#BCC4DC"/>
<path d="M78.6672 123.366L75.9844 124.909L72.791 122.985L75.4317 121.45L78.6672 123.366Z" fill="#F2F4FA"/>
<path d="M75.8039 128.66L73.1211 130.258V126.654L75.8039 125.111V128.66Z" fill="#D5DBE4"/>
<path d="M73.123 130.263V126.655L69.9297 124.731V128.416L73.123 130.263Z" fill="#BFCAE0"/>
<path d="M75.8058 125.111L73.123 126.654L69.9297 124.731L72.5703 123.195L75.8058 125.111Z" fill="#F2F4FA"/>
<path d="M82.0578 128.899L79.375 130.497V126.893L82.0578 125.351V128.899Z" fill="#D5DBE4"/>
<path d="M79.3769 130.502V126.894L76.1836 124.971V128.655L79.3769 130.502Z" fill="#C2CADC"/>
<path d="M82.0597 125.35L79.3769 126.893L76.1836 124.97L78.8242 123.435L82.0597 125.35Z" fill="#F2F4FA"/>
<path d="M79.2023 134.233L76.5195 135.831V132.227L79.2023 130.685V134.233Z" fill="#D5DBE4"/>
<path d="M76.5195 135.836V132.228L73.3262 130.305V133.989L76.5195 135.836Z" fill="#BFCAE0"/>
<path d="M79.2023 130.684L76.5195 132.227L73.3262 130.304L75.9668 128.769L79.2023 130.684Z" fill="#F2F4FA"/>
</g>
<defs>
<clipPath id="clip0_541_4968">
<rect width="140" height="140" fill="white"/>
</clipPath>
</defs>
</svg>
