<svg width="322" height="258" viewBox="0 0 322 258" fill="none" xmlns="http://www.w3.org/2000/svg">
<path d="M76.291 161.772L249.22 260.901L266.806 252.106L92.4115 152.438L76.291 161.772Z" fill="#D9D9D9"/>
<path d="M76.291 164.161V161.229L249.221 260.898V263.83L76.291 164.161Z" fill="#989898"/>
<path d="M266.795 255.036V252.104L249.209 260.899V263.83L266.795 255.036Z" fill="#BDBDBD"/>
<path d="M260.936 249.169L243.35 257.964V233.046L260.936 224.252V249.169Z" fill="#CFCFCF"/>
<path d="M243.354 257.967V233.05L225.768 224.256V247.707L243.354 257.967Z" fill="#989898"/>
<path d="M260.94 224.255L243.354 233.05L225.768 224.255L243.354 215.461L260.94 224.255Z" fill="#E9E9E9"/>
<path d="M190.592 208.127L173.006 216.922V192.004L190.592 183.21V208.127Z" fill="#CFCFCF"/>
<path d="M173.01 216.923V192.005L155.424 183.211V206.663L173.01 216.923Z" fill="#989898"/>
<path d="M190.597 183.214L173.01 192.009L155.424 183.214L173.01 174.42L190.597 183.214Z" fill="#E9E9E9"/>
<path d="M120.247 168.556L102.66 177.35V152.433L120.247 143.639V168.556Z" fill="#CFCFCF"/>
<path d="M102.664 177.35V152.433L85.0781 143.639V167.09L102.664 177.35Z" fill="#989898"/>
<path d="M120.251 143.644L102.664 152.438L85.0781 143.644L102.664 134.85L120.251 143.644Z" fill="#E9E9E9"/>
<path d="M76.2871 138.316L249.216 237.444L266.802 228.65L92.4076 128.981L76.2871 138.316Z" fill="#D9D9D9"/>
<path d="M76.2871 140.702V137.771L249.217 237.439V240.371L76.2871 140.702Z" fill="#989898"/>
<path d="M266.799 231.583V228.651L249.213 237.446V240.377L266.799 231.583Z" fill="#BDBDBD"/>
<path d="M152.463 117.783L325.392 216.911L342.978 208.117L168.583 108.448L152.463 117.783Z" fill="#D9D9D9"/>
<path d="M152.463 120.174V117.242L325.393 216.911V219.842L152.463 120.174Z" fill="#989898"/>
<path d="M337.112 205.181L319.525 213.975V189.058L337.112 180.264V205.181Z" fill="#CFCFCF"/>
<path d="M319.528 213.975V189.058L301.941 180.264V203.715L319.528 213.975Z" fill="#989898"/>
<path d="M337.114 180.269L319.528 189.063L301.941 180.269L319.528 171.475L337.114 180.269Z" fill="#E9E9E9"/>
<path d="M266.77 164.144L249.184 172.938V148.021L266.77 139.227V164.144Z" fill="#CFCFCF"/>
<path d="M249.19 172.942V148.025L231.604 139.23V162.682L249.19 172.942Z" fill="#989898"/>
<path d="M266.776 139.232L249.19 148.026L231.604 139.232L249.19 130.438L266.776 139.232Z" fill="#E9E9E9"/>
<path d="M196.42 124.571L178.834 133.365V108.448L196.42 99.6533V124.571Z" fill="#CFCFCF"/>
<path d="M178.838 133.366V108.449L161.252 99.6543V123.106L178.838 133.366Z" fill="#989898"/>
<path d="M196.425 99.6576L178.838 108.452L161.252 99.6576L178.838 90.8633L196.425 99.6576Z" fill="#E9E9E9"/>
<path d="M152.463 94.3353L325.392 193.464L342.978 184.67L168.583 85.001L152.463 94.3353Z" fill="#D9D9D9"/>
<path d="M152.463 96.7264V93.7949L325.393 193.464V196.395L152.463 96.7264Z" fill="#989898"/>
<path d="M0 205.744L172.929 304.873L190.515 296.079L16.1205 196.41L0 205.744Z" fill="#D9D9D9"/>
<path d="M0 208.137V205.206L172.93 304.875V307.806L0 208.137Z" fill="#989898"/>
<path d="M114.319 252.099L96.7324 260.893V235.976L114.319 227.182V252.099Z" fill="#CFCFCF"/>
<path d="M96.7368 260.896V235.979L79.1504 227.185V250.636L96.7368 260.896Z" fill="#989898"/>
<path d="M114.323 227.186L96.7368 235.98L79.1504 227.186L96.7368 218.392L114.323 227.186Z" fill="#E9E9E9"/>
<path d="M43.9614 212.529L26.375 221.323V196.406L43.9614 187.611V212.529Z" fill="#CFCFCF"/>
<path d="M26.3793 221.326V196.409L8.79297 187.614V211.066L26.3793 221.326Z" fill="#989898"/>
<path d="M43.9657 187.616L26.3793 196.41L8.79297 187.616L26.3793 178.821L43.9657 187.616Z" fill="#E9E9E9"/>
<path d="M0 182.288L172.929 281.417L190.515 272.623L16.1205 172.954L0 182.288Z" fill="#D9D9D9"/>
<path d="M0 184.677V181.745L172.93 281.414V284.345L0 184.677Z" fill="#989898"/>
<path d="M345.991 179.502L172.988 278.502L155.409 269.694L329.878 170.156L345.991 179.502Z" fill="#D9D9D9"/>
<path d="M345.99 181.888L345.992 178.957L172.988 278.497L172.985 281.428L345.99 181.888Z" fill="#BDBDBD"/>
<path d="M313.757 161.918L140.754 260.918L123.174 252.11L297.643 152.572L313.757 161.918Z" fill="#D9D9D9"/>
<path d="M313.756 164.308L313.758 161.377L140.753 260.916L140.751 263.848L313.756 164.308Z" fill="#BDBDBD"/>
<path d="M123.154 255.044L123.156 252.113L140.736 260.92L140.733 263.852L123.154 255.044Z" fill="#989898"/>
<path d="M275.653 141.397L102.65 240.396L85.0707 231.589L259.54 132.05L275.653 141.397Z" fill="#D9D9D9"/>
<path d="M275.652 143.783L275.654 140.852L102.65 240.391L102.648 243.323L275.652 143.783Z" fill="#BDBDBD"/>
<path d="M85.0501 234.522L85.0523 231.59L102.632 240.398L102.63 243.329L85.0501 234.522Z" fill="#989898"/>
<path d="M231.696 115.005L58.6931 214.005L41.1137 205.197L215.583 105.659L231.696 115.005Z" fill="#D9D9D9"/>
<path d="M231.695 117.393L231.697 114.462L58.6928 214.001L58.6906 216.933L231.695 117.393Z" fill="#BDBDBD"/>
<path d="M41.0931 208.131L41.0953 205.2L58.6751 214.007L58.6729 216.939L41.0931 208.131Z" fill="#989898"/>
<path d="M199.444 97.4202L26.4412 196.42L8.86175 187.612L183.331 88.0739L199.444 97.4202Z" fill="#D9D9D9"/>
<path d="M199.443 99.8064L199.445 96.875L26.4408 196.415L26.4386 199.346L199.443 99.8064Z" fill="#BDBDBD"/>
<path d="M8.84308 190.546L8.84527 187.615L26.4251 196.422L26.4229 199.354L8.84308 190.546Z" fill="#989898"/>
<path d="M231.599 130.139L167.115 168.557V82.542L231.599 45.4365V130.139Z" fill="#E8E8E8"/>
<path d="M167.116 170.023V82.5423L90.9082 36.6426V124.586L167.116 170.023Z" fill="#C7C7C7"/>
<path d="M231.597 45.2054L167.115 82.5426L90.9082 36.643L153.925 0L231.597 45.2054Z" fill="#F2F2F2"/>
<path d="M161.267 171.176L96.7832 209.594V123.579L161.267 86.4736V171.176Z" fill="#E8E8E8"/>
<path d="M96.7838 211.062V123.581L20.5762 77.6816V165.625L96.7838 211.062Z" fill="#C7C7C7"/>
<path d="M161.265 86.2435L96.7826 123.581L20.5762 77.6811L83.593 41.0381L161.265 86.2435Z" fill="#F2F2F2"/>
<path d="M313.677 179.975L249.193 218.393V132.378L313.677 95.2725V179.975Z" fill="#E8E8E8"/>
<path d="M249.192 219.86V132.379L172.984 86.4795V174.423L249.192 219.86Z" fill="#C7C7C7"/>
<path d="M313.673 95.0413L249.191 132.379L172.984 86.4789L236.001 49.8359L313.673 95.0413Z" fill="#F2F2F2"/>
<path d="M243.335 221.014L178.852 259.432V173.417L243.335 136.312V221.014Z" fill="#E8E8E8"/>
<path d="M178.852 260.897V173.416L102.645 127.517V215.46L178.852 260.897Z" fill="#C7C7C7"/>
<path d="M243.333 136.079L178.851 173.417L102.645 127.517L165.661 90.874L243.333 136.079Z" fill="#F2F2F2"/>
<rect width="34.1903" height="19.7264" transform="matrix(0.865997 -0.500049 0.499951 0.866054 99.3691 63.1348)" fill="#333333"/>
<rect width="34.1903" height="19.7264" transform="matrix(-0.865994 -0.500054 -0.499946 0.866057 235.48 63.1348)" fill="#333333"/>
<ellipse cx="167.096" cy="138.091" rx="88.1015" ry="88.1141" fill="#474747"/>
<ellipse cx="167.088" cy="138.093" rx="78.8968" ry="78.9081" fill="#7B7B7B"/>
<ellipse cx="167.752" cy="138.091" rx="68.3773" ry="68.387" fill="#C1C1C1"/>
<ellipse cx="167.755" cy="138.096" rx="55.8861" ry="55.8934" fill="#CBCBCB"/>
<ellipse cx="9.85329" cy="19.2379" rx="9.85329" ry="19.2379" transform="matrix(0.773993 0.633194 -0.633082 0.774085 142.799 80.2295)" fill="#FEFEFE"/>
<path d="M162.498 205.824C166.375 206.518 168.701 206.452 173.018 205.824V185.439C173.018 182.534 170.663 180.179 167.758 180.179C164.853 180.179 162.498 182.534 162.498 185.439V205.824Z" fill="#D9D9D9"/>
<path d="M162.498 70.3649V88.1199C162.498 91.0249 164.853 93.3798 167.758 93.3798C170.663 93.3798 173.018 91.0249 173.018 88.1199V70.3649C168.909 69.7151 166.607 69.7018 162.498 70.3649Z" fill="#D9D9D9"/>
<path d="M162.498 40.7735V50.9672C162.498 53.8722 164.853 56.2271 167.758 56.2271C170.663 56.2271 173.018 53.8722 173.018 50.9672V40.7735C173.018 37.8686 170.663 35.5137 167.758 35.5137C164.853 35.5137 162.498 37.8686 162.498 40.7735Z" fill="#D9D9D9"/>
<path d="M100.038 132.172C99.429 136.079 99.3135 138.342 100.038 142.693L119.104 142.693C122.01 142.693 124.365 140.338 124.365 137.433C124.365 134.527 122.01 132.172 119.104 132.172L100.038 132.172Z" fill="#D9D9D9"/>
<path d="M235.478 142.693C235.896 139.005 235.941 136.743 235.478 132.172L216.412 132.172C213.507 132.172 211.152 134.527 211.152 137.433C211.152 140.338 213.507 142.693 216.412 142.693L235.478 142.693Z" fill="#D9D9D9"/>
<path d="M181.887 23.6759C181.887 31.4845 175.557 37.8139 167.751 37.8139C159.944 37.8139 153.615 31.4845 153.615 23.6759C153.615 15.8674 159.944 9.53794 167.751 9.53794C175.557 9.53794 181.887 15.8674 181.887 23.6759Z" stroke="#717171" stroke-width="5.91767"/>
<ellipse cx="167.43" cy="137.766" rx="9.53352" ry="9.53476" fill="#616161"/>
<path d="M171.699 118.854L205.231 92.0645L185.241 132.834H171.699V118.854Z" fill="#616161"/>
</svg>
