<svg width="250" height="227" viewBox="0 0 250 227" fill="none" xmlns="http://www.w3.org/2000/svg">
<path d="M0.798828 150.026L128.567 223.998L140.672 217.273L12.9221 143.756L0.798828 150.026Z" fill="#E7EAEF"/>
<path d="M0.798828 152.716V150.026L128.567 223.998V226.015L0.798828 152.716Z" fill="#96A3C1"/>
<path d="M140.673 219.29V217.272L128.568 223.997V226.015L140.673 219.29Z" fill="#B5C1D4"/>
<path d="M137.391 215.254L125.203 221.979V203.822L137.391 196.79V215.254Z" fill="#BDC4D1"/>
<path d="M125.205 221.979V205.168L111.416 197.771V214.108L125.205 221.979Z" fill="#96A3C1"/>
<path d="M137.393 196.79L124.404 203.284L111.416 196.79L124.404 190.296L137.393 196.79Z" fill="#F2F4FA"/>
<path d="M85.4394 184.885L72.4512 191.38V172.979L85.4394 166.485V184.885Z" fill="#BDC4D1"/>
<path d="M72.4511 191.38V172.979L59.4629 166.485V183.803L72.4511 191.38Z" fill="#96A3C1"/>
<path d="M85.4394 166.485L72.4511 172.979L59.4629 166.485L72.4511 159.991L85.4394 166.485Z" fill="#F2F4FA"/>
<path d="M33.4902 155.662L20.502 161.458V143.756L33.4902 137.262V155.662Z" fill="#BDC4D1"/>
<path d="M20.5019 162.156V143.756L7.51367 137.262V154.579L20.5019 162.156Z" fill="#96A3C1"/>
<path d="M33.4902 137.262L20.5019 143.756L7.51367 137.262L20.5019 130.768L33.4902 137.262Z" fill="#F2F4FA"/>
<path d="M0.798828 132.543L128.734 206.534L140.672 199.79L12.9221 126.439L0.798828 132.543Z" fill="#E7EAEF"/>
<path d="M0.798828 134.559V132.542L128.734 206.533V208.697L0.798828 134.559Z" fill="#96A3C1"/>
<path d="M140.67 201.807V199.79L128.732 206.534V208.699L140.67 201.807Z" fill="#B5C1D4"/>
<path d="M61.3262 115.059L189.095 189.031L201.199 182.306L73.4494 108.789L61.3262 115.059Z" fill="#E7EAEF"/>
<path d="M61.3262 117.749V115.06L189.095 189.031V191.049L61.3262 117.749Z" fill="#96A3C1"/>
<path d="M201.2 184.323V182.306L189.096 189.03V191.048L201.2 184.323Z" fill="#B5C1D4"/>
<path d="M197.916 180.288L185.729 187.012V168.856L197.916 161.823V180.288Z" fill="#BDC4D1"/>
<path d="M185.73 187.013V170.201L171.941 162.804V179.141L185.73 187.013Z" fill="#96A3C1"/>
<path d="M197.918 161.823L184.93 168.317L171.941 161.823L184.93 155.329L197.918 161.823Z" fill="#F2F4FA"/>
<path d="M145.965 149.918L132.977 156.412V138.012L145.965 131.518V149.918Z" fill="#BDC4D1"/>
<path d="M132.977 156.412V138.012L119.988 131.518V148.835L132.977 156.412Z" fill="#96A3C1"/>
<path d="M145.965 131.518L132.977 138.012L119.988 131.518L132.977 125.023L145.965 131.518Z" fill="#F2F4FA"/>
<path d="M94.0136 120.693L81.0254 126.49V108.787L94.0136 102.293V120.693Z" fill="#BDC4D1"/>
<path d="M81.0254 127.187V108.787L68.0371 102.293V119.611L81.0254 127.187Z" fill="#96A3C1"/>
<path d="M94.0136 102.294L81.0254 108.788L68.0371 102.294L81.0254 95.7998L94.0136 102.294Z" fill="#F2F4FA"/>
<path d="M61.3262 97.5751L189.261 171.566L201.199 164.822L73.4494 91.4717L61.3262 97.5751Z" fill="#E7EAEF"/>
<path d="M61.3262 99.5926V97.5752L189.261 171.566V173.731L61.3262 99.5926Z" fill="#96A3C1"/>
<path d="M201.197 166.84V164.822L189.26 171.566V173.731L201.197 166.84Z" fill="#B5C1D4"/>
<path d="M109.738 86.7663L237.507 160.738L249.611 154.013L121.862 80.4961L109.738 86.7663Z" fill="#E7EAEF"/>
<path d="M109.738 89.4565V86.7666L237.507 160.738V162.756L109.738 89.4565Z" fill="#96A3C1"/>
<path d="M249.612 156.03V154.013L237.508 160.737V162.755L249.612 156.03Z" fill="#B5C1D4"/>
<path d="M246.332 151.994L234.145 158.718V140.562L246.332 133.529V151.994Z" fill="#BDC4D1"/>
<path d="M234.146 158.72V141.908L220.357 134.511V150.848L234.146 158.72Z" fill="#96A3C1"/>
<path d="M246.334 133.53L233.346 140.024L220.357 133.53L233.346 127.036L246.334 133.53Z" fill="#F2F4FA"/>
<path d="M194.381 121.624L181.393 128.118V109.718L194.381 103.224V121.624Z" fill="#BDC4D1"/>
<path d="M181.393 128.118V109.718L168.404 103.224V120.541L181.393 128.118Z" fill="#96A3C1"/>
<path d="M194.381 103.225L181.393 109.719L168.404 103.225L181.393 96.7305L194.381 103.225Z" fill="#F2F4FA"/>
<path d="M142.428 92.4L129.439 98.1966V80.4941L142.428 74V92.4Z" fill="#BDC4D1"/>
<path d="M129.439 98.8941V80.4941L116.451 74V91.3177L129.439 98.8941Z" fill="#96A3C1"/>
<path d="M142.428 74.001L129.439 80.4951L116.451 74.001L129.439 67.5068L142.428 74.001Z" fill="#F2F4FA"/>
<path d="M109.738 69.2812L237.673 143.272L249.611 136.528L121.862 63.1777L109.738 69.2812Z" fill="#E7EAEF"/>
<path d="M109.738 71.2977V69.2803L237.673 143.271V145.436L109.738 71.2977Z" fill="#96A3C1"/>
<path d="M249.61 138.546V136.528L237.672 143.272V145.437L249.61 138.546Z" fill="#B5C1D4"/>
<path d="M246.922 130.02L119.153 203.992L107.049 197.267L234.799 123.75L246.922 130.02Z" fill="#DEE3EB"/>
<path d="M246.922 132.71V130.021L119.153 203.992V206.009L246.922 132.71Z" fill="#99A7BC"/>
<path d="M107.048 199.284V197.267L119.152 203.991V206.009L107.048 199.284Z" fill="#8793AE"/>
<path d="M225.404 116.57L97.6359 190.542L85.5315 183.817L213.281 110.3L225.404 116.57Z" fill="#DEE3EB"/>
<path d="M225.404 119.26V116.57L97.6359 190.542V192.559L225.404 119.26Z" fill="#99A7BC"/>
<path d="M85.5303 185.834V183.816L97.6348 190.541V192.559L85.5303 185.834Z" fill="#8793AE"/>
<path d="M202.541 103.121L74.7726 177.092L62.6682 170.368L190.418 96.8506L202.541 103.121Z" fill="#DEE3EB"/>
<path d="M202.541 105.811V103.121L74.7726 177.093V179.11L202.541 105.811Z" fill="#99A7BC"/>
<path d="M62.667 172.385V170.367L74.7715 177.092V179.109L62.667 172.385Z" fill="#8793AE"/>
<path d="M181.023 91.0183L53.255 164.99L41.1506 158.265L168.9 84.748L181.023 91.0183Z" fill="#DEE3EB"/>
<path d="M181.023 93.7084V91.0186L53.255 164.99V167.008L181.023 93.7084Z" fill="#99A7BC"/>
<path d="M41.1495 160.283V158.266L53.2539 164.99V167.008L41.1495 160.283Z" fill="#8793AE"/>
<path d="M160.848 80.2585L33.0793 154.23L20.9748 147.505L148.724 73.9883L160.848 80.2585Z" fill="#DEE3EB"/>
<path d="M160.848 82.9487V80.2588L33.0793 154.23V156.248L160.848 82.9487Z" fill="#99A7BC"/>
<path d="M20.9737 149.523V147.506L33.0781 154.231V156.248L20.9737 149.523Z" fill="#8793AE"/>
<path d="M142.02 69.4997L14.2511 143.471L2.1467 136.747L129.896 63.2295L142.02 69.4997Z" fill="#DEE3EB"/>
<path d="M142.02 72.1899V69.5L14.2511 143.472V145.489L142.02 72.1899Z" fill="#96A3C1"/>
<path d="M2.14556 138.764V136.746L14.25 143.471V145.488L2.14556 138.764Z" fill="#BCC5D4"/>
<path d="M165.566 96.3208L118.281 124.488V60.9705L165.566 33.7812V96.3208Z" fill="#D5DBE4"/>
<path d="M118.282 124.565V60.9706L62 27.0762V92.0174L118.282 124.565Z" fill="#96A3C1"/>
<path d="M165.567 33.7809L118.282 60.9699L62 27.0755L108.541 0.0166016L165.567 33.7809Z" fill="#F2F4FA"/>
<path d="M115.126 125.769L67.8418 153.936V90.4188L115.126 63.2295V125.769Z" fill="#D5DBE4"/>
<path d="M67.843 154.013V90.4188L11.5605 56.5244V121.466L67.843 154.013Z" fill="#BFCAE0"/>
<path d="M115.127 63.2292L67.843 90.4182L11.5605 56.5237L58.1018 29.4648L115.127 63.2292Z" fill="#F2F4FA"/>
<path d="M225.409 132.634L178.125 160.801V97.284L225.409 70.0947V132.634Z" fill="#D5DBE4"/>
<path d="M178.126 160.878V97.284L121.844 63.3896V128.331L178.126 160.878Z" fill="#96A3C1"/>
<path d="M225.41 70.0944L178.126 97.2834L121.844 63.3889L168.385 36.3301L225.41 70.0944Z" fill="#F2F4FA"/>
<path d="M174.97 162.083L127.686 190.25V126.732L174.97 99.543V162.083Z" fill="#D5DBE4"/>
<path d="M127.687 190.326V126.732L71.4043 92.8379V157.779L127.687 190.326Z" fill="#BFCAE0"/>
<path d="M174.971 99.5427L127.687 126.732L71.4043 92.8372L117.946 65.7783L174.971 99.5427Z" fill="#F2F4FA"/>
<rect x="79.1133" y="48.6455" width="23.3731" height="13.4845" transform="rotate(-30 79.1133 48.6455)" fill="#3B465F"/>
<rect width="23.3731" height="13.4845" transform="matrix(-0.866025 -0.5 -0.5 0.866025 172.17 48.6455)" fill="#3B465F"/>
<circle cx="125.416" cy="99.8821" r="60.2308" fill="#25324C"/>
<circle cx="125.417" cy="99.8823" r="53.938" fill="#3B465F"/>
<circle cx="125.865" cy="99.882" r="46.7463" fill="#E4E8F4"/>
<circle cx="125.864" cy="99.8819" r="38.2061" fill="#C3CADF"/>
<ellipse cx="105.694" cy="74.771" rx="6.73576" ry="13.1508" transform="rotate(39.282 105.694 74.771)" fill="#F2F4FA"/>
<path d="M122.27 146.179C124.92 146.653 126.51 146.608 129.461 146.179V132.245C129.461 130.259 127.851 128.649 125.865 128.649C123.879 128.649 122.27 130.259 122.27 132.245V146.179Z" fill="#8796B7"/>
<path d="M122.27 53.5853V65.7214C122.27 67.7073 123.879 69.3172 125.865 69.3172C127.851 69.3172 129.461 67.7073 129.461 65.7214V53.5853C126.653 53.1411 125.078 53.1321 122.27 53.5853Z" fill="#8796B7"/>
<path d="M122.27 33.3586V40.3256C122.27 42.3115 123.879 43.9214 125.865 43.9214C127.851 43.9214 129.461 42.3115 129.461 40.3256V33.3586C129.461 31.3726 127.851 29.7627 125.865 29.7627C123.879 29.7627 122.27 31.3726 122.27 33.3586Z" fill="#8796B7"/>
<path d="M79.5693 95.8366C79.1527 98.507 79.0737 100.054 79.5693 103.028L92.6043 103.028C94.5903 103.028 96.2002 101.418 96.2002 99.4325C96.2002 97.4465 94.5903 95.8366 92.6043 95.8366L79.5693 95.8366Z" fill="#8796B7"/>
<path d="M172.163 103.028C172.449 100.507 172.48 98.961 172.163 95.8366L159.128 95.8366C157.142 95.8366 155.532 97.4465 155.532 99.4324C155.532 101.418 157.142 103.028 159.128 103.028L172.163 103.028Z" fill="#8796B7"/>
<circle cx="125.864" cy="21.6719" r="9.66389" stroke="#3B465F" stroke-width="4.04535"/>
<circle cx="125.641" cy="99.6572" r="6.51751" fill="#515C73"/>
<path d="M128.562 86.7303L151.486 68.418L137.82 96.2859H128.562V86.7303Z" fill="#515C73"/>
</svg>
