<svg width="132" height="132" viewBox="0 0 132 132" fill="none" xmlns="http://www.w3.org/2000/svg">
<path d="M24.4711 85.1908L9.35547 76.6605L20.0656 49.5874L35.3481 58.16L24.4711 85.1908Z" fill="#BCC4DC"/>
<path d="M90.3782 59.5603L85.8061 56.1177C83.0311 54.0282 79.2396 53.7611 76.3431 55.6787C69.0879 60.4822 64.9413 65.2381 64.137 73.8149C63.9206 76.1225 64.9357 78.3424 66.6068 79.9483L72.2861 85.4064C72.2861 76.5757 80.9681 61.4014 90.3782 59.5603Z" fill="#001030"/>
<ellipse cx="80.5604" cy="71.9474" rx="10.2362" ry="15.8389" transform="rotate(30.9689 80.5604 71.9474)" fill="#353F52"/>
<ellipse cx="80.297" cy="71.9617" rx="6.25106" ry="10.9627" transform="rotate(30.9689 80.297 71.9617)" fill="#E4E7F2"/>
<path d="M55.8763 86.3521L38.3613 95.9367V101.129L60.4383 88.8516L63.8402 81.4989C63.8402 81.4989 70.5909 63.8069 80.2054 58.5876C89.82 53.3682 98.2072 60.8378 98.2072 60.8378L93.2977 51.0186V45.6999L90.1613 43.7285L61.3686 60.3983V73.355L55.8763 86.3521Z" fill="#ADB5CE"/>
<path d="M61.3709 73.4297L61.3877 60.4294L41.4867 48.6831L41.2324 62.3374L61.3709 73.4297Z" fill="#6A7C9F"/>
<path d="M61.3696 73.4295L55.8633 86.409L39.4004 77.4141L44.203 63.9067L61.3696 73.4295Z" fill="#7E89A9"/>
<path d="M55.9181 86.3751L38.4769 96.0236L36.4258 79.1598L39.402 77.4141L55.9181 86.3751Z" fill="#8F9ABE"/>
<path d="M14.133 37.3135C13.7489 35.3119 14.0926 34.5535 15.3604 33.6313L24.1567 38.5409L22.7248 42.2231L14.133 37.3135Z" fill="#001030"/>
<path d="M43.1698 58.2448L41.3779 49.7598L30.7852 55.6602L35.3082 58.2448H43.1698Z" fill="#ACB5D2"/>
<path d="M86.3535 45.9678V41.6602L61.375 55.9285V60.4212L86.3535 45.9678Z" fill="#9EA9C9"/>
<path d="M23.6082 94.883C27.7612 97.5272 31.769 100.018 35.4156 103.153C34.6618 96.045 35.5233 89.9065 20.0156 82.7988L23.6082 94.883Z" fill="#323D5D"/>
<path d="M27.2314 95.2911L22.9512 91.8836C20.1673 89.6672 16.2716 89.3386 13.3094 91.3105C6.14155 96.0822 2.04349 100.832 1.24438 109.353C1.02798 111.661 2.04314 113.88 3.71418 115.486L9.39349 120.945C9.39349 112.114 19.0468 96.6911 27.2314 95.2911Z" fill="#001030"/>
<ellipse cx="17.6678" cy="107.485" rx="10.2362" ry="15.8389" transform="rotate(30.9689 17.6678 107.485)" fill="#353F52"/>
<ellipse cx="17.4044" cy="107.499" rx="6.25106" ry="10.9627" transform="rotate(30.9689 17.4044 107.499)" fill="#E4E7F2"/>
<path d="M1.24414 97.8651C3.6675 89.8213 6.75914 85.6084 15.8544 80.3447C20.2393 82.6839 22.8743 84.0128 26.4082 86.2678C17.9408 89.7562 12.3024 92.0882 6.15372 100.115L1.24414 97.8651Z" fill="#576182"/>
<path d="M41.1233 48.5526L41.0156 44.1372L61.3864 55.7241V60.44L41.1233 48.5526Z" fill="#5E6E8F"/>
<path d="M86.4292 41.6896L65.9727 30.0293L41.0156 44.137L61.3695 55.9831L86.4292 41.6896Z" fill="#7E89A9"/>
<path d="M43.1704 58.2451H35.3088L24.3242 84.9528C31.5002 89.099 34.3988 92.894 35.4075 103.184L38.476 101.138V96.0239L36.3167 77.9754L43.1704 58.2451Z" fill="#A7B1D3"/>
<path d="M16.6912 43.0861C17.0451 42.6386 17.5075 42.2931 18.0038 42.0116L28.452 36.0853C34.1799 34.8579 42.9762 42.4284 41.3397 49.7912C41.3397 49.7912 31.8027 55.1773 23.8245 59.8824C16.092 64.4426 11.1075 50.1476 16.6912 43.0861Z" fill="#8F9ABE"/>
<path d="M28.4525 36.0861L17.2559 42.6523C22.7093 39.4543 26.0866 43.0831 26.6251 50.2985C34.6032 45.5934 39.6928 42.2571 39.6928 42.2571C37.8251 39.7446 34.2712 35.5446 28.4525 36.0861Z" fill="#A0A9C8"/>
<path d="M49.5905 55.6482L36.4933 48.1221C36.616 49.5983 36.5306 50.8483 36.0625 52.3221L48.3631 59.352C49.1487 58.482 49.4687 57.4025 49.5905 55.6482Z" fill="#001030"/>
<ellipse cx="5.32326" cy="8.8319" rx="5.32326" ry="8.8319" transform="matrix(0.999667 -0.025818 0.0407221 0.999171 14.9004 42.6172)" fill="#BCC4DC"/>
<ellipse cx="2.73374" cy="5.12963" rx="2.73374" ry="5.12963" transform="matrix(0.999824 -0.0187852 0.0336925 0.999432 18.0801 45.8735)" fill="#E6EDFD"/>
<path d="M99.2769 33.7988L90.1619 43.7291L86.2461 46.0758V41.5527L99.2769 33.7988Z" fill="#ADB5CE"/>
<path d="M63.5625 31.5598L83.1625 43.4059L98.413 33.4265L78.9792 22.7891L63.5625 31.5598Z" fill="#919191"/>
<path d="M117.482 91.851L106.598 98.3349V83.7135L117.482 77.4546V91.851Z" fill="#D5DBE4"/>
<path d="M106.599 98.3526V83.7135L93.6426 75.9111V90.8604L106.599 98.3526Z" fill="#96A3C1"/>
<path d="M117.483 77.4545L106.599 83.7133L93.6426 75.911L104.356 69.6821L117.483 77.4545Z" fill="#96A3C1"/>
<path d="M105.562 98.6298L94.6777 105.114V90.4923L105.562 84.2334V98.6298Z" fill="#D5DBE4"/>
<path d="M94.6787 105.131V90.4923L81.7227 82.6899V97.6392L94.6787 105.131Z" fill="#BFCAE0"/>
<path d="M105.563 84.2334L94.6787 90.4922L81.7227 82.6898L92.4363 76.4609L105.563 84.2334Z" fill="#F2F4FA"/>
<path d="M131.26 100.21L120.375 106.694V92.0728L131.26 85.814V100.21Z" fill="#D5DBE4"/>
<path d="M120.376 106.712V92.0729L107.42 84.2705V99.2197L120.376 106.712Z" fill="#96A3C1"/>
<path d="M131.261 85.8139L120.376 92.0727L107.42 84.2703L118.134 78.0415L131.261 85.8139Z" fill="#F2F4FA"/>
<path d="M119.646 107.298L108.762 113.782V99.1607L119.646 92.9019V107.298Z" fill="#D5DBE4"/>
<path d="M108.763 113.8V99.1608L95.8066 91.3584V106.308L108.763 113.8Z" fill="#BFCAE0"/>
<path d="M119.647 92.9018L108.763 99.1606L95.8066 91.3582L106.52 85.1294L119.647 92.9018Z" fill="#F2F4FA"/>
<path d="M117.482 76.9901L106.598 83.4741V68.8526L117.482 62.5938V76.9901Z" fill="#D5DBE4"/>
<path d="M106.599 83.4918V68.8527L93.6426 61.0503V75.9995L106.599 83.4918Z" fill="#C2CADC"/>
<path d="M117.483 62.5937L106.599 68.8525L93.6426 61.0501L104.356 54.8213L117.483 62.5937Z" fill="#F2F4FA"/>
<path d="M67.0508 123.96L54.5723 131.393V114.63L67.0508 107.455V123.96Z" fill="#D5DBE4"/>
<path d="M54.5739 131.413V114.63L39.7207 105.686V122.824L54.5739 131.413Z" fill="#C2CADC"/>
<path d="M67.0525 107.455L54.5739 114.63L39.7207 105.685L52.0032 98.5444L67.0525 107.455Z" fill="#F2F4FA"/>
<path d="M99.3833 33.7618L83.168 43.4212V21.639L99.3833 12.3149V33.7618Z" fill="#D5DBE4"/>
<path d="M83.1683 43.448V21.6396L63.8672 10.0161V32.2866L83.1683 43.448Z" fill="#C2CADC"/>
<path d="M99.3836 12.3152L83.1682 21.6392L63.8672 10.0157L79.8277 0.736328L99.3836 12.3152Z" fill="#F2F4FA"/>
</svg>
