<svg width="121" height="126" viewBox="0 0 121 126" fill="none" xmlns="http://www.w3.org/2000/svg">
<path d="M20.305 69.9463L7.58984 62.5766L16.5298 39.4385L29.6255 46.7842L20.305 69.9463Z" fill="#C8C8C8"/>
<path d="M76.8056 47.986L72.8878 45.0361C70.5098 43.2456 67.2609 43.0167 64.7789 44.6599C58.5619 48.7759 55.0087 52.8511 54.3194 60.2003C54.1339 62.1777 55.0039 64.0801 56.4359 65.4562L61.3024 70.1331C61.3024 62.5661 68.7421 49.5636 76.8056 47.986Z" fill="#161616"/>
<ellipse cx="8.77143" cy="13.5721" rx="8.77143" ry="13.5721" transform="matrix(0.857459 0.514552 -0.514594 0.857434 67.8594 42.4497)" fill="#373737"/>
<ellipse cx="5.35653" cy="9.39378" rx="5.35653" ry="9.39378" transform="matrix(0.857459 0.514552 -0.514594 0.857434 68.4082 47.8013)" fill="#D9D9D9"/>
<path d="M47.2572 70.9617L32.2148 79.3592V83.604L51.1332 73.0841L54.0484 66.7838C54.0484 66.7838 59.8332 51.6238 68.0722 47.1514C76.3112 42.679 83.4984 49.0796 83.4984 49.0796L79.2913 40.6657V36.1082L76.6037 34.4189L51.9637 48.7223V59.7036L47.2572 70.9617Z" fill="#DFDFDF"/>
<path d="M51.939 59.7734V48.7302L34.8857 38.665L34.7012 50.2923L51.939 59.7734Z" fill="#B6B6B6"/>
<path d="M51.9648 59.7959L47.213 70.9907L33.1895 63.278L37.2212 51.709L51.9648 59.7959Z" fill="#808080"/>
<path d="M47.2558 70.9624L32.3104 79.23L30.5527 64.7797L33.1366 63.3032L47.2558 70.9624Z" fill="#B4B4B4"/>
<path d="M11.4477 28.9233C11.1185 27.2081 11.413 26.5583 12.4994 25.7681L20.0371 29.975L18.81 33.1302L11.4477 28.9233Z" fill="#353535"/>
<path d="M36.3659 46.7872L34.7971 39.5894L25.8457 44.5725L29.6293 46.7872H36.3659Z" fill="#9A9A9A"/>
<path d="M73.3307 36.2734V32.6016L51.9355 44.8718V48.7215L73.3307 36.2734Z" fill="#BCBCBC"/>
<path d="M19.5707 78.2528C23.1295 80.5186 26.3807 82.1532 29.5056 84.8395C28.3375 78.4373 29.5056 74.5616 16.5254 67.8252L19.5707 78.2528Z" fill="#464646"/>
<path d="M22.915 78.4376L18.9972 75.4877C16.6192 73.6973 13.3703 73.4684 10.8883 75.1116C4.67131 79.2275 1.11805 83.3027 0.428761 90.652C0.243303 92.6294 1.11325 94.5317 2.54524 95.9079L7.41177 100.585C7.41177 93.0178 14.8515 80.0152 22.915 78.4376Z" fill="#161616"/>
<ellipse cx="8.77143" cy="13.5721" rx="8.77143" ry="13.5721" transform="matrix(0.85746 0.514551 -0.514595 0.857433 13.9688 72.9014)" fill="#373737"/>
<ellipse cx="5.35653" cy="9.39378" rx="5.35653" ry="9.39378" transform="matrix(0.85746 0.514551 -0.514595 0.857433 14.5176 78.2524)" fill="#D9D9D9"/>
<path d="M0.408203 80.8073C2.48479 73.9147 5.13404 70.3048 12.9278 65.7944L21.9715 70.8698C14.7157 73.859 9.88409 75.8572 4.61526 82.7355L0.408203 80.8073Z" fill="#848484"/>
<path d="M34.4141 38.3982V34.6978L51.9435 44.6993V48.7402L34.4141 38.3982Z" fill="#515151"/>
<path d="M73.3302 32.6023L55.8004 22.6108L34.4141 34.7058L52.1192 44.6973L73.3302 32.6023Z" fill="#A5A5A5"/>
<path d="M32.3048 46.8022H29.6753L20.3848 69.9404C26.5339 73.4931 28.811 76.5488 29.6753 85.3658L32.3048 83.6129V79.2307L30.4545 63.7653L36.1612 46.8022H32.3048Z" fill="#D7D7D7"/>
<path d="M14.1245 33.3111L23.7191 27.8693C28.6274 26.8176 36.1651 33.3046 34.7628 39.6135C34.7628 39.6135 26.5904 44.2287 19.7539 48.2603C12.9173 52.2919 8.58753 39.1246 14.1245 33.3111Z" fill="#8A8A8A"/>
<path d="M15.5318 32.6766L14.1331 33.4968C14.618 33.1477 15.0846 32.876 15.5318 32.6766L23.7277 27.8704C28.7138 27.4064 31.7592 31.0053 33.3597 33.1582C33.3597 33.1582 28.9983 36.017 22.1618 40.0486C21.7488 34.5156 19.3404 30.9781 15.5318 32.6766Z" fill="#AEAEAE"/>
<path d="M43.5278 43.8201L32.3047 37.3711C32.4098 38.636 32.3367 39.338 31.9355 40.6009L42.476 46.6247C43.1492 45.8792 43.4234 45.3233 43.5278 43.8201Z" fill="#222222"/>
<ellipse cx="4.56154" cy="7.72886" rx="4.56154" ry="7.72886" transform="matrix(0.99922 0.0394786 -0.024577 0.999698 12.5957 32.6572)" fill="#D9D9D9"/>
<ellipse cx="2.34256" cy="4.39549" rx="2.34256" ry="4.39549" transform="matrix(0.998918 0.0465062 -0.0316091 0.9995 15.1348 35.9438)" fill="#FFFCFC"/>
<path d="M83.7145 25.561L76.6088 34.4199L73.3789 36.2655V32.1129L83.7145 25.561Z" fill="#CACACA"/>
<path d="M53.8105 23.9925L70.6059 34.1433L83.6742 25.5921L67.0213 16.4771L53.8105 23.9925Z" fill="#919191"/>
<path d="M83.1764 25.4551L70.5625 32.969V16.1459L83.1764 8.88867V25.4551Z" fill="#E8E8E8"/>
<path d="M70.5538 33.254V16.1442L55.6465 7.16699V24.3672L70.5538 33.254Z" fill="#C7C7C7"/>
<path d="M83.1676 8.84142L70.5538 16.144L55.6465 7.16675L67.9737 0L83.1676 8.84142Z" fill="#F2F2F2"/>
<path d="M49.8385 117.831L37.2246 125.344V108.521L49.8385 101.264V117.831Z" fill="#E8E8E8"/>
<path d="M37.2159 125.629V108.519L22.3086 99.542V116.742L37.2159 125.629Z" fill="#C7C7C7"/>
<path d="M49.8297 101.217L37.2159 108.52L22.3086 99.5427L34.6358 92.376L49.8297 101.217Z" fill="#F2F2F2"/>
<path d="M107.837 77.1479L97.5078 83.301V69.5245L107.837 63.5815V77.1479Z" fill="#E8E8E8"/>
<path d="M97.5143 83.5356V69.5243L85.3066 62.1729V76.2582L97.5143 83.5356Z" fill="#C7C7C7"/>
<path d="M107.844 63.543L97.5143 69.5231L85.3066 62.1716L95.4014 56.3027L107.844 63.543Z" fill="#9D9B9B"/>
<path d="M96.5698 83.7211L86.2402 89.8743V76.0977L96.5698 70.1548V83.7211Z" fill="#E8E8E8"/>
<path d="M86.2448 90.1089V76.0976L74.0371 68.7461V82.8314L86.2448 90.1089Z" fill="#C7C7C7"/>
<path d="M96.5743 70.1163L86.2448 76.0964L74.0371 68.7449L84.1319 62.876L96.5743 70.1163Z" fill="#F2F2F2"/>
<path d="M120.996 85.1308L110.666 91.2839V77.5074L120.996 71.5645V85.1308Z" fill="#E8E8E8"/>
<path d="M110.671 91.518V77.5067L98.4629 70.1553V84.2406L110.671 91.518Z" fill="#C7C7C7"/>
<path d="M121 71.5254L110.671 77.5055L98.4629 70.154L108.558 64.2852L121 71.5254Z" fill="#F2F2F2"/>
<path d="M109.718 91.703L99.3887 97.8562V84.0797L109.718 78.1367V91.703Z" fill="#E8E8E8"/>
<path d="M99.3913 98.0898V84.0785L87.1836 76.7271V90.8124L99.3913 98.0898Z" fill="#C7C7C7"/>
<path d="M109.721 78.0987L99.3912 84.0788L87.1836 76.7273L97.2784 70.8584L109.721 78.0987Z" fill="#F2F2F2"/>
<path d="M108.128 63.0897L97.7988 69.2429V55.4664L108.128 49.5234V63.0897Z" fill="#E8E8E8"/>
<path d="M97.8034 69.4775V55.4662L85.5957 48.1147V62.2001L97.8034 69.4775Z" fill="#C7C7C7"/>
<path d="M108.133 49.4849L97.8034 55.465L85.5957 48.1135L95.6905 42.2446L108.133 49.4849Z" fill="#F2F2F2"/>
</svg>
