<svg width="246" height="199" viewBox="0 0 246 199" fill="none" xmlns="http://www.w3.org/2000/svg">
<ellipse cx="125.737" cy="125.751" rx="120.262" ry="120.25" fill="#636363"/>
<ellipse cx="120.262" cy="120.25" rx="120.262" ry="120.25" fill="#CBCBCB"/>
<ellipse cx="120.263" cy="120.259" rx="111.476" ry="111.464" fill="#A0A0A0"/>
<path d="M185.079 123.888C185.079 158.867 156.72 187.222 121.737 187.222C100.385 187.222 81.5013 176.659 70.0267 160.474C60.613 149.42 54.9316 135.091 54.9316 119.435L58.3956 123.888C58.3956 137.517 62.7013 150.141 70.0267 160.474C81.645 174.116 98.9484 182.769 118.273 182.769C153.256 182.769 181.615 154.413 181.615 119.435L185.079 123.888Z" fill="#555555"/>
<path d="M121.737 164.462C107.695 164.462 95.3185 157.33 88.0335 146.491C81.6045 139.311 77.695 129.829 77.695 119.435C77.695 97.0262 97.8418 79.8503 120.253 79.8503L123.716 84.3035C101.306 84.3035 81.159 101.479 81.159 123.888C81.159 132.255 83.6922 140.031 88.0335 146.491C95.4635 154.787 106.259 160.008 118.273 160.008L121.737 164.462Z" fill="#555555"/>
<path d="M165.284 74.7276L123.716 95.684L120.253 91.2308L161.82 70.2744L165.284 74.7276Z" fill="#555555"/>
<path d="M118.273 182.778C153.256 182.778 181.615 154.422 181.615 119.443H158.851C158.851 141.851 140.684 160.017 118.273 160.017C95.8624 160.017 77.695 141.851 77.695 119.443C77.695 97.0347 97.8419 79.8588 120.253 79.8588V91.2393L161.82 70.2829L120.253 46.707V57.0979C85.27 57.0979 54.9316 84.4642 54.9316 119.443C54.9316 154.422 83.2906 182.778 118.273 182.778Z" fill="#D9D9D9"/>
<path d="M96.5433 134.469V128.998L106.994 120.354C107.687 119.779 108.28 119.241 108.772 118.74C109.274 118.229 109.657 117.705 109.921 117.167C110.195 116.629 110.332 116.032 110.332 115.375C110.332 114.655 110.177 114.039 109.867 113.529C109.566 113.018 109.146 112.626 108.608 112.352C108.07 112.07 107.45 111.928 106.748 111.928C106.046 111.928 105.426 112.07 104.888 112.352C104.359 112.635 103.948 113.05 103.656 113.597C103.365 114.144 103.219 114.81 103.219 115.594H95.9961C95.9961 113.624 96.4384 111.928 97.323 110.506C98.2075 109.083 99.4569 107.989 101.071 107.223C102.685 106.457 104.577 106.074 106.748 106.074C108.991 106.074 110.934 106.434 112.575 107.155C114.226 107.866 115.498 108.869 116.392 110.164C117.294 111.459 117.746 112.977 117.746 114.718C117.746 115.794 117.522 116.866 117.076 117.933C116.629 118.99 115.826 120.162 114.668 121.448C113.51 122.734 111.864 124.265 109.73 126.044L107.104 128.232V128.396H118.047V134.469H96.5433Z" fill="#3C3C3C"/>
<path d="M120.571 130.092V124.183L131.842 106.457H137.204V114.336H134.14L128.067 123.965V124.183H144.701V130.092H120.571ZM134.195 134.469V128.287L134.359 125.715V106.457H141.472V134.469H134.195Z" fill="#3C3C3C"/>
<rect x="116.994" y="21.4287" width="6.04057" height="13.7271" rx="3.02029" fill="#606060"/>
<rect x="21.1406" y="123.28" width="6.03993" height="13.7286" rx="3.01997" transform="rotate(-90 21.1406 123.28)" fill="#606060"/>
<rect x="205.105" y="123.28" width="6.03993" height="13.7286" rx="3.01997" transform="rotate(-90 205.105 123.28)" fill="#606060"/>
<rect width="6.04025" height="13.7278" rx="3.02013" transform="matrix(-0.707144 -0.707069 0.707144 -0.707069 52.2578 192.286)" fill="#606060"/>
<rect width="6.04025" height="13.7278" rx="3.02013" transform="matrix(-0.707144 -0.707069 0.707144 -0.707069 182.342 62.2158)" fill="#606060"/>
<rect width="6.04025" height="13.7278" rx="3.02013" transform="matrix(-0.707144 0.707069 -0.707144 -0.707069 192.576 187.999)" fill="#606060"/>
<rect width="6.04025" height="13.7278" rx="3.02013" transform="matrix(-0.707144 0.707069 -0.707144 -0.707069 62.4863 57.9355)" fill="#606060"/>
</svg>
