<svg width="248" height="205" viewBox="0 0 248 205" fill="none" xmlns="http://www.w3.org/2000/svg">
<circle cx="126.758" cy="126.752" r="120.616" fill="#3A4967"/>
<circle cx="121.248" cy="121.245" r="120.616" fill="#D6DCEC"/>
<circle cx="121.249" cy="121.245" r="111.803" fill="#ADB6CB"/>
<path d="M186.242 124.891C186.242 159.976 157.8 188.418 122.715 188.418C101.3 188.418 82.3606 177.823 70.8523 161.588C61.4109 150.501 55.7129 136.128 55.7129 120.424L59.187 124.891C59.187 138.562 63.5053 151.224 70.8523 161.588C82.5047 175.272 99.8589 183.951 119.24 183.951C154.326 183.951 182.768 155.509 182.768 120.424L186.242 124.891Z" fill="#3A4967"/>
<path d="M122.715 165.588C108.631 165.588 96.2183 158.434 88.912 147.562C82.4641 140.361 78.5431 130.851 78.5431 120.424C78.5431 97.9475 98.7491 80.7193 121.226 80.7193L124.7 85.1861C102.223 85.1861 82.0172 102.414 82.0172 124.891C82.0172 133.284 84.5579 141.083 88.912 147.562C96.3638 155.884 107.19 161.121 119.24 161.121L122.715 165.588Z" fill="#3A4967"/>
<path d="M166.39 75.581L124.7 96.6011L121.226 92.1344L162.915 71.1143L166.39 75.581Z" fill="#3A4967"/>
<path d="M119.24 183.951C154.326 183.951 182.768 155.508 182.768 120.423H159.938C159.938 142.9 141.717 161.12 119.24 161.12C96.7639 161.12 78.5431 142.9 78.5431 120.423C78.5431 97.9467 98.7491 80.7185 121.226 80.7185V92.1336L162.916 71.1135L121.226 47.4658V57.8883C86.1403 57.8883 55.7129 85.3379 55.7129 120.423C55.7129 155.508 84.1551 183.951 119.24 183.951Z" fill="#F9FBFF"/>
<path d="M97.4531 135.505V130.017L107.935 121.346C108.63 120.77 109.224 120.231 109.718 119.727C110.221 119.215 110.605 118.689 110.871 118.15C111.145 117.61 111.282 117.011 111.282 116.353C111.282 115.63 111.127 115.013 110.816 114.5C110.514 113.988 110.093 113.595 109.553 113.321C109.014 113.037 108.392 112.895 107.688 112.895C106.983 112.895 106.361 113.037 105.822 113.321C105.291 113.604 104.88 114.02 104.587 114.569C104.294 115.118 104.148 115.785 104.148 116.572H96.9043C96.9043 114.596 97.3479 112.895 98.2351 111.468C99.1222 110.042 100.375 108.944 101.994 108.176C103.613 107.408 105.511 107.023 107.688 107.023C109.938 107.023 111.886 107.385 113.532 108.107C115.188 108.821 116.463 109.827 117.36 111.125C118.265 112.424 118.718 113.947 118.718 115.694C118.718 116.773 118.494 117.848 118.046 118.918C117.598 119.979 116.793 121.154 115.631 122.444C114.47 123.734 112.819 125.27 110.678 127.054L108.044 129.249V129.413H119.02V135.505H97.4531Z" fill="#293E67"/>
<path d="M121.551 131.114V125.188L132.856 107.408H138.234V115.31H135.16L129.069 124.968V125.188H145.752V131.114H121.551ZM135.215 135.505V129.304L135.38 126.724V107.408H142.514V135.505H135.215Z" fill="#293E67"/>
<rect x="117.943" y="22.1094" width="6.05831" height="13.7689" rx="3.02916" fill="#3E4C68"/>
<rect x="21.8379" y="124.273" width="6.05831" height="13.7689" rx="3.02916" transform="rotate(-90 21.8379 124.273)" fill="#3E4C68"/>
<rect x="206.342" y="124.273" width="6.05831" height="13.7689" rx="3.02916" transform="rotate(-90 206.342 124.273)" fill="#3E4C68"/>
<rect x="53.0156" y="193.487" width="6.05831" height="13.7689" rx="3.02916" transform="rotate(-135 53.0156 193.487)" fill="#3E4C68"/>
<rect x="183.48" y="63.0225" width="6.05831" height="13.7689" rx="3.02916" transform="rotate(-135 183.48 63.0225)" fill="#3E4C68"/>
<rect x="193.764" y="189.204" width="6.05831" height="13.7689" rx="3.02916" transform="rotate(135 193.764 189.204)" fill="#3E4C68"/>
<rect x="63.3047" y="58.7402" width="6.05831" height="13.7689" rx="3.02916" transform="rotate(135 63.3047 58.7402)" fill="#3E4C68"/>
</svg>
