<svg width="23" height="22" viewBox="0 0 23 22" fill="none" xmlns="http://www.w3.org/2000/svg">
<path d="M14.9159 12.2936C14.6639 12.2048 14.4801 12.1577 14.3016 12.4295C14.1178 12.7013 13.5928 13.3181 13.4353 13.4958C13.2777 13.6788 13.115 13.6997 12.8419 13.5638C11.2755 12.7841 10.0335 11.8498 9.11927 10.3231C8.96175 10.0513 9.10352 9.90495 9.24004 9.76905C9.49001 9.52021 9.73956 9.21823 9.89253 8.90083C10.2463 8.16688 9.4258 6.95323 9.05627 6.34021C8.77143 5.65159 7.6522 5.70268 7.18705 6.20431C6.93502 6.47611 6.23145 7.1347 6.23145 8.47801C6.23145 12.0461 11.4654 16.6456 15.3045 16.0936C15.8295 16.0152 16.9217 15.435 17.1527 14.7973C17.3785 14.1596 17.3785 13.616 17.3102 13.5011C16.9683 12.925 15.4054 12.4764 14.9159 12.2936Z" fill="#FBFBFC"/>
<path fill-rule="evenodd" clip-rule="evenodd" d="M11.75 22C17.8251 22 22.75 17.0751 22.75 11C22.75 4.92487 17.8251 0 11.75 0C5.67487 0 0.75 4.92487 0.75 11C0.75 13.0173 1.29304 14.9078 2.24093 16.5333L0.75 22L6.21673 20.5091C7.84218 21.457 9.73267 22 11.75 22ZM11.75 2.00001C6.79039 1.99482 2.75 6.03171 2.75 10.9922C2.75 12.8605 3.3645 14.5512 4.33915 16.1188L3.43032 19.4396L6.83713 18.5471C8.33682 19.4509 9.9784 20 11.7448 20H11.75C16.7096 20 20.75 15.9631 20.75 11.0078C20.7606 6.09397 16.6608 2.00001 11.75 2.00001Z" fill="#FBFBFC"/>
</svg>
