<svg width="40" height="40" viewBox="0 0 40 40" fill="none" xmlns="http://www.w3.org/2000/svg">
<path d="M36.6667 3.33333H3.33333V11.6667H0V0H40V11.6667H36.6667V3.33333Z" fill="#F58D10"/>
<path d="M3.33333 28.3333V36.6667H36.6667V28.3333H40V40H0V28.3333H3.33333Z" fill="#F58D10"/>
<path d="M0.333984 26.5379V13.3335H8.38578V15.0485H2.29304V19.0717H7.80884V20.7803H2.29304V26.5379H0.333984Z" fill="#0250EE"/>
<path d="M16.2014 22.4309V16.6346H18.1034V26.5379H16.2394V24.8229H16.138C15.914 25.3515 15.5547 25.7921 15.0602 26.1446C14.5699 26.4927 13.9592 26.6668 13.228 26.6668C12.6024 26.6668 12.0487 26.5271 11.5669 26.2477C11.0893 25.9641 10.7131 25.545 10.4384 24.9905C10.1678 24.436 10.0326 23.7504 10.0326 22.9338V16.6346H11.9283V22.7016C11.9283 23.3765 12.1121 23.9138 12.4798 24.3135C12.8476 24.7133 13.3252 24.9131 13.9127 24.9131C14.2677 24.9131 14.6206 24.8229 14.9715 24.6423C15.3265 24.4618 15.6202 24.1889 15.8527 23.8235C16.0894 23.4581 16.2056 22.9939 16.2014 22.4309Z" fill="#0250EE"/>
<path d="M22.5462 13.3335V26.5379H20.6505V13.3335H22.5462Z" fill="#0250EE"/>
<path d="M26.9921 13.3335V26.5379H25.0964V13.3335H26.9921Z" fill="#0250EE"/>
<path d="M31.0576 13.3335L34.1642 18.4979H34.2656L37.3722 13.3335H39.642L35.597 19.9357L39.6673 26.5379H37.3849L34.2656 21.4444H34.1642L31.0449 26.5379H28.7625L32.9025 19.9357L28.7879 13.3335H31.0576Z" fill="#0250EE"/>
</svg>
