<svg width="20" height="20" viewBox="0 0 14 14" fill="none" xmlns="http://www.w3.org/2000/svg">
<path d="M2.46492 1.05022C2.0744 0.659693 1.44123 0.659693 1.05071 1.05022C0.660182 1.44074 0.660181 2.07391 1.05071 2.46443L5.58623 6.99996L1.05071 11.5355C0.660182 11.926 0.66018 12.5591 1.0507 12.9497C1.44123 13.3402 2.07439 13.3402 2.46492 12.9497L7.00044 8.41418L11.5359 12.9497C11.9265 13.3402 12.5596 13.3402 12.9501 12.9497C13.3407 12.5591 13.3407 11.926 12.9501 11.5355L8.41465 6.99996L12.9502 2.46443C13.3407 2.0739 13.3407 1.44074 12.9501 1.05021C12.5596 0.659692 11.9265 0.659694 11.5359 1.05022L7.00044 5.58575L2.46492 1.05022Z" fill="#0250EE"/>
</svg>
