<svg width="28" height="28" viewBox="0 0 28 28" fill="none" xmlns="http://www.w3.org/2000/svg">
<path fill-rule="evenodd" clip-rule="evenodd" d="M14.7586 2.48699C14.276 2.28168 13.7253 2.28168 13.2427 2.48699L8.28759 4.59577C8.28017 4.59884 8.27278 4.60198 8.26543 4.6052L3.44254 6.65771C2.76844 6.94459 2.33398 7.5847 2.33398 8.29108V19.7084C2.33398 20.4147 2.76838 21.0549 3.44254 21.3418L13.2425 25.5124C13.725 25.7175 14.2759 25.7177 14.7583 25.5126L24.5587 21.3418C25.2331 21.0549 25.6673 20.4146 25.6673 19.7084V8.29108C25.6673 7.58483 25.233 6.94465 24.5588 6.65772L14.7586 2.48699ZM8.75072 6.84368L6.01443 8.00818L14.0005 11.4069L16.7368 10.2424L8.75072 6.84368ZM18.084 11.5029V14.5583C18.084 15.1752 18.6063 15.6754 19.2507 15.6754C19.895 15.6754 20.4173 15.1752 20.4173 14.5583V10.5253C20.4173 10.5201 20.4173 10.515 20.4172 10.5099L23.334 9.26856V19.4181L14.8755 23.0177V12.8683L18.084 11.5029ZM19.5784 9.03309C19.4936 8.97959 19.4036 8.93227 19.3088 8.89194L11.6233 5.62117L14.0007 4.60942L21.9868 8.00814L19.5784 9.03309ZM13.1255 12.8683V23.0176L4.66732 19.418V9.26865L13.1255 12.8683Z" fill="#080A0F"/>
</svg>
