<svg width="25" height="24" viewBox="0 0 25 24" fill="none" xmlns="http://www.w3.org/2000/svg">
<path fill-rule="evenodd" clip-rule="evenodd" d="M22.2364 5.16441C22.2957 4.80892 22.1591 4.44905 21.8788 4.22243C21.5986 3.99582 21.2181 3.93753 20.8829 4.06986L1.88288 11.5699C1.46089 11.7364 1.20391 12.1662 1.25688 12.6168C1.30986 13.0673 1.65951 13.4258 2.10862 13.49L8.25004 14.3673V19C8.25004 19.4053 8.49462 19.7704 8.86936 19.9247C9.2441 20.079 9.6749 19.9918 9.96021 19.704L12.6222 17.0189L18.1854 20.8253C18.4672 21.0181 18.8279 21.0538 19.142 20.92C19.4562 20.7861 19.6803 20.5012 19.7364 20.1644L22.2364 5.16441ZM10.9441 15.8708L10.25 15.3959V16.5709L10.9441 15.8708ZM13.0557 14.8921C13.0627 14.8968 13.0697 14.9016 13.0766 14.9065L18.0213 18.2897L19.869 7.20373L11.0002 13.4858L13.0486 14.8874C13.051 14.8889 13.0533 14.8905 13.0557 14.8921ZM6.12888 12.044L13.914 8.97089L8.9971 12.4537L6.12888 12.044Z" fill="#FBFBFC"/>
</svg>
